<?xml version="1.0" encoding="UTF-8" standalone="no"?>
<!-- Created with Inkscape (http://www.inkscape.org/) -->

<svg
   version="1.1"
   id="svg824"
   width="72.879204"
   height="65.004471"
   viewBox="0 0 72.879204 65.004471"
   sodipodi:docname="json.svg"
   inkscape:version="1.1 (c68e22c387, 2021-05-23)"
   xmlns:inkscape="http://www.inkscape.org/namespaces/inkscape"
   xmlns:sodipodi="http://sodipodi.sourceforge.net/DTD/sodipodi-0.dtd"
   xmlns="http://www.w3.org/2000/svg"
   xmlns:svg="http://www.w3.org/2000/svg">
  <defs
     id="defs828" />
  <sodipodi:namedview
     id="namedview826"
     pagecolor="#ffffff"
     bordercolor="#666666"
     borderopacity="1.0"
     inkscape:pageshadow="2"
     inkscape:pageopacity="0.0"
     inkscape:pagecheckerboard="0"
     showgrid="false"
     inkscape:zoom="3.555"
     inkscape:cx="20.112518"
     inkscape:cy="27.707454"
     inkscape:window-width="1600"
     inkscape:window-height="837"
     inkscape:window-x="-8"
     inkscape:window-y="-8"
     inkscape:window-maximized="1"
     inkscape:current-layer="g932" />
  <g
     inkscape:groupmode="layer"
     inkscape:label="Image"
     id="g830"
     transform="translate(-63.322182,-72.513967)">
    <g
       id="g932">
      <text
         xml:space="preserve"
         style="font-style:normal;font-weight:normal;font-size:40px;line-height:1.25;font-family:sans-serif;fill:#000000;fill-opacity:1;stroke:none"
         x="113.36146"
         y="135.86497"
         id="text22062"><tspan
           sodipodi:role="line"
           id="tspan22060"
           x="113.36146"
           y="135.86497" /></text>
      <g
         aria-label="{}"
         transform="scale(0.98520614,1.015016)"
         id="text3277"
         style="font-size:66.2581px;line-height:1.25;fill:#0000ff;stroke:#000000;stroke-width:1.03528">
        <path
           d="m 95.209874,134.97403 h -4.852888 q -5.791113,0 -9.414603,-3.23526 -3.591138,-3.2029 -3.591138,-9.28519 v -4.82054 q 0,-5.46758 -2.685265,-8.54108 -2.685265,-3.10585 -8.217557,-3.10585 h -1.649982 v -5.047 h 1.649982 q 5.532292,0 8.217557,-3.073498 2.685265,-3.105849 2.685265,-8.573436 V 84.47164 q 0,-6.082287 3.591138,-9.285193 3.62349,-3.235259 9.414603,-3.235259 h 4.852888 v 4.464657 h -3.688195 q -4.399952,0 -6.405812,2.038214 -1.973508,2.038213 -1.973508,6.567575 v 5.661703 q 0,4.49701 -2.49115,7.570506 -2.491149,3.041147 -6.923454,4.820537 v 0.77646 q 4.432305,1.77939 6.923454,4.85289 2.49115,3.04114 2.49115,7.53815 v 5.66171 q 0,4.52936 1.973508,6.56757 2.00586,2.03821 6.405812,2.03821 h 3.688195 z"
           id="path826" />
        <path
           d="m 137.72118,105.98611 h -1.64999 q -5.53229,0 -8.21755,3.10585 -2.68527,3.0735 -2.68527,8.54108 v 4.82054 q 0,6.08229 -3.62349,9.28519 -3.59114,3.23526 -9.38225,3.23526 h -4.85289 v -4.46466 h 3.6882 q 4.39995,0 6.37346,-2.03821 2.00586,-2.03821 2.00586,-6.56757 v -5.66171 q 0,-4.49701 2.49115,-7.53815 2.49115,-3.0735 6.92345,-4.85289 v -0.77646 q -4.4323,-1.77939 -6.92345,-4.820537 -2.49115,-3.073496 -2.49115,-7.570506 v -5.661703 q 0,-4.529362 -2.00586,-6.567575 -1.97351,-2.038214 -6.37346,-2.038214 h -3.6882 v -4.464657 h 4.85289 q 5.79111,0 9.38225,3.235259 3.62349,3.202906 3.62349,9.285193 v 4.820536 q 0,5.467587 2.68527,8.573436 2.68526,3.073498 8.21755,3.073498 h 1.64999 z"
           id="path828" />
      </g>
    </g>
  </g>
</svg>
