<?xml version="1.0" encoding="UTF-8" standalone="no"?>
<!-- Created with Inkscape (http://www.inkscape.org/) -->

<svg
   version="1.1"
   id="svg824"
   width="96"
   height="126"
   viewBox="0 0 96 126"
   sodipodi:docname="xls.svg"
   inkscape:version="1.1 (c68e22c387, 2021-05-23)"
   xmlns:inkscape="http://www.inkscape.org/namespaces/inkscape"
   xmlns:sodipodi="http://sodipodi.sourceforge.net/DTD/sodipodi-0.dtd"
   xmlns="http://www.w3.org/2000/svg"
   xmlns:svg="http://www.w3.org/2000/svg">
  <defs
     id="defs828" />
  <sodipodi:namedview
     id="namedview826"
     pagecolor="#ffffff"
     bordercolor="#666666"
     borderopacity="1.0"
     inkscape:pageshadow="2"
     inkscape:pageopacity="0.0"
     inkscape:pagecheckerboard="0"
     showgrid="false"
     inkscape:zoom="3.555"
     inkscape:cx="31.64557"
     inkscape:cy="71.870605"
     inkscape:window-width="1440"
     inkscape:window-height="837"
     inkscape:window-x="-8"
     inkscape:window-y="-8"
     inkscape:window-maximized="1"
     inkscape:current-layer="g932" />
  <g
     inkscape:groupmode="layer"
     inkscape:label="Image"
     id="g830"
     transform="translate(-52.002446,-28)">
    <g
       id="g932">
      <rect
         style="opacity:0.999;fill:none;fill-opacity:1;stroke:#4caf50;stroke-width:2;stroke-linejoin:round;stroke-miterlimit:2;stroke-opacity:1;paint-order:markers fill stroke"
         id="rect10476"
         width="25.579533"
         height="66.357872"
         x="63.553715"
         y="-104.51195"
         transform="scale(1,-1)" />
      <rect
         style="opacity:0.999;fill:none;fill-opacity:1;stroke:#4caf50;stroke-width:2;stroke-linejoin:round;stroke-miterlimit:2;stroke-opacity:1;paint-order:markers fill stroke"
         id="rect10476-9"
         width="25.579533"
         height="66.357872"
         x="87.998795"
         y="-104.51195"
         transform="scale(1,-1)" />
      <path
         style="fill:#4caf50;fill-opacity:1;stroke-width:0.853934"
         d="m 64.416689,150.00271 c -6.308722,-3.00148 -6.122437,-1.22026 -6.122437,-58.541645 0,-47.125532 0.123155,-51.485893 1.529929,-54.167835 2.890263,-5.510133 4.631979,-5.830705 31.686949,-5.832163 l 24.03186,-0.0013 13.37535,12.73837 13.37534,12.73837 -0.002,42.887827 c -8.8e-4,39.161766 -0.13428,43.141236 -1.53129,45.804566 -3.00805,5.7347 -3.67552,5.83087 -40.46842,5.83087 -29.488613,0 -33.123653,-0.14764 -35.875923,-1.45707 z m 69.826781,-6.20718 c 0.788,-0.75048 1.05003,-11.14839 1.05003,-41.66756 V 61.460419 h -10.87528 c -8.71992,0 -11.14779,-0.259539 -12.25031,-1.309553 -1.10251,-1.050013 -1.37503,-3.362265 -1.37503,-11.666918 V 38.126583 H 89.092318 c -15.711512,0 -21.990346,0.275991 -22.75058,1.000021 -1.517065,1.444818 -1.517065,103.224126 0,104.668926 1.506913,1.43515 66.394822,1.43515 67.901732,0 z m -4.2001,-89.23261 c 0,-0.126877 -2.75633,-2.835628 -6.12516,-6.019446 l -6.12516,-5.788759 v 6.019447 6.019446 h 6.12516 c 3.36883,0 6.12516,-0.103809 6.12516,-0.230688 z"
         id="path934" />
      <rect
         style="opacity:0.999;fill:#4caf50;fill-opacity:1;stroke:#007100;stroke-width:1.9857;stroke-linejoin:round;stroke-miterlimit:2;stroke-dasharray:none;stroke-opacity:1;paint-order:markers fill stroke"
         id="rect845"
         width="94.014297"
         height="37.42334"
         x="52.9953"
         y="97.992851" />
      <rect
         style="opacity:0.999;fill:none;fill-opacity:1;stroke:#4caf50;stroke-width:2.11751;stroke-linejoin:round;stroke-miterlimit:2;stroke-opacity:1;paint-order:markers fill stroke"
         id="rect7931"
         width="50.024605"
         height="13.447116"
         x="63.553715"
         y="38.154079" />
      <rect
         style="opacity:0.999;fill:none;fill-opacity:1;stroke:#4caf50;stroke-width:2.11751;stroke-linejoin:round;stroke-miterlimit:2;stroke-opacity:1;paint-order:markers fill stroke"
         id="rect7931-4"
         width="50.024605"
         height="13.447116"
         x="63.127983"
         y="51.501476" />
      <rect
         style="opacity:0.999;fill:none;fill-opacity:1;stroke:#4caf50;stroke-width:2.52768;stroke-linejoin:round;stroke-miterlimit:2;stroke-opacity:1;paint-order:markers fill stroke"
         id="rect7931-9"
         width="73.524414"
         height="13.036942"
         x="63.333069"
         y="65.153679" />
      <rect
         style="opacity:0.999;fill:none;fill-opacity:1;stroke:#4caf50;stroke-width:2.52768;stroke-linejoin:round;stroke-miterlimit:2;stroke-opacity:1;paint-order:markers fill stroke"
         id="rect7931-9-5"
         width="73.524414"
         height="13.036942"
         x="63.850647"
         y="78.083496" />
      <g
         aria-label="XLS"
         id="text13112"
         style="font-size:29.3333px;line-height:1.25;font-family:'Times New Roman';-inkscape-font-specification:'Times New Roman, '">
        <path
           d="m 85.354735,114.8525 4.167964,6.21614 q 1.733071,2.57812 2.563799,3.26562 0.845052,0.67318 2.134113,0.74479 v 0.52995 h -8.335928 v -0.52995 q 0.830728,-0.0143 1.231769,-0.17187 0.300781,-0.12891 0.486979,-0.38672 0.20052,-0.27213 0.20052,-0.54427 0,-0.32943 -0.128906,-0.65885 -0.10026,-0.24349 -0.787759,-1.26042 l -3.294267,-4.98437 -4.067704,5.21354 q -0.644531,0.83073 -0.773437,1.11718 -0.128906,0.27214 -0.128906,0.57292 0,0.45833 0.386718,0.75911 0.386719,0.30079 1.475259,0.34375 v 0.52995 h -6.889315 v -0.52995 q 0.730468,-0.0716 1.260415,-0.30078 0.88802,-0.37239 1.690103,-1.0026 0.802082,-0.63021 1.833331,-1.93359 l 4.583328,-5.78645 -3.824214,-5.60026 q -1.561197,-2.27734 -2.649737,-2.97916 -1.08854,-0.71615 -2.506507,-0.75911 v -0.52995 h 8.980458 v 0.52995 q -1.145832,0.043 -1.575519,0.37239 -0.415364,0.32943 -0.415364,0.73047 0,0.52995 0.687499,1.54687 l 2.979163,4.45442 3.451819,-4.36848 q 0.601562,-0.77344 0.730468,-1.05989 0.143229,-0.28646 0.143229,-0.58724 0,-0.30078 -0.171875,-0.52995 -0.214843,-0.30078 -0.54427,-0.41537 -0.329427,-0.1289 -1.360675,-0.14322 v -0.52995 h 6.889315 v 0.52995 q -0.816406,0.043 -1.33203,0.25781 -0.773437,0.32942 -1.417967,0.88802 -0.644531,0.55859 -1.819009,2.0625 z"
           style="fill:#ffffff"
           id="path22450" />
        <path
           d="m 111.37944,120.23791 0.47266,0.10026 -1.66146,5.27083 H 95.151599 v -0.52995 h 0.730467 q 1.23177,0 1.761717,-0.80208 0.300781,-0.45833 0.300781,-2.11979 v -12.53254 q 0,-1.819 -0.401041,-2.27734 -0.558593,-0.6302 -1.661457,-0.6302 h -0.730467 v -0.52995 h 8.794261 v 0.52995 q -1.54687,-0.0143 -2.17708,0.28645 -0.61589,0.30078 -0.84505,0.75912 -0.22917,0.45833 -0.22917,2.1914 v 12.20311 q 0,1.1888 0.22917,1.63281 0.17187,0.30078 0.52994,0.44401 0.35808,0.14323 2.23438,0.14323 h 1.41796 q 2.23438,0 3.13672,-0.32942 0.90234,-0.32943 1.64713,-1.16016 0.74479,-0.84505 1.48958,-2.64974 z"
           style="fill:#ffffff"
           id="path22452" />
        <path
           d="m 125.93151,105.74314 v 6.71744 h -0.52995 q -0.25781,-1.93359 -0.93099,-3.07942 -0.65885,-1.14584 -1.89062,-1.81901 -1.23177,-0.67318 -2.54947,-0.67318 -1.48959,0 -2.46354,0.91667 -0.97396,0.90234 -0.97396,2.06249 0,0.88802 0.61588,1.61849 0.88802,1.07422 4.22526,2.86458 2.72135,1.46094 3.70963,2.2487 1.0026,0.77343 1.53255,1.83333 0.54427,1.05989 0.54427,2.22005 0,2.20572 -1.71875,3.80989 -1.70442,1.58984 -4.39713,1.58984 -0.84505,0 -1.58984,-0.12891 -0.44401,-0.0716 -1.84765,-0.51562 -1.38932,-0.45833 -1.76172,-0.45833 -0.35807,0 -0.57292,0.21484 -0.20052,0.21484 -0.30078,0.88802 h -0.52994 v -6.66015 h 0.52994 q 0.3724,2.09115 1.00261,3.13672 0.6302,1.03125 1.91927,1.71875 1.30338,0.68749 2.85025,0.68749 1.79036,0 2.82161,-0.94531 1.04558,-0.94531 1.04558,-2.23437 0,-0.71614 -0.40105,-1.44661 -0.38671,-0.73047 -1.21744,-1.36068 -0.5586,-0.42968 -3.05078,-1.81901 -2.49218,-1.40364 -3.55208,-2.23437 -1.04557,-0.83073 -1.58984,-1.83333 -0.54427,-1.0026 -0.54427,-2.20573 0,-2.09114 1.60416,-3.59504 1.60417,-1.51823 4.08203,-1.51823 1.54687,0 3.27994,0.75911 0.80209,0.35807 1.13151,0.35807 0.3724,0 0.60157,-0.21484 0.24348,-0.22917 0.38671,-0.90234 z"
           style="fill:#ffffff"
           id="path22454" />
      </g>
    </g>
  </g>
</svg>
