<?xml version="1.0" encoding="UTF-8" standalone="no"?>
<!-- Created with Inkscape (http://www.inkscape.org/) -->

<svg
   version="1.1"
   id="svg6998"
   width="170.6017"
   height="151.52951"
   viewBox="0 0 170.6017 151.52951"
   sodipodi:docname="clear-console.svg"
   inkscape:version="1.1 (c68e22c387, 2021-05-23)"
   xmlns:inkscape="http://www.inkscape.org/namespaces/inkscape"
   xmlns:sodipodi="http://sodipodi.sourceforge.net/DTD/sodipodi-0.dtd"
   xmlns="http://www.w3.org/2000/svg"
   xmlns:svg="http://www.w3.org/2000/svg">
  <defs
     id="defs7002" />
  <sodipodi:namedview
     id="namedview7000"
     pagecolor="#ffffff"
     bordercolor="#666666"
     borderopacity="1.0"
     inkscape:pageshadow="2"
     inkscape:pageopacity="0.0"
     inkscape:pagecheckerboard="0"
     showgrid="false"
     inkscape:zoom="2.6577778"
     inkscape:cx="93.875417"
     inkscape:cy="112.31187"
     inkscape:window-width="1280"
     inkscape:window-height="961"
     inkscape:window-x="-8"
     inkscape:window-y="-8"
     inkscape:window-maximized="1"
     inkscape:current-layer="g7004" />
  <g
     inkscape:groupmode="layer"
     inkscape:label="Image"
     id="g7004">
    <g
       id="g7106"
       transform="translate(-27.337776,-37.030957)">
      <path
         style="fill:#a6cedc"
         d="M 64.97183,188.16719 C 62.322989,187.30207 30.120611,154.77394 28.470522,151.29664 27.491735,149.234 27.103405,146.80569 27.478923,145.09596 28.156857,142.00935 73.647667,95.779098 76.626886,95.149113 78.559926,94.740353 140,155.61298 140,157.93693 c 0,1.33833 -14.66763,16.94641 -24.85798,26.4518 l -4.35798,4.06505 -22.170189,0.097 c -12.193605,0.0534 -22.832514,-0.11926 -23.642021,-0.38364 z m 46.51308,-62.86953 C 94.637793,108.41138 80.394269,93.736699 79.832631,92.687269 c -0.88828,-1.659768 2.276778,-5.22147 24.323109,-27.37127 13.93934,-14.004768 26.55941,-26.105092 28.0446,-26.889607 4.40285,-2.325705 8.21193,-1.764461 12.45505,1.835175 5.07149,4.302383 50.02724,49.447231 51.89371,52.111991 1.84463,2.633584 1.8548,6.961119 0.0245,10.426102 C 194.80803,106.14211 144.84675,156 143.26293,156 c -0.6308,0 -14.93091,-13.81605 -31.77802,-30.70234 z"
         id="path7118" />
      <path
         style="fill:#e29f9a"
         d="M 64.97183,188.16719 C 62.322989,187.30207 30.120611,154.77394 28.470522,151.29664 27.491735,149.234 27.103405,146.80569 27.478923,145.09596 28.156857,142.00935 73.647667,95.779098 76.626886,95.149113 78.559926,94.740353 140,155.61298 140,157.93693 c 0,1.33833 -14.66763,16.94641 -24.85798,26.4518 l -4.35798,4.06505 -22.170189,0.097 c -12.193605,0.0534 -22.832514,-0.11926 -23.642021,-0.38364 z M 111.5359,123.03591 80.583895,92.071826 83.041948,89.391184 C 84.393876,87.916832 96.241751,75.975671 109.37056,62.855271 132.74195,39.498847 133.32659,39 137.32866,39 c 4.01503,0 4.5718,0.483076 31.37945,27.225762 C 195.86218,93.314037 196,93.472943 196,97.693259 196,101.90159 195.79639,102.14002 170.14617,127.9675 155.92657,142.28537 143.88635,154 143.39012,154 142.8939,154 128.5595,140.06616 111.5359,123.03591 Z"
         id="path7116" />
      <path
         style="fill:#e05852"
         d="M 48.511206,170.25 C 29.42367,151.12132 29,150.60726 29,146.57628 29,144.02573 32.337869,140.24863 52.221791,120.29879 64.993777,107.48445 76.134089,97 76.978042,97 78.96511,97 138,156.03256 138,158.01955 c 0,0.82898 -6.19332,7.68872 -13.76294,15.24385 L 110.47411,187 H 87.849645 65.225177 Z M 111.5359,123.03591 80.583895,92.071826 83.041948,89.391184 C 84.393876,87.916832 96.241751,75.975671 109.37056,62.855271 132.74195,39.498847 133.32659,39 137.32866,39 c 4.01503,0 4.5718,0.483076 31.37945,27.225762 C 195.86218,93.314037 196,93.472943 196,97.693259 196,101.90159 195.79639,102.14002 170.14617,127.9675 155.92657,142.28537 143.88635,154 143.39012,154 142.8939,154 128.5595,140.06616 111.5359,123.03591 Z"
         id="path7114" />
      <path
         style="fill:#ed473b"
         d="m 49.501102,169.03243 c -5.627144,-7.66282 -16.494264,-12.22924 -17.460721,-22.71637 5.139916,-10.43982 15.481601,-16.76827 22.51887,-25.76157 6.591872,-6.80442 13.320909,-13.50989 20.690762,-19.47951 10.355713,0.9113 14.116571,12.20849 21.894719,17.37198 13.148588,13.1352 26.497508,26.096 38.855268,39.99161 -7.74253,9.56536 -16.96939,17.75829 -25.52781,26.56143 -15.025021,0 -30.050042,0 -45.075063,0 C 60.098449,179.67748 54.79978,174.35495 49.501102,169.03243 Z M 111.5359,123.03591 C 101.21857,112.71455 90.901228,102.39319 80.583895,92.071826 97.445623,74.524946 114.65186,57.307403 132.25508,40.503852 c 8.71534,-4.153186 15.60088,4.870898 20.95883,10.392123 13.97938,14.010177 28.5516,27.469298 41.54842,42.424648 3.51208,8.876297 -5.47345,15.356677 -10.99748,20.757517 C 170.48398,127.56119 157.40916,141.27137 143.39012,154 132.36697,144.10297 122.08904,133.42199 111.5359,123.03591 Z"
         id="path7112" />
      <path
         style="fill:#2688b4"
         d="M 111.5359,123.03591 80.583895,92.071826 83.041948,89.391184 C 84.393876,87.916832 96.241751,75.975671 109.37056,62.855271 132.74195,39.498847 133.32659,39 137.32866,39 c 4.01503,0 4.5718,0.483076 31.37945,27.225762 C 195.86218,93.314037 196,93.472943 196,97.693259 196,101.90159 195.79639,102.14002 170.14617,127.9675 155.92657,142.28537 143.88635,154 143.39012,154 142.8939,154 128.5595,140.06616 111.5359,123.03591 Z"
         id="path7110" />
      <path
         style="fill:#147eb4"
         d="M 137.45277,146.61022 C 124.3365,131.24187 108.80988,118.18799 95.186522,103.2973 90.585384,100.33026 84.358144,95.476342 86.556458,89.227457 91.025047,81.684036 99.151189,77.376846 104.80543,70.825195 c 9.76959,-9.840749 18.73514,-20.597593 29.84074,-29.011254 6.2925,-2.153507 11.21488,3.822572 14.93215,7.979015 14.157,15.29351 29.81022,29.143706 43.58003,44.803877 1.44463,7.126197 -4.64625,12.461677 -9.31805,16.810247 -13.11152,13.30216 -26.14678,26.70343 -40.03052,39.21038 -2.94463,0.59271 -4.24652,-2.7316 -6.35701,-4.00724 z"
         id="path7108" />
    </g>
  </g>
</svg>
