<?xml version="1.0" encoding="UTF-8" standalone="no"?>
<svg
   version="1.1"
   id="Layer_1"
   x="0px"
   y="0px"
   viewBox="0 0 105.78 122.88"
   style="enable-background:new 0 0 105.78 122.88"
   xml:space="preserve"
   sodipodi:docname="cut-scissor-icon.svg"
   inkscape:version="1.1 (c68e22c387, 2021-05-23)"
   xmlns:inkscape="http://www.inkscape.org/namespaces/inkscape"
   xmlns:sodipodi="http://sodipodi.sourceforge.net/DTD/sodipodi-0.dtd"
   xmlns:xlink="http://www.w3.org/1999/xlink"
   xmlns="http://www.w3.org/2000/svg"
   xmlns:svg="http://www.w3.org/2000/svg"><defs
     id="defs11"><linearGradient
       inkscape:collect="always"
       id="linearGradient10538"><stop
         style="stop-color:#b3b3b3;stop-opacity:1;"
         offset="0"
         id="stop10534" /><stop
         style="stop-color:#b3b3b3;stop-opacity:0;"
         offset="1"
         id="stop10536" /></linearGradient><linearGradient
       inkscape:collect="always"
       id="linearGradient9852"><stop
         style="stop-color:#b3b3b3;stop-opacity:1;"
         offset="0"
         id="stop9848" /><stop
         style="stop-color:#b3b3b3;stop-opacity:0;"
         offset="1"
         id="stop9850" /></linearGradient><linearGradient
       inkscape:collect="always"
       xlink:href="#linearGradient9852"
       id="linearGradient9854"
       x1="33.429482"
       y1="36.668419"
       x2="63.700047"
       y2="12.09242"
       gradientUnits="userSpaceOnUse" /><linearGradient
       inkscape:collect="always"
       xlink:href="#linearGradient10538"
       id="linearGradient10540"
       x1="80.424255"
       y1="23.374781"
       x2="100.1334"
       y2="33.446911"
       gradientUnits="userSpaceOnUse" /></defs><sodipodi:namedview
     id="namedview9"
     pagecolor="#ffffff"
     bordercolor="#666666"
     borderopacity="1.0"
     inkscape:pageshadow="2"
     inkscape:pageopacity="0.0"
     inkscape:pagecheckerboard="0"
     showgrid="false"
     inkscape:zoom="4.9641928"
     inkscape:cx="52.878687"
     inkscape:cy="67.382556"
     inkscape:window-width="1600"
     inkscape:window-height="837"
     inkscape:window-x="-8"
     inkscape:window-y="-8"
     inkscape:window-maximized="1"
     inkscape:current-layer="Layer_1" /><style
     type="text/css"
     id="style2">.st0{fill-rule:evenodd;clip-rule:evenodd;}</style><g
     id="g6"><path
       class="st0"
       d="M85.94,27.52C91.11,16.47,91.02,7.34,86.04,0L55.09,53.71l7.69,13.64L85.94,27.52L85.94,27.52z M19.84,27.52 C14.67,16.47,14.76,7.34,19.74,0l37.45,64.99c1.74,2.25,2.82,4.64,2.96,7.22c0.13,2.41-0.56,3.29-0.95,5.39 c-0.32,1.76-0.14,3.55,1.03,5.4l1.56,1.71c1.4,1.53,2.6,3.37,4.97,3.07c1.58-0.2,2.91-1.54,4.06-3.69c1.48-1.63,3.21-2.9,5.19-3.78 c1.92-0.85,4.07-1.34,6.48-1.45c7.55,0.39,14.08,3.91,18.98,12.41c5.94,9.68,5.26,17.86,0.85,25.18c-3.4,4.46-7.5,6.42-12.17,6.43 c-7.12,0.01-12.9-3.41-17.38-8.73c-2.84-3.37-5.2-7.42-7.68-11.93l-9.03-11.54L55,87.98L19.84,27.52L19.84,27.52z M53.11,67.8 c1.98,0,3.58,1.6,3.58,3.58c0,1.98-1.6,3.58-3.58,3.58c-1.97,0-3.58-1.6-3.58-3.58C49.53,69.4,51.13,67.8,53.11,67.8L53.11,67.8z M75.36,90.03c2.55-3.9,6.85-4.31,10.95-2.87c3.29,1.16,6.13,3.62,8.53,7.32c2.02,3.12,3.59,8.15,3.19,12.51 c-0.78,8.45-8.3,10.05-14.86,6.36c-2.92-1.64-5.24-4.07-6.92-7.37c-1.13-2.23-2.09-4.87-2.45-7.54 C73.4,95.49,73.73,92.51,75.36,90.03L75.36,90.03z M46.56,80.59c-0.17,0.79-0.5,1.59-1.01,2.4l-1.56,1.71 c-1.4,1.53-2.6,3.37-4.97,3.07c-1.58-0.2-2.91-1.54-4.06-3.69c-1.48-1.63-3.21-2.9-5.19-3.78c-1.92-0.85-4.07-1.34-6.48-1.45 c-7.55,0.39-14.08,3.91-18.98,12.41c-5.94,9.68-5.26,17.86-0.85,25.18c3.4,4.46,7.5,6.42,12.17,6.43 c7.12,0.01,12.9-3.41,17.38-8.73c2.84-3.37,5.2-7.42,7.68-11.93l10.63-13.58l-0.35-0.6l-0.11-0.18L46.56,80.59L46.56,80.59z M30.43,90.03c-2.55-3.9-6.85-4.31-10.95-2.87c-3.29,1.16-6.13,3.62-8.53,7.32C8.93,97.6,7.36,102.63,7.77,107 c0.78,8.45,8.3,10.05,14.86,6.36c2.92-1.64,5.24-4.07,6.92-7.37c1.13-2.23,2.09-4.87,2.45-7.54 C32.39,95.49,32.05,92.51,30.43,90.03L30.43,90.03z"
       id="path4" /></g><path
     style="opacity:0.999;fill:#0066ff;stroke:#000001;stroke-width:0.123;stroke-linejoin:round;paint-order:markers fill stroke"
     d="M 56.06,90.68 60.23,83"
     id="path896" /><path
     style="opacity:0.999;fill:#cccccc;stroke:#000001;stroke-width:0.123;stroke-linejoin:round;paint-order:markers fill stroke"
     d="M 56.06,90.68 60.23,83"
     id="path931" /><path
     style="opacity:0.999;fill:#0000ff;stroke:#cccccc;stroke-width:0.123;stroke-linejoin:round;paint-order:markers fill stroke"
     d="M 56.06,90.68 60.23,83"
     id="path933" /><path
     style="opacity:0.999;fill:#0000ff;stroke:#cccccc;stroke-width:0.0247774;stroke-linejoin:round;paint-order:markers fill stroke;stroke-opacity:1;fill-opacity:1"
     d="M 12.791202,122.49403 C 8.5087742,121.59415 4.6243147,118.60377 2.6663152,114.69956 -0.21148082,108.96129 -0.61649239,103.94522 1.3119046,97.925157 2.3950991,94.543645 5.0051869,89.920389 7.607949,86.772954 c 3.279436,-3.965715 7.760271,-6.584429 12.843811,-7.506251 5.668994,-1.027985 12.087119,1.457986 14.973548,5.799794 0.513348,0.772186 1.228359,1.627901 1.588911,1.901588 1.400407,1.063015 3.12507,1.196512 4.497756,0.348146 1.046394,-0.646707 4.209154,-4.259692 4.634857,-5.294637 0.212526,-0.516687 0.431737,-0.938493 0.487134,-0.937349 0.12345,0.0026 4.431738,7.311898 4.431738,7.518788 0,0.08132 -2.355791,3.158469 -5.235089,6.838113 -4.08387,5.219044 -5.572956,7.286974 -6.77151,9.403774 -5.414109,9.56202 -10.05084,14.28157 -16.366423,16.65875 -2.894675,1.08955 -7.322032,1.53238 -9.90148,0.99036 z m 6.06182,-7.55055 c 5.015291,-1.2849 8.676946,-4.48495 11.174403,-9.76573 3.893568,-8.232806 2.413273,-16.1469 -3.436999,-18.375226 -1.507416,-0.574164 -4.764181,-0.530924 -6.647607,0.08826 -4.072589,1.338881 -7.709149,4.694401 -9.967664,9.197345 -3.1420028,6.264411 -3.1348574,13.299551 0.01698,16.718891 2.097487,2.2755 5.302167,3.04819 8.860887,2.13646 z"
     id="path7771" /><path
     style="opacity:0.999;fill:#0000ff;stroke:#cccccc;stroke-width:0.0247774;stroke-linejoin:round;paint-order:markers fill stroke"
     d="m 86.620326,122.47241 c -5.241352,-0.96466 -9.841515,-3.78552 -13.731379,-8.42019 -1.796461,-2.14044 -4.221792,-5.76684 -6.355926,-9.5035 -1.084013,-1.898 -2.697598,-4.15251 -5.862735,-8.191454 -2.401891,-3.064984 -4.367074,-5.606995 -4.367074,-5.648912 0,-0.04192 0.890583,-1.72517 1.979073,-3.740561 l 1.979073,-3.664348 1.999419,2.091392 c 2.220168,2.322296 2.92404,2.698725 4.581496,2.450174 1.267633,-0.190093 2.411602,-1.091623 3.479065,-2.741752 1.498955,-2.317147 4.061721,-4.145439 7.359468,-5.250286 6.583465,-2.205663 14.928439,0.494061 20.138509,6.51511 2.623385,3.031728 5.594155,8.211472 6.729045,11.732534 1.10475,3.427573 1.37273,6.792663 0.80169,10.067203 -0.40502,2.32261 -0.90759,3.80088 -2.1537,6.335 -0.86022,1.74936 -1.30204,2.37072 -2.6598,3.74068 -1.878098,1.89496 -3.843306,3.14174 -6.104672,3.87296 -1.990316,0.64357 -5.403684,0.79911 -7.811552,0.35595 z m 6.39513,-7.74258 c 1.509736,-0.5733 3.225248,-2.14073 3.980537,-3.63694 0.87777,-1.73886 1.28897,-4.10754 1.135457,-6.54069 -0.64457,-10.216206 -8.351468,-18.659931 -16.589402,-18.175454 -3.070501,0.180578 -5.351976,1.721419 -6.782373,4.580615 -0.97242,1.943752 -1.202594,3.254786 -1.077628,6.137981 0.223876,5.165248 2.345315,10.001358 5.973612,13.617678 1.695734,1.69014 2.206381,2.06561 4.049655,2.97767 1.160082,0.57402 2.698461,1.17529 3.418618,1.33617 1.791194,0.40013 4.402247,0.26849 5.891524,-0.29703 z"
     id="path7810" /><path
     style="opacity:0.999;fill:url(#linearGradient9854);fill-opacity:1;stroke:#cccccc;stroke-width:0.0247774;stroke-linejoin:round;stroke-opacity:1;paint-order:markers fill stroke"
     d="M 55.526989,89.023871 C 55.292735,88.411729 47.135085,74.204432 37.398876,57.452098 24.984465,36.091592 19.453216,26.391586 18.881629,24.978885 16.087943,18.074177 15.421059,12.071684 16.840447,6.6065925 17.224072,5.1295183 18.848425,1.4484104 19.472986,0.64073539 19.729743,0.30869989 21.477148,3.2620818 38.065999,32.065783 c 10.070292,17.48534 18.880999,32.68862 19.579348,33.785066 1.442821,2.265309 1.979221,3.553043 2.289785,5.497103 0.23829,1.49164 0.181375,2.028313 -0.530135,4.9988 -0.26538,1.107935 -0.482626,2.334606 -0.482771,2.725936 -2.02e-4,0.737298 0.37064,2.256552 0.8135,3.332111 0.2442,0.593083 0.176751,0.7644 -1.605331,4.077539 -1.023131,1.902144 -1.931621,3.502561 -2.018866,3.556481 -0.08724,0.05392 -0.350286,-0.402808 -0.58454,-1.014948 z M 54.550206,74.765218 c 0.774935,-0.323788 1.897166,-1.544623 2.076432,-2.258874 0.254468,-1.013879 -0.02562,-2.642837 -0.579226,-3.368647 -1.462328,-1.91721 -4.612087,-1.809508 -5.992382,0.2049 -0.410725,0.599414 -0.500146,0.972315 -0.500146,2.085714 0,1.208718 0.06611,1.437477 0.609374,2.108702 1.130319,1.396545 2.838327,1.874842 4.385948,1.228205 z"
     id="path9690" /><path
     style="opacity:0.999;fill:url(#linearGradient10540);fill-opacity:1;stroke:#cccccc;stroke-width:0.0247774;stroke-linejoin:round;stroke-opacity:1;paint-order:markers fill stroke"
     d="M 62.491133,66.553893 C 62.324194,66.2895 60.628067,63.308379 58.721963,59.929179 l -3.465643,-6.144 0.432499,-0.80577 C 55.926694,52.536235 62.846762,40.501934 71.066748,26.236517 85.848297,0.58380381 86.01603,0.30438189 86.363468,0.75402625 87.03057,1.6173672 88.310504,4.450162 88.805922,6.159747 c 1.632513,5.633461 0.877053,12.368764 -2.19145,19.537865 -0.499082,1.16603 -20.984698,36.754215 -23.46011,40.75556 l -0.359702,0.581436 z"
     id="path9729" /></svg>
