<?xml version="1.0" encoding="UTF-8" standalone="no"?>
<!-- Created with Inkscape (http://www.inkscape.org/) -->

<svg
   version="1.1"
   id="svg60852"
   width="179.35138"
   height="178.32941"
   viewBox="0 0 179.35138 178.32941"
   sodipodi:docname="debug-sandbox.svg"
   inkscape:version="1.1 (c68e22c387, 2021-05-23)"
   xmlns:inkscape="http://www.inkscape.org/namespaces/inkscape"
   xmlns:sodipodi="http://sodipodi.sourceforge.net/DTD/sodipodi-0.dtd"
   xmlns="http://www.w3.org/2000/svg"
   xmlns:svg="http://www.w3.org/2000/svg">
  <defs
     id="defs60856" />
  <sodipodi:namedview
     id="namedview60854"
     pagecolor="#ffffff"
     bordercolor="#666666"
     borderopacity="1.0"
     inkscape:pageshadow="2"
     inkscape:pageopacity="0.0"
     inkscape:pagecheckerboard="0"
     showgrid="false"
     inkscape:zoom="1.6519337"
     inkscape:cx="17.252508"
     inkscape:cy="70.523411"
     inkscape:window-width="1600"
     inkscape:window-height="837"
     inkscape:window-x="-8"
     inkscape:window-y="-8"
     inkscape:window-maximized="1"
     inkscape:current-layer="g60960" />
  <g
     inkscape:groupmode="layer"
     inkscape:label="Image"
     id="g60858">
    <g
       id="g60960"
       transform="translate(-1.2107026,-0.30267569)">
      <path
         style="fill:#dd519a"
         d="M 9.7958054,176.29316 C 5.87408,173.76617 2.3524779,169.59232 1.3081077,165.07043 1.4345713,116.26606 0.94077532,67.455143 1.6560443,18.656095 0.8556954,10.75649 5.4810681,0.75559502 14.578946,1.1662938 54.17301,0.06299718 93.802099,0.79039982 133.41019,0.61996999 c 12.74396,0.40681121 25.67303,-0.68488258 38.29253,1.29518531 8.55061,3.8774914 8.41823,14.2516887 8.34647,22.2358397 0.41118,47.307904 0.12566,94.619445 0.19333,141.928995 -2.58586,5.58747 -7.1129,10.50945 -12.97188,12.4671 -51.16507,0 -102.330143,0 -153.495217,0 -1.326539,-0.75131 -2.653079,-1.50262 -3.9796176,-2.25393 z M 160.34116,23.544806 c 7.67354,-10.318958 -7.70638,-10.337869 -14.49164,-9.795442 -23.64897,-0.06406 -47.328163,-0.644524 -70.959842,0.304819 -9.635332,-0.973386 -5.803994,13.762048 2.640052,10.005058 27.12202,0.622241 54.29499,0.953621 81.40239,-0.268001 l 1.40904,-0.246439 z"
         id="path60972" />
      <path
         style="fill:#6c6c6c"
         d="M 9.7958054,176.29316 C 0.69556504,171.59314 0.76899875,161.25935 1.3281303,152.48792 1.3908692,106.3534 0.91579413,60.186058 1.7718087,14.073429 2.4163472,1.4606632 15.806515,-0.25658534 25.715654,0.90201378 70.405127,0.24709246 115.10787,0.62988814 159.79634,0.81929836 c 8.49912,-0.60661055 19.0425,1.89282904 19.64965,12.22426764 1.26142,16.577251 0.49188,33.283614 0.80569,49.915395 0.079,34.373658 -0.0583,68.747349 -0.009,103.121029 -3.15972,6.87862 -9.86176,13.74891 -18.021,12.4671 -49.48203,0 -98.964065,0 -148.446097,0 -1.326539,-0.75131 -2.653078,-1.50262 -3.9796176,-2.25393 z M 170.37848,168.5066 c 6.7647,-6.68199 0.9275,-19.42756 2.80457,-28.38851 -0.13587,-33.34604 -0.27175,-66.692068 -0.40763,-100.0381 -54.33333,0 -108.666665,0 -162.9999968,0 -0.051856,43.083052 -0.6937669,86.16854 -0.040535,129.25 20.5164028,2.06653 41.1921138,0.72231 61.7756158,1.19935 31.909656,-0.0956 63.868126,0.67029 95.743836,-0.79605 l 1.63667,-0.41789 z M 160.34116,23.544806 c 7.43758,-10.60203 -10.13603,-10.722038 -16.70882,-9.802898 -23.90267,0.01975 -47.90723,-0.884753 -71.741954,0.616807 -7.685519,5.791485 3.001842,13.179179 9.453702,9.785981 26.318492,0.453255 52.726512,1.062253 78.997072,-0.59989 z"
         id="path60970"
         sodipodi:nodetypes="cccccccccccccccccccscccccs" />
      <path
         style="fill:#4f1c35"
         d="M 12.461648,177.10793 C 2.1963689,172.37352 0.82457746,161.14039 1.540023,151.18986 1.246523,108.66098 0.94419221,66.118742 1.6382378,23.593984 1.5952668,15.961013 2.3860018,7.5226885 9.2235886,2.7918278 10.895262,-0.46100408 14.470695,0.78889112 17.429347,0.57998962 H 170.17914 c 3.90616,4.17337698 9.14917,7.98904178 9.10472,14.31179838 1.82095,26.548427 0.63255,53.211102 0.99191,79.805187 -0.3216,23.161015 0.75408,46.397025 -1.0671,69.505735 -0.93056,9.64106 -11.14026,14.7739 -20.03042,13.88065 -41.91801,0.88917 -83.860321,0.31614 -125.785906,0.11365 -6.96703,-0.26571 -14.055469,0.15019 -20.930696,-1.08908 z M 171.37105,169.5119 c 3.66949,-1.14763 2.96713,-4.54916 2.90437,-7.62095 V 38.57999 H 8.2754232 v 133 c 51.2589278,-0.13958 102.5245068,0.35085 153.7780468,-0.37584 3.09408,-0.30638 6.61331,0.12955 9.31758,-1.69225 z m 1.6975,-146.648169 C 175.63927,12.443242 166.87772,5.2205356 156.91664,7.088314 116.87811,6.155472 76.813679,6.6157881 36.76604,6.7369191 28.254898,7.8072341 17.637709,4.977848 10.705331,10.832755 c -1.8872125,5.768973 -6.6320082,20.796019 3.444177,19.301393 52.873687,0.544224 105.750832,0.02479 158.625912,-0.05416 0.0977,-2.40542 0.19542,-4.810839 0.29313,-7.216259 z M 21.275423,19.139007 c -0.873686,-9.4070296 12.525428,-1.216035 5.451586,3.362773 -2.545607,0.279819 -6.468315,0.573424 -5.451586,-3.362773 z m 15.71406,2.82171 c -5.190985,-10.244586 13.658833,-7.648181 5.337332,0.148882 -1.73756,0.341214 -3.659064,0.611749 -5.337332,-0.148882 z m 15.28594,-2.773738 c 0.05897,-10.6582507 13.718714,0.514429 4.785012,3.277899 -2.467318,0.524673 -5.696009,0.170973 -4.785012,-3.277899 z"
         id="path60964"
         sodipodi:nodetypes="cccccccccccccccccccscccccssccccccccc" />
      <path
         style="fill:#0a0709"
         d="M 14.567061,177.95502 C 8.8763256,173.99989 1.3042082,168.49903 1.6860802,160.82731 1.1658548,112.03343 0.91556356,63.219925 1.9293948,14.432116 4.5457195,9.6950752 7.4815925,1.3545651 13.441466,1.295382 64.100395,0.24689882 114.79122,0.36161056 165.4533,1.1950458 c 7.63486,-1.55272416 9.90883,6.2193136 13.58852,11.6994892 1.54501,7.586858 0.6039,16.707902 1.02035,24.905857 0.19241,42.492436 0.59318,85.009068 -0.41172,127.487958 -3.95616,5.69263 -9.4593,13.26668 -17.13427,12.88098 -48.8314,0.55843 -97.677289,0.66405 -146.506482,-0.0888 z M 171.9383,170.02355 c 3.41436,-1.40042 3.80194,-4.29145 3.33159,-7.60499 -0.16482,-41.44619 -0.32964,-82.892381 -0.49447,-124.33857 H 7.7754232 c -0.052441,44.415948 -0.6923517,88.83966 -0.040419,133.25 14.3322608,1.78496 28.9818128,0.78586 43.4360278,1.20055 39.138457,0.0898 78.277078,0.0337 117.415608,0.0495 1.11722,-0.85215 2.23444,-1.70429 3.35166,-2.55644 z m 1.73013,-140.025347 c 1.11151,-7.348361 1.57636,-17.639537 -5.28,-22.2750037 C 154.88729,4.6870769 140.82309,6.0520423 127.06391,5.5997443 92.248292,5.8111268 57.409927,5.0108128 22.61,6.1982149 12.437027,4.425513 6.2498108,13.315444 7.2541576,22.643315 c -2.9512547,11.104422 9.8515374,8.259209 16.7332614,8.718728 47.582227,0.239534 95.177301,0.55576 142.754041,-0.237286 2.26064,-0.307646 4.97333,0.223955 6.92697,-1.126554 z M 21.607294,20.002449 c 0.352709,-10.295704 11.096273,2.000956 2.106088,1.453063 -0.822385,-0.218945 -1.734136,-0.620146 -2.106088,-1.453063 z M 37.459001,18.82999 c 2.296648,-8.703449 10.656481,5.362452 1.143261,2.669363 -1.443119,0.07468 -1.33489,-1.830933 -1.143261,-2.669363 z m 15.816422,0.218615 c 3.242169,-9.9306898 9.362563,7.404321 0.108394,1.256933 z"
         id="path60962"
         sodipodi:nodetypes="cccccccccccsccccccssccccccccccccccccc" />
      <path
         style="opacity:0.999;fill:#ffff00;stroke:#000001;stroke-width:0.0744582;stroke-linejoin:round;paint-order:markers fill stroke"
         d="m 16.041806,169.40519 c -1.831187,-0.11479 -4.214757,-0.35744 -5.296823,-0.53923 L 8.777592,168.53544 V 104.39565 40.255853 h 81.027901 81.027897 l 0.40512,6.266196 c 0.22281,3.446409 0.45306,28.712253 0.51166,56.146321 0.0586,27.43407 0.12072,52.3318 0.13805,55.32829 0.0257,4.43855 -0.1985,5.84078 -1.20973,7.56689 -2.46428,4.20637 2.96564,3.92864 -78.059761,3.99256 -40.28612,0.0318 -74.745736,-0.0361 -76.576923,-0.15092 z"
         id="path899"
         transform="translate(1.2107026,0.30267569)" />
      <path
         style="opacity:0.999;fill:none;fill-opacity:0.545455;stroke:#4c1a90;stroke-width:1.53449;stroke-linecap:square;stroke-linejoin:round;stroke-opacity:1"
         id="path1042"
         sodipodi:type="arc"
         sodipodi:cx="91.711693"
         sodipodi:cy="105.14845"
         sodipodi:rx="79.835999"
         sodipodi:ry="63.443455"
         sodipodi:start="0"
         sodipodi:end="6.1656374"
         sodipodi:open="true"
         sodipodi:arc-type="arc"
         d="M 171.54769,105.14845 A 79.835999,63.443455 0 0 1 94.057494,168.56451 79.835999,63.443455 0 0 1 12.013546,108.87513 79.835999,63.443455 0 0 1 84.682391,41.951391 79.835999,63.443455 0 0 1 170.99676,97.70797" />
      <text
         xml:space="preserve"
         style="font-style:normal;font-weight:normal;font-size:115.625px;line-height:1.25;font-family:sans-serif;fill:#000000;fill-opacity:1;stroke:none;stroke-width:2.89063"
         x="31.302618"
         y="185.86375"
         id="text6518"
         transform="scale(1.2484955,0.80096405)"><tspan
           sodipodi:role="line"
           id="tspan6516"
           style="stroke-width:2.89063"
           x="31.302618"
           y="185.86375">U</tspan></text>
      <path
         style="opacity:0.999;fill:none;fill-opacity:0.545455;stroke:#000000;stroke-width:11.4047;stroke-linecap:round;stroke-linejoin:round;stroke-miterlimit:4;stroke-dasharray:none;stroke-opacity:1"
         d="M 58.198521,85.814508 H 125.90437"
         id="path10443" />
      <path
         style="opacity:0.999;fill:none;fill-opacity:0.545455;stroke:#000000;stroke-width:11.4047;stroke-linecap:round;stroke-linejoin:round;stroke-miterlimit:4;stroke-dasharray:none;stroke-opacity:1"
         d="m 58.198521,80.431937 13.22988,-14.857475 41.635209,0.309527 12.84076,14.547946"
         id="path10544" />
      <path
         style="opacity:0.999;fill:none;fill-opacity:0.545455;stroke:#000000;stroke-width:5.70235;stroke-linecap:round;stroke-linejoin:round;stroke-miterlimit:4;stroke-dasharray:none;stroke-opacity:1"
         d="M 71.428401,65.571335 66.759041,54.737758"
         id="path10659" />
      <path
         style="opacity:0.999;fill:none;fill-opacity:0.545455;stroke:#000000;stroke-width:5.70235;stroke-linecap:round;stroke-linejoin:round;stroke-miterlimit:4;stroke-dasharray:none;stroke-opacity:1"
         d="M 112.49415,65.571335 117.1635,54.737758"
         id="path10659-7" />
      <path
         style="opacity:0.999;fill:none;fill-opacity:0.545455;stroke:#000000;stroke-width:5.70235;stroke-linecap:round;stroke-linejoin:round;stroke-miterlimit:4;stroke-dasharray:none;stroke-opacity:1"
         d="m 129.40639,95.813991 16.73188,-5.881093 0.38912,-16.71466"
         id="path10674" />
      <path
         style="opacity:0.999;fill:none;fill-opacity:0.545455;stroke:#000000;stroke-width:5.70235;stroke-linecap:round;stroke-linejoin:round;stroke-miterlimit:4;stroke-dasharray:none;stroke-opacity:1"
         d="m 128.23904,118.22891 16.73189,5.88108 0.38913,16.71466"
         id="path10674-8" />
      <path
         style="opacity:0.999;fill:none;fill-opacity:0.545455;stroke:#000000;stroke-width:5.70235;stroke-linecap:round;stroke-linejoin:round;stroke-miterlimit:4;stroke-dasharray:none;stroke-opacity:1"
         d="m 128.62816,108.90877 22.95772,-0.61906"
         id="path10676" />
      <path
         style="opacity:0.999;fill:none;fill-opacity:0.545455;stroke:#000000;stroke-width:5.70235;stroke-linecap:round;stroke-linejoin:round;stroke-miterlimit:4;stroke-dasharray:none;stroke-opacity:1"
         d="M 53.918261,95.844134 37.186351,89.963036 36.797231,73.248377"
         id="path10674-5" />
      <path
         style="opacity:0.999;fill:none;fill-opacity:0.545455;stroke:#000000;stroke-width:5.70235;stroke-linecap:round;stroke-linejoin:round;stroke-miterlimit:4;stroke-dasharray:none;stroke-opacity:1"
         d="m 55.085601,118.22891 -16.73191,5.88108 -0.38912,16.71466"
         id="path10674-8-8" />
      <path
         style="opacity:0.999;fill:none;fill-opacity:0.545455;stroke:#000000;stroke-width:5.70235;stroke-linecap:round;stroke-linejoin:round;stroke-miterlimit:4;stroke-dasharray:none;stroke-opacity:1"
         d="m 54.696491,108.93892 -22.95774,-0.61906"
         id="path10676-8" />
      <path
         style="opacity:0.999;fill:#ff0000;fill-opacity:0.545455;stroke-width:0.532543;stroke-linecap:round;stroke-linejoin:round"
         d="m 65.577951,106.68178 c 0,-8.767458 0.0499,-12.354142 0.1108,-7.97041 0.0607,4.38373 0.0607,11.55709 0,15.94083 -0.0607,4.38372 -0.1108,0.79704 -0.1108,-7.97042 z"
         id="path948" />
      <path
         style="opacity:0.999;fill:#ff0000;fill-opacity:1;stroke-width:0.646904;stroke-linecap:round;stroke-linejoin:round"
         d="m 86.704301,144.42513 c -14.33292,-0.75364 -23.46712,-5.29473 -26.95912,-13.40282 -0.95943,-2.22773 -1.02256,-3.4886 -1.19785,-23.92313 l -0.18503,-21.571448 h 33.56603 33.565969 v 20.432388 c 0,17.10581 -0.12706,20.87799 -0.78087,23.16933 -2.59794,9.10586 -11.85202,14.49267 -26.079928,15.18118 -2.156511,0.10437 -4.596621,0.23207 -5.422471,0.28369 -0.82585,0.0519 -3.75387,-0.0243 -6.50671,-0.16916 z"
         id="path1104" />
      <path
         style="opacity:0.999;fill:#0000ff;fill-opacity:1;stroke-width:0.793163;stroke-linecap:round;stroke-linejoin:round"
         d="m 60.947571,78.658703 c 1.42189,-2.120351 3.98094,-5.983782 5.68673,-8.585398 l 3.10147,-4.73021 13.06355,0.342185 c 7.18495,0.188197 17.259739,0.342677 22.388469,0.343281 l 9.32489,0.0011 1.99892,3.065704 c 1.0994,1.686137 3.53348,5.395089 5.40904,8.242118 l 3.41013,5.176416 H 91.846541 58.362281 Z"
         id="path1391" />
      <path
         style="opacity:0.999;fill:#00ffff;fill-opacity:0.55;stroke:none;stroke-width:0.532543;stroke-linecap:round;stroke-linejoin:round;stroke-opacity:1"
         d="m 83.681581,164.20525 c -8.70069,-0.79651 -16.59602,-2.66095 -24.70874,-5.83483 -8.98079,-3.51349 -15.24026,-7.19673 -21.95181,-12.91704 -6.09906,-5.19829 -10.70287,-10.84629 -14.2432,-17.47374 -2.04821,-3.83425 -3.9762,-9.13576 -3.46634,-9.5317 0.2785,-0.21628 93.998619,-26.643597 132.951539,-37.489849 l 6.5178,-1.814847 0.9403,1.476085 c 2.5197,3.955412 4.86123,10.527658 6.08331,17.074765 2.4368,13.054806 -1.90053,28.083006 -11.47946,39.774696 -6.08147,7.42282 -15.21065,14.34257 -24.91721,18.88683 -13.54957,6.3434 -30.463248,9.2469 -45.726189,7.84963 z"
         id="path1396" />
      <path
         style="opacity:0.999;fill:#a05a2c;fill-opacity:0.545455;stroke:#000000;stroke-width:2.28776;stroke-linecap:butt;stroke-linejoin:round;stroke-opacity:1;paint-order:markers fill stroke"
         d="M 18.283791,118.22891 158.68819,77.859634"
         id="path1024" />
    </g>
  </g>
</svg>
