<?xml version="1.0" encoding="UTF-8" standalone="no"?>
<!-- Generator: Adobe Illustrator 19.1.0, SVG Export Plug-In . SVG Version: 6.00 Build 0)  -->

<svg
   version="1.1"
   id="Capa_1"
   x="0px"
   y="0px"
   viewBox="0 0 478.703 478.703"
   style="enable-background:new 0 0 478.703 478.703;"
   xml:space="preserve"
   sodipodi:docname="debug-thread.svg"
   inkscape:version="1.1 (c68e22c387, 2021-05-23)"
   xmlns:inkscape="http://www.inkscape.org/namespaces/inkscape"
   xmlns:sodipodi="http://sodipodi.sourceforge.net/DTD/sodipodi-0.dtd"
   xmlns:xlink="http://www.w3.org/1999/xlink"
   xmlns="http://www.w3.org/2000/svg"
   xmlns:svg="http://www.w3.org/2000/svg"><defs
   id="defs43"><radialGradient
     inkscape:collect="always"
     xlink:href="#linearGradient4516"
     id="radialGradient4518"
     cx="4.0776634"
     cy="12.954054"
     fx="4.0776634"
     fy="12.954054"
     r="11.602655"
     gradientTransform="matrix(45.749679,1.5657623,-0.41875041,20.795127,-164.44192,-36.553629)"
     gradientUnits="userSpaceOnUse" /><linearGradient
     inkscape:collect="always"
     id="linearGradient4516"><stop
       style="stop-color:#000000;stop-opacity:1;"
       offset="0"
       id="stop4512" /><stop
       style="stop-color:#000000;stop-opacity:0;"
       offset="1"
       id="stop4514" /></linearGradient></defs><sodipodi:namedview
   id="namedview41"
   pagecolor="#ffffff"
   bordercolor="#666666"
   borderopacity="1.0"
   inkscape:pageshadow="2"
   inkscape:pageopacity="0.0"
   inkscape:pagecheckerboard="0"
   showgrid="false"
   inkscape:zoom="0.63713826"
   inkscape:cx="145.18042"
   inkscape:cy="391.59475"
   inkscape:window-width="1440"
   inkscape:window-height="837"
   inkscape:window-x="-8"
   inkscape:window-y="-8"
   inkscape:window-maximized="1"
   inkscape:current-layer="Capa_1" />
<path
   style="fill:#42a53c;fill-opacity:1;stroke:url(#radialGradient4518);stroke-width:4.75339;stroke-linecap:round;stroke-linejoin:round;stroke-miterlimit:4;stroke-dasharray:none"
   d="M 10.350997,1.3896359 117.79914,245.81443 1.4828992,478.68616 480.35914,250.77294 Z"
   id="path2461"
   sodipodi:nodetypes="ccccc" />
<g
   id="g10">
</g>
<g
   id="g12">
</g>
<g
   id="g14">
</g>
<g
   id="g16">
</g>
<g
   id="g18">
</g>
<g
   id="g20">
</g>
<g
   id="g22">
</g>
<g
   id="g24">
</g>
<g
   id="g26">
</g>
<g
   id="g28">
</g>
<g
   id="g30">
</g>
<g
   id="g32"
   inkscape:label="g32">
</g>
<g
   id="g34">
</g>
<g
   id="g36">
</g>
<g
   id="g38">
</g>
<g
   id="g8"
   transform="matrix(0.62950807,0,0,0.59671878,181.67041,488.97492)"
   style="fill:#e6e61d;fill-opacity:1">
	<g
   id="g6"
   style="fill:#e6e61d;fill-opacity:1">
		
		
	</g>
</g><path
   style="opacity:0.999;fill:#2e77f4;fill-opacity:1;stroke:#000000;stroke-width:3.15206;stroke-linejoin:round;stroke-opacity:1;paint-order:markers fill stroke"
   d="m 250.309,262.47404 c -2.87497,-15.4477 -6.8868,-22.64536 -12.62339,-22.64768 -2.07944,-8e-4 -10.0267,-2.60273 -17.66055,-5.78199 -7.63387,-3.17927 -15.42246,-5.78049 -17.30799,-5.78049 -1.88554,0 -10.20722,4.07762 -18.49265,9.06138 L 169.16,246.38664 157.76319,236.35358 c -8.66552,-7.62861 -10.87621,-10.6951 -9.22445,-12.79553 1.19477,-1.51935 6.01983,-7.57312 10.72231,-13.45282 l 8.54998,-10.69037 -6.77497,-13.03998 c -3.72623,-7.17198 -7.44075,-15.44792 -8.25447,-18.39099 -1.89354,-6.84842 -4.9487,-8.17166 -25.60556,-11.09024 l -16.96716,-2.39726 v -13.98161 c 0,-15.68567 -1.14023,-14.73387 20.79844,-17.36113 14.80743,-1.77324 19.47214,-4.78016 22.76234,-14.67277 1.53375,-4.61154 4.67487,-11.252894 6.98028,-14.758592 6.37061,-9.68739 5.2604,-14.860405 -5.9391,-27.673367 l -10.13074,-11.590243 11.60385,-10.343808 11.60384,-10.343807 14.23556,8.760566 c 11.38461,7.0061 15.58371,8.577931 20.9673,7.848616 6.07646,-0.823192 30.23461,-8.792241 38.47674,-12.692323 2.8169,-1.332928 5.55853,-9.163019 10.03438,-28.6581103 0.92554,-4.0313646 2.14506,-4.3364967 17.33199,-4.3364967 15.1869,0 16.40643,0.3051321 17.33199,4.3364967 4.49018,19.5575753 7.21744,27.3015943 10.03434,28.4923143 9.80146,4.14313 39.15243,13.427177 42.44922,13.427177 2.10996,0 9.92398,-3.809802 17.36448,-8.466209 l 13.52814,-8.46622 11.49388,9.101129 c 6.32163,5.005606 11.46762,9.899534 11.43552,10.875372 -0.0323,0.975839 -4.46543,6.912364 -9.85189,13.192268 -5.38645,6.279915 -9.79354,12.596662 -9.79354,14.037233 0,1.440567 2.32848,6.710055 5.17438,11.709971 2.84594,4.999915 6.34447,12.273753 7.77456,16.164083 3.43206,9.33625 5.94941,10.90501 21.23231,13.23148 25.17878,3.83291 23.01308,2.10644 22.28804,17.7676 l -0.64193,13.86552 -17.51446,2.55305 c -9.63295,1.40418 -18.64536,3.59496 -20.02756,4.86837 -1.38217,1.27341 -5.15926,7.95274 -8.3935,14.84297 -3.23424,6.8902 -6.96499,14.83344 -8.29059,17.65163 -2.141,4.55182 -1.44819,6.33348 6.20423,15.95505 4.73787,5.95707 9.59952,12.16063 10.80365,13.78571 1.72263,2.32484 -0.35621,4.93106 -9.75232,12.22639 l -11.94164,9.27168 -14.80032,-8.66389 c -17.63928,-10.32578 -13.98158,-10.65805 -57.97048,5.26611 -3.81284,1.38026 -5.18647,4.37225 -7.25678,15.80639 -1.40454,7.75715 -2.9517,15.188 -3.43811,16.51306 -0.60268,1.64172 -6.07376,2.40917 -17.17511,2.40917 h -16.29072 z m 43.50477,-59.03543 c 25.51284,-6.99032 43.99844,-23.61184 51.55253,-46.354 4.37705,-13.17737 4.3881,-21.70909 0.0453,-34.95603 -13.57231,-41.400667 -67.07075,-61.671217 -111.70769,-42.326046 -15.55778,6.742568 -29.73283,19.450068 -36.61189,32.821396 -6.81891,13.25446 -7.5764,36.5392 -1.63938,50.39415 14.40446,33.61496 57.92557,51.49953 98.36111,40.42053 z"
   id="path5846" /></svg>
