<?xml version="1.0" encoding="UTF-8" standalone="no"?>
<!-- Created with Inkscape (http://www.inkscape.org/) -->

<svg
   version="1.1"
   id="svg824"
   width="95.997551"
   height="143.99689"
   viewBox="0 0 95.997551 143.99689"
   sodipodi:docname="empty-file.svg"
   inkscape:version="1.1 (c68e22c387, 2021-05-23)"
   xmlns:inkscape="http://www.inkscape.org/namespaces/inkscape"
   xmlns:sodipodi="http://sodipodi.sourceforge.net/DTD/sodipodi-0.dtd"
   xmlns="http://www.w3.org/2000/svg"
   xmlns:svg="http://www.w3.org/2000/svg">
  <defs
     id="defs828" />
  <sodipodi:namedview
     id="namedview826"
     pagecolor="#ffffff"
     bordercolor="#666666"
     borderopacity="1.0"
     inkscape:pageshadow="2"
     inkscape:pageopacity="0.0"
     inkscape:pagecheckerboard="0"
     showgrid="false"
     inkscape:zoom="3.555"
     inkscape:cx="31.504923"
     inkscape:cy="71.870605"
     inkscape:window-width="1280"
     inkscape:window-height="961"
     inkscape:window-x="-8"
     inkscape:window-y="-8"
     inkscape:window-maximized="1"
     inkscape:current-layer="g932" />
  <g
     inkscape:groupmode="layer"
     inkscape:label="Image"
     id="g830"
     transform="translate(-52.002446,-28)">
    <g
       id="g932">
      <path
         style="fill:#333333;fill-opacity:1"
         d="M 59,170.24845 C 51.790216,166.64676 52.003108,168.78418 52.003108,100 c 0,-56.54942 0.140745,-61.78174 1.748446,-65 3.303073,-6.612018 5.293555,-6.996697 36.212732,-6.998446 L 117.42857,28 132.71429,43.285714 148,58.571429 147.998,110.03571 c -10e-4,46.9931 -0.15346,51.76837 -1.75,54.96429 -3.43769,6.88149 -4.20049,6.99689 -46.24845,6.99689 -33.700404,0 -37.854629,-0.17716 -41,-1.74844 z M 138.8,162.8 c 0.90055,-0.90055 1.2,-13.37778 1.2,-50 V 64 h -12.42857 c -9.96537,0 -12.74001,-0.31144 -14,-1.571429 C 112.31144,61.168582 112,58.393939 112,48.428571 V 36 H 87.2 c -17.955556,0 -25.131183,0.331183 -26,1.2 -1.733744,1.733744 -1.733744,123.86626 0,125.6 1.722142,1.72214 75.87786,1.72214 77.6,0 z M 134,55.72318 c 0,-0.15225 -3.15,-3.402681 -7,-7.22318 l -7,-6.946361 V 48.77682 56 h 7 c 3.85,0 7,-0.124569 7,-0.27682 z"
         id="path934" />
    </g>
  </g>
</svg>
