<?xml version="1.0" encoding="UTF-8" standalone="no"?>
<!-- Created with Inkscape (http://www.inkscape.org/) -->

<svg
   width="51.048653mm"
   height="55.004284mm"
   viewBox="0 0 51.048653 55.004284"
   version="1.1"
   id="svg4527"
   inkscape:version="1.1 (c68e22c387, 2021-05-23)"
   sodipodi:docname="interactive.svg"
   xmlns:inkscape="http://www.inkscape.org/namespaces/inkscape"
   xmlns:sodipodi="http://sodipodi.sourceforge.net/DTD/sodipodi-0.dtd"
   xmlns="http://www.w3.org/2000/svg"
   xmlns:svg="http://www.w3.org/2000/svg">
  <sodipodi:namedview
     id="namedview4529"
     pagecolor="#ffffff"
     bordercolor="#666666"
     borderopacity="1.0"
     inkscape:pageshadow="2"
     inkscape:pageopacity="0.0"
     inkscape:pagecheckerboard="0"
     inkscape:document-units="mm"
     showgrid="false"
     inkscape:zoom="0.65388608"
     inkscape:cx="396.85812"
     inkscape:cy="438.14972"
     inkscape:window-width="1280"
     inkscape:window-height="961"
     inkscape:window-x="-8"
     inkscape:window-y="-8"
     inkscape:window-maximized="1"
     inkscape:current-layer="layer1" />
  <defs
     id="defs4524" />
  <g
     inkscape:label="Layer 1"
     inkscape:groupmode="layer"
     id="layer1">
    <rect
       style="fill:#e6e6e6;fill-opacity:1;stroke:#00cd00;stroke-width:0.0649999;stroke-linecap:round;stroke-linejoin:round"
       id="rect4610"
       width="50.983654"
       height="48.960487"
       x="0.03249995"
       y="0.03249995" />
    <rect
       style="fill:#0000ff;fill-opacity:1;stroke:#00cd00;stroke-width:0.0649999;stroke-linecap:round;stroke-linejoin:round"
       id="rect4898"
       width="50.98365"
       height="10.925067"
       x="0.03249995"
       y="0.03249995" />
    <g
       id="g5882"
       transform="matrix(0.43208053,0,0,0.55218349,-48.39601,-47.518503)">
      <path
         style="fill:#b9b9b9;fill-opacity:1;stroke-width:0.264583"
         d="m 154.61004,145.81832 c -2.97075,-2.23315 -5.19285,-5.76559 -5.9879,-9.51887 -1.87138,-8.83451 3.95953,-17.49841 12.82927,-19.06242 9.62337,-1.69689 18.52083,5.81752 18.52083,15.64189 0,2.88725 -0.40715,4.73358 -1.55438,7.04875 -2.4182,3.68501 -2.98695,1.78485 -1.9139,-0.55558 0.87764,-1.90408 1.60701,-4.79627 1.60701,-6.37234 0,-0.50932 -0.17576,-1.75948 -0.39057,-2.77813 -2.30016,-10.90715 -15.47439,-14.94973 -23.28041,-7.1437 -4.40019,4.40019 -5.38937,11.10083 -2.45225,16.61142 1.03658,1.94483 2.74922,3.87917 4.30732,4.8649 1.33775,0.84632 1.56776,1.22892 1.17734,1.95843 -0.42072,0.78612 -1.11787,0.617 -2.86236,-0.69435 z m 0.69102,-6.40242 c -0.60556,-0.68133 -1.19954,-2.25353 -1.52089,-4.02563 -0.55803,-3.07738 0.52472,-6.57046 2.78603,-8.98797 3.02836,-3.23757 7.16851,-4.21129 11.3129,-2.66067 4.31572,1.61471 7.11683,6.14741 6.7205,10.87494 -0.26429,3.15244 -1.74643,5.33262 -2.65069,3.89908 -0.19974,-0.31665 -0.15296,-0.81756 0.1696,-1.81632 1.06779,-3.3062 0.28215,-6.80775 -2.05089,-9.14079 -4.1767,-4.17671 -11.06932,-2.91522 -13.60325,2.48968 -0.94407,2.01373 -0.98777,5.3659 -0.0934,7.16841 0.68662,1.38389 0.7453,2.27864 0.16406,2.50169 -0.62861,0.24122 -0.78475,0.20295 -1.23392,-0.30242 z"
         id="path5098"
         sodipodi:nodetypes="ssssccscsssssssssssssssss" />
      <path
         style="fill:#333333;fill-opacity:1;stroke-width:0.264583"
         d="m 163.3128,185.14006 c -0.18965,-3.73814 -2.52842,-6.77579 -4.77079,-9.5722 -4.03585,-5.28418 -7.06798,-11.23214 -9.82524,-17.25465 -0.85306,-2.17818 -1.99587,-5.37997 0.55093,-6.90886 2.89675,-1.89528 6.02686,0.49366 7.81182,2.75773 2.71252,2.4782 2.06434,-2.50437 2.25745,-4.15005 0.0766,-5.34307 -0.034,-10.69476 0.25012,-16.03119 -0.24954,-2.98341 2.97423,-5.05299 5.6994,-4.4846 2.97646,0.39427 4.11956,3.7456 3.86237,6.37831 0.38494,2.34815 -1.17117,5.86706 1.21267,7.39456 2.38481,-0.70969 4.67781,0.354 6.19371,2.2819 2.45995,-1.02373 6.91526,-0.74729 7.7336,2.80105 1.48814,1.6117 4.29116,-0.18998 6.05507,1.31083 2.5917,2.04583 1.53591,5.70327 1.7972,8.54284 0.39832,7.2277 -2.14074,14.10518 -3.31912,21.13558 -0.59658,1.88338 0.15511,4.31852 -1.03838,5.8419 -2.8623,0.99175 -6.04491,0.0756 -9.03812,0.45434 -5.00049,-0.0231 -10.02095,0.17183 -15.00754,-0.20299 l -0.25082,-0.0978 z m 23.03914,-2.66323 c 0.73814,-7.1084 3.17857,-13.92648 3.82812,-21.04149 0.1974,-2.96605 0.0772,-5.9397 0.11093,-8.90934 -1.18162,-1.9914 -4.52246,-2.61152 -5.51622,-0.12986 -0.14331,1.25852 -0.34267,5.58749 -2.06422,3.22092 -0.54311,-2.76736 0.98267,-6.77435 -1.84861,-8.55853 -3.3801,-1.17128 -4.72716,2.66911 -4.01142,5.29876 0.50519,1.97819 -2.17307,3.15694 -2.12069,0.58715 -0.46936,-2.5733 1.11925,-6.69277 -2.01975,-7.93828 -2.70682,-0.63245 -4.50638,2.61317 -3.8504,4.9488 -0.23408,0.75578 0.28699,2.27821 -0.46872,2.50443 -2.38882,0.26498 -0.84729,-3.09194 -1.32045,-4.53954 -0.0582,-5.08829 -0.0537,-10.18269 -0.42564,-15.26062 -1.35889,-2.23744 -5.84181,-1.15914 -5.35245,1.64632 -0.0492,9.92594 -0.16341,19.8554 -0.23789,29.78274 -3.09152,-0.23264 -1.39019,-4.96593 -3.90846,-6.42624 -1.71201,-1.91303 -4.20402,-6.26945 -7.14309,-4.4658 -1.27788,2.57837 0.73293,5.17521 1.67206,7.52479 3.03813,6.39679 6.81994,12.49538 11.54777,17.77505 1.32557,1.79781 1.16573,5.74677 4.29012,4.94358 6.21884,0.11266 12.43825,-0.0221 18.65728,-0.0368 l 0.0909,-0.46302 0.0909,-0.46302 z"
         id="path5086" />
      <path
         style="fill:#ffe6d5;stroke:#00cd00;stroke-width:0.0487058;stroke-linecap:round;stroke-linejoin:round"
         d="m 166.37796,183.37079 c -0.72244,-0.13051 -1.4345,-1.06308 -2.04326,-2.67601 -0.67513,-1.78877 -0.76212,-1.92259 -3.2557,-5.00792 -3.88034,-4.80119 -7.02936,-10.05791 -10.20139,-17.02938 -1.12945,-2.48229 -1.35593,-3.48084 -1.04848,-4.62261 0.17864,-0.66342 0.33547,-0.84076 0.91173,-1.03095 1.31899,-0.4353 2.7822,0.42535 4.67387,2.74914 0.67902,0.83414 1.56739,1.85677 1.97415,2.2725 0.73052,0.74665 0.80629,0.94145 1.57261,4.04284 0.25712,1.04061 1.0747,2.04115 1.6679,2.04115 h 0.44582 l 0.13104,-7.58334 c 0.0721,-4.17083 0.1315,-11.06275 0.13207,-15.31537 9.5e-4,-7.21495 0.0259,-7.77287 0.37339,-8.34267 0.82363,-1.35067 3.2554,-1.69882 4.33376,-0.62045 0.48097,0.48097 0.51743,0.66478 0.6641,3.34821 0.0853,1.56162 0.1771,5.86678 0.20387,9.56703 0.0449,6.19782 0.077,6.75607 0.40867,7.08769 0.19799,0.19799 0.52057,0.35998 0.71684,0.35998 0.69698,0 0.83268,-0.41137 0.83268,-2.52423 0,-2.18569 0.24762,-3.12513 1.05032,-3.98482 1.4849,-1.59035 3.44048,-1.29864 4.32318,0.64488 0.30699,0.67591 0.36797,1.32106 0.37161,3.93116 0.004,2.88097 0.0358,3.15402 0.41101,3.52921 0.47412,0.47412 1.08565,0.37713 1.63497,-0.25931 0.31106,-0.36039 0.33937,-0.64546 0.2224,-2.23895 -0.12455,-1.69677 -0.0977,-1.9054 0.37968,-2.94807 0.43629,-0.95299 0.64806,-1.18152 1.40528,-1.51648 1.39517,-0.61715 2.57512,-0.16451 3.34473,1.28306 0.38093,0.71651 0.44002,1.18642 0.50104,3.98442 0.0741,3.39586 0.23569,3.95129 1.11315,3.82518 0.54449,-0.0782 0.83438,-0.75769 1.07683,-2.52388 0.23303,-1.69752 0.64135,-2.36886 1.68158,-2.76477 0.9594,-0.36515 2.29015,-0.004 3.22088,0.87357 l 0.67513,0.63672 -0.006,2.35568 c -0.0167,6.33203 -0.39559,9.368 -2.1797,17.46592 -0.89067,4.04262 -1.51383,7.37466 -1.87307,10.0152 l -0.12762,0.93805 -9.6689,0.0532 c -5.31789,0.0293 -9.84038,0.0222 -10.04996,-0.0156 z"
         id="path5527" />
      <path
         style="fill:#0000ff;stroke:#00cd00;stroke-width:0.0487058;stroke-linecap:round;stroke-linejoin:round"
         d="m 155.68753,146.42859 c -1.22394,-0.64058 -4.08694,-3.63343 -4.99138,-5.21775 -1.61295,-2.82542 -2.2384,-5.12202 -2.24069,-8.22768 -0.002,-3.32268 0.72937,-5.82708 2.51273,-8.5988 2.87868,-4.47406 7.88563,-7.24741 13.10406,-7.25834 7.21818,-0.0151 13.48561,4.89403 15.3089,11.99113 0.29751,1.15807 0.40749,2.21213 0.40755,3.90623 9e-5,2.65017 -0.33609,4.39104 -1.1944,6.18497 -0.58075,1.21381 -1.76439,2.69639 -2.1527,2.69639 -0.42553,0 -0.43557,-0.79329 -0.0243,-1.91564 1.63164,-4.45222 1.95055,-6.1248 1.61299,-8.45949 -0.87249,-6.03454 -4.46715,-10.30309 -10.14997,-12.05282 -1.16371,-0.35831 -1.961,-0.45887 -3.66776,-0.46263 -2.47112,-0.005 -3.75557,0.25755 -5.74946,1.17717 -7.23785,3.33823 -10.25059,11.84746 -6.74014,19.03694 1.08791,2.22808 2.35783,3.78918 4.22711,5.19639 1.60233,1.20624 1.75399,1.42082 1.4309,2.0245 -0.2751,0.51404 -0.68145,0.50911 -1.69347,-0.0206 z"
         id="path5640" />
      <path
         style="fill:#0000ff;stroke:#00cd00;stroke-width:0.0487058;stroke-linecap:round;stroke-linejoin:round"
         d="m 155.0675,138.80654 c -1.19016,-2.03086 -1.5935,-5.26584 -0.95985,-7.69858 0.70316,-2.69963 2.94626,-5.53426 5.39337,-6.81568 5.75959,-3.016 12.74369,0.14052 14.63666,6.61515 0.7044,2.40929 0.22451,6.32615 -0.92498,7.54973 -0.55077,0.58627 -0.68721,0.58984 -1.05559,0.0276 -0.26074,-0.39794 -0.25054,-0.60516 0.0946,-1.9196 1.20742,-4.59896 -0.55383,-8.80592 -4.49987,-10.74855 -1.28741,-0.6338 -1.45141,-0.66437 -3.53504,-0.65899 -2.82028,0.007 -3.95628,0.42424 -5.76464,2.11587 -2.71422,2.53903 -3.5647,6.46729 -2.16023,9.9779 0.72665,1.81635 0.6168,2.4725 -0.41396,2.4725 -0.15005,0 -0.51474,-0.41282 -0.81043,-0.91737 z"
         id="path5716" />
    </g>
  </g>
</svg>
