<?xml version="1.0" encoding="UTF-8" standalone="no"?>
<!-- Created with Inkscape (http://www.inkscape.org/) -->

<svg
   version="1.1"
   id="svg5047"
   width="199.9968"
   height="150.90993"
   viewBox="0 0 199.9968 150.90993"
   sodipodi:docname="open.svg"
   inkscape:version="1.1 (c68e22c387, 2021-05-23)"
   xmlns:inkscape="http://www.inkscape.org/namespaces/inkscape"
   xmlns:sodipodi="http://sodipodi.sourceforge.net/DTD/sodipodi-0.dtd"
   xmlns="http://www.w3.org/2000/svg"
   xmlns:svg="http://www.w3.org/2000/svg">
  <defs
     id="defs5051" />
  <sodipodi:namedview
     id="namedview5049"
     pagecolor="#ffffff"
     bordercolor="#666666"
     borderopacity="1.0"
     inkscape:pageshadow="2"
     inkscape:pageopacity="0.0"
     inkscape:pagecheckerboard="0"
     showgrid="false"
     inkscape:zoom="2.6577778"
     inkscape:cx="112.68813"
     inkscape:cy="112.31187"
     inkscape:window-width="1280"
     inkscape:window-height="961"
     inkscape:window-x="-8"
     inkscape:window-y="-8"
     inkscape:window-maximized="1"
     inkscape:current-layer="g5053" />
  <g
     inkscape:groupmode="layer"
     inkscape:label="Image"
     id="g5053">
    <g
       id="g5155"
       transform="translate(-12.5,-37.090071)">
      <path
         style="fill:#bee4fb"
         d="m 14.571429,185.42857 c -2.602971,-12.18817 -0.931568,-24.7935 -1.492687,-37.16303 0.09812,-32.13478 -0.774902,-64.360405 1.071803,-96.431499 2.22098,-9.873001 12.669783,-14.888923 22.115541,-13.711006 9.697108,-0.116932 19.930039,-1.090153 29.209889,1.924021 9.504933,6.23075 16.338987,15.696794 25.86966,21.894249 26.737805,2.387875 53.667125,-0.284498 80.385095,2.054353 11.90042,1.313387 8.08832,18.688258 18.21904,20.143752 8.49686,-1.999212 22.56718,-0.114715 16.22159,11.765827 -5.39943,10.344033 10.41945,15.951503 3.89281,25.997613 -9.08977,19.75041 -16.2102,40.52713 -26.94487,59.51177 -6.75462,7.32565 -17.77025,4.38119 -26.63292,5.36509 -46.01202,0.29201 -92.046189,0.61802 -138.045299,-0.40703 -1.324395,-0.12743 -2.650832,-0.39287 -3.869652,-0.94411 z M 47.803177,156 c -1.330689,-7.56488 -2.776642,2.8014 -0.492423,2.50956 0.164141,-0.83652 0.328282,-1.67304 0.492423,-2.50956 z m 1.371415,-27.03358 c -0.536595,-8.87086 -4.599538,10.59738 -0.110421,0.7443 11.722398,11.99284 10.922192,11.18155 0.110421,-0.7443 z m -3.809227,-18.8453 c 8.246074,-7.56276 20.434821,-3.6334 30.507974,-5.01491 38.906151,-0.47846 77.830481,0.57956 116.723211,-0.8774 8.61763,-3.81726 4.31615,-16.631001 -5.10289,-11.794412 -47.32526,-0.520007 -94.652838,-0.0064 -141.978931,0.0656 -1.579597,7.803452 -6.848821,21.000582 -5.434986,25.601302 2.040367,-2.4737 2.925237,-5.74541 5.285622,-7.98018 z M 63.25,115.33772 c -3.912263,-1.1198 -3.045462,1.67412 0,0 z"
         id="path5167"
         sodipodi:nodetypes="ccccccccccccccccccccscccccsscc" />
      <path
         style="fill:#c5e5f8"
         d="M 14.44113,186.58039 C 12.553149,185.19965 12.5,183.33095 12.5,118.33039 V 51.5 l 2.269755,-4.248885 c 1.248365,-2.336886 4.13899,-5.486886 6.42361,-7 4.060325,-2.689169 4.538008,-2.758727 21.214648,-3.089174 11.146529,-0.220868 18.421955,0.06976 20.987319,0.838357 2.811805,0.842437 6.939939,4.115023 14.541039,11.527433 C 83.774352,55.22079 89.806228,60.356029 91.34054,60.939374 93.128798,61.619268 107.75918,62 132.09722,62 c 29.62581,0 38.67741,0.296819 41.20052,1.351044 5.1181,2.138478 9.3731,7.746439 10.68977,14.088775 L 185.1418,83 h 10.27411 c 8.88448,0 10.51066,0.261381 12.02299,1.932486 1.66679,1.841781 1.65535,2.32288 -0.24381,10.25 L 205.2024,103.5 l 2.91639,2.5 c 3.5021,3.00208 5.21419,8.4006 3.97773,12.54249 C 211.61093,120.16912 205.71951,134.325 199.00446,150 185.87083,180.65797 183.3723,184.67306 176.06559,186.8622 173.36812,187.67038 149.68823,188 94.32511,188 28.582522,188 16.078418,187.77779 14.44113,186.58039 Z M 49.938123,105.65373 C 51.760621,104.83297 72.959395,104.3557 123.38989,104 l 70.88988,-0.5 1.34493,-4.5 c 0.73972,-2.475 1.35177,-4.8375 1.36012,-5.25 C 196.99317,93.3375 163.0743,93 121.60955,93 H 46.2191 l -2.059318,7.75 c -1.132624,4.2625 -2.380735,9.08723 -2.77358,10.72162 l -0.714262,2.97161 c 2.867316,-2.97853 5.493215,-6.99019 9.266183,-8.7895 z"
         id="path5169"
         sodipodi:nodetypes="sscssssssssscssscsssssscscssscsscc" />
      <path
         style="fill:#85cbf9"
         d="M 14.488453,184.62272 C 12.219487,174.3971 13.562286,163.63456 13.11483,153.19454 13.389005,120.61335 12.780738,88.003141 14.096582,55.44442 13.453215,46.895587 20.613828,39.611809 28.856556,38.711365 c 11.189653,-0.899907 22.66051,-1.410798 33.768178,0.435655 10.772628,5.475189 17.6016,16.358958 27.745108,22.803494 26.232508,2.189521 52.661558,0.11714 78.933698,1.639402 9.66432,1.296023 14.06167,11.74613 14.78709,20.410084 7.07181,0.213587 14.24992,-0.561617 21.22862,0.711789 4.94184,3.936942 0.0403,10.985734 -0.5969,16.292271 -3.07315,4.87805 4.45564,5.9613 5.63758,10.03678 3.31858,8.87915 -4.35273,17.18787 -6.75378,25.51349 -6.34081,14.53739 -12.41255,29.21574 -19.41996,43.44567 -3.08247,3.24665 -7.31542,5.94106 -11.60238,7 -52.17923,0 -104.358469,0 -156.537704,0 -0.519218,-0.79243 -1.038435,-1.58485 -1.557653,-2.37728 z M 175.8674,175.25 c 9.31744,-15.59684 15.04191,-33.05081 22.60344,-49.53489 3.47537,-4.73153 5.76196,-12.1853 -2.93745,-11.13693 -29.57986,-1.20725 -59.20811,-0.36571 -88.81061,-0.57818 -17.203752,0 -34.407503,0 -51.611253,0 -5.963233,5.14322 -7.608329,13.51171 -11.365363,20.18291 C 37.602656,148.19645 30.848835,162.03246 26,176.55243 c 7.570685,2.0123 15.905854,0.874 23.780596,1.33142 41.124011,0.20661 82.248854,0.0818 123.373254,0.11615 0.90452,-0.91667 1.80903,-1.83333 2.71355,-2.75 z M 45.213328,110.23817 c 7.671948,-6.92974 18.706673,-4.28766 28.118746,-5.07366 C 113.86161,104.92207 154.3924,105.05265 194.92252,105 c 0.38137,-3.85055 5.0519,-10.270138 1.39676,-12.204138 C 164.78503,91.460807 133.19192,92.192412 101.63088,92 c -18.560127,0 -37.120254,0 -55.680382,0 -3.468555,9.83423 -5.944472,20.13919 -7.82102,30.33489 2.927227,-3.59131 4.28755,-8.35139 7.08385,-12.09672 z"
         id="path5165" />
      <path
         style="fill:#93b5d9"
         d="m 14.488453,184.62272 c -1.377625,-2.10252 -1.52476,-9.93286 -1.273053,-67.75 C 13.525437,45.657094 13.27077,48.804543 19.168633,43.297728 23.954807,38.828898 27.918225,38 44.5,38 c 11.802043,0 16.461778,0.375017 19.277375,1.551448 2.042225,0.853296 8.239906,6.006028 13.772624,11.450514 5.532717,5.444486 11.301647,10.371335 12.819843,10.948552 1.751419,0.665888 16.900088,1.055499 41.445258,1.065936 38.18685,0.01624 38.73514,0.04521 42.58759,2.25 4.32187,2.473448 8.19175,8.830437 9.12138,14.98355 l 0.56656,3.75 h 10.9195 c 13.75383,0 13.98729,0.260274 10.93976,12.196251 l -2.10166,8.231399 3.03756,2.53618 c 4.12681,3.44561 5.48705,7.37641 4.05459,11.71681 -2.1796,6.60426 -24.97775,58.85656 -26.75419,61.31936 -0.9918,1.375 -3.78478,3.5125 -6.20662,4.75 L 173.57622,187 H 94.811163 16.046106 Z m 161.132707,-8.6976 c 1.80157,-1.11343 3.55303,-3.01458 3.89213,-4.22477 0.66257,-2.36455 4.29417,-11.1063 7.97644,-19.20035 2.28245,-5.0171 5.00158,-11.33892 12.00734,-27.91645 3.59268,-8.50126 3.68279,-8.97886 1.93509,-10.25681 -1.50042,-1.09714 -15.05951,-1.29377 -74.71959,-1.08355 L 53.826045,113.5 l -2.302572,2.67736 c -1.266415,1.47254 -3.074875,4.84754 -4.0188,7.5 -0.943924,2.65245 -2.111402,5.72264 -2.594394,6.82264 -0.482992,1.1 -3.17418,7.175 -5.980417,13.5 -2.806237,6.325 -6.430191,14.875 -8.053232,19 -1.62304,4.125 -3.609253,8.77397 -4.413806,10.33104 -0.804553,1.55707 -1.462917,3.35707 -1.463031,4 -1.56e-4,0.88386 17.967987,1.10183 73.672785,0.89373 71.974562,-0.26888 73.748502,-0.3219 76.948582,-2.29965 z M 27.441187,127 C 38.797259,82.647292 38.222424,84.442937 41.331879,83.608874 42.524346,83.289014 73.0875,83.021165 109.25,83.013655 L 175,83 v -2.484223 c 0,-1.366323 -1.31257,-3.953823 -2.91681,-5.75 L 169.16637,71.5 128.33319,71 C 95.818287,70.601857 86.990715,70.213596 85,69.094089 83.625,68.320838 77.712119,63.033338 71.860265,57.344089 L 61.22053,47 H 44.666029 C 28.609426,47 28.02714,47.072567 25.305764,49.412765 L 22.5,51.82553 22.220191,97.642574 C 22.055474,124.6141 22.308149,143.0566 22.834494,142.47981 23.326256,141.94091 25.399267,134.975 27.441187,127 Z M 45.213328,110.23817 C 45.920998,109.38285 48.3,107.86424 50.5,106.86348 c 3.744752,-1.70345 8.480323,-1.82096 74.21126,-1.84152 L 194.92252,105 196.46126,99.818499 C 197.30757,96.968673 198,94.043673 198,93.318499 198,92.238729 184.23486,92 121.97525,92 H 45.950498 l -0.980212,2.578155 c -1.372121,3.608951 -6.982824,26.024165 -6.911839,27.613355 0.03215,0.71967 1.365644,-1.32552 2.963328,-4.54486 1.597684,-3.21934 3.483883,-6.55316 4.191553,-7.40848 z"
         id="path5163" />
      <path
         style="fill:#589cd6"
         d="M 15.2,184.8 C 13.339053,182.93905 13.574664,55.938748 15.448812,50.683804 17.153339,45.904463 19.474744,43.31045 24.210162,40.89359 27.406527,39.262231 30.201806,39 44.395062,39 c 9.080909,0 17.713581,0.471007 19.235096,1.049486 1.518196,0.577217 7.284991,5.47125 12.815099,10.875628 C 81.975366,56.329493 87.625,61.369724 89,62.125629 90.959637,63.202936 100.29782,63.608073 132.2033,64 l 40.7033,0.5 4.01062,3.917717 c 3.1538,3.080741 4.2569,5.110307 5.16339,9.5 0.63402,3.070255 1.66275,5.912892 2.28608,6.31697 0.62332,0.404078 5.75993,0.741578 11.41469,0.75 8.28551,0.01234 10.39509,0.31161 10.86709,1.541624 0.32214,0.839471 -0.36194,5.226971 -1.52017,9.75 l -2.10588,8.223689 2.92637,2.52071 c 3.42835,2.95312 5.34858,7.36997 4.50461,10.36137 -1.27475,4.51827 -24.90456,59.27004 -26.71077,61.89056 -1.05108,1.52495 -3.65524,3.66245 -5.78701,4.75 C 174.19149,185.94296 171.80535,186 95.239838,186 35.253297,186 16.113039,185.71304 15.2,184.8 Z m 159.86709,-6.83591 c 2.61197,-1.39788 5.37915,-7.0677 18.02613,-36.93477 7.95916,-18.79632 10.50715,-25.80592 9.72363,-26.75 C 201.97214,113.2615 186.75942,113 128.39333,113 H 55.031553 l -2.970737,2.75 c -2.173214,2.01174 -6.336043,10.63219 -15.506335,32.11077 -6.894579,16.14842 -12.288289,29.76092 -11.986023,30.25 0.805501,1.30333 148.057432,1.15982 150.498632,-0.14668 z M 27.441187,127 C 38.797259,82.647292 38.222424,84.442937 41.331879,83.608874 42.524346,83.289014 73.0875,83.021165 109.25,83.013655 L 175,83 v -2.484223 c 0,-1.366323 -1.31257,-3.953823 -2.91681,-5.75 L 169.16637,71.5 128.33319,71 C 95.818287,70.601857 86.990715,70.213596 85,69.094089 83.625,68.320838 77.712119,63.033338 71.860265,57.344089 L 61.22053,47 H 44.666029 C 28.609426,47 28.02714,47.072567 25.305764,49.412765 L 22.5,51.82553 22.220191,97.642574 C 22.055474,124.6141 22.308149,143.0566 22.834494,142.47981 23.326256,141.94091 25.399267,134.975 27.441187,127 Z m 12.964799,-5.73573 c 3.067458,-7.58524 4.805521,-10.04612 9.068575,-12.83995 2.809789,-1.84142 6.01851,-1.94586 74.480859,-2.42432 l 71.54458,-0.5 1.83669,-5.802886 c 1.01019,-3.191588 1.58681,-6.454088 1.28139,-7.25 C 198.14024,91.201882 187.47299,91 122.15383,91 c -59.510485,0 -76.13172,0.270035 -76.940193,1.25 -0.842781,1.021551 -6.952918,23.24066 -9.672836,35.17463 -1.170033,5.13366 1.838375,1.32438 4.865185,-6.16036 z"
         id="path5161" />
      <path
         style="fill:#1b6fc3"
         d="m 15.440516,183.70558 c -0.273193,-0.71193 -0.37157,-30.74943 -0.218615,-66.75 0.308811,-72.684167 -0.02997,-69.103307 7.01301,-74.126742 3.047534,-2.173666 4.362449,-2.35017 19.734364,-2.648993 9.058101,-0.176085 18.010675,-0.03099 19.894609,0.322442 2.562414,0.480712 6.097078,3.235333 14.030725,10.934373 5.832965,5.660476 11.588307,10.802877 12.78965,11.427558 C 90.199854,63.652305 102.23289,64 127.99144,64 c 24.00175,0 38.68908,0.394362 41.55395,1.115745 6.30281,1.587068 11.01063,7.020706 11.94046,13.781366 0.47524,3.455403 1.30762,5.457176 2.54448,6.11912 1.011,0.541073 6.15689,0.983769 11.43531,0.983769 7.22446,0 9.72769,0.340225 10.12521,1.376162 0.43648,1.137434 -1.01488,8.35754 -3.15628,15.701698 -0.26903,0.92266 1.20618,3.27768 3.55268,5.67147 2.41554,2.46421 3.99939,5.02045 3.97919,6.42214 -0.0185,1.28069 -5.81211,15.77397 -12.87478,32.20729 -12.7748,29.72421 -15.61378,34.72865 -20.8254,36.71011 C 174.89789,184.60912 139.9928,185 94.903516,185 c -63.695701,0 -79.062341,-0.25032 -79.463,-1.29442 z M 176.4337,177.87349 c 2.99198,-2.35349 3.3374,-3.07126 18.1456,-37.70542 8.37184,-19.58049 10.20291,-24.70649 9.37685,-26.25 C 202.95834,112.05365 200.84479,112 128.38789,112 H 53.846154 l -2.71256,2.75 C 48.472696,117.44762 23,175.13366 23,178.46196 23,179.83241 31.212233,180 98.365141,180 c 75.345459,0 75.365849,-5.6e-4 78.068559,-2.12651 z M 23.380985,148.25 c 0.283668,-0.9625 1.857529,-6.925 3.497469,-13.25 1.63994,-6.325 5.083729,-19.6 7.652866,-29.5 2.569136,-9.9 5.128085,-18.55935 5.686553,-19.242999 0.787089,-0.963517 16.110012,-1.300785 68.148757,-1.5 L 175.5,84.5 l 0.3126,-3.787405 c 0.26412,-3.200186 -0.22427,-4.324263 -3.15,-7.25 L 169.2,70 130.85,69.994423 C 106.32051,69.990856 91.088997,69.597086 88.584662,68.901767 85.715178,68.105065 81.84198,65.070979 74.084662,57.543126 68.263098,51.893767 62.517084,46.760463 61.315741,46.135782 57.871129,44.344634 30.617234,44.629455 27.011044,46.494289 20.782792,49.715043 21,47.737451 21,101.22251 21,145.5801 21.46442,154.753 23.380985,148.25 Z M 40,124.27723 c 2.475,-5.53975 5.398938,-11.06446 6.497639,-12.27713 4.663274,-5.147 2.387777,-5.0001 77.452701,-5.0001 79.92463,0 72.631,0.91712 74.9452,-9.423831 1.08918,-4.866948 1.08172,-5.975697 -0.045,-6.689696 -0.7428,-0.470716 -35.40591,-0.862738 -77.02912,-0.87116 -62.971962,-0.01274 -75.909931,0.216045 -77.056505,1.36262 -1.152981,1.15298 -8.932382,29.071387 -11.282605,40.490557 -1.342287,6.52186 1.898983,2.74669 6.51768,-7.59126 z"
         id="path5159" />
      <path
         style="fill:#1168ba"
         d="m 16.005577,119.75 c 0.20226,-22.593812 -0.296052,-45.234951 0.990223,-67.794357 1.58454,-4.212275 4.973631,-8.097975 8.589688,-10.464863 12.292306,-0.0066 24.702315,-1.139256 36.907585,0.236132 10.016713,5.2878 15.594596,16.3407 25.592364,21.541536 11.928953,3.200128 24.531243,1.2043 36.738413,1.739268 15.11981,0.141849 30.29603,-0.286631 45.36625,1.028325 8.07861,2.355589 10.10071,11.439969 11.65034,18.560354 5.71172,5.692214 20.228,-1.729836 22.81325,4.999555 -0.32694,6.948346 -6.86795,15.2285 1.10079,20.05605 7.33934,6.84185 -1.60122,15.5248 -3.30485,22.89058 -6.46681,14.56901 -12.46536,29.36924 -19.08368,43.85192 -3.94856,8.41982 -14.29937,6.72111 -21.93085,7.31998 C 112.96014,184.27489 64.478109,183.88768 16,184 c 0.0019,-21.41666 0.0038,-42.83338 0.0056,-64.25 z m 160.587153,59.3566 c 6.40072,-5.67634 8.08019,-14.74987 11.94168,-22.12614 5.73946,-13.41613 11.68364,-26.79472 17.07226,-40.32942 -0.13198,-4.38436 -3.39851,-6.67896 -7.45313,-5.65104 -48.02798,0 -96.05597,0 -144.083948,0 -4.322624,3.42415 -8.198638,7.5269 -9.481576,13.08005 -7.365141,17.60318 -15.489406,34.90955 -22.224376,52.76414 0.452191,7.30483 13.900046,2.51997 19.680609,4.05866 42.036835,0.025 84.084501,0.45117 126.114581,-0.34013 2.8202,-0.24972 5.88407,-0.0236 8.4339,-1.45612 z M 24.541013,148.23152 C 30.045343,127.69795 35.535392,107.15024 40.581696,86.5 85.887797,86.166667 131.1939,85.833333 176.5,85.5 177.95578,78.950072 176.79085,69.331652 168.12663,69.558753 142.01565,67.937335 115.7422,70.21077 89.671436,67.912411 80.159066,63.756503 74.06812,54.64144 66.12128,48.249497 59.511858,41.884502 49.126937,44.639574 40.794939,43.902412 33.765184,44.370086 21.752152,43.241311 21.002765,52.957085 19.24729,75.059497 20.13998,97.293238 19.764723,119.45114 c 0.104692,11.43632 -0.198537,22.90219 0.554375,34.31517 2.550642,3.00226 3.475499,-4.10824 4.221915,-5.53479 z M 34.754448,137.75 c 5.008628,-8.65818 7.345713,-18.86684 13.641431,-26.74401 7.718439,-3.89301 16.952832,-2.22798 25.343012,-2.91387 39.729929,-0.43699 79.480889,0.26247 119.197299,-0.91624 7.7441,-1.00534 6.59527,-11.327608 8.1552,-17.281088 C 200.36028,87.8885 195.45778,89.536861 193.04947,89 145.96535,89.135957 98.873964,88.636175 51.795984,89.44636 c -9.544347,-2.362136 -10.336783,7.807562 -12.156126,14.49709 -2.543902,11.30143 -6.92223,22.38325 -7.529827,34.01082 0.06772,1.92907 2.149261,0.63345 2.644417,-0.20427 z"
         id="path5157" />
    </g>
  </g>
</svg>
