<?xml version="1.0" encoding="UTF-8" standalone="no"?>
<!-- Generator: Adobe Illustrator 19.0.0, SVG Export Plug-In . SVG Version: 6.00 Build 0)  -->

<svg
   version="1.1"
   id="Layer_1"
   x="0px"
   y="0px"
   viewBox="0 0 512 512"
   style="enable-background:new 0 0 512 512;"
   xml:space="preserve"
   sodipodi:docname="repeat.svg"
   inkscape:version="1.1 (c68e22c387, 2021-05-23)"
   xmlns:inkscape="http://www.inkscape.org/namespaces/inkscape"
   xmlns:sodipodi="http://sodipodi.sourceforge.net/DTD/sodipodi-0.dtd"
   xmlns="http://www.w3.org/2000/svg"
   xmlns:svg="http://www.w3.org/2000/svg"><defs
   id="defs41" /><sodipodi:namedview
   id="namedview39"
   pagecolor="#ffffff"
   bordercolor="#666666"
   borderopacity="1.0"
   inkscape:pageshadow="2"
   inkscape:pageopacity="0.0"
   inkscape:pagecheckerboard="0"
   showgrid="false"
   inkscape:zoom="1.1914062"
   inkscape:cx="255.58033"
   inkscape:cy="323.56721"
   inkscape:window-width="1440"
   inkscape:window-height="837"
   inkscape:window-x="-8"
   inkscape:window-y="-8"
   inkscape:window-maximized="1"
   inkscape:current-layer="Layer_1" />
<g
   id="g6"
   transform="matrix(1,0,0,1.1569985,0,-39.771945)">
	<g
   id="g4">
		<path
   d="M 392.533,34.133 H 119.467 C 53.589,34.133 0,87.723 0,153.6 v 153.6 c 0,65.877 53.589,119.467 119.467,119.467 H 179.2 c 18.825,0 34.133,-15.309 34.133,-34.133 0,-18.825 -15.309,-34.133 -34.133,-34.133 H 128 c -32.93,0 -59.733,-26.795 -59.733,-59.733 V 162.133 C 68.267,129.194 95.07,102.4 128,102.4 h 256 c 32.93,0 59.733,26.795 59.733,59.733 v 136.533 c 0,32.939 -26.803,59.733 -59.733,59.733 h -17.067 v -42.667 c 0,-3.234 -1.826,-6.187 -4.719,-7.637 -2.884,-1.434 -6.349,-1.126 -8.934,0.811 l -102.4,76.8 c -2.15,1.613 -3.413,4.139 -3.413,6.827 0,2.688 1.263,5.214 3.413,6.827 l 102.4,76.8 c 1.502,1.126 3.311,1.707 5.12,1.707 1.297,0 2.611,-0.299 3.814,-0.896 2.893,-1.451 4.719,-4.403 4.719,-7.637 v -42.667 h 25.6 C 458.411,426.667 512,373.077 512,307.2 V 153.6 C 512,87.723 458.411,34.133 392.533,34.133 Z"
   id="path2" />
	</g>
</g>
<g
   id="g8">
</g>
<g
   id="g10">
</g>
<g
   id="g12">
</g>
<g
   id="g14">
</g>
<g
   id="g16">
</g>
<g
   id="g18">
</g>
<g
   id="g20">
</g>
<g
   id="g22">
</g>
<g
   id="g24">
</g>
<g
   id="g26">
</g>
<g
   id="g28">
</g>
<g
   id="g30">
</g>
<g
   id="g32">
</g>
<g
   id="g34">
</g>
<g
   id="g36">
</g>
<path
   style="opacity:0.999;fill:#ffff00;stroke:#000001;stroke-width:0.103239;stroke-linejoin:round;paint-order:markers fill stroke"
   d="m 319.62664,481.23751 c -19.76055,-17.15019 -43.55862,-37.80186 -52.8846,-45.89258 -9.76938,-8.4754 -17.37481,-15.7207 -17.94365,-17.09399 -1.22621,-2.96035 -0.49542,-7.89086 1.50016,-10.12127 1.60492,-1.79378 11.50064,-10.4426 66.55391,-58.1679 19.15803,-16.60797 35.92241,-31.04058 37.25418,-32.07248 3.25605,-2.5229 5.8216,-2.36174 9.10634,0.57206 l 2.74112,2.44824 0.24328,27.46647 0.24329,27.46647 13.18622,-0.48935 c 15.06999,-0.55924 20.30903,-1.71703 29.55344,-6.53103 15.40292,-8.02105 27.17117,-23.71267 32.56649,-43.4237 l 2.22434,-8.12632 0.28166,-84.77377 c 0.30134,-90.696 0.11981,-95.91785 -3.76268,-108.23672 -7.18232,-22.78893 -24.00207,-39.780927 -44.05802,-44.509189 -7.98011,-1.88134 -272.88413,-1.88134 -280.86424,0 -20.03584,4.72352 -36.962356,21.818419 -44.070794,44.509189 -3.872682,12.36196 -4.052445,17.57705 -3.730878,108.23672 0.297962,84.00448 0.317325,84.8365 2.133814,91.68708 5.421934,20.44788 17.271797,36.51859 32.919648,44.64545 11.52583,5.98604 12.42481,6.10528 50.36066,6.68018 l 33.99344,0.51516 4.71435,2.31622 c 2.59289,1.27392 6.60212,4.204 8.90939,6.51127 19.22204,19.22204 14.57413,53.67145 -8.79954,65.22054 l -6.41895,3.17164 -39.07148,-0.0121 C 108.9005,453.2221 107.10574,453.1495 98.622951,451.29467 46.677224,439.93657 8.0847704,392.46038 1.277551,331.54098 0.11326892,321.12155 0.13064351,133.5596 1.2969614,122.00368 4.8715049,86.586989 19.694126,55.427143 44.169764,31.877253 57.200569,19.339316 70.37167,11.183941 86.032787,5.9562117 103.55861,0.10603898 93.895907,0.41967213 256.60761,0.41967213 c 143.70364,0 147.03052,0.0361187 155.11704,1.68404627 21.9742,4.4780566 39.44725,13.7484006 56.0446,29.7345166 21.85905,21.054037 34.93945,45.932295 41.50211,78.934875 1.82139,9.15952 1.84294,10.27191 2.12987,109.97443 0.20041,69.64063 0.003,103.57037 -0.64073,109.9541 -5.35961,53.17488 -36.45938,97.9077 -80.17689,115.32363 -13.78635,5.49211 -22.16598,6.87958 -44.69509,7.40045 l -19.51475,0.45118 v 25.95568 c 0,27.57961 -0.2704,29.64644 -4.15023,31.72287 -4.73061,2.53174 -4.8233,2.46577 -42.5969,-30.31794 z"
   id="path913" /></svg>
