<?xml version="1.0" encoding="UTF-8" standalone="no"?>
<!-- Generator: Adobe Illustrator 24.1.1, SVG Export Plug-In . SVG Version: 6.00 Build 0)  -->

<svg
   version="1.1"
   id="Layer_1"
   x="0px"
   y="0px"
   viewBox="0 0 512 512"
   style="enable-background:new 0 0 512 512;"
   xml:space="preserve"
   sodipodi:docname="replace.svg"
   inkscape:version="1.1 (c68e22c387, 2021-05-23)"
   xmlns:inkscape="http://www.inkscape.org/namespaces/inkscape"
   xmlns:sodipodi="http://sodipodi.sourceforge.net/DTD/sodipodi-0.dtd"
   xmlns="http://www.w3.org/2000/svg"
   xmlns:svg="http://www.w3.org/2000/svg"><defs
   id="defs15" /><sodipodi:namedview
   id="namedview13"
   pagecolor="#ffffff"
   bordercolor="#666666"
   borderopacity="1.0"
   inkscape:pageshadow="2"
   inkscape:pageopacity="0.0"
   inkscape:pagecheckerboard="0"
   showgrid="false"
   inkscape:zoom="1.1914062"
   inkscape:cx="255.58034"
   inkscape:cy="256.41968"
   inkscape:window-width="1440"
   inkscape:window-height="837"
   inkscape:window-x="-8"
   inkscape:window-y="-8"
   inkscape:window-maximized="1"
   inkscape:current-layer="Layer_1" />
<g
   id="g10">
	<path
   d="M51.2,25.6v25.6h102.4v102.4H51.2h0l0-102.4v0V25.6V0C22.9,0,0,22.9,0,51.2v102.4c0,28.3,22.9,51.2,51.2,51.2l102.4,0   c28.3,0,51.2-22.9,51.2-51.2l0-102.4c0-28.3-22.9-51.2-51.2-51.2H51.2V25.6z"
   id="path2" />
	<path
   d="M358.4,332.8v25.6h102.4v102.4H358.4l0,0V358.4v0V332.8v-25.6c-28.3,0-51.2,22.9-51.2,51.2v102.4   c0,28.3,22.9,51.2,51.2,51.2l102.4,0c28.3,0,51.2-22.9,51.2-51.2V358.4c0-28.3-22.9-51.2-51.2-51.2H358.4V332.8z"
   id="path4" />
	<path
   d="M512,230.4v-76.8c0-42.4-34.4-76.8-76.8-76.8H281.6c-10.4,0-19.7,6.2-23.7,15.8c-4,9.6-1.8,20.6,5.5,27.9l76.8,76.8   c10,10,26.2,10,36.2,0c10-10,10-26.2,0-36.2L343.4,128l91.8,0c14.1,0,25.6,11.5,25.6,25.6v76.8c0,14.1,11.5,25.6,25.6,25.6   C500.5,256,512,244.5,512,230.4L512,230.4z M340.3,7.5l-76.8,76.8c-10,10-10,26.2,0,36.2c10,10,26.2,10,36.2,0l76.8-76.8   c10-10,10-26.2,0-36.2C366.5-2.5,350.3-2.5,340.3,7.5z"
   id="path6" />
	<path
   d="M0,281.6v76.8c0,42.4,34.4,76.8,76.8,76.8h153.6c10.4,0,19.7-6.2,23.7-15.8c4-9.6,1.8-20.6-5.5-27.9l-76.8-76.8   c-10-10-26.2-10-36.2,0s-10,26.2,0,36.2l33.1,33.1l-91.8,0c-14.1,0-25.6-11.5-25.6-25.6v-76.8c0-14.1-11.5-25.6-25.6-25.6   C11.5,256,0,267.5,0,281.6z M171.7,504.5l76.8-76.8c10-10,10-26.2,0-36.2c-10-10-26.2-10-36.2,0l-76.8,76.8c-10,10-10,26.2,0,36.2   C145.5,514.5,161.7,514.5,171.7,504.5z"
   id="path8" />
</g>
<path
   style="opacity:0.999;fill:#ffff00;stroke:#000001;stroke-width:0.103239;stroke-linejoin:round;paint-order:markers fill stroke"
   d="m 147.30492,510.84569 c -8.05083,-2.65065 -14.89054,-9.07935 -17.26469,-16.22727 -1.74367,-5.24969 -1.31298,-14.85037 0.85818,-19.1299 0.81972,-1.61573 9.84001,-11.34163 20.04507,-21.61311 L 169.49816,435.2 124.61794,435.19929 C 99.933805,435.19891 75.670647,434.81292 70.699798,434.34154 51.121964,432.485 35.424697,424.91917 21.733941,410.74079 12.235988,400.90454 6.5148821,390.74656 2.7229803,376.98627 0.87390854,370.27625 0.83934426,369.28062 0.83934426,322.72787 V 275.30492 L 2.8730009,271.1729 C 12.206559,252.20882 38.804787,251.77119 47.967368,270.43095 l 2.393288,4.87397 0.419672,44.90492 c 0.379589,40.61602 0.561664,45.2194 1.906331,48.19758 2.538914,5.6232 6.992531,10.25863 12.500839,13.01116 L 70.35337,384 h 49.58993 49.58993 l -18.18726,-18.25574 c -11.3991,-11.44202 -18.90917,-19.66547 -20.12146,-22.03278 -2.61074,-5.09814 -3.07782,-13.42901 -1.08867,-19.41774 3.25743,-9.80723 14.65941,-17.26224 25.15921,-16.44995 9.37886,0.72556 9.97502,1.22997 55.46092,46.92497 41.21408,41.40355 42.07744,42.33865 43.54403,47.16221 1.92049,6.31636 1.37759,13.03473 -1.50567,18.63302 -2.93079,5.69056 -83.17295,85.79178 -88.70253,88.54672 -4.066,2.02576 -13.07548,2.95692 -16.78688,1.73498 z"
   id="path906" /><path
   style="opacity:0.999;fill:#ffff00;stroke:#000001;stroke-width:0.103239;stroke-linejoin:round;paint-order:markers fill stroke"
   d="m 479.26485,254.4662 c -7.17525,-2.35745 -13.32895,-8.07638 -16.57011,-15.39942 -0.77897,-1.75996 -1.15869,-13.95407 -1.47223,-47.27662 -0.40853,-43.4187 -0.481,-45.03134 -2.18988,-48.72461 -2.616,-5.65378 -6.52313,-9.63731 -12.26831,-12.50821 L 441.64663,128 H 392.0567 342.46677 l 18.18726,18.25574 c 11.28343,11.32592 18.92741,19.68949 20.13711,22.03278 2.87181,5.56299 2.80315,16.37505 -0.1406,22.1392 -4.44733,8.70831 -14.48081,14.4607 -23.94559,13.72849 -9.37034,-0.7249 -9.98061,-1.24067 -55.52299,-46.92497 -41.80904,-41.93933 -42.12005,-42.27662 -43.53909,-47.2168 -1.76986,-6.16159 -1.28782,-13.008251 1.27907,-18.167003 2.68128,-5.388666 82.81289,-85.6785364 88.56658,-88.741515 3.53784,-1.883365 5.25094,-2.23412365 10.91148,-2.23412365 5.63812,0 7.39619,0.35703635 10.96474,2.22676645 4.56839,2.3935994 9.46118,7.2715432 11.78542,11.7496562 2.16739,4.175935 2.53578,13.758825 0.7399,19.24675 -1.33439,4.077651 -3.30503,6.357425 -20.34971,23.54198 l -18.87225,19.027116 51.09218,0.364979 c 56.57618,0.404155 57.18335,0.456497 70.24479,6.055479 9.98436,4.279949 15.25246,7.748589 23.23502,15.298482 11.48536,10.862833 18.4312,22.690443 22.32187,38.010433 1.47806,5.82007 1.5987,9.84191 1.5987,53.29836 v 47.00328 l -2.03366,4.13202 c -4.19398,8.52139 -12.09869,13.8732 -21.31208,14.42913 -2.92061,0.17622 -6.66105,-0.16939 -8.55007,-0.79003 z"
   id="path945" /><path
   style="opacity:0.999;fill:#0000ff;stroke:#000001;stroke-width:0.103239;stroke-linejoin:round;paint-order:markers fill stroke"
   d="m 350.42623,511.01636 c -15.2653,-2.67103 -29.66159,-13.21096 -36.78166,-26.92889 -6.02419,-11.60653 -5.99392,-11.23316 -6.01032,-74.12348 -0.009,-35.83747 0.30535,-57.65794 0.87763,-60.85246 0.49072,-2.73921 2.59683,-8.51591 4.68026,-12.83712 5.25145,-10.89198 12.19029,-17.83082 23.08227,-23.08227 4.32121,-2.08343 10.09791,-4.18954 12.83712,-4.68026 8.02886,-1.43833 115.24962,-1.17574 122.20727,0.29929 14.53349,3.08112 27.74046,13.25842 34.34115,26.46329 5.80785,11.61878 5.50071,7.4687 5.50071,74.32554 0,56.86581 -0.0928,60.70526 -1.57221,65.04918 -5.86771,17.22914 -16.4219,28.02691 -33.86885,34.65054 -4.81081,1.82639 -5.29504,1.84123 -64.02124,1.96206 -32.54557,0.067 -60.11803,-0.0435 -61.27213,-0.24542 z M 461.21967,409.6 V 357.98033 H 409.6 357.98033 V 409.6 461.21967 H 409.6 461.21967 Z"
   id="path1060" /><path
   style="opacity:0.999;fill:#ff0000;stroke:#000001;stroke-width:0.103239;stroke-linejoin:round;paint-order:markers fill stroke"
   d="M 43.226231,203.81637 C 27.960931,201.14534 13.564642,190.6054 6.4445661,176.88748 0.42037586,165.28094 0.45065092,165.65432 0.43424619,102.76399 0.42489807,66.926521 0.73960099,45.10605 1.311883,41.911532 1.8025989,39.172322 3.9087134,33.395617 5.9921374,29.074411 11.243591,18.18243 18.18243,11.243591 29.074411,5.9921374 33.395617,3.9087134 39.172322,1.8025989 41.911532,1.311883 49.940395,-0.12644771 157.16116,0.13613629 164.1188,1.611169 c 14.53349,3.081126 27.74047,13.258422 34.34115,26.463295 5.80786,11.618778 5.50071,7.468698 5.50071,74.325536 0,56.86582 -0.0928,60.70527 -1.5722,65.04919 -5.86771,17.22914 -16.4219,28.02691 -33.86886,34.65054 -4.8108,1.82639 -5.29503,1.84123 -64.02123,1.96206 -32.54558,0.067 -60.11804,-0.0435 -61.272139,-0.24542 z M 154.01968,102.4 V 50.78033 H 102.4 50.78033 V 102.4 154.01968 H 102.4 154.01968 Z"
   id="path983" /></svg>
