<?xml version="1.0" encoding="UTF-8" standalone="no"?>
<svg
   version="1.1"
   id="Layer_1"
   x="0px"
   y="0px"
   viewBox="0 0 103.12 122.88"
   style="enable-background:new 0 0 103.12 122.88"
   xml:space="preserve"
   sodipodi:docname="report.svg"
   inkscape:version="1.1 (c68e22c387, 2021-05-23)"
   xmlns:inkscape="http://www.inkscape.org/namespaces/inkscape"
   xmlns:sodipodi="http://sodipodi.sourceforge.net/DTD/sodipodi-0.dtd"
   xmlns="http://www.w3.org/2000/svg"
   xmlns:svg="http://www.w3.org/2000/svg"><defs
     id="defs11" /><sodipodi:namedview
     id="namedview9"
     pagecolor="#ffffff"
     bordercolor="#666666"
     borderopacity="1.0"
     inkscape:pageshadow="2"
     inkscape:pageopacity="0.0"
     inkscape:pagecheckerboard="0"
     showgrid="false"
     inkscape:zoom="4.9641928"
     inkscape:cx="51.468589"
     inkscape:cy="59.929179"
     inkscape:window-width="1440"
     inkscape:window-height="837"
     inkscape:window-x="-8"
     inkscape:window-y="-8"
     inkscape:window-maximized="1"
     inkscape:current-layer="g6" /><style
     type="text/css"
     id="style2">.st0{fill-rule:evenodd;clip-rule:evenodd;}</style><g
     id="g6"><path
       class="st0"
       d="m 72.17,35.82 16.44,0.06 c -0.02,4.38 -1.78,8.58 -4.9,11.65 -0.74,0.73 -1.54,1.38 -2.4,1.96 z M 1.18,122.01 C 0.49,121.69 0,121 0,120.18 V 2 C 0,0.9 0.89,0 2,0 h 19.4 79.72 c 1.1,0 2,0.89 2,2 v 107.73 c 0,0.11 -0.01,0.21 -0.02,0.31 -0.28,3.93 -1.56,6.99 -3.86,9.18 -2.3,2.18 -5.53,3.4 -9.72,3.64 -0.09,0.01 -0.17,0.02 -0.26,0.02 H 2.83 c -0.68,0 -1.29,-0.35 -1.65,-0.87 z M 35.5,34.9 h 5.01 c 0.27,0 0.48,0.22 0.48,0.48 v 9.85 c 0,0.27 -0.22,0.48 -0.48,0.48 H 35.5 c -0.27,0 -0.48,-0.22 -0.48,-0.48 v -9.85 c 0,-0.26 0.21,-0.48 0.48,-0.48 z M 16.85,28.87 h 5.01 c 0.27,0 0.48,0.22 0.48,0.48 v 15.89 c 0,0.27 -0.22,0.48 -0.48,0.48 h -5.01 c -0.27,0 -0.48,-0.22 -0.48,-0.48 V 29.35 c -0.01,-0.26 0.21,-0.48 0.48,-0.48 z m 9.33,-3.39 h 5.01 c 0.27,0 0.48,0.22 0.48,0.48 v 19.28 c 0,0.27 -0.22,0.48 -0.48,0.48 h -5.01 c -0.27,0 -0.48,-0.22 -0.48,-0.48 V 25.96 c -0.01,-0.27 0.21,-0.48 0.48,-0.48 z m 72.95,84.2 V 3.99 H 21.4 3.99 v 114.9 h 85.26 0.04 c 3.21,-0.18 5.61,-1.04 7.2,-2.55 1.57,-1.49 2.44,-3.72 2.64,-6.66 z m -82.31,-3.04 c -1.09,0 -1.98,-0.89 -1.98,-2 0,-1.1 0.88,-1.99 1.98,-1.99 h 70.5 c 1.09,0 1.98,0.89 1.98,1.99 0,1.1 -0.88,2 -1.98,2 z m 0.32,-14.56 c -1.09,0 -1.98,-0.89 -1.98,-2 0,-1.1 0.88,-2 1.98,-2 h 70 c 1.09,0 1.98,0.89 1.98,2 0,1.1 -0.88,2 -1.98,2 z M 16.82,77.52 c -1.09,0 -1.98,-0.89 -1.98,-2 0,-1.1 0.88,-1.99 1.98,-1.99 h 30.13 c 1.09,0 1.98,0.89 1.98,1.99 0,1.1 -0.88,2 -1.98,2 z m 37.82,0 c -1.09,0 -1.98,-0.89 -1.98,-2 0,-1.1 0.88,-1.99 1.98,-1.99 h 32.5 c 1.09,0 1.98,0.89 1.98,1.99 0,1.1 -0.88,2 -1.98,2 z M 16.82,64.53 c -1.09,0 -1.98,-0.89 -1.98,-2 0,-1.1 0.88,-2 1.98,-2 h 24.84 c 1.09,0 1.98,0.89 1.98,2 0,1.1 -0.88,2 -1.98,2 z m 0,-50.62 c -1.09,0 -1.98,-0.89 -1.98,-2 0,-1.11 0.88,-2 1.98,-2 h 14.84 c 1.09,0 1.98,0.89 1.98,2 0,1.11 -0.88,2 -1.98,2 z M 70.49,32.56 69.61,14.99 c -0.02,-0.35 0.25,-0.64 0.6,-0.66 0.1,-0.01 0.22,-0.01 0.35,-0.01 0.11,0 0.23,-0.01 0.35,-0.01 4.83,-0.05 9.25,1.78 12.56,4.82 3.31,3.05 5.5,7.31 5.84,12.13 0.02,0.35 -0.24,0.65 -0.58,0.67 l -17.58,1.26 c -0.35,0.02 -0.65,-0.24 -0.67,-0.58 0.01,-0.02 0.01,-0.04 0.01,-0.05 z m 0.41,-16.99 0.82,16.32 16.3,-1.16 C 87.56,26.5 85.57,22.77 82.64,20.07 79.56,17.23 75.43,15.53 70.94,15.58 Z m -2.38,19.49 8.81,15.26 c -2.68,1.55 -5.72,2.36 -8.81,2.36 -9.73,0 -17.62,-7.89 -17.62,-17.62 0,-8.74 6.41,-16.17 15.06,-17.43 z"
       id="path4"
       inkscape:label="path4"
       style="fill:#8b00b3;fill-opacity:1;stroke:#000001;stroke-opacity:1;stroke-width:0.3;stroke-miterlimit:4;stroke-dasharray:none" /><path
       style="opacity:0.999;fill:#ffff00;fill-opacity:1;stroke:#000001;stroke-width:1.52272;stroke-linejoin:round;stroke-opacity:1;paint-order:markers fill stroke"
       d="m 65.617426,51.862891 c -4.045095,-0.72603 -8.082795,-3.196971 -10.564058,-6.46486 -1.394212,-1.836214 -2.214051,-3.458665 -2.907957,-5.754811 -0.469834,-1.554691 -0.535508,-2.117873 -0.535508,-4.592204 0,-2.485414 0.06476,-3.035415 0.545536,-4.633181 1.6684,-5.544605 5.623707,-9.652847 11.082466,-11.510978 2.438889,-0.830184 2.062796,-1.690398 3.478988,7.957274 l 1.237761,8.432132 4.151284,7.17778 c 2.283207,3.94778 4.197702,7.29874 4.254434,7.446578 0.111688,0.291055 -1.752942,1.121903 -3.740308,1.666618 -1.352232,0.370632 -5.552303,0.535964 -7.002638,0.275652 z"
       id="path5405" /><path
       style="opacity:0.999;fill:#ff0000;fill-opacity:1;stroke:#000001;stroke-width:1.52272;stroke-linejoin:round;stroke-opacity:1;paint-order:markers fill stroke"
       d="m 77.462361,42.616616 c -2.22009,-3.3274 -4.036527,-6.096259 -4.036527,-6.15302 0,-0.149311 9.822799,-0.12695 12.357384,0.02813 l 2.146485,0.131334 -0.0014,0.624076 c -0.0025,1.121832 -0.789061,3.941423 -1.512027,5.420436 -0.914269,1.870371 -2.416114,3.861963 -3.810783,5.053466 l -1.106596,0.945394 z"
       id="path5481" /><path
       style="opacity:0.999;fill:#00ff00;fill-opacity:1;stroke:#000001;stroke-width:0.223;stroke-linejoin:round;stroke-opacity:1;paint-order:markers fill stroke;stroke-miterlimit:4;stroke-dasharray:none"
       d="m 16.346129,91.139825 c -0.651498,-0.512469 -0.710506,-1.420959 -0.129998,-2.001466 0.399841,-0.399841 0.671475,-0.402886 35.949659,-0.402886 h 35.546776 l 0.410731,0.44087 c 0.514436,0.552182 0.523487,1.188232 0.02566,1.803043 l -0.385076,0.475563 -35.442432,0.05202 -35.442434,0.05202 z"
       id="path5766" /><path
       style="opacity:0.999;fill:#00ff00;fill-opacity:1;stroke:#000001;stroke-width:0.123;stroke-linejoin:round;stroke-opacity:1;paint-order:markers fill stroke;stroke-miterlimit:4;stroke-dasharray:none"
       d="m 15.90481,105.56509 c -0.627415,-0.62742 -0.627415,-1.20388 0,-1.8313 l 0.49445,-0.49445 h 35.673657 35.673656 l 0.494449,0.49445 c 0.627418,0.62742 0.627418,1.20388 0,1.8313 l -0.494449,0.49445 H 52.072917 16.39926 Z"
       id="path5805" /><path
       style="opacity:0.999;fill:#00ff00;fill-opacity:1;stroke:#000001;stroke-width:0.123;stroke-linejoin:round;stroke-opacity:1;paint-order:markers fill stroke;stroke-miterlimit:4;stroke-dasharray:none"
       d="m 17.021901,37.367606 v -7.856262 h 2.31659 2.31659 v 7.856262 7.856262 h -2.31659 -2.31659 z"
       id="path5979" /><path
       style="opacity:0.999;fill:#00ff00;fill-opacity:1;stroke:#000001;stroke-width:0.123;stroke-linejoin:round;stroke-opacity:1;paint-order:markers fill stroke;stroke-miterlimit:4;stroke-dasharray:none"
       d="m 26.288262,35.655343 v -9.568524 h 2.417311 2.417312 v 9.568524 9.568525 h -2.417312 -2.417311 z"
       id="path6018" /><path
       style="opacity:0.999;fill:#00ff00;fill-opacity:1;stroke:#000001;stroke-width:0.123;stroke-linejoin:round;stroke-opacity:1;paint-order:markers fill stroke;stroke-miterlimit:4;stroke-dasharray:none"
       d="m 35.554622,40.288524 v -4.733902 h 2.417312 2.417311 v 4.733902 4.733901 h -2.417311 -2.417312 z"
       id="path6057" /><path
       style="opacity:0.999;fill:#00ff00;fill-opacity:1;stroke:#000001;stroke-width:0.123;stroke-linejoin:round;stroke-opacity:1;paint-order:markers fill stroke;stroke-miterlimit:4;stroke-dasharray:none"
       d="m 16.27966,13.193085 c -0.891988,-0.35939 -1.124282,-1.461917 -0.458567,-2.176478 0.409241,-0.439268 0.439853,-0.44087 8.429369,-0.44087 7.382423,0 8.043645,0.02797 8.33384,0.352525 0.63767,0.713171 0.453316,1.861974 -0.358132,2.231694 -0.622566,0.283661 -15.249285,0.314048 -15.94651,0.03313 z"
       id="path6096" /><path
       style="opacity:0.999;fill:#00ff00;fill-opacity:1;stroke:#000001;stroke-width:0.123;stroke-linejoin:round;stroke-opacity:1;paint-order:markers fill stroke;stroke-miterlimit:4;stroke-dasharray:none"
       d="m 15.90481,63.463581 c -0.604052,-0.604052 -0.625223,-1.097949 -0.07694,-1.794973 l 0.417506,-0.530773 H 29.2238 c 12.709839,0 12.986766,0.0083 13.381314,0.402885 0.579655,0.579655 0.521503,1.488995 -0.127888,1.999805 -0.524295,0.41241 -0.68669,0.417506 -13.304369,0.417506 H 16.39926 Z"
       id="path6135" /></g></svg>
