<?xml version="1.0" encoding="UTF-8" standalone="no"?>
<!-- Created with Inkscape (http://www.inkscape.org/) -->

<svg
   version="1.1"
   id="svg53660"
   width="177.20337"
   height="179.6877"
   viewBox="0 0 177.20337 179.6877"
   sodipodi:docname="save.svg"
   inkscape:version="1.1 (c68e22c387, 2021-05-23)"
   xmlns:inkscape="http://www.inkscape.org/namespaces/inkscape"
   xmlns:sodipodi="http://sodipodi.sourceforge.net/DTD/sodipodi-0.dtd"
   xmlns="http://www.w3.org/2000/svg"
   xmlns:svg="http://www.w3.org/2000/svg">
  <defs
     id="defs53664" />
  <sodipodi:namedview
     id="namedview53662"
     pagecolor="#ffffff"
     bordercolor="#666666"
     borderopacity="1.0"
     inkscape:pageshadow="2"
     inkscape:pageopacity="0.0"
     inkscape:pagecheckerboard="0"
     showgrid="false"
     inkscape:zoom="2.1357143"
     inkscape:cx="97.859531"
     inkscape:cy="128.0602"
     inkscape:window-width="1280"
     inkscape:window-height="961"
     inkscape:window-x="-8"
     inkscape:window-y="-8"
     inkscape:window-maximized="1"
     inkscape:current-layer="g53806"
     fit-margin-top="0"
     fit-margin-left="0"
     fit-margin-right="0"
     fit-margin-bottom="0" />
  <g
     inkscape:groupmode="layer"
     inkscape:label="Image"
     id="g53666"
     transform="translate(0.02409539,0.04479364)">
    <g
       id="g53806"
       transform="translate(-14.046822,1.8729095)">
      <path
         style="fill:#3498db;fill-opacity:1"
         d="M 29.671966,176.93489 C 24.754992,174.67797 19.063122,169.60001 15.911664,164.16313 13.877592,153.90536 14.851898,143.15537 14.32093,132.69918 14.037712,93.558584 13.550376,54.381782 15.143254,15.264796 15.545303,6.7886667 24.610871,1.2407159 30.171966,-1.1224796 67.605141,-2.3572128 105.09448,-1.866628 142.54757,-1.5454377 c 8.06106,-0.2235228 15.33511,-0.3846338 20.51461,6.2400818 9.24359,8.5406839 18.54277,17.2297049 26.208,27.2402459 2.81323,8.861324 1.30664,18.510342 1.84399,27.705232 -0.15239,32.606437 0.66644,65.244058 -0.66165,97.828598 0.77896,9.72787 -7.38649,16.12465 -15.28055,19.52354 -41.27278,1.23401 -82.596175,0.67239 -123.887597,0.50074 -7.202257,-0.14133 -14.426434,-0.0374 -21.612407,-0.55811 z m 141.586944,-7.30576 c 2.94086,-1.99273 2.51133,-5.23543 2.41306,-8.35529 0,-23.07581 0,-46.15161 0,-69.227423 -2.41223,-1.952352 -3.62707,-6.51404 -7.34934,-5.611527 -43.27461,0 -86.54922,0 -129.823831,0 -1.868974,2.783064 -5.800265,4.801188 -4.826833,8.638537 0.23628,23.258713 -0.616687,46.557213 0.686391,69.783053 1.042977,11.74441 16.284375,6.0834 24.104534,7.64683 37.460383,0.32889 74.922059,-0.009 112.382959,-0.0684 0.80435,-0.93525 1.60871,-1.87051 2.41306,-2.80576 z M 149.74889,66.011813 c 3.03322,-1.803223 3.30285,-4.751162 2.92308,-7.968093 0,-16.332434 0,-32.664869 0,-48.9973032 -2.41223,-1.9523526 -3.62707,-6.5140403 -7.34934,-5.611527 -31.60794,0 -63.215887,0 -94.823831,0 -1.868974,2.7830635 -5.800264,4.8011881 -4.826833,8.6385362 0,17.005104 0,34.010207 0,51.01531 2.178642,1.799624 3.924893,4.643131 6.350656,5.846154 31.601066,0 63.202128,0 94.803198,0 0.97436,-0.974359 1.94871,-1.948718 2.92307,-2.923077 z m -31.09733,-7.536481 c -0.0474,-14.910246 -0.0426,-29.820612 -0.0612,-44.730918 5.52721,0 11.05442,0 16.58163,0 0,14.896825 0,29.793651 0,44.690476 -5.49336,0.05675 -11.07633,0.771109 -16.52043,0.04044 z"
         id="path53808"
         sodipodi:nodetypes="cccssssssssssccccccccccccccssscccccccccccccccccccsccccccsss" />
      <path
         style="opacity:0.494;fill:#cccccc;fill-opacity:1;stroke:#ffffff;stroke-width:2.23864;stroke-linecap:round;stroke-linejoin:round;stroke-miterlimit:4;stroke-dasharray:none;stroke-opacity:1"
         d="M 48.695228,65.932323 45.782333,62.993306 V 36.146406 9.2995058 l 2.387466,-2.7558865 2.387465,-2.7558865 h 48.602994 48.603002 l 2.38746,2.7558865 2.38747,2.7558865 V 36.172531 63.045556 l -2.93902,2.912894 -2.93902,2.912895 H 99.134138 51.608123 Z m 83.358012,-7.198902 3.16053,-0.298495 V 36.027717 13.620508 h -8.42809 -8.42809 v 22.396879 c 0,12.318283 0.14046,22.537348 0.31215,22.709028 0.3959,0.39591 9.21678,0.400522 13.3835,0.007 z"
         id="path57571" />
      <path
         style="opacity:0.494;fill:#ececec;fill-opacity:1;stroke:#ffffff;stroke-width:2.23864;stroke-linecap:round;stroke-linejoin:round;stroke-miterlimit:4;stroke-dasharray:none;stroke-opacity:1"
         d="m 41.716682,171.91164 c -8.499443,-0.42914 -8.91149,-1.08863 -9.526654,-15.24765 -0.223773,-5.1505 -0.417583,-21.69466 -0.430689,-36.7648 l -0.02383,-27.40024 2.437638,-2.917482 2.437639,-2.917481 66.040624,3.2e-5 66.04062,3.1e-5 2.4582,2.849365 2.45819,2.849365 -0.009,37.06699 -0.009,37.06699 -2.44893,2.91885 -2.44892,2.91885 -60.86957,-0.0792 c -33.478255,-0.0436 -63.225858,-0.19818 -66.105779,-0.3436 z"
         id="path57610" />
      <path
         style="opacity:0.494;fill:#f9f9f9;fill-opacity:1;stroke:#ffffff;stroke-width:2.23864;stroke-linecap:round;stroke-linejoin:round;stroke-miterlimit:4;stroke-dasharray:none;stroke-opacity:1"
         d="m 49.629215,64.993743 -2.4422,-2.472916 V 36.145683 9.7705378 l 1.916511,-2.2890615 1.91651,-2.2890612 h 48.140222 48.140222 l 1.91651,2.2890612 1.91652,2.2890605 V 36.176402 62.582264 l -2.47292,2.442199 -2.47292,2.4422 H 99.129538 52.071414 Z M 135.74463,59.47328 c 0.83461,-0.44667 0.87383,-1.492348 0.87383,-23.300684 0,-17.134715 -0.14023,-22.973247 -0.56188,-23.394897 -0.79204,-0.792046 -17.74976,-0.792046 -18.5418,0 -0.42141,0.421405 -0.54917,5.6597 -0.51106,20.953177 0.028,11.215218 0.18598,21.646885 0.35117,23.181486 0.26337,2.446587 0.4445,2.83426 1.47092,3.148094 1.59782,0.488549 15.83186,-0.0055 16.91882,-0.587176 z"
         id="path57686" />
      <rect
         style="opacity:0.494;fill:#4e2ef9;fill-opacity:1;stroke:#ffffff;stroke-width:4.7811;stroke-linecap:round;stroke-linejoin:round;stroke-miterlimit:4;stroke-dasharray:none;stroke-opacity:1"
         id="rect57932"
         width="110.50167"
         height="21.070234"
         x="48.357582"
         y="97.667336" />
      <rect
         style="opacity:0.494;fill:#4e2ef9;fill-opacity:1;stroke:#ffffff;stroke-width:4.7811;stroke-linecap:round;stroke-linejoin:round;stroke-miterlimit:4;stroke-dasharray:none;stroke-opacity:1"
         id="rect57932-5"
         width="110.50167"
         height="21.070234"
         x="48.357574"
         y="118.73757" />
      <rect
         style="opacity:0.494;fill:#4e2ef9;fill-opacity:1;stroke:#ffffff;stroke-width:4.7811;stroke-linecap:round;stroke-linejoin:round;stroke-miterlimit:4;stroke-dasharray:none;stroke-opacity:1"
         id="rect57932-8"
         width="110.50167"
         height="21.070234"
         x="48.357574"
         y="139.8078" />
    </g>
  </g>
</svg>
