<?xml version="1.0" encoding="UTF-8" standalone="no"?>
<svg
   shape-rendering="geometricPrecision"
   text-rendering="geometricPrecision"
   image-rendering="optimizeQuality"
   fill-rule="evenodd"
   clip-rule="evenodd"
   viewBox="0 0 424 511.51"
   version="1.1"
   id="svg4"
   sodipodi:docname="search-result.svg"
   inkscape:version="1.1 (c68e22c387, 2021-05-23)"
   xmlns:inkscape="http://www.inkscape.org/namespaces/inkscape"
   xmlns:sodipodi="http://sodipodi.sourceforge.net/DTD/sodipodi-0.dtd"
   xmlns="http://www.w3.org/2000/svg"
   xmlns:svg="http://www.w3.org/2000/svg">
  <defs
     id="defs8" />
  <sodipodi:namedview
     id="namedview6"
     pagecolor="#ffffff"
     bordercolor="#666666"
     borderopacity="1.0"
     inkscape:pageshadow="2"
     inkscape:pageopacity="0.0"
     inkscape:pagecheckerboard="0"
     showgrid="false"
     inkscape:zoom="1.1925475"
     inkscape:cx="211.7316"
     inkscape:cy="255.33573"
     inkscape:window-width="1440"
     inkscape:window-height="837"
     inkscape:window-x="-8"
     inkscape:window-y="-8"
     inkscape:window-maximized="1"
     inkscape:current-layer="svg4" />
  <path
     fill-rule="nonzero"
     d="M174.43 443.27H21.31C9.54 443.27 0 433.73 0 421.97V21.3C0 9.51 9.52 0 21.31 0h200.94c3.64 0 6.97 1.66 9.15 4.36l104.84 102.09c5.64 5.64 8.62 10.07 8.62 11.43l-.02 135.35c-7.59-3.2-15.53-5.72-23.76-7.49l-.01-113.62h-98.82c-6.64 0-11.94-5.41-11.94-11.95V23.69H23.8v395.78h140.26c2.7 8.32 6.18 16.28 10.37 23.8zm90.89-79.42 16.54 15.77 34.91-35.9c2.73-2.77 4.45-5 7.82-1.52l10.93 11.2c3.59 3.55 3.42 5.63.03 8.94l-47.44 47.24c-7.14 7-5.9 7.43-13.14.25l-28.06-27.92c-1.51-1.63-1.35-3.28.3-4.91l12.7-13.17c1.92-2.03 3.45-1.85 5.41.02zm27.18-89.68c28.59 0 54.48 11.59 73.22 30.33 18.75 18.74 30.33 44.63 30.33 73.23 0 20.92-6.2 40.39-16.87 56.68L424 483.26l-30.9 28.25-43.23-47.56c-16.42 10.95-36.15 17.34-57.37 17.34-28.6 0-54.49-11.6-73.22-30.34-18.75-18.74-30.34-44.63-30.34-73.22 0-28.6 11.59-54.49 30.33-73.23 18.74-18.74 44.63-30.33 73.23-30.33zm59.62 43.93c-15.25-15.26-36.33-24.7-59.62-24.7s-44.37 9.44-59.62 24.7c-15.26 15.26-24.7 36.34-24.7 59.63 0 23.28 9.44 44.37 24.7 59.62 15.25 15.26 36.33 24.69 59.62 24.69s44.37-9.43 59.62-24.69c15.26-15.26 24.7-36.34 24.7-59.62 0-23.29-9.44-44.37-24.7-59.63zM63.27 201.12h218.02v-15.34H63.27v15.34zm0 169.09h94.42c.28-5.2.87-10.32 1.72-15.34H63.27v15.34zm0-56.36h110.25c2.87-5.34 6.1-10.47 9.63-15.34H63.27v15.34zm0-56.37h167.76c15.37-7.87 32.46-12.88 50.56-14.33v-1H63.27v15.33zm0-169.09h71.9V73.06h-71.9v15.33zm0 56.37h102.06v-15.34H63.27v15.34z"
     id="path2"
     style="fill:#7f2aff" />
  <path
     style="opacity:0.999;fill:#ff6600;stroke:#000001;stroke-width:0.103141;stroke-linejoin:round;paint-order:markers fill stroke"
     d="m 371.22648,486.73853 -21.2107,-23.41826 -3.13801,1.98093 c -10.41129,6.57236 -26.37302,12.40493 -39.26638,14.34833 -20.14578,3.03654 -40.21387,0.0303 -58.76827,-8.80346 -25.18761,-11.99189 -44.06772,-32.73796 -53.42323,-58.70317 -5.78785,-16.06353 -7.50485,-36.98361 -4.35475,-53.05858 6.87832,-35.10012 30.45075,-63.76416 63.26397,-76.92887 14.11547,-5.66315 21.70379,-7.0343 38.74097,-7.00021 13.72871,0.0275 15.32133,0.19967 24.7113,2.6719 28.94005,7.61947 52.68451,26.62352 66.19204,52.97728 15.64162,30.51748 15.3824,64.49711 -0.72749,95.36539 l -4.47595,8.57638 20.14911,22.03036 c 11.08201,12.1167 21.06823,23.02002 22.1916,24.22962 l 2.0425,2.19925 -14.64247,13.52339 c -8.05337,7.43786 -14.96447,13.50192 -15.35801,13.47568 -0.39354,-0.0262 -10.26034,-10.58592 -21.92623,-23.46596 z m -66.72172,-25.19068 c 35.83206,-4.98378 64.43679,-32.44953 71.21475,-68.37912 2.0726,-10.98671 1.31262,-28.27239 -1.69118,-38.46589 -8.66636,-29.40958 -30.70494,-51.07432 -59.95251,-58.93556 -7.07406,-1.90138 -9.62252,-2.15214 -21.84428,-2.14937 -15.29281,0.003 -20.60666,1.00418 -33.22412,6.25684 -14.3313,5.96614 -29.98804,19.35632 -38.34653,32.79528 -21.38395,34.38158 -15.60744,78.95122 13.83195,106.72285 18.84722,17.77952 44.0744,25.76254 70.01192,22.15497 z"
     id="path918" />
  <path
     style="opacity:0.999;fill:#2a7fff;stroke:#000001;stroke-width:0.103141;stroke-linejoin:round;paint-order:markers fill stroke"
     d="M 18.447902,442.59774 C 10.732256,440.86495 5.4885849,436.80664 2.3922313,430.17153 L 0.43565375,425.97883 0.4274612,222.15311 C 0.4182692,-6.5877692 -0.16636217,13.538884 6.6862611,6.6862611 13.38171,-0.00918723 5.5334634,0.41888191 121.52819,0.42240505 c 99.35305,0.003018 103.29673,0.0616343 105.7738,1.57216565 3.24547,1.979106 107.55275,103.3808593 112.93602,109.7901393 l 3.98307,4.74222 v 67.72732 c 0,37.25003 -0.1672,67.72732 -0.37156,67.72732 -0.20436,0 -3.69478,-1.10254 -7.7565,-2.45009 -4.06173,-1.34754 -8.98866,-2.87147 -10.94875,-3.38648 l -3.5638,-0.9364 v -56.56919 -56.5692 l -50.10282,-0.0185 c -47.59356,-0.0175 -50.28045,-0.0991 -53.6493,-1.62833 -2.04764,-0.92952 -4.26125,-2.78228 -5.23775,-4.38393 -1.64608,-2.69989 -1.69135,-4.11272 -1.6944,-52.876831 l -0.003,-50.102792 H 116.97647 23.059877 V 221.37482 419.68977 h 70.369078 70.369075 l 1.77794,5.24088 c 0.97788,2.88249 3.19599,8.16529 4.92917,11.73958 l 3.15122,6.49869 -76.76569,-0.0973 c -42.221128,-0.0535 -77.520373,-0.26677 -78.442768,-0.47391 z"
     id="path1092" />
  <path
     style="opacity:0.999;fill:#2a7fff;stroke:#000001;stroke-width:0.103141;stroke-linejoin:round;paint-order:markers fill stroke"
     d="m 63.309845,80.499936 v -7.127599 h 35.637993 35.637992 v 7.127599 7.127598 H 98.947838 63.309845 Z"
     id="path1131" />
  <path
     style="opacity:0.999;fill:#2a7fff;stroke:#000001;stroke-width:0.103141;stroke-linejoin:round;paint-order:markers fill stroke"
     d="m 63.309845,137.10145 v -7.54687 h 50.731735 50.73173 v 7.54687 7.54687 H 114.04158 63.309845 Z"
     id="path1170" />
  <path
     style="opacity:0.999;fill:#2a7fff;stroke:#000001;stroke-width:0.103141;stroke-linejoin:round;paint-order:markers fill stroke"
     d="m 63.309845,193.70297 v -7.1276 H 171.9009 280.49196 v 7.1276 7.1276 H 171.9009 63.309845 Z"
     id="path1209" />
  <path
     style="opacity:0.999;fill:#2a7fff;stroke:#000001;stroke-width:0.103141;stroke-linejoin:round;paint-order:markers fill stroke"
     d="m 63.309845,249.88522 v -7.1276 l 107.123615,0.0677 107.12361,0.0677 -8.8489,1.55959 c -10.32155,1.81914 -22.95522,5.68748 -31.72879,9.71512 l -6.19752,2.84506 H 147.04585 63.309845 Z"
     id="path1248" />
  <path
     style="opacity:0.999;fill:#2a7fff;stroke:#000001;stroke-width:0.103141;stroke-linejoin:round;paint-order:markers fill stroke"
     d="m 63.309845,306.07349 v -7.13362 h 59.117145 c 32.51442,0 59.11714,0.1593 59.11714,0.35401 0,0.19471 -1.83292,3.30779 -4.07315,6.91797 l -4.07315,6.56394 -55.04399,0.21567 -55.043995,0.21566 z"
     id="path1287" />
  <path
     style="opacity:0.999;fill:#2a7fff;stroke:#000001;stroke-width:0.103141;stroke-linejoin:round;paint-order:markers fill stroke"
     d="m 63.309845,362.66898 v -7.54687 H 111.2 159.09016 l -0.46825,2.72526 c -0.25754,1.49889 -0.72035,4.89498 -1.02849,7.54687 l -0.56022,4.82161 H 110.17152 63.309845 Z"
     id="path1326" />
</svg>
