<?xml version="1.0" encoding="UTF-8" standalone="no"?>
<!-- Created with Inkscape (http://www.inkscape.org/) -->

<svg
   version="1.1"
   id="svg8940"
   width="222.00328"
   height="191.50494"
   viewBox="0 0 222.00328 191.50494"
   sodipodi:docname="source-folder.svg"
   inkscape:version="1.1 (c68e22c387, 2021-05-23)"
   xmlns:inkscape="http://www.inkscape.org/namespaces/inkscape"
   xmlns:sodipodi="http://sodipodi.sourceforge.net/DTD/sodipodi-0.dtd"
   xmlns="http://www.w3.org/2000/svg"
   xmlns:svg="http://www.w3.org/2000/svg">
  <defs
     id="defs8944" />
  <sodipodi:namedview
     id="namedview8942"
     pagecolor="#ffffff"
     bordercolor="#666666"
     borderopacity="1.0"
     inkscape:pageshadow="2"
     inkscape:pageopacity="0.0"
     inkscape:pagecheckerboard="0"
     showgrid="false"
     inkscape:zoom="2.5338983"
     inkscape:cx="118.19732"
     inkscape:cy="107.14716"
     inkscape:window-width="1280"
     inkscape:window-height="961"
     inkscape:window-x="-8"
     inkscape:window-y="-8"
     inkscape:window-maximized="1"
     inkscape:current-layer="g8946" />
  <g
     inkscape:groupmode="layer"
     inkscape:label="Image"
     id="g8946">
    <g
       id="g9048"
       transform="translate(-6.9967148,-9.4950504)">
      <path
         style="fill:#d3d3d3"
         d="M 16,200.29377 C 13.667947,199.44128 9.9538429,195.77652 8.404986,192.79966 7.2306703,190.54266 7,176.20174 7,105.45079 7,11.152987 6.6260883,16.262026 13.856462,11.765763 17.413552,9.5537584 18.156646,9.5 45.175782,9.5 77.132877,9.5 75.086216,8.9272607 83.067848,20.103751 L 87.635696,26.5 147.06785,27 206.5,27.5 l 3.26509,2.328838 C 214.58995,33.270192 216,36.79247 216,45.403546 v 7.502865 l 4.33993,1.919756 C 225.43105,57.078213 229,62.15536 229,67.145887 c 0,2.851112 -20.71976,116.905063 -22.59515,124.377193 -0.33534,1.3361 -2.36491,4.01499 -4.51016,5.9531 L 197.99424,201 107.74712,200.92105 C 58.111204,200.87763 16.825,200.59536 16,200.29377 Z M 194.87373,186.75 c 0.45332,-1.2375 5.6722,-28.54081 11.5975,-60.67402 10.30994,-55.911295 10.69433,-58.481748 8.93766,-59.766261 -1.50879,-1.103255 -17.09511,-1.294833 -87.53917,-1.07598 C 80.732763,65.380183 41.930864,65.735414 41.643273,66.023143 40.69244,66.974432 18.895128,186.28432 19.421542,187.65614 19.847838,188.76705 35.028024,189 106.99337,189 H 194.0495 Z M 24.517639,90 c 2.543342,-14.025 5.414684,-27.057148 6.380761,-28.960329 1.077467,-2.122623 3.430344,-4.345479 6.086335,-5.75 L 41.314567,53 H 122.65728 204 v -6.393011 c 0,-4.9071 -0.36765,-6.534092 -1.58179,-7 C 201.54823,39.273145 174.73016,39 142.8225,39 76.068553,39 81.735067,39.849419 74.33098,28.733014 L 69.823825,21.966028 44.661912,22.233014 19.5,22.5 19.323711,70 c -0.09696,26.125 -0.0084,47.05 0.19669,46.5 0.205139,-0.55 2.453896,-12.475 4.997238,-26.5 z"
         id="path9062" />
      <path
         style="fill:#b2b2b2"
         d="M 17.351605,199.91834 C 12.825236,198.59156 8.2625396,192.96651 7.5156032,187.7922 7.1748242,185.43149 7.0319038,146.74524 7.1980025,101.82276 7.4963735,21.126331 7.5247586,20.112371 9.5617886,17.384551 10.695772,15.866016 12.865275,13.695772 14.382905,12.561789 16.988251,10.615056 18.658927,10.48484 44.321116,10.228337 75.19198,9.9197724 75.146776,9.9099035 80.912128,18.21691 82.547066,20.572609 84.844902,23.7375 86.01843,25.25 L 88.152117,28 h 58.473603 c 64.52846,0 62.45438,-0.196699 66.41476,6.298549 1.49125,2.445726 1.95293,5.029684 1.95578,10.946328 l 0.004,7.744877 4.48098,2.106308 c 5.18122,2.435462 8.71902,7.407296 8.71902,12.253245 0,1.809297 -5.02398,30.483371 -11.1644,63.720163 -7.68926,41.62029 -11.70832,61.18947 -12.91179,62.86874 -0.96106,1.34102 -2.98989,3.36602 -4.50851,4.5 -2.73569,2.0428 -3.57316,2.06336 -90.93821,2.2324 -51.490062,0.0996 -89.487014,-0.21337 -91.325485,-0.75227 z M 194.80341,188.73688 c 0.57656,-0.69471 6.04056,-28.20038 12.14222,-61.1237 8.49722,-45.849211 10.82658,-60.182725 9.95171,-61.236879 -1.62225,-1.954692 -174.08023,-2.065785 -175.700746,-0.113182 -0.576563,0.694716 -6.040566,28.20038 -12.142229,61.123701 -8.497212,45.84921 -10.826574,60.18272 -9.951704,61.23688 1.62225,1.95469 174.080229,2.06578 175.700749,0.11318 z M 25.07473,91.5 C 27.902398,76.1 30.578631,62.825 31.021916,62 31.4652,61.175 33.245999,59.15 34.979247,57.5 l 3.151359,-3 L 121.3153,54 204.5,53.5 204.7947,47.366132 C 205.28352,37.192118 210.58494,38 143.33286,38 91.476519,38 84.499928,37.817672 82.099519,36.399716 c -1.489986,-0.880157 -4.845865,-4.705157 -7.457509,-8.5 L 69.893566,21 H 45.146783 C 27.232618,21 20.068678,21.331322 19.2,22.2 c -0.903209,0.903209 -1.183261,13.578656 -1.13232,51.25 0.04124,30.49639 0.418934,49.26864 0.966758,48.05 0.494493,-1.1 3.212625,-14.6 6.040292,-30 z"
         id="path9060" />
      <path
         style="fill:#929292"
         d="M 15.061664,198.17273 C 13.18774,197.16774 10.832261,194.81226 9.8272653,192.93834 8.0992214,189.71621 8,184.98095 8,105.73348 8,13.423658 7.7650431,16.942716 14.189824,13.025635 c 3.109127,-1.895583 4.99096,-2.018386 30.983451,-2.021897 L 72.846549,11 l 3.130637,2.634257 c 1.721849,1.448841 4.923143,5.273841 7.113986,8.5 L 87.074522,28 145.28726,28.0016 c 53.44506,0.0014 58.49357,0.144754 61.64166,1.75 5.87773,2.99713 7.52471,6.285328 7.92364,15.819601 l 0.35256,8.425988 4.37077,1.9334 c 4.75023,2.101253 8.42182,6.934651 8.4087,11.069457 -0.0182,5.719934 -22.8295,124.940494 -24.31028,127.054604 -0.8603,1.22825 -2.82646,3.06546 -4.36924,4.0827 -2.67593,1.76437 -6.90312,1.84982 -91.82067,1.85611 -84.308079,0.006 -89.195787,-0.09 -92.422736,-1.82068 z M 195.89139,187.75 C 196.95499,184.90749 218,71.129474 218,68.221753 218,67.038491 217.12958,65.604535 216.06574,65.035184 214.77545,64.34464 185.51873,64 128.18819,64 52.858405,64 42.090523,64.186 40.994905,65.506139 39.846093,66.890372 18.020094,181.84349 18.006135,186.58333 c -0.0034,1.14584 0.293865,2.38334 0.660532,2.75 C 19.033333,189.7 58.869471,190 107.19142,190 H 195.0495 Z M 24.878878,94.814152 C 28.598886,74.892498 31.415966,62.294789 32.531533,60.592219 36.712398,54.211412 32.233501,54.527389 122.75,54.227487 L 205,53.954973 V 47.177487 C 205,43.239441 204.49726,39.897258 203.8,39.2 202.89409,38.294088 188.30008,38 144.25034,38 94.170106,38 85.486882,37.786017 82.980891,36.490118 81.375006,35.659683 78.188402,32.172183 75.899547,28.740118 73.610692,25.308053 71.035936,21.9375 70.177867,21.25 68.183692,19.652233 22.880248,19.458538 19.934259,21.035184 18.059527,22.03851 18,23.690102 18,74.70185 c 0,28.94732 0.22313,52.40835 0.495845,52.13564 0.272715,-0.27272 3.14508,-14.68322 6.383033,-32.023338 z"
         id="path9058" />
      <path
         style="fill:#737373"
         d="m 17.332914,198.9027 c -4.308959,-1.2475 -8.0839342,-6.02206 -8.821577,-11.15745 -0.3353807,-2.33489 -0.4751327,-40.99997 -0.31056,-85.9224 0.2960083,-80.799648 0.321474,-81.707485 2.370308,-84.500003 4.372074,-5.959048 6.352822,-6.319584 34.728575,-6.321293 30.014454,-0.0018 29.544052,-0.123457 35.800793,9.258328 2.288855,3.432065 4.863611,6.802618 5.72168,7.490118 1.208066,0.967923 14.739777,1.25 59.964707,1.25 52.2711,0 58.69534,0.17176 61.17333,1.635541 4.51718,2.668366 6.03804,6.315019 6.05514,14.518751 0.0171,8.222781 0.41629,9.256853 3.98469,10.323271 3.63654,1.086782 7.87946,5.426331 8.89241,9.094942 C 228.08805,68.902749 205.8173,190.21688 203.13221,194 c -0.97591,1.375 -3.31739,3.2868 -5.20329,4.24845 -3.19076,1.627 -9.47151,1.74229 -90.42892,1.65981 -49.476753,-0.0504 -88.36597,-0.48411 -90.167086,-1.00556 z M 195.42857,189.42857 C 196.29286,188.56429 197,187.54423 197,187.16178 c 0,-0.38244 4.94525,-27.38876 10.98944,-60.01404 8.27733,-44.679259 10.73657,-59.791173 9.96482,-61.23321 C 216.9568,64.05076 214.59685,64 128.94338,64 H 40.957122 l -0.991499,2.25 c -0.545325,1.2375 -5.9393,28.985564 -11.986611,61.66236 -10.312852,55.72576 -10.891918,59.5264 -9.332074,61.25 1.589718,1.75662 5.488655,1.83764 88.436622,1.83764 77.55174,0 86.94059,-0.167 88.34501,-1.57143 z M 19.333383,126.75 c 0.302609,-1.2375 3.079496,-15.975 6.170859,-32.75 3.091364,-16.775 6.273825,-31.506233 7.072137,-32.736073 0.798312,-1.22984 2.662713,-3.02984 4.143114,-4 C 39.220353,55.625024 45.297169,55.464561 122.45557,55 L 205.5,54.5 205.79008,47.995947 C 206.30289,36.498245 212.46432,37.577312 143.00363,37 L 82.844936,36.5 79.672468,32.950794 c -1.744857,-1.952064 -4.625695,-5.664564 -6.40186,-8.25 L 70.041215,20 H 45.092036 C 23.744298,20 19.91602,20.226837 18.571429,21.571429 17.182443,22.960414 17,29.287879 17,76.071429 17,123.85781 17.481797,134.32193 19.333383,126.75 Z"
         id="path9056" />
      <path
         style="fill:#4f4f4f"
         d="M 12.882353,195.11765 9,191.23529 V 105.98568 C 9,22.35633 9.0381803,20.674291 11.008843,17.485691 14.473591,11.879611 16.672218,11.5 45.67667,11.5 c 30.242866,0 28.444304,-0.524069 36.391178,10.603751 L 86.635696,28.5 146.11284,29 c 54.45196,0.457755 59.70272,0.647856 62.14697,2.25 4.08638,2.678518 5.19613,5.510142 5.74019,14.646585 0.36311,6.097696 0.91068,8.59851 2,9.13411 0.825,0.405639 2.81092,1.352176 4.41315,2.103415 3.41996,1.603521 6.57369,6.322822 6.593,9.86589 0.0267,4.891551 -22.0761,122.55429 -23.58817,125.57022 C 199.99922,199.38919 205.867,199 106.47806,199 H 16.764706 Z M 195.91689,189.60014 C 196.98398,188.31437 219,72.351335 219,68.016488 219,66.969794 217.99987,65.412891 216.77749,64.556704 214.80794,63.177176 204.80487,63 128.88828,63 48.78041,63 43.083119,63.113556 41.087945,64.75 39.226157,66.277041 37.555774,74.053888 27.977161,125.79022 21.939722,158.39983 17,185.87233 17,186.84022 17,191.06549 15.581861,191 107.07756,191 c 73.92796,0 87.85974,-0.21953 88.83933,-1.39986 z M 25.051531,98.499397 C 28.434211,80.349729 31.89212,64.017677 32.735774,62.205949 36.005841,55.183552 31.347029,55.555473 123,55 l 82.5,-0.5 0.29153,-7.137042 c 0.22534,-5.516703 -0.0747,-7.503235 -1.32143,-8.75 C 203.02299,37.165851 196.85411,37 144.47562,37 c -43.5919,0 -59.055225,-0.306963 -61.040965,-1.211727 -1.462698,-0.66645 -4.872585,-4.49145 -7.577527,-8.5 L 70.939052,20 H 45.169526 C 26.459895,20 19.071244,20.328756 18.2,21.2 17.295495,22.104505 17,36.066667 17,77.9 c 0,35.07733 0.349799,55.1502 0.950603,54.5494 0.522831,-0.52283 3.718249,-15.80033 7.100928,-33.950003 z"
         id="path9054" />
      <path
         style="fill:#2f2f2f"
         d="M 16,197.24845 C 8.6406188,193.57202 8.9966202,198.25145 9.0579962,106 9.0987311,44.773275 9.4206527,22.621649 10.306442,20.093664 c 0.656457,-1.873485 2.463011,-4.348485 4.014564,-5.5 2.670668,-1.982087 4.238962,-2.109524 29.427986,-2.39126 19.009395,-0.212619 27.433169,0.04462 29.500323,0.900866 1.783761,0.738858 4.761874,3.967503 7.765715,8.419003 2.679803,3.971297 5.60951,7.503408 6.510458,7.849134 C 88.426436,29.717133 115.41724,30 147.50506,30 h 58.34149 l 3.02328,2.54392 c 3.69665,3.110525 4.26816,4.800526 5.03074,14.876115 0.58413,7.717862 0.67601,7.944552 3.59943,8.880488 4.01657,1.285908 6.49749,3.541471 8.12549,7.387385 1.23604,2.919972 0.37842,8.425099 -10.204,65.500002 -6.50323,35.0743 -12.2143,63.33212 -13.06526,64.64562 -3.41457,5.27056 -1.49076,5.16659 -95.57411,5.16492 C 25.688879,198.997 19.251827,198.87292 16,197.24845 Z M 196,190 c 1.1,-1.1 2,-2.40889 2,-2.90864 0,-0.49976 4.94368,-27.5884 10.98595,-60.19698 10.11263,-54.57529 10.86599,-59.47141 9.47694,-61.591357 L 216.95389,63 H 129 41.046106 l -1.427721,2.25 c -0.785246,1.2375 -6.201581,28.125 -12.0363,59.75 -5.83472,31.625 -10.856935,58.70818 -11.160479,60.18485 -0.391113,1.90267 0.04975,3.2865 1.513247,4.75 C 19.990066,191.99007 20.418506,192 107,192 c 85.66667,0 87.03065,-0.0307 89,-2 z M 25.535386,98.885452 c 3.523459,-18.911999 6.860236,-35.398986 7.41506,-36.637749 0.554823,-1.238764 2.480446,-3.149582 4.279162,-4.246262 3.196801,-1.949096 5.116703,-1.994049 85.320392,-1.997703 62.47912,-0.0028 82.33623,-0.289967 83.25,-1.203738 2.01685,-2.016851 1.51865,-13.184795 -0.71105,-15.939216 L 203.1779,36.5 143.24172,36 C 76.043442,35.439418 82.050531,36.215353 76.375993,27.362959 70.617814,18.380083 72.948901,19 44.928571,19 21.333333,19 19.893028,19.106972 18,21 c -1.950997,1.950997 -2,3.333333 -2,56.418213 0,29.930017 0.284752,55.160267 0.632783,56.067217 0.390962,1.01883 0.98886,1.29293 1.564548,0.71724 0.512471,-0.51247 3.814596,-16.40522 7.338055,-35.317218 z"
         id="path9052" />
      <path
         style="fill:#050505"
         d="M 15.762571,196.43461 C 4.758908,180.37179 13.083168,160.46042 10.038835,142.70343 9.880954,102.60219 9.9669699,62.499797 10.34774,22.399985 17.017086,9.2419203 33.706946,12.766826 45.645112,13.36848 c 10.189948,-0.611645 22.81098,-3.6846006 30.307251,5.40719 8.407729,8.514429 20.944221,14.571051 33.015927,11.112155 32.00791,-0.07766 64.0243,0.08221 96.01386,1.261645 9.92808,10.00598 9.38464,26.059007 19.41639,35.994037 -0.42626,23.55939 -8.51274,46.079833 -10.84443,69.418873 -3.30453,18.32333 -6.7989,36.61548 -10.77608,54.80589 -11.47163,10.67727 -27.99873,5.65884 -41.95723,5.84205 -48.32197,1.24712 -96.764886,1.4771 -145.058229,-0.77571 z M 196.8954,190.62604 c 9.03121,-39.66739 16.01086,-79.76766 22.33384,-119.945215 -6.91096,-10.86449 -21.43066,-9.878217 -32.57791,-8.473104 -18.42726,2.055955 -36.90834,-1.551606 -55.37291,-0.250811 -29.20706,-0.0358 -58.415471,0.06387 -87.619,0.548838 C 30.184644,77.232833 35.194957,98.772242 28.573394,116.2097 24.151926,139.71123 19.84297,163.23624 16,186.84022 c 16.462959,10.95665 36.538293,1.16065 54.476787,5.12608 42.141143,0.3123 84.308743,0.62786 126.418613,-1.34026 z M 25.958805,100.30337 C 30.757691,87.185039 26.821973,70.616728 37.860288,60.115076 51.290639,53.345309 66.613781,58.290174 80.880938,56.417648 122.75282,55.973461 164.62634,55.706026 206.5,55.5 212.38851,43.670925 197.66611,33.07731 186.71445,34.782728 156.46025,36.705973 126.10818,36.155341 95.805478,35.68706 86.935325,37.87918 82.152788,30.933663 76.232021,25.705285 68.620068,18.869531 58.177447,15.185957 48.018369,17.546912 37.843425,18.038674 24.479437,15.02284 17.768252,24.926658 c -5.891426,11.986062 0.298483,25.581839 -1.5614,38.239415 -0.02054,24.727319 -0.654925,49.470607 0.476481,74.183927 7.100885,-11.08144 5.274704,-24.9605 9.275472,-37.04663 z"
         id="path9050" />
    </g>
    <path
       style="fill:#0055d4;stroke-width:0.394649"
       d="M 27.033445,178.9581 C 20.196154,178.808 14.1412,178.56007 13.577991,178.40716 l -1.024016,-0.27803 0.732384,-4.80704 C 15.692593,157.52864 31.666586,70.250032 34.065472,59.789298 l 0.678766,-2.959867 6.504135,-0.248087 c 3.577274,-0.136448 36.073199,-0.378805 72.213167,-0.538573 66.38897,-0.293491 92.85983,-0.0093 94.7787,1.017692 0.78379,0.419473 0.82291,0.666835 0.60996,3.857754 -0.28617,4.288159 -2.51643,17.349789 -8.56739,50.175433 -8.0087,43.44615 -12.20078,65.14133 -12.98265,67.18896 l -0.4144,1.08528 -73.71044,-0.0684 c -40.54074,-0.0376 -79.304584,-0.19125 -86.141875,-0.34136 z"
       id="path9544" />
    <path
       style="fill:#aaccff;stroke-width:0.394649"
       d="m 12.552476,59.706098 c 0.06113,-25.332885 0.212778,-46.16143 0.337004,-46.285656 0.124227,-0.124227 11.398195,-0.33729 25.053263,-0.473474 l 24.827396,-0.247608 3.698097,5.627194 c 4.514084,6.868838 5.22944,7.735373 7.227208,8.754559 4.613354,2.353557 13.00341,2.695685 66.404886,2.707849 44.07247,0.01004 54.63141,0.203872 55.75419,1.023497 0.58162,0.424579 0.69908,1.362438 0.80769,6.449208 l 0.1271,5.95238 h -81.1806 -81.180597 l -3.176017,1.677257 c -4.528177,2.391335 -7.089961,4.995937 -8.081438,8.216514 -1.22557,3.980973 -3.721612,16.043821 -7.180435,34.701547 -1.750381,9.441973 -3.264945,17.344815 -3.365698,17.561875 -0.100753,0.21705 -0.133175,-20.332259 -0.07205,-45.665142 z"
       id="path9657" />
    <text
       xml:space="preserve"
       style="font-style:normal;font-weight:normal;font-size:145.819px;line-height:1.25;font-family:sans-serif;fill:#000000;fill-opacity:1;stroke:none;stroke-width:3.64548"
       x="73.416809"
       y="160.4576"
       id="text11899"
       transform="scale(0.91163616,1.0969288)"><tspan
         sodipodi:role="line"
         id="tspan11897"
         x="73.416809"
         y="160.4576"
         style="fill:#ffffff;stroke-width:3.64548">S</tspan></text>
  </g>
</svg>
