<?xml version="1.0" encoding="UTF-8" standalone="no"?>
<!-- Created with Inkscape (http://www.inkscape.org/) -->

<svg
   version="1.1"
   id="svg824"
   width="96"
   height="126"
   viewBox="0 0 96 126"
   sodipodi:docname="empty-file.svg"
   inkscape:version="1.1 (c68e22c387, 2021-05-23)"
   xmlns:inkscape="http://www.inkscape.org/namespaces/inkscape"
   xmlns:sodipodi="http://sodipodi.sourceforge.net/DTD/sodipodi-0.dtd"
   xmlns="http://www.w3.org/2000/svg"
   xmlns:svg="http://www.w3.org/2000/svg">
  <defs
     id="defs828" />
  <sodipodi:namedview
     id="namedview826"
     pagecolor="#ffffff"
     bordercolor="#666666"
     borderopacity="1.0"
     inkscape:pageshadow="2"
     inkscape:pageopacity="0.0"
     inkscape:pagecheckerboard="0"
     showgrid="false"
     inkscape:zoom="3.555"
     inkscape:cx="31.64557"
     inkscape:cy="71.870605"
     inkscape:window-width="1440"
     inkscape:window-height="837"
     inkscape:window-x="-8"
     inkscape:window-y="-8"
     inkscape:window-maximized="1"
     inkscape:current-layer="g932" />
  <g
     inkscape:groupmode="layer"
     inkscape:label="Image"
     id="g830"
     transform="translate(-52.002446,-28)">
    <g
       id="g932">
      <path
         style="fill:#333333;fill-opacity:1;stroke-width:0.9014"
         d="m 59.000033,146.57936 c -7.209818,-2.92643 -6.996925,-1.18974 -6.996925,-57.078095 0,-45.947397 0.140746,-50.198749 1.748454,-52.813642 3.303088,-5.372381 5.29358,-5.684939 36.2129,-5.68636 L 117.42887,31 l 15.28579,12.419911 15.28579,12.419912 -0.002,41.815635 c -0.001,38.182722 -0.15346,42.062702 -1.75001,44.659452 C 142.81073,147.90624 142.04793,148 99.999773,148 c -33.700561,0 -37.854805,-0.14394 -41.00019,-1.42064 z m 79.800367,-6.052 c 0.90056,-0.73171 1.20001,-10.86967 1.20001,-40.62587 V 60.250633 h -12.42863 c -9.96542,0 -12.74007,-0.253051 -14.00006,-1.276814 -1.26,-1.023763 -1.57144,-3.27821 -1.57144,-11.375246 V 37.50014 H 87.200164 c -17.95564,0 -25.1313,0.269092 -26.000121,0.975021 -1.733752,1.408698 -1.733752,100.643519 0,102.052199 1.72215,1.39927 75.878217,1.39927 77.600357,0 z m -4.80002,-87.001789 c 0,-0.123706 -3.15001,-2.764739 -7.00003,-5.868961 l -7.00003,-5.64404 v 5.868962 5.86896 h 7.00003 c 3.85002,0 7.00003,-0.101215 7.00003,-0.224921 z"
         id="path934" />
    </g>
  </g>
</svg>
