<?xml version="1.0" encoding="UTF-8" standalone="no"?>
<!-- Created with Inkscape (http://www.inkscape.org/) -->

<svg
   version="1.1"
   id="svg824"
   width="96"
   height="126"
   viewBox="0 0 96 126"
   sodipodi:docname="txt.svg"
   inkscape:version="1.1 (c68e22c387, 2021-05-23)"
   xmlns:inkscape="http://www.inkscape.org/namespaces/inkscape"
   xmlns:sodipodi="http://sodipodi.sourceforge.net/DTD/sodipodi-0.dtd"
   xmlns="http://www.w3.org/2000/svg"
   xmlns:svg="http://www.w3.org/2000/svg">
  <defs
     id="defs828" />
  <sodipodi:namedview
     id="namedview826"
     pagecolor="#ffffff"
     bordercolor="#666666"
     borderopacity="1.0"
     inkscape:pageshadow="2"
     inkscape:pageopacity="0.0"
     inkscape:pagecheckerboard="0"
     showgrid="false"
     inkscape:zoom="3.555"
     inkscape:cx="31.64557"
     inkscape:cy="71.870605"
     inkscape:window-width="1440"
     inkscape:window-height="837"
     inkscape:window-x="-8"
     inkscape:window-y="-8"
     inkscape:window-maximized="1"
     inkscape:current-layer="text3227" />
  <g
     inkscape:groupmode="layer"
     inkscape:label="Image"
     id="g830"
     transform="translate(-52.002446,-28)">
    <g
       id="g932">
      <path
         style="fill:#2e679b;fill-opacity:1;stroke-width:0.853934"
         d="m 64.125462,149.54298 c -6.308722,-3.00148 -6.122437,-1.22026 -6.122437,-58.54164 0,-47.125532 0.123155,-51.485893 1.529929,-54.167835 2.890263,-5.510133 4.631979,-5.830705 31.686949,-5.832163 L 115.25176,31 l 13.37535,12.73837 13.37534,12.73837 -0.002,42.887827 c -8.8e-4,39.161763 -0.13428,43.141233 -1.53129,45.804563 -3.00805,5.7347 -3.67552,5.83087 -40.46842,5.83087 -29.48861,0 -33.12365,-0.14764 -35.87592,-1.45707 z m 69.826778,-6.20718 c 0.788,-0.75048 1.05003,-11.14839 1.05003,-41.66756 V 61.000694 h -10.87528 c -8.71992,0 -11.14779,-0.259539 -12.25031,-1.309553 -1.10251,-1.050013 -1.37503,-3.362265 -1.37503,-11.666918 V 37.666858 H 88.801091 c -15.711512,0 -21.990346,0.275991 -22.75058,1.000021 -1.517065,1.444818 -1.517065,103.224121 0,104.668921 1.506913,1.43515 66.394819,1.43515 67.901729,0 z m -4.2001,-89.232605 c 0,-0.126877 -2.75633,-2.835628 -6.12516,-6.019446 l -6.12516,-5.788759 v 6.019447 6.019446 h 6.12516 c 3.36883,0 6.12516,-0.103809 6.12516,-0.230688 z"
         id="path934" />
      <g
         aria-label="TXT"
         transform="matrix(1.1840279,0,0,1.0092557,-33.440751,12.91929)"
         id="text5672"
         style="font-size:37.3333px;line-height:1.25;font-family:'Times New Roman';-inkscape-font-specification:'Times New Roman, Normal';stroke-width:1.88333">
        <path
           d="m 98.46497,89.724669 0.273438,5.79687 H 98.0457 Q 97.845179,93.99029 97.498825,93.33404 96.933722,92.27675 95.985806,91.784563 95.056119,91.274146 93.52487,91.274146 h -3.481768 v 18.885404 q 0,2.27864 0.492188,2.84374 0.692707,0.76563 2.13281,0.76563 h 0.85677 v 0.67448 H 83.043108 v -0.67448 h 0.875 q 1.567707,0 2.223956,-0.94792 0.401041,-0.58333 0.401041,-2.66145 V 91.274146 h -2.971351 q -1.73177,0 -2.460936,0.255209 -0.947915,0.346353 -1.622394,1.330728 -0.674479,0.984374 -0.802083,2.661456 h -0.692707 l 0.291666,-5.79687 z"
           style="fill:#ffffff"
           id="path11538" />
        <path
           d="m 114.90766,100.75331 5.30469,7.91145 q 2.20573,3.28124 3.26302,4.15624 1.07552,0.85677 2.71614,0.94792 v 0.67448 h -10.60937 v -0.67448 q 1.05729,-0.0182 1.56771,-0.21875 0.38281,-0.16406 0.61979,-0.49219 0.25521,-0.34635 0.25521,-0.69271 0,-0.41927 -0.16406,-0.83854 -0.12761,-0.30989 -1.00261,-1.60416 l -4.1927,-6.34375 -5.17708,6.63541 q -0.82031,1.0573 -0.98437,1.42188 -0.16407,0.34635 -0.16407,0.72916 0,0.58334 0.49219,0.96615 0.49219,0.38281 1.8776,0.4375 v 0.67448 h -8.768218 v -0.67448 q 0.929688,-0.0911 1.604168,-0.38281 1.1302,-0.47396 2.15104,-1.27604 1.02083,-0.80209 2.33333,-2.46094 l 5.83333,-7.36458 -4.86719,-7.127594 q -1.98697,-2.898435 -3.37239,-3.791664 -1.38542,-0.911457 -3.1901,-0.966145 v -0.674478 h 11.42968 v 0.674478 q -1.45834,0.05469 -2.00521,0.473958 -0.52865,0.419271 -0.52865,0.929687 0,0.674478 0.875,1.968748 l 3.79167,5.669266 4.39322,-5.559891 q 0.76563,-0.984374 0.92969,-1.348957 0.18229,-0.364583 0.18229,-0.747395 0,-0.382813 -0.21875,-0.674479 -0.27344,-0.382812 -0.69271,-0.528645 -0.41927,-0.164063 -1.73177,-0.182292 v -0.674478 h 8.76823 v 0.674478 q -1.03907,0.05469 -1.69532,0.328125 -0.98437,0.41927 -1.80468,1.130207 -0.82031,0.710937 -2.3151,2.624998 z"
           style="fill:#ffffff"
           id="path11540" />
        <path
           d="m 148.23055,89.724669 0.27344,5.79687 h -0.69271 q -0.20052,-1.531249 -0.54687,-2.187499 -0.56511,-1.05729 -1.51302,-1.549477 -0.92969,-0.510417 -2.46094,-0.510417 h -3.48176 v 18.885404 q 0,2.27864 0.49218,2.84374 0.69271,0.76563 2.13281,0.76563 h 0.85677 v 0.67448 h -10.48176 v -0.67448 h 0.875 q 1.56771,0 2.22396,-0.94792 0.40104,-0.58333 0.40104,-2.66145 V 91.274146 h -2.97135 q -1.73177,0 -2.46094,0.255209 -0.94791,0.346353 -1.62239,1.330728 -0.67448,0.984374 -0.80209,2.661456 h -0.6927 l 0.29166,-5.79687 z"
           style="fill:#ffffff"
           id="path11542" />
      </g>
      <rect
         style="opacity:0.999;fill:#2e679b;fill-opacity:1;stroke:#0a4372;stroke-width:1.9857;stroke-linejoin:round;stroke-miterlimit:2;stroke-dasharray:none;stroke-opacity:1;paint-order:markers fill stroke"
         id="rect845"
         width="94.014297"
         height="37.42334"
         x="52.9953"
         y="97.992851" />
      <path
         style="opacity:0.999;fill:#2e679b;fill-opacity:1;stroke:#2e679b;stroke-width:2.99293;stroke-linejoin:round;stroke-miterlimit:2;stroke-dasharray:none;stroke-opacity:1;paint-order:markers fill stroke"
         d="M 69.864612,52.937392 H 104.46377"
         id="path1016" />
      <path
         style="opacity:0.999;fill:#2e679b;fill-opacity:1;stroke:#2e679b;stroke-width:2.99293;stroke-linejoin:round;stroke-miterlimit:2;stroke-dasharray:none;stroke-opacity:1;paint-order:markers fill stroke"
         d="M 69.864612,61.702354 H 104.46377"
         id="path1016-0" />
      <path
         style="opacity:0.999;fill:#2e679b;fill-opacity:1;stroke:#2e679b;stroke-width:3.97534;stroke-linejoin:round;stroke-miterlimit:2;stroke-dasharray:none;stroke-opacity:1;paint-order:markers fill stroke"
         d="M 69.864612,70.958518 H 130.9054"
         id="path1016-07" />
      <path
         style="opacity:0.999;fill:#2e679b;fill-opacity:1;stroke:#2e679b;stroke-width:3.97534;stroke-linejoin:round;stroke-miterlimit:2;stroke-dasharray:none;stroke-opacity:1;paint-order:markers fill stroke"
         d="M 69.864612,80.705894 H 130.9054"
         id="path1016-07-5" />
      <path
         style="opacity:0.999;fill:#2e679b;fill-opacity:1;stroke:#2e679b;stroke-width:3.97534;stroke-linejoin:round;stroke-miterlimit:2;stroke-dasharray:none;stroke-opacity:1;paint-order:markers fill stroke"
         d="M 69.864612,90.453269 H 130.9054"
         id="path1016-07-0" />
      <g
         aria-label="TXT"
         transform="matrix(0.87453146,0,0,0.70650231,12.267096,34.562041)"
         id="text3227"
         style="font-size:14.5822px;line-height:1.25;fill:#ffffff;stroke-width:0.911387">
        <path
           d="m 81.817816,100.74514 v 7.83936 h -0.768983 q -0.683541,-2.71281 -1.516606,-3.88764 -0.833065,-1.1962 -2.285589,-1.9011 -0.811705,-0.38449 -2.840966,-0.38449 h -2.157425 v 22.34323 q 0,2.22151 0.234967,2.77689 0.256328,0.55538 0.961229,0.98259 0.726262,0.40585 1.96518,0.40585 h 0.961229 v 0.79034 H 61.204794 v -0.79034 h 0.961229 q 1.260278,0 2.029261,-0.44857 0.555377,-0.29905 0.875786,-1.02531 0.234967,-0.51266 0.234967,-2.69145 v -22.34323 h -2.093343 q -2.926408,0 -4.250768,1.23892 -1.858376,1.73021 -2.349671,4.93431 H 55.80055 v -7.83936 z"
           style="font-weight:bold;font-size:43.7466px;font-family:'Times New Roman';-inkscape-font-specification:'Times New Roman, Bold'"
           id="path5689" />
        <path
           d="m 104.1624,112.72846 7.98888,11.85516 q 1.98654,2.94777 2.81961,3.58859 0.85442,0.61946 2.0079,0.74762 v 0.79034 H 102.8594 v -0.79034 q 1.68749,-0.12816 2.17879,-0.51265 0.49129,-0.3845 0.49129,-0.93987 0,-0.38449 -0.14952,-0.68354 -0.29905,-0.64082 -1.49525,-2.3924 l -4.229406,-6.25867 -4.421654,5.40425 q -1.98654,2.45647 -1.98654,3.33226 0,0.61946 0.512656,1.15347 0.512655,0.53402 1.516606,0.76899 0.448573,0.12816 1.837015,0.12816 v 0.79034 H 85.984491 v -0.79034 q 1.901097,-0.27769 2.99049,-1.02531 1.431164,-0.98259 3.994441,-4.10124 l 5.746013,-7.0063 -7.369422,-10.82984 q -1.815655,-2.67008 -2.071983,-2.96913 -0.576737,-0.7049 -1.132114,-1.00395 -0.555377,-0.29905 -1.537966,-0.44858 v -0.79034 h 14.37571 v 0.79034 h -0.72626 q -1.238916,0 -1.73021,0.40586 -0.491295,0.38449 -0.491295,0.98259 0,0.46993 0.149524,0.8117 l 1.473885,2.22151 3.588586,5.46832 3.05457,-3.73811 q 2.34968,-2.88369 2.34968,-4.03716 0,-0.57674 -0.34177,-1.06803 -0.32041,-0.4913 -0.93987,-0.76899 -0.61946,-0.27769 -1.92246,-0.27769 v -0.79034 H 116.103 v 0.79034 q -1.26028,0.0214 -2.02926,0.32041 -0.76898,0.27769 -1.64477,1.06804 -0.55538,0.51265 -2.77688,3.18273 z"
           style="font-weight:bold;font-size:43.7466px;font-family:'Times New Roman';-inkscape-font-specification:'Times New Roman, Bold'"
           id="path5691" />
        <path
           d="m 147.16273,100.74514 v 7.83936 h -0.76898 q -0.68354,-2.71281 -1.51661,-3.88764 -0.83306,-1.1962 -2.28559,-1.9011 -0.8117,-0.38449 -2.84096,-0.38449 h -2.15743 v 22.34323 q 0,2.22151 0.23497,2.77689 0.25633,0.55538 0.96123,0.98259 0.72626,0.40585 1.96518,0.40585 h 0.96122 v 0.79034 h -15.16605 v -0.79034 h 0.96123 q 1.26027,0 2.02926,-0.44857 0.55537,-0.29905 0.87578,-1.02531 0.23497,-0.51266 0.23497,-2.69145 v -22.34323 h -2.09334 q -2.92641,0 -4.25077,1.23892 -1.85838,1.73021 -2.34967,4.93431 h -0.81171 v -7.83936 z"
           style="font-weight:bold;font-size:43.7466px;font-family:'Times New Roman';-inkscape-font-specification:'Times New Roman, Bold'"
           id="path5693" />
      </g>
    </g>
  </g>
</svg>
