<?xml version="1.0" encoding="UTF-8" standalone="no"?>
<!-- Created with Inkscape (http://www.inkscape.org/) -->

<svg
   version="1.1"
   id="svg824"
   width="96"
   height="126"
   viewBox="0 0 96 126"
   sodipodi:docname="txt.svg"
   inkscape:version="1.1 (c68e22c387, 2021-05-23)"
   xmlns:inkscape="http://www.inkscape.org/namespaces/inkscape"
   xmlns:sodipodi="http://sodipodi.sourceforge.net/DTD/sodipodi-0.dtd"
   xmlns="http://www.w3.org/2000/svg"
   xmlns:svg="http://www.w3.org/2000/svg">
  <defs
     id="defs828" />
  <sodipodi:namedview
     id="namedview826"
     pagecolor="#ffffff"
     bordercolor="#666666"
     borderopacity="1.0"
     inkscape:pageshadow="2"
     inkscape:pageopacity="0.0"
     inkscape:pagecheckerboard="0"
     showgrid="false"
     inkscape:zoom="3.555"
     inkscape:cx="31.64557"
     inkscape:cy="71.870605"
     inkscape:window-width="1440"
     inkscape:window-height="837"
     inkscape:window-x="-8"
     inkscape:window-y="-8"
     inkscape:window-maximized="1"
     inkscape:current-layer="text5736" />
  <g
     inkscape:groupmode="layer"
     inkscape:label="Image"
     id="g830"
     transform="translate(-52.002446,-28)">
    <g
       id="g932">
      <path
         style="fill:#2e679b;fill-opacity:1;stroke-width:0.853934"
         d="m 64.125462,149.54298 c -6.308722,-3.00148 -6.122437,-1.22026 -6.122437,-58.54164 0,-47.125532 0.123155,-51.485893 1.529929,-54.167835 2.890263,-5.510133 4.631979,-5.830705 31.686949,-5.832163 L 115.25176,31 l 13.37535,12.73837 13.37534,12.73837 -0.002,42.887827 c -8.8e-4,39.161763 -0.13428,43.141233 -1.53129,45.804563 -3.00805,5.7347 -3.67552,5.83087 -40.46842,5.83087 -29.48861,0 -33.12365,-0.14764 -35.87592,-1.45707 z m 69.826778,-6.20718 c 0.788,-0.75048 1.05003,-11.14839 1.05003,-41.66756 V 61.000694 h -10.87528 c -8.71992,0 -11.14779,-0.259539 -12.25031,-1.309553 -1.10251,-1.050013 -1.37503,-3.362265 -1.37503,-11.666918 V 37.666858 H 88.801091 c -15.711512,0 -21.990346,0.275991 -22.75058,1.000021 -1.517065,1.444818 -1.517065,103.224121 0,104.668921 1.506913,1.43515 66.394819,1.43515 67.901729,0 z m -4.2001,-89.232605 c 0,-0.126877 -2.75633,-2.835628 -6.12516,-6.019446 l -6.12516,-5.788759 v 6.019447 6.019446 h 6.12516 c 3.36883,0 6.12516,-0.103809 6.12516,-0.230688 z"
         id="path934" />
      <rect
         style="opacity:0.999;fill:#2e679b;fill-opacity:1;stroke:#0a4372;stroke-width:1.9857;stroke-linejoin:round;stroke-miterlimit:2;stroke-dasharray:none;stroke-opacity:1;paint-order:markers fill stroke"
         id="rect845"
         width="94.014297"
         height="37.42334"
         x="52.9953"
         y="97.992851" />
      <path
         style="opacity:0.999;fill:#2e679b;fill-opacity:1;stroke:#2e679b;stroke-width:2.99293;stroke-linejoin:round;stroke-miterlimit:2;stroke-dasharray:none;stroke-opacity:1;paint-order:markers fill stroke"
         d="M 69.864612,52.937392 H 104.46377"
         id="path1016" />
      <path
         style="opacity:0.999;fill:#2e679b;fill-opacity:1;stroke:#2e679b;stroke-width:2.99293;stroke-linejoin:round;stroke-miterlimit:2;stroke-dasharray:none;stroke-opacity:1;paint-order:markers fill stroke"
         d="M 69.864612,61.702354 H 104.46377"
         id="path1016-0" />
      <path
         style="opacity:0.999;fill:#2e679b;fill-opacity:1;stroke:#2e679b;stroke-width:3.97534;stroke-linejoin:round;stroke-miterlimit:2;stroke-dasharray:none;stroke-opacity:1;paint-order:markers fill stroke"
         d="M 69.864612,70.958518 H 130.9054"
         id="path1016-07" />
      <path
         style="opacity:0.999;fill:#2e679b;fill-opacity:1;stroke:#2e679b;stroke-width:3.97534;stroke-linejoin:round;stroke-miterlimit:2;stroke-dasharray:none;stroke-opacity:1;paint-order:markers fill stroke"
         d="M 69.864612,80.705894 H 130.9054"
         id="path1016-07-5" />
      <path
         style="opacity:0.999;fill:#2e679b;fill-opacity:1;stroke:#2e679b;stroke-width:3.97534;stroke-linejoin:round;stroke-miterlimit:2;stroke-dasharray:none;stroke-opacity:1;paint-order:markers fill stroke"
         d="M 69.864612,90.453269 H 130.9054"
         id="path1016-07-0" />
      <g
         aria-label="TXT"
         id="text5736"
         style="font-size:32px;line-height:1.25">
        <path
           d="m 87.11441,105.17115 0.234375,4.96875 h -0.59375 q -0.171875,-1.3125 -0.46875,-1.875 -0.484375,-0.90625 -1.296875,-1.32812 -0.796875,-0.4375 -2.109375,-0.4375 H 79.89566 v 16.1875 q 0,1.95312 0.421875,2.4375 0.59375,0.65625 1.828125,0.65625 h 0.734375 v 0.57812 H 73.89566 v -0.57812 h 0.75 q 1.34375,0 1.90625,-0.8125 0.34375,-0.5 0.34375,-2.28125 v -16.1875 h -2.546875 q -1.484375,0 -2.109375,0.21875 -0.8125,0.29687 -1.390625,1.14062 -0.578125,0.84375 -0.6875,2.28125 h -0.59375 l 0.25,-4.96875 z"
           style="font-family:'Times New Roman';-inkscape-font-specification:'Times New Roman, ';fill:#ffffff"
           id="path15628" />
        <path
           d="m 101.20816,114.62428 4.54688,6.78125 q 1.89062,2.8125 2.79687,3.5625 0.92188,0.73437 2.32813,0.8125 v 0.57812 h -9.09375 v -0.57812 q 0.90625,-0.0156 1.34375,-0.1875 0.32812,-0.14063 0.53125,-0.42188 0.21875,-0.29687 0.21875,-0.59375 0,-0.35937 -0.14063,-0.71875 -0.10937,-0.26562 -0.85937,-1.375 l -3.593755,-5.4375 -4.4375,5.6875 q -0.703125,0.90625 -0.84375,1.21875 -0.140625,0.29688 -0.140625,0.625 0,0.5 0.421875,0.82813 0.421875,0.32812 1.609375,0.375 v 0.57812 h -7.515625 v -0.57812 q 0.796875,-0.0781 1.375,-0.32813 0.96875,-0.40625 1.84375,-1.09375 0.875,-0.6875 2,-2.10937 l 5,-6.3125 -4.171875,-6.10938 q -1.703125,-2.48437 -2.890625,-3.25 -1.1875,-0.78125 -2.734375,-0.82812 v -0.57813 h 9.796875 v 0.57813 q -1.25,0.0469 -1.71875,0.40625 -0.453125,0.35937 -0.453125,0.79687 0,0.57813 0.75,1.6875 l 3.25,4.85938 3.76563,-4.76563 q 0.65625,-0.84375 0.79687,-1.15625 0.15625,-0.3125 0.15625,-0.64062 0,-0.32813 -0.1875,-0.57813 -0.23437,-0.32812 -0.59375,-0.45312 -0.35937,-0.14063 -1.48437,-0.15625 v -0.57813 h 7.51562 v 0.57813 q -0.89062,0.0469 -1.45312,0.28125 -0.84375,0.35937 -1.54688,0.96875 -0.70312,0.60937 -1.98437,2.25 z"
           style="font-family:'Times New Roman';-inkscape-font-specification:'Times New Roman, ';fill:#ffffff"
           id="path15630" />
        <path
           d="m 129.77066,105.17115 0.23438,4.96875 h -0.59375 q -0.17188,-1.3125 -0.46875,-1.875 -0.48438,-0.90625 -1.29688,-1.32812 -0.79687,-0.4375 -2.10937,-0.4375 h -2.98438 v 16.1875 q 0,1.95312 0.42188,2.4375 0.59375,0.65625 1.82812,0.65625 h 0.73438 v 0.57812 h -8.98438 v -0.57812 h 0.75 q 1.34375,0 1.90625,-0.8125 0.34375,-0.5 0.34375,-2.28125 v -16.1875 h -2.54687 q -1.48438,0 -2.10938,0.21875 -0.8125,0.29687 -1.39062,1.14062 -0.57813,0.84375 -0.6875,2.28125 h -0.59375 l 0.25,-4.96875 z"
           style="font-family:'Times New Roman';-inkscape-font-specification:'Times New Roman, ';fill:#ffffff"
           id="path15632" />
      </g>
    </g>
  </g>
</svg>
