<?xml version="1.0" encoding="UTF-8" standalone="no"?>
<!-- Created with Inkscape (http://www.inkscape.org/) -->

<svg
   version="1.1"
   id="svg24566"
   width="205.58772"
   height="214.95166"
   viewBox="0 0 205.58773 214.95166"
   sodipodi:docname="clearAll.svg"
   inkscape:version="1.1 (c68e22c387, 2021-05-23)"
   xmlns:inkscape="http://www.inkscape.org/namespaces/inkscape"
   xmlns:sodipodi="http://sodipodi.sourceforge.net/DTD/sodipodi-0.dtd"
   xmlns="http://www.w3.org/2000/svg"
   xmlns:svg="http://www.w3.org/2000/svg">
  <defs
     id="defs24570" />
  <sodipodi:namedview
     id="namedview24568"
     pagecolor="#ffffff"
     bordercolor="#666666"
     borderopacity="1.0"
     inkscape:pageshadow="2"
     inkscape:pageopacity="0.0"
     inkscape:pagecheckerboard="0"
     showgrid="false"
     inkscape:zoom="2.7260274"
     inkscape:cx="108.03266"
     inkscape:cy="121.60553"
     inkscape:window-width="1280"
     inkscape:window-height="961"
     inkscape:window-x="-8"
     inkscape:window-y="-8"
     inkscape:window-maximized="1"
     inkscape:current-layer="g24652" />
  <g
     inkscape:groupmode="layer"
     inkscape:label="Image"
     id="g24572"
     transform="translate(0.48278994,0.79966931)">
    <g
       id="g24652"
       transform="translate(0.18714615,0.18714605)">
      <path
         style="fill:#d40000;fill-opacity:1;stroke:#3e46ca;stroke-opacity:1"
         d="M 7.1536294,201.04342 C -3.2165204,188.01163 -1.3995353,169.41464 5.7702844,155.31564 18.755325,127.77314 41.7446,106.94734 63.454229,86.303402 68.134192,80.563542 86.111836,72.380485 73.03797,66.179911 53.783392,52.26711 32.11425,42.368217 11.59339,30.592652 3.4581054,27.034589 -4.8341364,16.30425 2.8877074,8.283441 15.762462,-3.9668223 36.29379,-1.098521 50.832601,6.574515 72.452338,16.867813 89.490939,34.005999 106.92017,49.943304 114.95101,48.640858 122.3377,40.760889 130.09514,36.865289 153.28404,22.723225 177.07893,9.139337 202.66654,-0.18714605 201.05214,5.7907249 187.0283,11.421989 180.79121,17.081687 160.16224,31.812086 139.83934,47.28588 122.21362,65.574519 c 3.12521,8.750821 12.39574,16.134014 17.65641,24.471729 25.84978,34.524382 48.87256,71.657462 64.53188,111.964112 -0.98906,5.8892 -8.37587,-9.45864 -10.95359,-12.3064 -24.65194,-36.26872 -53.30151,-70.13738 -87.11825,-98.194782 -9.483633,-7.883928 -15.580331,10.402362 -22.048862,15.279692 -18.395739,22.87916 -33.902977,47.91502 -47.065431,74.13155 -5.112092,8.03482 -8.2077,19.2097 -17.628456,23.22046 -4.330541,0.90967 -9.6015436,0.93347 -12.4336916,-3.09746 z"
         id="path24654" />
      <path
         style="fill:#d40000;fill-opacity:1;stroke:#3e46ca;stroke-width:0.781043;stroke-opacity:1"
         d="m 32.16866,210.80112 c -8.202477,-10.05065 -6.765296,-24.3934 -1.094184,-35.26713 10.270779,-21.24191 28.454608,-37.30362 45.626272,-53.22507 3.701716,-4.42681 17.921493,-10.73791 7.58046,-15.52005 C 69.051408,96.058748 51.911765,88.424319 35.680379,79.342517 29.245611,76.598395 22.686697,68.322718 28.794444,62.136742 38.97799,52.688837 55.217656,54.900988 66.717421,60.818748 c 17.100563,7.938613 30.577587,21.156284 44.363589,33.447783 6.35215,-1.004495 12.1948,-7.081851 18.33071,-10.086297 18.34172,-10.906939 37.16278,-21.38339 57.4018,-28.576356 -1.27694,4.610379 -12.36938,8.953441 -17.30273,13.318431 -16.3169,11.36069 -32.3917,23.294711 -46.33312,37.399661 2.47195,6.74899 9.80466,12.4432 13.9657,18.87359 20.4464,26.62661 38.65673,55.26517 51.04279,86.35131 -0.78232,4.54199 -6.62507,-7.29489 -8.66397,-9.4912 -19.49894,-27.97192 -42.1599,-54.09282 -68.90793,-75.73183 -7.50127,-6.08041 -12.323579,8.02272 -17.439993,11.78432 -14.550481,17.64535 -26.816239,36.95402 -37.227347,57.17329 -4.043512,6.19677 -6.492045,14.81531 -13.943581,17.90857 -3.425328,0.70157 -7.594534,0.71993 -9.834679,-2.3889 z"
         id="path24654-2" />
    </g>
  </g>
</svg>
