<?xml version="1.0" encoding="UTF-8" standalone="no"?>
<!-- Created with Inkscape (http://www.inkscape.org/) -->

<svg
   version="1.1"
   id="svg24566"
   width="205.58772"
   height="214.95166"
   viewBox="0 0 205.58773 214.95166"
   sodipodi:docname="clearAll.svg"
   inkscape:version="1.1 (c68e22c387, 2021-05-23)"
   xmlns:inkscape="http://www.inkscape.org/namespaces/inkscape"
   xmlns:sodipodi="http://sodipodi.sourceforge.net/DTD/sodipodi-0.dtd"
   xmlns="http://www.w3.org/2000/svg"
   xmlns:svg="http://www.w3.org/2000/svg">
  <defs
     id="defs24570" />
  <sodipodi:namedview
     id="namedview24568"
     pagecolor="#ffffff"
     bordercolor="#666666"
     borderopacity="1.0"
     inkscape:pageshadow="2"
     inkscape:pageopacity="0.0"
     inkscape:pagecheckerboard="0"
     showgrid="false"
     inkscape:zoom="2.7260274"
     inkscape:cx="112.43467"
     inkscape:cy="92.258794"
     inkscape:window-width="1440"
     inkscape:window-height="837"
     inkscape:window-x="-8"
     inkscape:window-y="-8"
     inkscape:window-maximized="1"
     inkscape:current-layer="g24652" />
  <g
     inkscape:groupmode="layer"
     inkscape:label="Image"
     id="g24572"
     transform="translate(0.48278994,0.79966931)">
    <g
       id="g24652"
       transform="translate(0.18714615,0.18714605)">
      <path
         style="fill:#ff6c6c;fill-opacity:1;stroke:#3e46ca;stroke-width:0.892944;stroke-opacity:1"
         d="M 6.1192591,182.223 C -2.9906014,170.39463 -1.3944352,153.51495 4.9040327,140.71791 16.310996,115.7188 36.506372,96.816149 55.577618,78.078558 59.688825,72.86874 75.481635,65.44134 63.996643,59.813355 47.082084,47.18532 28.046402,38.200531 10.019453,27.512372 2.8728539,24.282876 -4.4116276,14.543421 2.3717767,7.2632875 13.681857,-3.8557349 31.718002,-1.2523046 44.489905,5.7121711 63.482184,15.054942 78.450074,30.610517 93.761121,45.076104 100.81598,43.89393 107.30496,36.741631 114.11963,33.205767 134.49037,20.369641 155.39345,8.0401466 177.87139,-0.42508984 176.45318,5.0007594 164.13367,10.112009 158.65458,15.249066 c -18.12192,13.370133 -35.97498,27.415012 -51.45863,44.0148 2.7454,7.942735 10.88929,14.644131 15.51062,22.211907 22.70824,31.336267 42.93307,65.040327 56.68928,101.624867 -0.86885,5.34536 -7.35793,-8.58518 -9.6224,-11.16996 C 148.11749,139.01116 122.94969,108.27008 93.242741,82.80361 84.911656,75.647717 79.555892,92.245375 73.873485,96.672313 57.713388,117.43871 44.090755,140.16265 32.52794,163.95824 28.037122,171.25111 25.317726,181.39405 17.041878,185.03443 13.23763,185.86009 8.6072147,185.8817 6.1192591,182.223 Z"
         id="path24654" />
      <path
         style="fill:#d40000;fill-opacity:1;stroke:#3e46ca;stroke-width:0.845733;stroke-opacity:1"
         d="m 39.2305,210.64364 c -8.676853,-11.14021 -7.156558,-27.03784 -1.15747,-39.09037 10.86477,-23.54469 30.100223,-41.34763 48.26498,-58.99508 3.915786,-4.90672 18.95793,-11.902 8.018866,-17.20255 C 78.246286,83.46228 60.115401,75.000217 42.945313,64.933876 36.138401,61.892269 29.20016,52.719443 35.66114,45.862857 46.433634,35.390724 63.612479,37.84269 75.777316,44.401983 c 18.089528,8.799222 32.345964,23.449794 46.929254,37.07379 6.71951,-1.113391 12.90007,-7.849581 19.39083,-11.179733 19.40247,-12.089338 39.31201,-23.701521 60.72151,-31.67426 -1.35079,5.110179 -13.08473,9.924065 -18.3034,14.762254 -17.26056,12.59228 -34.26501,25.820044 -49.0127,41.454085 2.61491,7.480631 10.37169,13.792141 14.77338,20.919631 21.62887,29.51315 40.89237,61.25636 53.99475,95.71249 -0.82757,5.03438 -7.00823,-8.08572 -9.16504,-10.52013 -20.62662,-31.00429 -44.59813,-59.9569 -72.89307,-83.94175 -7.9351,-6.73958 -13.03628,8.89243 -18.4486,13.06183 -15.391979,19.55824 -28.367089,40.96012 -39.380305,63.37133 -4.277357,6.86854 -6.867503,16.4214 -14.749977,19.85 -3.623427,0.77762 -8.033754,0.79798 -10.403448,-2.64788 z"
         id="path24654-2" />
    </g>
  </g>
</svg>
