<?xml version="1.0" encoding="UTF-8" standalone="no"?>
<!-- Created with Inkscape (http://www.inkscape.org/) -->

<svg
   version="1.1"
   id="svg24566"
   width="205.58772"
   height="206.12601"
   viewBox="0 0 205.58772 206.12601"
   sodipodi:docname="clear.svg"
   inkscape:version="1.1 (c68e22c387, 2021-05-23)"
   xmlns:inkscape="http://www.inkscape.org/namespaces/inkscape"
   xmlns:sodipodi="http://sodipodi.sourceforge.net/DTD/sodipodi-0.dtd"
   xmlns="http://www.w3.org/2000/svg"
   xmlns:svg="http://www.w3.org/2000/svg">
  <defs
     id="defs24570" />
  <sodipodi:namedview
     id="namedview24568"
     pagecolor="#ffffff"
     bordercolor="#666666"
     borderopacity="1.0"
     inkscape:pageshadow="2"
     inkscape:pageopacity="0.0"
     inkscape:pagecheckerboard="0"
     showgrid="false"
     inkscape:zoom="2.7260274"
     inkscape:cx="108.03266"
     inkscape:cy="121.60553"
     inkscape:window-width="1280"
     inkscape:window-height="961"
     inkscape:window-x="-8"
     inkscape:window-y="-8"
     inkscape:window-maximized="1"
     inkscape:current-layer="g24652" />
  <g
     inkscape:groupmode="layer"
     inkscape:label="Image"
     id="g24572"
     transform="translate(0.48278994,0.79966931)">
    <g
       id="g24652"
       transform="translate(0.18714615,0.18714605)">
      <path
         style="fill:#d40000;fill-opacity:1;stroke:#3e46ca;stroke-opacity:1"
         d="M 7.1536294,201.04342 C -3.2165204,188.01163 -1.3995353,169.41464 5.7702844,155.31564 18.755325,127.77314 41.7446,106.94734 63.454229,86.303402 68.134192,80.563542 86.111836,72.380485 73.03797,66.179911 53.783392,52.26711 32.11425,42.368217 11.59339,30.592652 3.4581054,27.034589 -4.8341364,16.30425 2.8877074,8.283441 15.762462,-3.9668223 36.29379,-1.098521 50.832601,6.574515 72.452338,16.867813 89.490939,34.005999 106.92017,49.943304 114.95101,48.640858 122.3377,40.760889 130.09514,36.865289 153.28404,22.723225 177.07893,9.139337 202.66654,-0.18714605 201.05214,5.7907249 187.0283,11.421989 180.79121,17.081687 160.16224,31.812086 139.83934,47.28588 122.21362,65.574519 c 3.12521,8.750821 12.39574,16.134014 17.65641,24.471729 25.84978,34.524382 48.87256,71.657462 64.53188,111.964112 -0.98906,5.8892 -8.37587,-9.45864 -10.95359,-12.3064 -24.65194,-36.26872 -53.30151,-70.13738 -87.11825,-98.194782 -9.483633,-7.883928 -15.580331,10.402362 -22.048862,15.279692 -18.395739,22.87916 -33.902977,47.91502 -47.065431,74.13155 -5.112092,8.03482 -8.2077,19.2097 -17.628456,23.22046 -4.330541,0.90967 -9.6015436,0.93347 -12.4336916,-3.09746 z"
         id="path24654" />
    </g>
  </g>
</svg>
