<?xml version="1.0" encoding="UTF-8" standalone="no"?>
<!-- Generator: Adobe Illustrator 19.1.0, SVG Export Plug-In . SVG Version: 6.00 Build 0)  -->

<svg
   version="1.1"
   id="Capa_1"
   x="0px"
   y="0px"
   viewBox="0 0 478.703 478.703"
   style="enable-background:new 0 0 478.703 478.703;"
   xml:space="preserve"
   sodipodi:docname="settings-svgrepo-com.svg"
   inkscape:version="1.1 (c68e22c387, 2021-05-23)"
   xmlns:inkscape="http://www.inkscape.org/namespaces/inkscape"
   xmlns:sodipodi="http://sodipodi.sourceforge.net/DTD/sodipodi-0.dtd"
   xmlns:xlink="http://www.w3.org/1999/xlink"
   xmlns="http://www.w3.org/2000/svg"
   xmlns:svg="http://www.w3.org/2000/svg"><defs
   id="defs43"><radialGradient
     inkscape:collect="always"
     xlink:href="#linearGradient4516"
     id="radialGradient4518"
     cx="4.0776634"
     cy="12.954054"
     fx="4.0776634"
     fy="12.954054"
     r="11.602655"
     gradientTransform="matrix(45.749679,1.5657623,-0.41875041,20.795127,-164.44192,-36.553629)"
     gradientUnits="userSpaceOnUse" /><linearGradient
     inkscape:collect="always"
     id="linearGradient4516"><stop
       style="stop-color:#000000;stop-opacity:1;"
       offset="0"
       id="stop4512" /><stop
       style="stop-color:#000000;stop-opacity:0;"
       offset="1"
       id="stop4514" /></linearGradient></defs><sodipodi:namedview
   id="namedview41"
   pagecolor="#ffffff"
   bordercolor="#666666"
   borderopacity="1.0"
   inkscape:pageshadow="2"
   inkscape:pageopacity="0.0"
   inkscape:pagecheckerboard="0"
   showgrid="false"
   inkscape:zoom="0.63713826"
   inkscape:cx="145.18042"
   inkscape:cy="266.03331"
   inkscape:window-width="1440"
   inkscape:window-height="837"
   inkscape:window-x="-8"
   inkscape:window-y="-8"
   inkscape:window-maximized="1"
   inkscape:current-layer="Capa_1" />
<path
   style="fill:#42a53c;fill-opacity:1;stroke:url(#radialGradient4518);stroke-width:4.75339;stroke-linecap:round;stroke-linejoin:round;stroke-miterlimit:4;stroke-dasharray:none"
   d="M 10.350997,1.3896359 117.79914,245.81443 1.4828992,478.68616 480.35914,250.77294 Z"
   id="path2461"
   sodipodi:nodetypes="ccccc" />
<g
   id="g10">
</g>
<g
   id="g12">
</g>
<g
   id="g14">
</g>
<g
   id="g16">
</g>
<g
   id="g18">
</g>
<g
   id="g20">
</g>
<g
   id="g22">
</g>
<g
   id="g24">
</g>
<g
   id="g26">
</g>
<g
   id="g28">
</g>
<g
   id="g30">
</g>
<g
   id="g32">
</g>
<g
   id="g34">
</g>
<g
   id="g36">
</g>
<g
   id="g38">
</g>
<g
   id="g8"
   transform="matrix(0.62950807,0,0,0.59671878,147.14101,-8.5623012)"
   style="fill:#e6e61d;fill-opacity:1">
	<g
   id="g6"
   style="fill:#e6e61d;fill-opacity:1">
		<path
   d="m 454.2,189.101 -33.6,-5.7 c -3.5,-11.3 -8,-22.2 -13.5,-32.6 l 19.8,-27.7 c 8.4,-11.8 7.1,-27.9 -3.2,-38.1 l -29.8,-29.8 c -5.6,-5.6 -13,-8.7 -20.9,-8.7 -6.2,0 -12.1,1.9 -17.1,5.5 l -27.8,19.8 c -10.8,-5.7 -22.1,-10.4 -33.8,-13.9 l -5.6,-33.2 c -2.4,-14.3 -14.7,-24.7 -29.2,-24.7 h -42.1 c -14.5,0 -26.8,10.4 -29.2,24.7 l -5.8,34 c -11.2,3.5 -22.1,8.1 -32.5,13.7 l -27.5,-19.8 c -5,-3.6 -11,-5.5 -17.2,-5.5 -7.9,0 -15.4,3.1 -20.9,8.7 l -29.9,29.8 c -10.2,10.2 -11.6,26.3 -3.2,38.1 l 20,28.1 c -5.5,10.5 -9.9,21.4 -13.3,32.7 l -33.2,5.6 c -14.3,2.4 -24.7,14.7 -24.7,29.2 v 42.1 c 0,14.5 10.4,26.8 24.7,29.2 l 34,5.8 c 3.5,11.2 8.1,22.1 13.7,32.5 l -19.7,27.4 c -8.4,11.8 -7.1,27.9 3.2,38.1 l 29.8,29.8 c 5.6,5.6 13,8.7 20.9,8.7 6.2,0 12.1,-1.9 17.1,-5.5 l 28.1,-20 c 10.1,5.3 20.7,9.6 31.6,13 l 5.6,33.6 c 2.4,14.3 14.7,24.7 29.2,24.7 h 42.2 c 14.5,0 26.8,-10.4 29.2,-24.7 l 5.7,-33.6 c 11.3,-3.5 22.2,-8 32.6,-13.5 l 27.7,19.8 c 5,3.6 11,5.5 17.2,5.5 v 0 c 7.9,0 15.3,-3.1 20.9,-8.7 l 29.8,-29.8 c 10.2,-10.2 11.6,-26.3 3.2,-38.1 l -19.8,-27.8 c 5.5,-10.5 10.1,-21.4 13.5,-32.6 l 33.6,-5.6 c 14.3,-2.4 24.7,-14.7 24.7,-29.2 v -42.1 c 0.2,-14.5 -10.2,-26.8 -24.5,-29.2 z m -2.3,71.3 c 0,1.3 -0.9,2.4 -2.2,2.6 l -42,7 c -5.3,0.9 -9.5,4.8 -10.8,9.9 -3.8,14.7 -9.6,28.8 -17.4,41.9 -2.7,4.6 -2.5,10.3 0.6,14.7 l 24.7,34.8 c 0.7,1 0.6,2.5 -0.3,3.4 l -29.8,29.8 c -0.7,0.7 -1.4,0.8 -1.9,0.8 -0.6,0 -1.1,-0.2 -1.5,-0.5 l -34.7,-24.7 c -4.3,-3.1 -10.1,-3.3 -14.7,-0.6 -13.1,7.8 -27.2,13.6 -41.9,17.4 -5.2,1.3 -9.1,5.6 -9.9,10.8 l -7.1,42 c -0.2,1.3 -1.3,2.2 -2.6,2.2 h -42.1 c -1.3,0 -2.4,-0.9 -2.6,-2.2 l -7,-42 c -0.9,-5.3 -4.8,-9.5 -9.9,-10.8 -14.3,-3.7 -28.1,-9.4 -41,-16.8 -2.1,-1.2 -4.5,-1.8 -6.8,-1.8 -2.7,0 -5.5,0.8 -7.8,2.5 l -35,24.9 c -0.5,0.3 -1,0.5 -1.5,0.5 -0.4,0 -1.2,-0.1 -1.9,-0.8 L 75,375.601 c -0.9,-0.9 -1,-2.3 -0.3,-3.4 l 24.6,-34.5 c 3.1,-4.4 3.3,-10.2 0.6,-14.8 -7.8,-13 -13.8,-27.1 -17.6,-41.8 -1.4,-5.1 -5.6,-9 -10.8,-9.9 l -42.3,-7.2 c -1.3,-0.2 -2.2,-1.3 -2.2,-2.6 v -42.1 c 0,-1.3 0.9,-2.4 2.2,-2.6 l 41.7,-7 c 5.3,-0.9 9.6,-4.8 10.9,-10 3.7,-14.7 9.4,-28.9 17.1,-42 2.7,-4.6 2.4,-10.3 -0.7,-14.6 l -24.9,-35 c -0.7,-1 -0.6,-2.5 0.3,-3.4 l 29.8,-29.8 c 0.7,-0.7 1.4,-0.8 1.9,-0.8 0.6,0 1.1,0.2 1.5,0.5 l 34.5,24.6 c 4.4,3.1 10.2,3.3 14.8,0.6 13,-7.8 27.1,-13.8 41.8,-17.6 5.1,-1.4 9,-5.6 9.9,-10.8 l 7.2,-42.3 c 0.2,-1.3 1.3,-2.2 2.6,-2.2 h 42.1 c 1.3,0 2.4,0.9 2.6,2.2 l 7,41.7 c 0.9,5.3 4.8,9.6 10,10.9 15.1,3.8 29.5,9.7 42.9,17.6 4.6,2.7 10.3,2.5 14.7,-0.6 l 34.5,-24.8 c 0.5,-0.3 1,-0.5 1.5,-0.5 0.4,0 1.2,0.1 1.9,0.8 l 29.8,29.8 c 0.9,0.9 1,2.3 0.3,3.4 l -24.7,34.7 c -3.1,4.3 -3.3,10.1 -0.6,14.7 7.8,13.1 13.6,27.2 17.4,41.9 1.3,5.2 5.6,9.1 10.8,9.9 l 42,7.1 c 1.3,0.2 2.2,1.3 2.2,2.6 v 42.1 z"
   id="path2"
   style="fill:#e6e61d;fill-opacity:1" />
		<path
   d="m 239.4,136.001 c -57,0 -103.3,46.3 -103.3,103.3 0,57 46.3,103.3 103.3,103.3 57,0 103.3,-46.3 103.3,-103.3 0,-57 -46.3,-103.3 -103.3,-103.3 z m 0,179.6 c -42.1,0 -76.3,-34.2 -76.3,-76.3 0,-42.1 34.2,-76.3 76.3,-76.3 42.1,0 76.3,34.2 76.3,76.3 0,42.1 -34.2,76.3 -76.3,76.3 z"
   id="path4"
   style="fill:#e6e61d;fill-opacity:1" />
	</g>
</g><path
   style="opacity:0.999;fill:#e6e61d;fill-opacity:1;stroke:#00c8f0;stroke-width:2.77086;stroke-linejoin:round;stroke-opacity:1;paint-order:markers fill stroke"
   d="m 281.8227,247.99903 c -2.39833,-14.30954 -5.74506,-20.97688 -10.53058,-20.97903 -1.7347,-7.6e-4 -8.36441,-2.41096 -14.73266,-5.35598 -6.36827,-2.94503 -12.86561,-5.35459 -14.43854,-5.35459 -1.57294,0 -8.51499,3.77719 -15.4268,8.39375 l -12.56692,8.39374 -9.50737,-9.29383 c -7.22889,-7.06655 -9.07307,-9.9071 -7.69516,-11.85277 0.99671,-1.40741 5.02183,-7.01514 8.9447,-12.46164 l 7.13249,-9.90271 -5.65176,-12.07921 c -3.10847,-6.64357 -6.20717,-14.30975 -6.88598,-17.03597 -1.57962,-6.34384 -4.12827,-7.56959 -21.36048,-10.27313 l -14.15421,-2.22063 v -12.95148 c 0,-14.52996 -0.9512,-13.64829 17.35031,-16.08197 12.35254,-1.6426 16.2439,-4.42797 18.98863,-13.59171 1.27947,-4.27177 3.89984,-10.423803 5.82304,-13.671206 5.31443,-8.973638 4.38829,-13.765507 -4.95447,-25.634427 l -8.4512,-10.736293 9.68008,-9.581686 9.68007,-9.581686 11.87548,8.115098 c 9.49718,6.489901 13.00013,7.945919 17.49119,7.270333 5.06906,-0.762532 25.22209,-8.144433 32.09777,-11.757169 2.3499,-1.23472 4.637,-8.487897 8.3708,-26.546612 0.7721,-3.7343434 1.78945,-4.016991 14.45856,-4.016991 12.66911,0 13.68646,0.2826476 14.45857,4.016991 3.74576,18.116597 6.02088,25.290045 8.37078,26.39304 8.1765,3.837863 32.66144,12.437874 35.41166,12.437874 1.76016,0 8.27871,-3.529095 14.48567,-7.842432 l 11.28535,-7.842433 9.58833,8.430562 c 5.27358,4.636809 9.56643,9.170151 9.53966,10.074094 -0.0269,0.903943 -3.72512,6.40307 -8.21857,12.220284 -4.49344,5.817213 -8.16989,11.668557 -8.16989,13.002988 0,1.334431 1.94244,6.215671 4.31653,10.847201 2.37411,4.631531 5.29263,11.36944 6.48563,14.97314 2.86306,8.64836 4.96308,10.10154 17.71226,12.2566 21.00445,3.5505 19.19779,1.95124 18.59296,16.4585 l -0.5355,12.84393 -14.61079,2.36495 c -8.03593,1.30072 -15.55419,3.33008 -16.70724,4.50967 -1.15302,1.17959 -4.30392,7.3668 -7.00196,13.74936 -2.69804,6.38254 -5.81029,13.74054 -6.91611,16.35109 -1.78605,4.21644 -1.20811,5.86683 5.17564,14.77949 3.95239,5.51817 8.00804,11.26466 9.01254,12.77001 1.43704,2.15355 -0.29715,4.56774 -8.13551,11.32556 l -9.96186,8.58856 -12.34662,-8.02555 c -14.7149,-9.56499 -11.66361,-9.87278 -48.35969,4.87811 -3.18072,1.27856 -4.32662,4.05011 -6.0537,14.64181 -1.17168,7.1856 -2.46234,14.06896 -2.86811,15.29638 -0.50276,1.52077 -5.06681,2.23167 -14.32769,2.23167 h -13.58992 z m 36.29223,-54.68578 c 21.28312,-6.47528 36.70404,-21.87215 43.00576,-42.9387 3.65139,-12.20648 3.66061,-20.1096 0.0378,-32.38052 -11.32219,-38.350331 -55.95125,-57.127374 -93.18794,-39.207526 -12.9785,6.245787 -24.80351,18.017011 -30.5421,30.403166 -5.68842,12.27789 -6.32033,33.84704 -1.36759,46.68118 12.01637,31.13826 48.32223,47.70511 82.05406,37.4424 z"
   id="path5846" /></svg>
