<?xml version="1.0" encoding="UTF-8" standalone="no"?>
<!-- Created with Inkscape (http://www.inkscape.org/) -->

<svg
   version="1.1"
   id="svg59667"
   width="197.99583"
   height="197.90744"
   viewBox="0 0 197.99583 197.90744"
   sodipodi:docname="kill.svg"
   inkscape:version="1.1 (c68e22c387, 2021-05-23)"
   xmlns:inkscape="http://www.inkscape.org/namespaces/inkscape"
   xmlns:sodipodi="http://sodipodi.sourceforge.net/DTD/sodipodi-0.dtd"
   xmlns="http://www.w3.org/2000/svg"
   xmlns:svg="http://www.w3.org/2000/svg">
  <defs
     id="defs59671" />
  <sodipodi:namedview
     id="namedview59669"
     pagecolor="#ffffff"
     bordercolor="#666666"
     borderopacity="1.0"
     inkscape:pageshadow="2"
     inkscape:pageopacity="0.0"
     inkscape:pagecheckerboard="0"
     showgrid="false"
     inkscape:zoom="2.7685185"
     inkscape:cx="111.79264"
     inkscape:cy="116.12709"
     inkscape:window-width="1280"
     inkscape:window-height="961"
     inkscape:window-x="-8"
     inkscape:window-y="-8"
     inkscape:window-maximized="1"
     inkscape:current-layer="g59715" />
  <g
     inkscape:groupmode="layer"
     inkscape:label="Image"
     id="g59673">
    <g
       id="g59715">
      <path
         style="fill:#fc0101"
         d="M 85.682419,196.93846 C 41.249509,191.3969 3.4440167,152.28942 0.48069152,107.44589 -3.4752762,69.340299 17.307025,30.382812 50.985678,12.209058 71.048517,0.40866143 95.356091,-2.0326628 118.02643,1.4705174 c 30.43307,5.246692 56.36653,26.8444386 70.49467,53.8123886 9.4633,19.635537 11.42912,42.523777 7.70652,63.826924 -6.81184,34.84838 -34.19009,64.02868 -68.0082,74.28393 -13.6836,4.30504 -28.328959,5.62997 -42.537001,3.5447 z M 119.53617,179.59788 C 157.20915,170.59374 185.54383,132.415 182.20821,93.654003 181.6501,77.914581 175.8222,62.450445 166.67458,49.728792 159.47587,46.954811 153.43814,59.914613 147.03487,63.959121 114.17271,96.382633 81.198174,128.74375 49.736729,162.5358 c -0.217348,7.79647 14.218885,10.55778 20.808409,14.22127 15.418638,6.36651 32.878272,5.89242 48.991032,2.84081 z M 93.900451,92.733713 C 112.69966,73.594795 132.21705,55.097403 149.96763,34.973027 147.80298,27.341531 135.83753,24.647254 128.7189,20.954646 101.86592,10.437759 69.551914,15.307258 47.184979,33.62306 27.27669,49.527952 14.934425,74.870806 16.244259,100.4952 c -0.07306,16.95447 5.866441,33.8498 15.671936,47.57005 7.508142,3.73444 13.827494,-10.23629 20.50002,-14.33194 13.94431,-13.54823 27.735495,-27.2533 41.484236,-40.999597 z"
         id="path59717" />
    </g>
  </g>
</svg>
