<?xml version="1.0" encoding="UTF-8" standalone="no"?>
<!-- Created with Inkscape (http://www.inkscape.org/) -->

<svg
   version="1.1"
   id="svg2222"
   width="184.10341"
   height="205.72134"
   viewBox="0 0 184.10341 205.72134"
   sodipodi:docname="new.svg"
   inkscape:version="1.1 (c68e22c387, 2021-05-23)"
   xmlns:inkscape="http://www.inkscape.org/namespaces/inkscape"
   xmlns:sodipodi="http://sodipodi.sourceforge.net/DTD/sodipodi-0.dtd"
   xmlns="http://www.w3.org/2000/svg"
   xmlns:svg="http://www.w3.org/2000/svg">
  <defs
     id="defs2226" />
  <sodipodi:namedview
     id="namedview2224"
     pagecolor="#ffffff"
     bordercolor="#666666"
     borderopacity="1.0"
     inkscape:pageshadow="2"
     inkscape:pageopacity="0.0"
     inkscape:pagecheckerboard="0"
     showgrid="false"
     inkscape:zoom="2.6577778"
     inkscape:cx="131.50084"
     inkscape:cy="108.54933"
     inkscape:window-width="1280"
     inkscape:window-height="961"
     inkscape:window-x="-8"
     inkscape:window-y="-8"
     inkscape:window-maximized="1"
     inkscape:current-layer="g2228"
     inkscape:lockguides="true" />
  <g
     inkscape:groupmode="layer"
     inkscape:label="Image"
     id="g2228">
    <g
       id="g3849"
       transform="translate(-40.895389,-19.132933)">
      <path
         style="fill:#d2d2d2"
         d="m 157,224 c -1.375,-0.44035 -3.89062,-0.8455 -5.59028,-0.90032 -4.69993,-0.1516 -14.3305,-5.43147 -21.12905,-11.58381 L 124.18543,206 84.842716,205.98635 C 63.204222,205.97884 44.4875,205.70135 43.25,205.36971 L 41,204.76674 V 112.42868 20.090626 l 3.25,-0.592442 C 46.0375,19.17234 67.634256,19.03945 92.242792,19.202871 L 136.98558,19.5 160.49279,42.99202 184,66.484041 v 23.289364 c 0,21.300155 0.14947,23.337235 1.75,23.849875 0.9625,0.30828 5.06879,2.14656 9.12509,4.08507 13.30286,6.35743 25.96605,21.39613 28.21671,33.50994 3.28315,17.67097 1.86738,33.91851 -3.9365,45.17567 -7.19592,13.95716 -21.33175,24.63055 -36.06003,27.22748 C 174.83757,225.07745 160.99154,225.27832 157,224 Z m 29.11233,-18.73454 c 18.37208,-9.04454 27.07116,-29.28593 21.03145,-48.93686 -3.58148,-11.65275 -12.21957,-20.85931 -23.86147,-25.43178 -8.06421,-3.1673 -21.44241,-3.15741 -29.28231,0.0217 -6.72033,2.72507 -13.03749,7.51223 -17.49752,13.25966 -5.62677,7.25097 -7.80972,14.01836 -7.84549,24.32187 -0.0491,14.14487 4.92777,24.40718 15.88757,32.76026 7.38036,5.62499 14.9972,7.80282 26.05718,7.45034 7.85306,-0.25027 9.98097,-0.72291 15.51059,-3.44514 z M 162.25,197.96884 C 160.12702,197.1155 160,196.50008 160,187.06721 v -9.99724 L 149.75,176.78498 139.5,176.5 l -0.29774,-6.84001 c -0.18204,-4.18188 0.15701,-7.38796 0.87244,-8.25 C 140.92943,160.3801 143.77286,160 150.62244,160 H 160 v -9.37756 c 0,-6.84958 0.3801,-9.69301 1.40999,-10.54774 0.86204,-0.71543 4.06812,-1.05448 8.25,-0.87244 L 176.5,139.5 l 0.28498,10.25 0.28499,10.25 h 9.98976 c 9.80323,0 10.00798,0.0479 10.96502,2.5651 1.24299,3.26932 1.24926,8.58401 0.0139,11.83312 -0.92654,2.43697 -1.31538,2.53879 -10.75,2.8151 L 177.5,177.5 l -0.28668,9.7887 c -0.27631,9.43462 -0.37813,9.82346 -2.8151,10.75 -3.10492,1.18049 -9.12363,1.14588 -12.14822,-0.0699 z M 113.60455,186.25 c -1.63625,-5.40037 -2.55848,-11.46841 -2.5801,-16.97639 L 111,163.04723 93.75,162.77361 76.5,162.5 76.202923,155.08811 c -0.210578,-5.25379 0.08059,-7.65146 1,-8.23468 C 77.916315,146.40089 86.825,146.01725 97,146.00091 l 18.5,-0.0297 2.75,-4.98611 c 1.5125,-2.74236 2.75,-5.20227 2.75,-5.46646 0,-0.26419 -10.0125,-0.60146 -22.25,-0.74948 L 76.5,134.5 v -8 -8 l 33,-0.53519 c 32.96673,-0.53465 33.00684,-0.53792 39.78168,-3.24499 3.72992,-1.49039 9.24242,-2.99901 12.25,-3.35249 L 167,110.72464 V 94.862319 79 h -19.8 c -14.06667,0 -20.14747,-0.347475 -21,-1.2 -0.85253,-0.852525 -1.2,-6.933333 -1.2,-21 L 125,37 H 91.5 58 v 75.5 75.5 h 28.067388 c 26.266172,0 28.033362,-0.11231 27.537162,-1.75 z M 76.424346,105.66345 c -0.28743,-0.74904 -0.387993,-4.46723 -0.223473,-8.262665 L 76.5,90.5 h 36 36 v 8 8 l -35.77653,0.26266 c -29.446182,0.21618 -35.868993,0.0217 -36.299124,-1.09921 z M 154,61.281445 C 154,60.298302 143.76159,50 142.78416,50 141.83315,50 141.72541,60.392079 142.66667,61.333333 143.56823,62.234895 154,62.187135 154,61.281445 Z"
         id="path3863" />
      <path
         style="fill:#b0b0b0"
         d="m 154.16362,223.41219 c -8.27415,-1.81115 -16.65521,-6.35559 -24.03087,-13.03018 L 124.18543,205 H 83.792716 C 53.709493,205 43.093722,204.69372 42.2,203.8 40.460519,202.06052 40.460519,22.939481 42.2,21.2 43.098945,20.301055 55.072623,20 89.926804,20 H 136.45361 L 160.2268,43.773196 184,67.546392 l 0.033,22.976804 0.033,22.976804 9.07275,4.32128 c 20.12605,9.58589 31.86429,28.18949 31.86004,50.4941 -0.001,7.88596 -2.10146,18.90627 -4.70375,24.68462 -4.86396,10.80038 -16.54562,22.48609 -27.29507,27.30453 -10.03628,4.49875 -26.47269,5.81399 -38.83638,3.10766 z m 27.15135,-15.42775 c 3.5891,-1.10857 8.85457,-3.7655 11.70104,-5.90429 29.50515,-22.16974 18.24463,-68.36847 -18.04395,-74.02926 -28.15575,-4.39213 -52.36181,21.02369 -46.55357,48.88019 2.55317,12.24507 9.9232,22.30741 20.44715,27.91663 10.39123,5.53846 21.26903,6.58997 32.44933,3.13673 z M 162.25,197.33772 C 161.36794,196.9818 161,193.91433 161,186.91667 V 177 l -9.25,-0.0153 c -5.0875,-0.008 -9.83471,-0.38621 -10.54935,-0.83952 -0.91235,-0.57872 -1.21019,-2.88243 -1,-7.73469 L 140.5,161.5 l 10,-0.5 10,-0.5 0.5,-10 0.5,-10 6.91048,-0.29935 c 4.85226,-0.21019 7.15597,0.0876 7.73469,1 0.45331,0.71464 0.8311,5.46185 0.83952,10.54935 L 177,161 h 9.89301 C 198.16156,161 198,160.87568 198,169.5466 198,176.35904 196.9307,177 185.56574,177 H 177 v 8.56574 c 0,11.50933 -0.59564,12.45463 -7.78518,12.35531 -3.14315,-0.0434 -6.27732,-0.30592 -6.96482,-0.58333 z M 115,188.54879 c 0,-0.24817 -0.675,-3.04271 -1.5,-6.2101 -0.825,-3.16739 -1.5,-8.81434 -1.5,-12.54879 V 163 l -16.25,-0.0153 c -8.9375,-0.008 -16.834707,-0.38621 -17.549348,-0.83952 -0.912348,-0.57872 -1.21019,-2.88243 -1,-7.73469 L 77.5,147.5 l 19.166563,-0.2713 19.166567,-0.2713 3.08343,-5.46355 C 120.61245,138.48889 122,135.57348 122,135.01515 122,134.3583 114.043,134 99.45619,134 H 76.912381 L 77.20619,126.75 77.5,119.5 110,118.9617 c 32.48641,-0.53807 32.50252,-0.53941 38.53705,-3.20373 3.32037,-1.46599 8.94537,-3.02433 12.5,-3.46297 L 167.5,111.49747 V 94.998735 78.5 L 147,78 126.5,77.5 126,57 125.5,36.5 h -34 -34 l -0.258584,75 c -0.142221,41.25 -0.04384,75.5625 0.218615,76.25 0.366353,0.95964 7.104649,1.25 29.008584,1.25 C 102.16088,189 115,188.79696 115,188.54879 Z M 77.679419,105.34609 C 77.305739,104.97241 77,101.59167 77,97.833333 V 91 h 35.54381 35.54381 l -0.29381,7.25 -0.29381,7.25 -34.57058,0.26275 c -19.01382,0.14452 -34.87632,-0.043 -35.250001,-0.41666 z M 149.54854,55.048916 c -3.7938,-3.823096 -7.26923,-6.721539 -7.72318,-6.440983 -0.98121,0.606423 -1.12035,11.763742 -0.15869,12.7254 C 142.03333,61.7 145.50876,62 149.38985,62 h 7.05651 z"
         id="path3861" />
      <path
         style="fill:#909090"
         d="M 155.76272,223.47145 C 147.10722,221.74914 138.12706,216.93451 130.63604,210 L 124.69466,204.5 83.597328,204 42.5,203.5 v -91 -91 l 46.98214,-0.260038 46.98214,-0.260038 23.24998,23.234191 23.24998,23.234191 0.26788,23.025847 L 183.5,113.5 l 8.89719,4.28429 c 16.19958,7.80062 28.03923,22.53999 31.14513,38.77306 3.93821,20.58314 -1.10855,38.01369 -15.03991,51.94506 -13.9666,13.96659 -32.02263,19.09142 -52.73969,14.96904 z m 26.006,-15.0144 c 5.93169,-1.76834 13.52609,-6.84901 18.23634,-12.20014 16.12973,-18.32434 13.17956,-46.52388 -6.37578,-60.9437 -26.50913,-19.54744 -64.11072,-2.22777 -66.35841,30.56536 -2.03386,29.67341 25.53521,51.21279 54.49785,42.57848 z M 161.5322,194.795 c -0.29067,-1.26225 -0.64183,-5.895 -0.78035,-10.295 l -0.25185,-8 -9.46594,-0.29038 c -6.02522,-0.18484 -9.74537,-0.73006 -10.23469,-1.5 -0.42281,-0.66529 -0.77564,-3.55629 -0.78406,-6.42444 C 139.99586,161.66177 141.12397,161 152.43426,161 H 161 v -8.56574 c 0,-11.31029 0.66177,-12.4384 7.28518,-12.41895 2.86815,0.008 5.75915,0.36125 6.42444,0.78406 0.76994,0.48932 1.31516,4.20947 1.5,10.23469 L 176.5,160.5 l 8,0.25185 c 13.00512,0.40942 12.63995,0.17097 12.295,8.0285 L 196.5,175.5 l -10,0.5 -10,0.5 -0.5,10 -0.5,10 -6.71965,0.295 c -6.29997,0.27657 -6.75267,0.15166 -7.24815,-2 z M 115,188.24963 c 0,-0.41271 -0.66719,-3.90021 -1.48264,-7.75 -0.81545,-3.8498 -1.49045,-9.5765 -1.5,-12.72602 L 112,162.04723 94.75,161.77361 77.5,161.5 77.2064,155.40863 c -0.203988,-4.23218 0.123957,-6.43791 1.074464,-7.22676 0.882399,-0.73233 7.884485,-1.23239 19.724107,-1.40863 L 116.36101,146.5 119.64158,141 c 1.80431,-3.025 3.29808,-5.82905 3.31949,-6.23123 0.0214,-0.40217 -10.19857,-0.85217 -22.71107,-1 L 77.5,133.5 77.198157,127.09106 c -0.209612,-4.45064 0.09595,-6.66126 1,-7.23469 0.716014,-0.45416 15.216536,-0.83264 32.223383,-0.84106 L 141.34308,119 l 6.57846,-2.63233 c 3.61815,-1.44779 9.61596,-3.10271 13.32846,-3.67761 L 168,111.64479 V 94.822393 78 h -19.8 c -14.06667,0 -20.14747,-0.347475 -21,-1.2 -0.85218,-0.852184 -1.2,-6.914815 -1.2,-20.916667 0,-12.192666 -0.37982,-19.843868 -0.99532,-20.05 C 124.45726,35.65 108.93226,35.624236 90.504683,35.77608 L 57,36.05216 V 112.52608 189 h 29 c 15.95,0 29,-0.33767 29,-0.75037 z m -36.801843,-83.106 c -0.904054,-0.57343 -1.209612,-2.78405 -1,-7.234688 L 77.5,91.5 h 35 35 l 0.30184,6.408942 c 0.20962,4.450638 -0.0959,6.661258 -1,7.234688 -0.71601,0.45416 -16.15184,0.82574 -34.30184,0.82574 -18.15,0 -33.585829,-0.37158 -34.301843,-0.82574 z M 156,61.776905 C 156,60.14322 143.90596,48 142.27889,48 141.36514,48 141,49.95101 141,54.833333 c 0,3.758334 0.3,7.133334 0.66667,7.5 C 142.92869,63.595361 156,63.087925 156,61.776905 Z"
         id="path3859" />
      <path
         style="fill:#6d6d6d"
         d="m 161,224.34027 c -11.05057,-1.71222 -21.76024,-6.89623 -30.66033,-14.84111 L 124.17935,204 H 83.696664 c -35.992425,0 -40.550012,-0.17545 -41.089675,-1.58179 -0.793258,-2.0672 -0.793258,-177.769225 0,-179.836423 C 43.148472,21.170704 48.245066,21 89.833305,21 H 136.45263 L 159.72632,44.273684 183,67.547368 v 23.127133 23.127129 l 9.3723,4.55936 c 29.03538,14.12489 40.50023,46.88467 26.47118,75.63901 -4.30059,8.81461 -16.03041,20.54397 -24.84348,24.84253 -10.02627,4.89028 -22.98602,7.04936 -33,5.49774 z M 184,208.09 c 11.07034,-4.26454 19.65536,-12.81826 24.17816,-24.09 1.74101,-4.33895 2.21902,-7.611 2.26436,-15.5 0.0531,-9.23854 -0.1863,-10.51463 -3.14397,-16.75853 -4.16827,-8.79956 -11.6497,-16.65544 -19.57704,-20.55688 -36.41095,-17.91965 -74.45657,20.12597 -56.53692,56.53692 5.01249,10.18489 16.50098,19.46215 27.56133,22.2565 5.91236,1.49374 19.01903,0.51387 25.25408,-1.88801 z m -21.51379,-12.34 c -0.24806,-0.6875 -0.57143,-5.3 -0.71861,-10.25 l -0.2676,-9 -10,-0.5 -10,-0.5 v -6.5 -6.5 l 10,-0.5 10,-0.5 0.5,-10 0.5,-10 h 6.5 6.5 l 0.5,10 0.5,10 10,0.5 10,0.5 0.30507,5.33118 C 197.24217,175.46947 196.50001,176 185.37756,176 H 176 v 9.3 c 0,5.9 -0.43871,9.73871 -1.2,10.5 -1.62228,1.62228 -11.72521,1.58126 -12.31379,-0.05 z m -46.91401,-7.07755 c 0.28018,-0.73015 -0.0195,-2.64265 -0.66597,-4.25 C 114.25975,182.8151 113.45389,177.225 113.11541,172 L 112.5,162.5 96,162.23548 c -14.075548,-0.22565 -16.683671,-0.51087 -17.75,-1.94113 -1.378808,-1.84938 -1.667666,-9.08869 -0.439773,-11.02153 0.56031,-0.88199 6.080384,-1.30392 19.624472,-1.5 L 116.27957,147.5 l 3.90025,-6.41624 c 2.96842,-4.88332 3.59204,-6.61178 2.61021,-7.23469 -0.70952,-0.45014 -11.02939,-0.82534 -22.933041,-0.83376 C 75.990317,132.99843 77,133.28623 77,126.5 77,119.59307 74.99469,120 109.03143,120 h 30.81745 l 7.5145,-3.00895 c 4.13297,-1.65492 10.2399,-3.29381 13.57094,-3.64197 3.33105,-0.34817 6.51992,-1.19148 7.0864,-1.87404 0.64017,-0.77136 0.92575,-7.435 0.75461,-17.608027 L 168.5,77.5 147.75,77.229712 127,76.959423 126.98469,57.229712 c -0.008,-10.851342 -0.37619,-20.298216 -0.81727,-20.993054 -0.62608,-0.986292 -8.35305,-1.205592 -35.234683,-1 L 56.5,35.5 l -0.258541,76 c -0.142197,41.8 -0.04382,76.5625 0.218616,77.25 0.718976,1.88349 58.388635,1.80784 59.112125,-0.0776 z M 77.606989,103.41821 C 77.273145,102.54823 77,100.33503 77,98.5 77,91.563753 74.617421,92 112.5,92 c 37.88258,0 35.5,-0.436247 35.5,6.5 0,6.93625 2.38258,6.5 -35.5,6.5 -30.341878,0 -34.355848,-0.18196 -34.893011,-1.58179 z M 157,62.224972 c 0,-0.426265 -3.38935,-4.138765 -7.53188,-8.25 -8.47646,-8.412407 -9.42603,-8.342768 -9.45281,0.693241 C 139.99094,62.895002 140.10551,63 149.10699,63 153.44814,63 157,62.651238 157,62.224972 Z"
         id="path3857" />
      <path
         style="fill:#4c4c4c"
         d="m 160,224.04942 c -10.69242,-1.99178 -21.19624,-7.45587 -30.14175,-15.67974 L 124.01738,203 H 83.508688 43 V 112.5 22 H 89.758153 136.51631 L 159.25815,44.757982 182,67.515963 l 0.0153,22.492019 c 0.008,12.370608 0.34592,22.974248 0.75,23.563628 0.40408,0.58939 4.64755,2.95283 9.42993,5.25208 14.55205,6.99627 23.69704,17.18049 29.57398,32.93476 3.5333,9.47169 3.67347,23.8694 0.32361,33.24155 -4.87774,13.64685 -13.82971,25.13952 -24.41296,31.34172 -11.34108,6.64632 -26.61028,9.76975 -37.67987,7.7077 z m 26.5,-16.53614 c 8.27146,-3.96604 16.49405,-12.05748 20.63247,-20.3034 C 210.37164,180.75575 210.5,180.06167 210.5,169 c 0,-10.86984 -0.17582,-11.87118 -3.20861,-18.27383 -12.54297,-26.47997 -46.48934,-32.78432 -67.83367,-12.59774 -23.64565,22.36307 -14.40976,61.12454 17.04228,71.5236 2.54878,0.84271 7.62806,1.21652 14,1.03035 8.60303,-0.25137 10.83818,-0.69408 16,-3.1691 z M 162.48621,194.75 c -0.24806,-0.6875 -0.57143,-5.3 -0.71861,-10.25 l -0.2676,-9 -10,-0.5 -10,-0.5 v -6 -6 l 10,-0.5 10,-0.5 0.5,-10 0.5,-10 h 6 6 l 0.5,10 0.5,10 10,0.5 10,0.5 0.29772,6.25 0.29771,6.25 h -9.34771 c -5.93712,0 -9.78555,0.43783 -10.54772,1.2 -0.76129,0.76129 -1.2,4.6 -1.2,10.5 v 9.3 h -6.03138 c -3.9179,0 -6.18943,-0.43802 -6.48241,-1.25 z M 116,188.2434 c 0,-0.96613 -0.47742,-3.32863 -1.06094,-5.25 -0.58352,-1.92137 -1.37102,-7.5434 -1.75,-12.4934 l -0.68906,-9 -17,-0.5 -17,-0.5 v -6 -6 l 19.169945,-0.27131 19.169945,-0.27132 3.58006,-6.51311 C 122.38898,137.86205 124,134.50509 124,133.98435 c 0,-0.56011 -9.29141,-1.05657 -22.75,-1.21558 L 78.5,132.5 v -6 -6 L 111,120 c 31.061,-0.47786 32.70419,-0.59898 37.11155,-2.73555 2.53635,-1.22955 8.16135,-2.83514 12.5,-3.56797 L 168.5,112.36407 V 94.932034 77.5 L 148,77 127.5,76.5 127,56 126.5,35.5 91.25,35.237207 56,34.974415 V 112.48721 190 h 30 c 27.94771,0 30,-0.12017 30,-1.7566 z M 78.41392,103.63627 c -0.29345,-0.76471 -0.394129,-3.58321 -0.223732,-6.26333 L 78.5,92.5 h 34 34 v 6 6 l -33.77627,0.26333 c -28.09441,0.21904 -33.866019,0.0294 -34.30981,-1.12706 z m 79.15614,-40.749622 c 0.91052,-1.473255 -14.98345,-17.367225 -16.45671,-16.456703 -1.19909,0.741077 -1.59582,15.754251 -0.44668,16.903388 1.14913,1.149138 16.16231,0.752403 16.90339,-0.446685 z"
         id="path3855" />
      <path
         style="fill:#2e2e2e"
         d="m 161.5,224.30229 c -2.2,-0.23977 -4.4275,-0.85587 -4.95,-1.36912 C 156.0275,222.41993 154.84211,222 153.9158,222 c -3.65644,0 -17.58412,-8.048 -22.82884,-13.19147 L 125.67392,203.5 84.586959,203 43.5,202.5 v -90 -90 L 89.965677,22.239871 136.43135,21.979742 159.21568,44.764064 182,67.548387 v 23.518186 23.518187 l 8.73569,3.93437 c 11.9978,5.40355 21.65637,14.51639 27.26726,25.7266 2.19838,4.39222 3.99705,8.74375 3.99705,9.67007 0,0.92631 0.51771,2.20191 1.15046,2.83466 1.51538,1.51538 1.6101,20.39491 0.11764,23.44775 -0.61891,1.26599 -1.85915,4.63588 -2.75609,7.48865 -4.52045,14.37757 -20.03373,29.48711 -34.21594,33.32545 -2.63784,0.71392 -5.24607,1.62824 -5.79607,2.03182 -1.32538,0.97255 -13.95005,1.80854 -19,1.25816 z m 22.5,-15.1908 c 20.6325,-7.86752 32.43369,-31.19249 26.17654,-51.73777 -4.52352,-14.85294 -14.48058,-25.09184 -29.03006,-29.85179 -8.57651,-2.80585 -21.733,-1.8442 -30.42031,2.22353 -27.25446,12.76157 -33.44515,48.38297 -12.09595,69.60045 11.72981,11.65744 30.06091,15.6031 45.36978,9.76558 z M 162.98469,186.7999 c -0.008,-5.11494 -0.36125,-9.84423 -0.78406,-10.50952 -0.48932,-0.76994 -4.20947,-1.31516 -10.23469,-1.5 L 142.5,174.5 142.2001,168.75 141.90019,163 h 9.34991 c 5.93881,0 9.78769,-0.43779 10.5499,-1.2 0.76221,-0.76221 1.2,-4.61109 1.2,-10.5499 v -9.34991 l 5.75,0.29991 5.75,0.2999 0.29038,9.46594 c 0.18484,6.02522 0.73006,9.74537 1.5,10.23469 0.66529,0.42281 5.39458,0.77564 10.50952,0.78406 l 9.29991,0.0153 -0.29991,5.75 -0.2999,5.75 -10,0.5 -10,0.5 -0.5,10 -0.5,10 -5.75,0.2999 -5.75,0.29991 -0.0153,-9.29991 z m -46.50698,3.23617 c 0.32766,-0.53016 -0.0958,-3.63262 -0.94099,-6.89434 C 114.69153,179.88 114,174.27557 114,170.68744 114,160.3461 115.22092,161 95.912063,161 H 79.038104 l -0.592731,-2.36163 c -0.326002,-1.29889 -0.447075,-3.88639 -0.269052,-5.75 L 78.5,149.5 97.145549,149.22832 C 111.9439,149.01269 116.03874,148.65825 116.99129,147.51049 118.92262,145.18339 125,134.83906 125,133.87885 125,133.39548 114.9301,133 102.62244,133 77.432745,133 77.667601,133.069 78.188891,125.8239 L 78.5,121.5 l 32,-0.53897 32,-0.53898 6.35809,-2.79443 c 3.49695,-1.53694 8.89695,-3.04319 12,-3.34721 C 170.45609,113.34002 170,114.29371 170,95.164816 170,83.458848 169.6379,78.037895 168.8,77.2 167.94747,76.347475 161.86667,76 147.8,76 H 128 V 56.934259 c 0,-11.230153 -0.42544,-19.860678 -1.03518,-21 C 125.97228,34.079688 124.51798,34 91.664816,34 66.347737,34 57.086638,34.313362 56.2,35.2 c -1.737201,1.737201 -1.737201,152.8628 0,154.6 1.510031,1.51003 59.35036,1.73656 60.27771,0.23607 z M 78.679751,103.34642 C 77.531244,102.19791 77.92735,94.47265 79.2,93.2 80.083609,92.316391 88.883901,92 112.57756,92 c 36.04465,0 34.76911,-0.26738 34.23355,7.176095 L 146.5,103.5 l -33.57025,0.26308 c -18.463636,0.1447 -33.876136,-0.0428 -34.249999,-0.41666 z M 158,62.727922 C 158,60.991595 141.57127,44.762066 140.69781,45.635525 140.31401,46.01932 140,50.308333 140,55.166667 V 64 h 9 c 6.61664,0 9,-0.336869 9,-1.272078 z"
         id="path3853" />
      <path
         style="fill:#020202"
         d="m 162.72547,224.29722 c -2.64839,-0.22676 -4.51468,-0.82927 -4.19099,-1.35301 C 158.85544,222.42489 158.40523,222 157.53403,222 c -3.14304,0 -13.06153,-4.06787 -17.9949,-7.38025 -2.77152,-1.86087 -7.18453,-5.46158 -9.80669,-8.00157 L 124.96488,202 H 84.482441 44 V 112.5 23 H 90.225275 136.45055 L 158.72527,45.274725 181,67.549451 l 0.0153,22.975274 c 0.008,12.636405 0.34759,23.497495 0.7537,24.135765 0.40611,0.63827 3.11327,2.06287 6.01591,3.16579 15.82199,6.01188 31.06563,22.91412 33.74349,37.41497 0.37999,2.05769 1.02872,3.53246 1.44163,3.27726 1.16714,-0.72132 1.8734,10.35831 1.05061,16.48149 -0.40648,3.025 -0.83203,4.825 -0.94566,4 -0.11364,-0.825 -0.83995,0.85147 -1.61403,3.72549 -3.94176,14.635 -15.22068,28.35555 -28.5873,34.7758 -4.05551,1.94794 -9.0977,3.8204 -11.20487,4.16101 -2.61353,0.42246 -3.40811,0.8875 -2.5,1.46318 0.86629,0.54917 0.0652,0.84924 -2.29379,0.85921 -1.99375,0.008 -4.91875,0.17416 -6.5,0.36832 -1.58125,0.19416 -5.02354,0.16905 -7.64953,-0.0558 z m 17.75778,-13.47834 c 20.617,-5.28762 34.8614,-27.3822 31.44417,-48.77324 -3.58825,-22.4615 -23.78818,-38.49609 -46.31876,-36.76757 -31.7169,2.4333 -50.14609,35.77818 -35.35209,63.96437 7.87591,15.00553 25.14299,24.67225 41.24343,23.08953 2.75,-0.27033 6.79246,-0.95123 8.98325,-1.51309 z M 163.48621,193.75 c -0.24806,-0.6875 -0.57143,-5.3 -0.71861,-10.25 l -0.2676,-9 -10,-0.5 -10,-0.5 v -5 -5 l 10,-0.5 10,-0.5 0.5,-10 0.5,-10 h 5 5 l 0.5,10 0.5,10 10,0.5 10,0.5 0.30226,5.25 0.30226,5.25 h -9.35226 c -5.94065,0 -9.79001,0.43775 -10.55226,1.2 -0.76129,0.76129 -1.2,4.6 -1.2,10.5 v 9.3 h -5.03138 c -3.1179,0 -5.20292,-0.47539 -5.48241,-1.25 z m -46.4245,-3.4102 c 0.87831,-0.87946 0.74394,-2.40886 -0.55533,-6.32058 -0.9427,-2.83822 -2.00479,-9.29113 -2.36019,-14.33981 L 113.5,160.5 96.198567,160.22617 78.897134,159.95233 79.198567,154.72617 79.5,149.5 l 19,-0.28978 19,-0.28978 4,-7.09309 c 2.2,-3.90119 4,-7.59579 4,-8.21021 0,-0.77598 -7.02396,-1.26983 -23,-1.61714 l -23,-0.5 v -5 -5 l 32,-0.51979 c 30.13532,-0.48951 32.3033,-0.64852 37.20497,-2.72882 2.86274,-1.21496 8.71274,-2.79412 13,-3.50923 L 169.5,113.44195 V 94.970973 76.5 L 149,76 128.5,75.5 128.22919,55.217337 127.95838,34.934675 125.41409,33.967337 C 122.625,32.906926 63.22634,32.604732 58.125,33.625 L 55,34.25 v 78.30545 78.30545 l 2.25,0.4549 c 1.2375,0.2502 14.94068,0.394 30.45151,0.31955 19.90189,-0.0955 28.54251,-0.47679 29.3602,-1.29555 z M 79.407237,102.61886 c -0.297278,-0.7747 -0.398021,-3.14336 -0.223872,-5.263699 L 79.5,93.5 h 33 33 v 5 5 l -32.77613,0.2637 c -27.440934,0.22077 -32.864109,0.0344 -33.316633,-1.14484 z M 159,63.270888 C 159,60.987276 143.05032,45 140.77208,45 139.20255,45 139,46.066814 139,54.333333 c 0,5.133334 0.3,9.633334 0.66667,10 C 140.03333,64.7 144.53333,65 149.66667,65 157.84594,65 159,64.786196 159,63.270888 Z"
         id="path3851" />
    </g>
    <g
       id="g3776"
       transform="translate(-40.895389,-19.132933)">
      <path
         style="fill:#d2d2d2"
         d="m 157,224 c -1.375,-0.44035 -3.89062,-0.8455 -5.59028,-0.90032 -4.69993,-0.1516 -14.3305,-5.43147 -21.12905,-11.58381 L 124.18543,206 84.842716,205.98635 C 63.204222,205.97884 44.4875,205.70135 43.25,205.36971 L 41,204.76674 V 112.42868 20.090626 l 3.25,-0.592442 C 46.0375,19.17234 67.634256,19.03945 92.242792,19.202871 L 136.98558,19.5 160.49279,42.99202 184,66.484041 v 23.289364 c 0,21.300155 0.14947,23.337235 1.75,23.849875 0.9625,0.30828 5.06879,2.14656 9.12509,4.08507 13.30286,6.35743 25.96605,21.39613 28.21671,33.50994 3.28315,17.67097 1.86738,33.91851 -3.9365,45.17567 -7.19592,13.95716 -21.33175,24.63055 -36.06003,27.22748 C 174.83757,225.07745 160.99154,225.27832 157,224 Z m 29.11233,-18.73454 c 18.37208,-9.04454 27.07116,-29.28593 21.03145,-48.93686 -3.58148,-11.65275 -12.21957,-20.85931 -23.86147,-25.43178 -8.06421,-3.1673 -21.44241,-3.15741 -29.28231,0.0217 -6.72033,2.72507 -13.03749,7.51223 -17.49752,13.25966 -5.62677,7.25097 -7.80972,14.01836 -7.84549,24.32187 -0.0491,14.14487 4.92777,24.40718 15.88757,32.76026 7.38036,5.62499 14.9972,7.80282 26.05718,7.45034 7.85306,-0.25027 9.98097,-0.72291 15.51059,-3.44514 z M 162.25,197.96884 C 160.12702,197.1155 160,196.50008 160,187.06721 v -9.99724 L 149.75,176.78498 139.5,176.5 l -0.29774,-6.84001 c -0.18204,-4.18188 0.15701,-7.38796 0.87244,-8.25 C 140.92943,160.3801 143.77286,160 150.62244,160 H 160 v -9.37756 c 0,-6.84958 0.3801,-9.69301 1.40999,-10.54774 0.86204,-0.71543 4.06812,-1.05448 8.25,-0.87244 L 176.5,139.5 l 0.28498,10.25 0.28499,10.25 h 9.98976 c 9.80323,0 10.00798,0.0479 10.96502,2.5651 1.24299,3.26932 1.24926,8.58401 0.0139,11.83312 -0.92654,2.43697 -1.31538,2.53879 -10.75,2.8151 L 177.5,177.5 l -0.28668,9.7887 c -0.27631,9.43462 -0.37813,9.82346 -2.8151,10.75 -3.10492,1.18049 -9.12363,1.14588 -12.14822,-0.0699 z M 113.60455,186.25 c -1.63625,-5.40037 -2.55848,-11.46841 -2.5801,-16.97639 L 111,163.04723 93.75,162.77361 76.5,162.5 76.202923,155.08811 c -0.210578,-5.25379 0.08059,-7.65146 1,-8.23468 C 77.916315,146.40089 86.825,146.01725 97,146.00091 l 18.5,-0.0297 2.75,-4.98611 c 1.5125,-2.74236 2.75,-5.20227 2.75,-5.46646 0,-0.26419 -10.0125,-0.60146 -22.25,-0.74948 L 76.5,134.5 v -8 -8 l 33,-0.53519 c 32.96673,-0.53465 33.00684,-0.53792 39.78168,-3.24499 3.72992,-1.49039 9.24242,-2.99901 12.25,-3.35249 L 167,110.72464 V 94.862319 79 h -19.8 c -14.06667,0 -20.14747,-0.347475 -21,-1.2 -0.85253,-0.852525 -1.2,-6.933333 -1.2,-21 L 125,37 H 91.5 58 v 75.5 75.5 h 28.067388 c 26.266172,0 28.033362,-0.11231 27.537162,-1.75 z M 76.424346,105.66345 c -0.28743,-0.74904 -0.387993,-4.46723 -0.223473,-8.262665 L 76.5,90.5 h 36 36 v 8 8 l -35.77653,0.26266 c -29.446182,0.21618 -35.868993,0.0217 -36.299124,-1.09921 z M 154,61.281445 C 154,60.298302 143.76159,50 142.78416,50 141.83315,50 141.72541,60.392079 142.66667,61.333333 143.56823,62.234895 154,62.187135 154,61.281445 Z"
         id="path3790" />
      <path
         style="fill:#b0b0b0"
         d="m 154.16362,223.41219 c -8.27415,-1.81115 -16.65521,-6.35559 -24.03087,-13.03018 L 124.18543,205 H 83.792716 C 53.709493,205 43.093722,204.69372 42.2,203.8 40.460519,202.06052 40.460519,22.939481 42.2,21.2 43.098945,20.301055 55.072623,20 89.926804,20 H 136.45361 L 160.2268,43.773196 184,67.546392 l 0.033,22.976804 0.033,22.976804 9.07275,4.32128 c 20.12605,9.58589 31.86429,28.18949 31.86004,50.4941 -0.001,7.88596 -2.10146,18.90627 -4.70375,24.68462 -4.86396,10.80038 -16.54562,22.48609 -27.29507,27.30453 -10.03628,4.49875 -26.47269,5.81399 -38.83638,3.10766 z m 27.15135,-15.42775 c 3.5891,-1.10857 8.85457,-3.7655 11.70104,-5.90429 29.50515,-22.16974 18.24463,-68.36847 -18.04395,-74.02926 -28.15575,-4.39213 -52.36181,21.02369 -46.55357,48.88019 2.55317,12.24507 9.9232,22.30741 20.44715,27.91663 10.39123,5.53846 21.26903,6.58997 32.44933,3.13673 z M 162.25,197.33772 C 161.36794,196.9818 161,193.91433 161,186.91667 V 177 l -9.25,-0.0153 c -5.0875,-0.008 -9.83471,-0.38621 -10.54935,-0.83952 -0.91235,-0.57872 -1.21019,-2.88243 -1,-7.73469 L 140.5,161.5 l 10,-0.5 10,-0.5 0.5,-10 0.5,-10 6.91048,-0.29935 c 4.85226,-0.21019 7.15597,0.0876 7.73469,1 0.45331,0.71464 0.8311,5.46185 0.83952,10.54935 L 177,161 h 9.89301 C 198.16156,161 198,160.87568 198,169.5466 198,176.35904 196.9307,177 185.56574,177 H 177 v 8.56574 c 0,11.50933 -0.59564,12.45463 -7.78518,12.35531 -3.14315,-0.0434 -6.27732,-0.30592 -6.96482,-0.58333 z M 115,188.54879 c 0,-0.24817 -0.675,-3.04271 -1.5,-6.2101 -0.825,-3.16739 -1.5,-8.81434 -1.5,-12.54879 V 163 l -16.25,-0.0153 c -8.9375,-0.008 -16.834707,-0.38621 -17.549348,-0.83952 -0.912348,-0.57872 -1.21019,-2.88243 -1,-7.73469 L 77.5,147.5 l 19.166563,-0.2713 19.166567,-0.2713 3.08343,-5.46355 C 120.61245,138.48889 122,135.57348 122,135.01515 122,134.3583 114.043,134 99.45619,134 H 76.912381 L 77.20619,126.75 77.5,119.5 110,118.9617 c 32.48641,-0.53807 32.50252,-0.53941 38.53705,-3.20373 3.32037,-1.46599 8.94537,-3.02433 12.5,-3.46297 L 167.5,111.49747 V 94.998735 78.5 L 147,78 126.5,77.5 126,57 125.5,36.5 h -34 -34 l -0.258584,75 c -0.142221,41.25 -0.04384,75.5625 0.218615,76.25 0.366353,0.95964 7.104649,1.25 29.008584,1.25 C 102.16088,189 115,188.79696 115,188.54879 Z M 77.679419,105.34609 C 77.305739,104.97241 77,101.59167 77,97.833333 V 91 h 35.54381 35.54381 l -0.29381,7.25 -0.29381,7.25 -34.57058,0.26275 c -19.01382,0.14452 -34.87632,-0.043 -35.250001,-0.41666 z M 149.54854,55.048916 c -3.7938,-3.823096 -7.26923,-6.721539 -7.72318,-6.440983 -0.98121,0.606423 -1.12035,11.763742 -0.15869,12.7254 C 142.03333,61.7 145.50876,62 149.38985,62 h 7.05651 z"
         id="path3788" />
      <path
         style="fill:#909090"
         d="M 155.76272,223.47145 C 147.10722,221.74914 138.12706,216.93451 130.63604,210 L 124.69466,204.5 83.597328,204 42.5,203.5 v -91 -91 l 46.98214,-0.260038 46.98214,-0.260038 23.24998,23.234191 23.24998,23.234191 0.26788,23.025847 L 183.5,113.5 l 8.89719,4.28429 c 16.19958,7.80062 28.03923,22.53999 31.14513,38.77306 3.93821,20.58314 -1.10855,38.01369 -15.03991,51.94506 -13.9666,13.96659 -32.02263,19.09142 -52.73969,14.96904 z m 26.006,-15.0144 c 5.93169,-1.76834 13.52609,-6.84901 18.23634,-12.20014 16.12973,-18.32434 13.17956,-46.52388 -6.37578,-60.9437 -26.50913,-19.54744 -64.11072,-2.22777 -66.35841,30.56536 -2.03386,29.67341 25.53521,51.21279 54.49785,42.57848 z M 161.5322,194.795 c -0.29067,-1.26225 -0.64183,-5.895 -0.78035,-10.295 l -0.25185,-8 -9.46594,-0.29038 c -6.02522,-0.18484 -9.74537,-0.73006 -10.23469,-1.5 -0.42281,-0.66529 -0.77564,-3.55629 -0.78406,-6.42444 C 139.99586,161.66177 141.12397,161 152.43426,161 H 161 v -8.56574 c 0,-11.31029 0.66177,-12.4384 7.28518,-12.41895 2.86815,0.008 5.75915,0.36125 6.42444,0.78406 0.76994,0.48932 1.31516,4.20947 1.5,10.23469 L 176.5,160.5 l 8,0.25185 c 13.00512,0.40942 12.63995,0.17097 12.295,8.0285 L 196.5,175.5 l -10,0.5 -10,0.5 -0.5,10 -0.5,10 -6.71965,0.295 c -6.29997,0.27657 -6.75267,0.15166 -7.24815,-2 z M 115,188.24963 c 0,-0.41271 -0.66719,-3.90021 -1.48264,-7.75 -0.81545,-3.8498 -1.49045,-9.5765 -1.5,-12.72602 L 112,162.04723 94.75,161.77361 77.5,161.5 77.2064,155.40863 c -0.203988,-4.23218 0.123957,-6.43791 1.074464,-7.22676 0.882399,-0.73233 7.884485,-1.23239 19.724107,-1.40863 L 116.36101,146.5 119.64158,141 c 1.80431,-3.025 3.29808,-5.82905 3.31949,-6.23123 0.0214,-0.40217 -10.19857,-0.85217 -22.71107,-1 L 77.5,133.5 77.198157,127.09106 c -0.209612,-4.45064 0.09595,-6.66126 1,-7.23469 0.716014,-0.45416 15.216536,-0.83264 32.223383,-0.84106 L 141.34308,119 l 6.57846,-2.63233 c 3.61815,-1.44779 9.61596,-3.10271 13.32846,-3.67761 L 168,111.64479 V 94.822393 78 h -19.8 c -14.06667,0 -20.14747,-0.347475 -21,-1.2 -0.85218,-0.852184 -1.2,-6.914815 -1.2,-20.916667 0,-12.192666 -0.37982,-19.843868 -0.99532,-20.05 C 124.45726,35.65 108.93226,35.624236 90.504683,35.77608 L 57,36.05216 V 112.52608 189 h 29 c 15.95,0 29,-0.33767 29,-0.75037 z m -36.801843,-83.106 c -0.904054,-0.57343 -1.209612,-2.78405 -1,-7.234688 L 77.5,91.5 h 35 35 l 0.30184,6.408942 c 0.20962,4.450638 -0.0959,6.661258 -1,7.234688 -0.71601,0.45416 -16.15184,0.82574 -34.30184,0.82574 -18.15,0 -33.585829,-0.37158 -34.301843,-0.82574 z M 156,61.776905 C 156,60.14322 143.90596,48 142.27889,48 141.36514,48 141,49.95101 141,54.833333 c 0,3.758334 0.3,7.133334 0.66667,7.5 C 142.92869,63.595361 156,63.087925 156,61.776905 Z"
         id="path3786" />
      <path
         style="fill:#6d6d6d"
         d="m 161,224.34027 c -11.05057,-1.71222 -21.76024,-6.89623 -30.66033,-14.84111 L 124.17935,204 H 83.696664 c -35.992425,0 -40.550012,-0.17545 -41.089675,-1.58179 -0.793258,-2.0672 -0.793258,-177.769225 0,-179.836423 C 43.148472,21.170704 48.245066,21 89.833305,21 H 136.45263 L 159.72632,44.273684 183,67.547368 v 23.127133 23.127129 l 9.3723,4.55936 c 29.03538,14.12489 40.50023,46.88467 26.47118,75.63901 -4.30059,8.81461 -16.03041,20.54397 -24.84348,24.84253 -10.02627,4.89028 -22.98602,7.04936 -33,5.49774 z M 184,208.09 c 11.07034,-4.26454 19.65536,-12.81826 24.17816,-24.09 1.74101,-4.33895 2.21902,-7.611 2.26436,-15.5 0.0531,-9.23854 -0.1863,-10.51463 -3.14397,-16.75853 -4.16827,-8.79956 -11.6497,-16.65544 -19.57704,-20.55688 -36.41095,-17.91965 -74.45657,20.12597 -56.53692,56.53692 5.01249,10.18489 16.50098,19.46215 27.56133,22.2565 5.91236,1.49374 19.01903,0.51387 25.25408,-1.88801 z m -21.51379,-12.34 c -0.24806,-0.6875 -0.57143,-5.3 -0.71861,-10.25 l -0.2676,-9 -10,-0.5 -10,-0.5 v -6.5 -6.5 l 10,-0.5 10,-0.5 0.5,-10 0.5,-10 h 6.5 6.5 l 0.5,10 0.5,10 10,0.5 10,0.5 0.30507,5.33118 C 197.24217,175.46947 196.50001,176 185.37756,176 H 176 v 9.3 c 0,5.9 -0.43871,9.73871 -1.2,10.5 -1.62228,1.62228 -11.72521,1.58126 -12.31379,-0.05 z m -46.91401,-7.07755 c 0.28018,-0.73015 -0.0195,-2.64265 -0.66597,-4.25 C 114.25975,182.8151 113.45389,177.225 113.11541,172 L 112.5,162.5 96,162.23548 c -14.075548,-0.22565 -16.683671,-0.51087 -17.75,-1.94113 -1.378808,-1.84938 -1.667666,-9.08869 -0.439773,-11.02153 0.56031,-0.88199 6.080384,-1.30392 19.624472,-1.5 L 116.27957,147.5 l 3.90025,-6.41624 c 2.96842,-4.88332 3.59204,-6.61178 2.61021,-7.23469 -0.70952,-0.45014 -11.02939,-0.82534 -22.933041,-0.83376 C 75.990317,132.99843 77,133.28623 77,126.5 77,119.59307 74.99469,120 109.03143,120 h 30.81745 l 7.5145,-3.00895 c 4.13297,-1.65492 10.2399,-3.29381 13.57094,-3.64197 3.33105,-0.34817 6.51992,-1.19148 7.0864,-1.87404 0.64017,-0.77136 0.92575,-7.435 0.75461,-17.608027 L 168.5,77.5 147.75,77.229712 127,76.959423 126.98469,57.229712 c -0.008,-10.851342 -0.37619,-20.298216 -0.81727,-20.993054 -0.62608,-0.986292 -8.35305,-1.205592 -35.234683,-1 L 56.5,35.5 l -0.258541,76 c -0.142197,41.8 -0.04382,76.5625 0.218616,77.25 0.718976,1.88349 58.388635,1.80784 59.112125,-0.0776 z M 77.606989,103.41821 C 77.273145,102.54823 77,100.33503 77,98.5 77,91.563753 74.617421,92 112.5,92 c 37.88258,0 35.5,-0.436247 35.5,6.5 0,6.93625 2.38258,6.5 -35.5,6.5 -30.341878,0 -34.355848,-0.18196 -34.893011,-1.58179 z M 157,62.224972 c 0,-0.426265 -3.38935,-4.138765 -7.53188,-8.25 -8.47646,-8.412407 -9.42603,-8.342768 -9.45281,0.693241 C 139.99094,62.895002 140.10551,63 149.10699,63 153.44814,63 157,62.651238 157,62.224972 Z"
         id="path3784" />
      <path
         style="fill:#4c4c4c"
         d="m 160,224.04942 c -10.69242,-1.99178 -21.19624,-7.45587 -30.14175,-15.67974 L 124.01738,203 H 83.508688 43 V 112.5 22 H 89.758153 136.51631 L 159.25815,44.757982 182,67.515963 l 0.0153,22.492019 c 0.008,12.370608 0.34592,22.974248 0.75,23.563628 0.40408,0.58939 4.64755,2.95283 9.42993,5.25208 14.55205,6.99627 23.69704,17.18049 29.57398,32.93476 3.5333,9.47169 3.67347,23.8694 0.32361,33.24155 -4.87774,13.64685 -13.82971,25.13952 -24.41296,31.34172 -11.34108,6.64632 -26.61028,9.76975 -37.67987,7.7077 z m 26.5,-16.53614 c 8.27146,-3.96604 16.49405,-12.05748 20.63247,-20.3034 C 210.37164,180.75575 210.5,180.06167 210.5,169 c 0,-10.86984 -0.17582,-11.87118 -3.20861,-18.27383 -12.54297,-26.47997 -46.48934,-32.78432 -67.83367,-12.59774 -23.64565,22.36307 -14.40976,61.12454 17.04228,71.5236 2.54878,0.84271 7.62806,1.21652 14,1.03035 8.60303,-0.25137 10.83818,-0.69408 16,-3.1691 z M 162.48621,194.75 c -0.24806,-0.6875 -0.57143,-5.3 -0.71861,-10.25 l -0.2676,-9 -10,-0.5 -10,-0.5 v -6 -6 l 10,-0.5 10,-0.5 0.5,-10 0.5,-10 h 6 6 l 0.5,10 0.5,10 10,0.5 10,0.5 0.29772,6.25 0.29771,6.25 h -9.34771 c -5.93712,0 -9.78555,0.43783 -10.54772,1.2 -0.76129,0.76129 -1.2,4.6 -1.2,10.5 v 9.3 h -6.03138 c -3.9179,0 -6.18943,-0.43802 -6.48241,-1.25 z M 116,188.2434 c 0,-0.96613 -0.47742,-3.32863 -1.06094,-5.25 -0.58352,-1.92137 -1.37102,-7.5434 -1.75,-12.4934 l -0.68906,-9 -17,-0.5 -17,-0.5 v -6 -6 l 19.169945,-0.27131 19.169945,-0.27132 3.58006,-6.51311 C 122.38898,137.86205 124,134.50509 124,133.98435 c 0,-0.56011 -9.29141,-1.05657 -22.75,-1.21558 L 78.5,132.5 v -6 -6 L 111,120 c 31.061,-0.47786 32.70419,-0.59898 37.11155,-2.73555 2.53635,-1.22955 8.16135,-2.83514 12.5,-3.56797 L 168.5,112.36407 V 94.932034 77.5 L 148,77 127.5,76.5 127,56 126.5,35.5 91.25,35.237207 56,34.974415 V 112.48721 190 h 30 c 27.94771,0 30,-0.12017 30,-1.7566 z M 78.41392,103.63627 c -0.29345,-0.76471 -0.394129,-3.58321 -0.223732,-6.26333 L 78.5,92.5 h 34 34 v 6 6 l -33.77627,0.26333 c -28.09441,0.21904 -33.866019,0.0294 -34.30981,-1.12706 z m 79.15614,-40.749622 c 0.91052,-1.473255 -14.98345,-17.367225 -16.45671,-16.456703 -1.19909,0.741077 -1.59582,15.754251 -0.44668,16.903388 1.14913,1.149138 16.16231,0.752403 16.90339,-0.446685 z"
         id="path3782" />
      <path
         style="fill:#2e2e2e"
         d="m 161.5,224.30229 c -2.2,-0.23977 -4.4275,-0.85587 -4.95,-1.36912 C 156.0275,222.41993 154.84211,222 153.9158,222 c -3.65644,0 -17.58412,-8.048 -22.82884,-13.19147 L 125.67392,203.5 84.586959,203 43.5,202.5 v -90 -90 L 89.965677,22.239871 136.43135,21.979742 159.21568,44.764064 182,67.548387 v 23.518186 23.518187 l 8.73569,3.93437 c 11.9978,5.40355 21.65637,14.51639 27.26726,25.7266 2.19838,4.39222 3.99705,8.74375 3.99705,9.67007 0,0.92631 0.51771,2.20191 1.15046,2.83466 1.51538,1.51538 1.6101,20.39491 0.11764,23.44775 -0.61891,1.26599 -1.85915,4.63588 -2.75609,7.48865 -4.52045,14.37757 -20.03373,29.48711 -34.21594,33.32545 -2.63784,0.71392 -5.24607,1.62824 -5.79607,2.03182 -1.32538,0.97255 -13.95005,1.80854 -19,1.25816 z m 22.5,-15.1908 c 20.6325,-7.86752 32.43369,-31.19249 26.17654,-51.73777 -4.52352,-14.85294 -14.48058,-25.09184 -29.03006,-29.85179 -8.57651,-2.80585 -21.733,-1.8442 -30.42031,2.22353 -27.25446,12.76157 -33.44515,48.38297 -12.09595,69.60045 11.72981,11.65744 30.06091,15.6031 45.36978,9.76558 z M 162.98469,186.7999 c -0.008,-5.11494 -0.36125,-9.84423 -0.78406,-10.50952 -0.48932,-0.76994 -4.20947,-1.31516 -10.23469,-1.5 L 142.5,174.5 142.2001,168.75 141.90019,163 h 9.34991 c 5.93881,0 9.78769,-0.43779 10.5499,-1.2 0.76221,-0.76221 1.2,-4.61109 1.2,-10.5499 v -9.34991 l 5.75,0.29991 5.75,0.2999 0.29038,9.46594 c 0.18484,6.02522 0.73006,9.74537 1.5,10.23469 0.66529,0.42281 5.39458,0.77564 10.50952,0.78406 l 9.29991,0.0153 -0.29991,5.75 -0.2999,5.75 -10,0.5 -10,0.5 -0.5,10 -0.5,10 -5.75,0.2999 -5.75,0.29991 -0.0153,-9.29991 z m -46.50698,3.23617 c 0.32766,-0.53016 -0.0958,-3.63262 -0.94099,-6.89434 C 114.69153,179.88 114,174.27557 114,170.68744 114,160.3461 115.22092,161 95.912063,161 H 79.038104 l -0.592731,-2.36163 c -0.326002,-1.29889 -0.447075,-3.88639 -0.269052,-5.75 L 78.5,149.5 97.145549,149.22832 C 111.9439,149.01269 116.03874,148.65825 116.99129,147.51049 118.92262,145.18339 125,134.83906 125,133.87885 125,133.39548 114.9301,133 102.62244,133 77.432745,133 77.667601,133.069 78.188891,125.8239 L 78.5,121.5 l 32,-0.53897 32,-0.53898 6.35809,-2.79443 c 3.49695,-1.53694 8.89695,-3.04319 12,-3.34721 C 170.45609,113.34002 170,114.29371 170,95.164816 170,83.458848 169.6379,78.037895 168.8,77.2 167.94747,76.347475 161.86667,76 147.8,76 H 128 V 56.934259 c 0,-11.230153 -0.42544,-19.860678 -1.03518,-21 C 125.97228,34.079688 124.51798,34 91.664816,34 66.347737,34 57.086638,34.313362 56.2,35.2 c -1.737201,1.737201 -1.737201,152.8628 0,154.6 1.510031,1.51003 59.35036,1.73656 60.27771,0.23607 z M 78.679751,103.34642 C 77.531244,102.19791 77.92735,94.47265 79.2,93.2 80.083609,92.316391 88.883901,92 112.57756,92 c 36.04465,0 34.76911,-0.26738 34.23355,7.176095 L 146.5,103.5 l -33.57025,0.26308 c -18.463636,0.1447 -33.876136,-0.0428 -34.249999,-0.41666 z M 158,62.727922 C 158,60.991595 141.57127,44.762066 140.69781,45.635525 140.31401,46.01932 140,50.308333 140,55.166667 V 64 h 9 c 6.61664,0 9,-0.336869 9,-1.272078 z"
         id="path3780" />
      <path
         style="fill:#020202"
         d="m 162.72547,224.29722 c -2.64839,-0.22676 -4.51468,-0.82927 -4.19099,-1.35301 C 158.85544,222.42489 158.40523,222 157.53403,222 c -3.14304,0 -13.06153,-4.06787 -17.9949,-7.38025 -2.77152,-1.86087 -7.18453,-5.46158 -9.80669,-8.00157 L 124.96488,202 H 84.482441 44 V 112.5 23 H 90.225275 136.45055 L 158.72527,45.274725 181,67.549451 l 0.0153,22.975274 c 0.008,12.636405 0.34759,23.497495 0.7537,24.135765 0.40611,0.63827 3.11327,2.06287 6.01591,3.16579 15.82199,6.01188 31.06563,22.91412 33.74349,37.41497 0.37999,2.05769 1.02872,3.53246 1.44163,3.27726 1.16714,-0.72132 1.8734,10.35831 1.05061,16.48149 -0.40648,3.025 -0.83203,4.825 -0.94566,4 -0.11364,-0.825 -0.83995,0.85147 -1.61403,3.72549 -3.94176,14.635 -15.22068,28.35555 -28.5873,34.7758 -4.05551,1.94794 -9.0977,3.8204 -11.20487,4.16101 -2.61353,0.42246 -3.40811,0.8875 -2.5,1.46318 0.86629,0.54917 0.0652,0.84924 -2.29379,0.85921 -1.99375,0.008 -4.91875,0.17416 -6.5,0.36832 -1.58125,0.19416 -5.02354,0.16905 -7.64953,-0.0558 z m 17.75778,-13.47834 c 20.617,-5.28762 34.8614,-27.3822 31.44417,-48.77324 -3.58825,-22.4615 -23.78818,-38.49609 -46.31876,-36.76757 -31.7169,2.4333 -50.14609,35.77818 -35.35209,63.96437 7.87591,15.00553 25.14299,24.67225 41.24343,23.08953 2.75,-0.27033 6.79246,-0.95123 8.98325,-1.51309 z M 163.48621,193.75 c -0.24806,-0.6875 -0.57143,-5.3 -0.71861,-10.25 l -0.2676,-9 -10,-0.5 -10,-0.5 v -5 -5 l 10,-0.5 10,-0.5 0.5,-10 0.5,-10 h 5 5 l 0.5,10 0.5,10 10,0.5 10,0.5 0.30226,5.25 0.30226,5.25 h -9.35226 c -5.94065,0 -9.79001,0.43775 -10.55226,1.2 -0.76129,0.76129 -1.2,4.6 -1.2,10.5 v 9.3 h -5.03138 c -3.1179,0 -5.20292,-0.47539 -5.48241,-1.25 z m -46.4245,-3.4102 c 0.87831,-0.87946 0.74394,-2.40886 -0.55533,-6.32058 -0.9427,-2.83822 -2.00479,-9.29113 -2.36019,-14.33981 L 113.5,160.5 96.198567,160.22617 78.897134,159.95233 79.198567,154.72617 79.5,149.5 l 19,-0.28978 19,-0.28978 4,-7.09309 c 2.2,-3.90119 4,-7.59579 4,-8.21021 0,-0.77598 -7.02396,-1.26983 -23,-1.61714 l -23,-0.5 v -5 -5 l 32,-0.51979 c 30.13532,-0.48951 32.3033,-0.64852 37.20497,-2.72882 2.86274,-1.21496 8.71274,-2.79412 13,-3.50923 L 169.5,113.44195 V 94.970973 76.5 L 149,76 128.5,75.5 128.22919,55.217337 127.95838,34.934675 125.41409,33.967337 C 122.625,32.906926 63.22634,32.604732 58.125,33.625 L 55,34.25 v 78.30545 78.30545 l 2.25,0.4549 c 1.2375,0.2502 14.94068,0.394 30.45151,0.31955 19.90189,-0.0955 28.54251,-0.47679 29.3602,-1.29555 z M 79.407237,102.61886 c -0.297278,-0.7747 -0.398021,-3.14336 -0.223872,-5.263699 L 79.5,93.5 h 33 33 v 5 5 l -32.77613,0.2637 c -27.440934,0.22077 -32.864109,0.0344 -33.316633,-1.14484 z M 159,63.270888 C 159,60.987276 143.05032,45 140.77208,45 139.20255,45 139,46.066814 139,54.333333 c 0,5.133334 0.3,9.633334 0.66667,10 C 140.03333,64.7 144.53333,65 149.66667,65 157.84594,65 159,64.786196 159,63.270888 Z"
         id="path3778" />
    </g>
    <path
       style="fill:#0000ff;stroke-width:0.376254"
       d="m 122.77518,189.28751 c -7.54117,-0.76625 -14.87563,-3.59119 -20.6078,-8.62065 -8.455711,-6.60033 -13.576681,-16.96621 -14.023731,-27.64971 -0.72737,-9.31731 0.93861,-19.15453 6.80847,-26.68357 6.854961,-9.25159 17.601231,-16.32753 29.386051,-16.51566 9.02698,-0.60397 18.49037,0.9567 25.94807,6.37237 11.01321,7.13384 17.67042,20.0667 17.55389,33.13327 0.33804,10.76685 -4.17143,21.43006 -11.96381,28.83649 -6.18579,5.85333 -14.04848,10.92624 -22.84632,10.95105 -3.41149,0.17893 -6.84175,0.41896 -10.25482,0.17641 z m 7.61748,-9.57121 c 4.98404,0.4548 6.2802,-4.3211 5.90202,-8.3216 0.73893,-4.02622 -0.63396,-9.76826 1.45314,-12.72886 5.78877,-0.5101 11.6426,-0.28611 17.39624,-1.15108 4.01382,-2.52143 3.24689,-8.70369 2.50891,-12.79078 -0.49176,-4.83532 -5.84672,-3.80287 -9.27456,-4.01913 -3.91648,-0.23008 -7.92944,0.19966 -11.78179,-0.53895 -0.81621,-3.4566 -0.35577,-7.29221 -0.60496,-10.89368 -0.70404,-3.40446 1.78505,-10.34624 -3.79705,-9.19129 -3.70905,0.0241 -7.58661,-0.65953 -11.17926,0.47842 -2.87822,2.76164 -1.55917,7.44545 -2.08258,11.0904 -0.0707,2.94533 -0.13948,5.8907 -0.20942,8.83605 -6.04721,0.25998 -12.15885,-0.0462 -18.14593,0.90704 -3.904091,1.94452 -1.921031,7.34961 -2.324491,10.86259 -0.12563,3.00178 -0.14953,6.40172 3.861241,5.34437 5.35427,0.27255 10.75338,0.065 16.08278,0.57887 1.15398,3.49784 0.39252,7.54598 0.71601,11.25448 0.38458,3.3571 -0.99451,9.37146 3.7689,9.97719 2.55853,0.46735 5.12565,0.86032 7.7108,0.30596 z"
       id="path2440" />
    <path
       style="fill:#ffffff;stroke-width:0.376254"
       d="m 123.71581,175.09189 c -1.1769,-0.59506 -1.33783,-1.73936 -1.70756,-12.14103 l -0.27097,-7.62338 -2.49108,-0.21388 c -1.3701,-0.11763 -4.86149,-0.30751 -7.75865,-0.42195 -2.89715,-0.11445 -6.24111,-0.30378 -7.43102,-0.42075 l -2.16346,-0.21268 v -4.78253 -4.78253 l 9.86367,-0.46643 c 5.42501,-0.25654 9.90359,-0.50636 9.95239,-0.55515 0.0488,-0.0488 0.29861,-4.52738 0.55515,-9.95239 l 0.46643,-9.86367 h 4.81948 c 2.65071,0 4.82669,0.0423 4.83551,0.0941 0.009,0.0517 0.25189,4.47122 0.54015,9.82109 0.28827,5.34986 0.5785,9.7814 0.64496,9.84786 0.0665,0.0665 4.54244,0.33242 9.94663,0.59103 l 9.8258,0.47019 0.23378,2.47458 c 0.12858,1.36103 0.23498,3.59252 0.23645,4.95887 l 0.003,2.48428 -7.9954,0.27117 c -8.18044,0.27745 -10.95558,0.57998 -11.64507,1.26947 -0.68949,0.68949 -0.99202,3.46463 -1.26947,11.64507 l -0.27117,7.9954 -3.9893,-0.006 c -2.45738,-0.003 -4.3505,-0.18818 -4.92993,-0.48116 z"
       id="path2516" />
    <path
       style="fill:#cccccc;stroke-width:0.376254"
       d="m 17.235882,93.367064 v -75.43896 h 33.245987 33.24598 l 0.22568,18.530518 c 0.19786,16.247278 0.48591,21.708162 1.18175,22.403992 0.66707,0.66708 5.70976,0.91561 22.123511,1.09041 l 18.72274,0.19938 -0.0982,15.65085 -0.0982,15.65085 -3.57441,0.45142 c -4.53706,0.57299 -8.37606,1.55896 -14.42479,3.70471 -7.14182,2.53351 -3.35709,2.31796 -60.355731,3.43737 l -12.134196,0.2383 v 7.994866 7.99487 l 1.745658,0.23928 c 0.960111,0.13159 7.267068,0.25022 14.015468,0.26362 13.23227,0.0263 28.12228,0.4644 28.49637,0.83849 0.12718,0.12718 -0.93206,2.3978 -2.35385,5.04582 l -2.58509,4.81458 -17.11956,0.22463 c -19.140224,0.25114 -21.243642,0.40539 -21.917321,1.60726 -0.314762,0.56155 -0.420408,2.93901 -0.35249,7.93245 0.05334,3.92181 0.169782,7.20336 0.258753,7.29232 0.08897,0.089 7.871548,0.24882 17.294608,0.35521 l 17.13284,0.19344 v 4.09888 c 0,5.3885 0.57379,10.50303 1.71977,15.32927 0.624,2.62792 0.80672,4.0479 0.55347,4.30116 -0.64861,0.64861 -10.68578,0.94108 -33.220148,0.96801 l -21.728679,0.026 z m 71.990817,-5.70527 18.686441,-0.2496 v -8.02799 -8.02801 H 71.663039 35.412937 l -0.243709,5.73788 c -0.253419,5.96648 -0.03386,9.54481 0.610083,9.94278 1.323435,0.81793 21.412278,1.05282 53.447388,0.62494 z"
       id="path2592" />
    <path
       style="fill:#ffffff;stroke-width:0.376254"
       d="m 103.70892,42.488498 c -0.76028,-0.08024 -1.59466,-0.40174 -1.85419,-0.714453 -0.62344,-0.751203 -0.6368,-9.776147 -0.0154,-10.397557 0.32263,-0.322631 1.74629,0.893978 5.6976,4.868953 2.89713,2.91448 5.2675,5.465069 5.2675,5.667977 0,0.702693 -4.93171,1.014509 -9.09552,0.57508 z"
       id="path2631" />
    <path
       style="fill:#f2f2f2;stroke-width:0.752508"
       d="m 17.424009,93.367064 c 0,-25.08361 0,-50.167221 0,-75.250833 22.02482,0 44.04965,0 66.07447,0 0.31576,13.107663 -0.0472,26.254242 1.02265,39.326203 3.39119,4.58659 12.00297,1.48916 17.384931,2.63385 7.95957,0.11398 15.91944,0.20571 23.87915,0.3096 0,10.19589 0,20.39178 0,30.58767 -7.96436,0.97178 -15.55451,3.61258 -23.24306,5.72362 -16.452311,1.64443 -33.046221,1.43992 -49.566761,1.87055 -6.08105,0.0532 -12.16247,0.0436 -18.243688,0.0669 0,5.769226 0,11.538456 0,17.307686 14.763718,-0.0888 29.529958,0.13497 44.271868,0.97978 -1.55232,3.14793 -3.10464,6.29586 -4.65695,9.4438 -12.59193,0.34469 -25.24386,-0.15496 -37.784996,1.0327 -3.119307,2.79416 -1.222693,8.46617 -1.545652,12.56918 -0.402654,2.59658 0.186345,4.23487 3.102018,3.62474 10.30473,0.47897 20.61672,0.78042 30.92577,1.15021 0.85146,7.6334 1.50959,15.29381 2.69775,22.88488 -18.07816,1.2435 -36.208997,0.94352 -54.3175,0.98987 0,-25.08348 0,-50.16697 0,-75.250446 z m 90.890091,-14.1167 c 0.071,-2.8243 0.14189,-5.6486 0.21284,-8.47289 -24.473001,0.1302 -48.945991,0.2604 -73.418985,0.3906 0.01817,5.0461 -0.688095,10.15812 0.0322,15.15273 5.897444,2.70095 13.488574,0.81826 20.030604,1.53078 17.64354,0.0851 35.28703,-0.0808 52.930511,-0.12833 0.0709,-2.8243 0.14189,-5.6486 0.21283,-8.47289 z"
       id="path2707" />
    <path
       style="fill:#f2f2f2;stroke-width:0.752508"
       d="m 101.70494,36.92894 c 0.0165,-1.58517 0.0331,-3.184594 0.3326,-4.746068 -0.008,-0.557992 0.46501,-0.605403 0.7761,-0.212697 1.77649,1.44416 3.38652,3.079045 5.00806,4.691703 1.42696,1.465376 2.87992,2.91551 4.1518,4.520474 0.30798,0.256788 0.33387,0.681692 -0.14908,0.681288 -1.62517,0.313595 -3.29154,0.315674 -4.94131,0.332858 -1.72606,0 -3.45211,0 -5.17817,0 0,-1.755853 0,-3.511705 0,-5.267558 z"
       id="path2820" />
  </g>
</svg>
