<?xml version="1.0" encoding="UTF-8" standalone="no"?>
<!-- Created with Inkscape (http://www.inkscape.org/) -->

<svg
   id="svg2"
   sodipodi:docname="paste.svg"
   inkscape:export-filename="C:\Users\Joshua\Documents\Visual Studio 2005\Projects\Flash-cards_share_code\Flash-Cards Wpf\Flash-Cards Wpf\Svg Package\Paste.png"
   viewBox="0 0 546.55 642.06"
   sodipodi:version="0.32"
   inkscape:export-xdpi="14.036564"
   version="1.0"
   inkscape:output_extension="org.inkscape.output.svg.inkscape"
   inkscape:export-ydpi="14.036564"
   inkscape:version="1.1 (c68e22c387, 2021-05-23)"
   xmlns:inkscape="http://www.inkscape.org/namespaces/inkscape"
   xmlns:sodipodi="http://sodipodi.sourceforge.net/DTD/sodipodi-0.dtd"
   xmlns:xlink="http://www.w3.org/1999/xlink"
   xmlns="http://www.w3.org/2000/svg"
   xmlns:svg="http://www.w3.org/2000/svg"
   xmlns:rdf="http://www.w3.org/1999/02/22-rdf-syntax-ns#"
   xmlns:cc="http://creativecommons.org/ns#"
   xmlns:dc="http://purl.org/dc/elements/1.1/">
  <defs
     id="defs4">
    <linearGradient
       id="linearGradient3219">
      <stop
         id="stop3221"
         style="stop-color:#d1d1d1"
         offset="0" />
      <stop
         id="stop3223"
         style="stop-color:#a9a7a7"
         offset="1" />
    </linearGradient>
    <linearGradient
       id="linearGradient3400"
       y2="271.62"
       gradientUnits="userSpaceOnUse"
       x2="-575.71"
       gradientTransform="matrix(1.4658 0 0 1.2342 337.04 553.76)"
       y1="52.555"
       x1="-580.45"
       inkscape:collect="always">
      <stop
         id="stop3388"
         style="stop-color:#ffdf98"
         offset="0" />
      <stop
         id="stop3382"
         style="stop-color:#f4943f"
         offset="1" />
    </linearGradient>
    <linearGradient
       id="linearGradient3225"
       y2="2002.1"
       xlink:href="#linearGradient3219"
       gradientUnits="userSpaceOnUse"
       x2="-919.26"
       gradientTransform="matrix(.27082 0 0 .27082 -318.74 -20.052)"
       y1="2581.3"
       x1="-250.66"
       inkscape:collect="always" />
    <linearGradient
       id="linearGradient2932"
       y2="313.77"
       gradientUnits="userSpaceOnUse"
       x2="689.77"
       gradientTransform="matrix(0.48242,0,0,0.48242,304.92,560.78)"
       y1="126.05"
       x1="506.25"
       inkscape:collect="always">
      <stop
         id="stop4318"
         style="stop-color:#d1e8ff"
         offset="0" />
      <stop
         id="stop4320"
         style="stop-color:#06a8ff;stop-opacity:.98431"
         offset=".40679" />
      <stop
         id="stop4322"
         style="stop-color:#7931f1"
         offset="1" />
    </linearGradient>
    <linearGradient
       id="linearGradient2934"
       y2="752.36"
       gradientUnits="userSpaceOnUse"
       x2="658.26"
       gradientTransform="matrix(0.48242,0,0,0.48242,304.92,560.78)"
       y1="529.51"
       x1="350.31"
       inkscape:collect="always">
      <stop
         id="stop4253"
         style="stop-color:#f9f9f9"
         offset="0" />
      <stop
         id="stop4255"
         style="stop-color:#c3e9f3"
         offset="1" />
    </linearGradient>
    <linearGradient
       id="linearGradient2936"
       y2="756.65"
       gradientUnits="userSpaceOnUse"
       x2="659.16"
       gradientTransform="matrix(0.4825,0,0,0.4793,304.88,561.11)"
       y1="255.76"
       x1="227.21"
       inkscape:collect="always">
      <stop
         id="stop4231"
         style="stop-color:#f9f9f9;stop-opacity:0"
         offset="0" />
      <stop
         id="stop4241"
         style="stop-color:#a5c7eb"
         offset="1" />
    </linearGradient>
    <linearGradient
       id="linearGradient2938"
       y2="640.93"
       gradientUnits="userSpaceOnUse"
       x2="672.54"
       gradientTransform="matrix(0.48242,0,0,0.48242,304.92,560.78)"
       y1="118.08"
       x1="167.46"
       inkscape:collect="always">
      <stop
         id="stop3280"
         style="stop-color:#71b7ff"
         offset="0" />
      <stop
         id="stop3298"
         style="stop-color:#3b06ff;stop-opacity:.98431"
         offset=".54322" />
      <stop
         id="stop3296"
         style="stop-color:#34097c"
         offset="1" />
    </linearGradient>
    <linearGradient
       id="linearGradient3721"
       y2="1123.9"
       gradientUnits="userSpaceOnUse"
       x2="-375.71"
       gradientTransform="matrix(.99501 0 0 1.1508 -132.99 -178.14)"
       y1="692.36"
       x1="-382.69"
       inkscape:collect="always">
      <stop
         id="stop3412"
         style="stop-color:#ffffff"
         offset="0" />
      <stop
         id="stop3418"
         style="stop-color:#f4943f"
         offset=".53723" />
      <stop
         id="stop3414"
         style="stop-color:#c28e4f"
         offset="1" />
    </linearGradient>
    <linearGradient
       id="linearGradient3742"
       y2="685.63"
       xlink:href="#linearGradient3219"
       gradientUnits="userSpaceOnUse"
       x2="-386.62"
       gradientTransform="translate(0 -6.6291)"
       y1="528.77"
       x1="-567.69"
       inkscape:collect="always" />
    <linearGradient
       id="linearGradient3750"
       y2="1123.9"
       gradientUnits="userSpaceOnUse"
       x2="-375.71"
       gradientTransform="matrix(1.0765 0 0 1.2398 -102.36 -256.52)"
       y1="692.36"
       x1="-382.69"
       inkscape:collect="always">
      <stop
         id="stop3428"
         style="stop-color:#f49422"
         offset="0" />
      <stop
         id="stop3432"
         style="stop-color:#883526"
         offset="1" />
    </linearGradient>
  </defs>
  <sodipodi:namedview
     id="base"
     bordercolor="#666666"
     inkscape:pageshadow="2"
     guidetolerance="10"
     pagecolor="#ffffff"
     gridtolerance="10000"
     inkscape:window-height="861"
     inkscape:zoom="0.45254834"
     objecttolerance="10"
     showgrid="false"
     borderopacity="1.0"
     inkscape:current-layer="layer1"
     inkscape:cx="339.19028"
     inkscape:cy="303.83495"
     inkscape:window-y="0"
     inkscape:window-x="0"
     inkscape:window-width="1276"
     inkscape:pageopacity="0.0"
     inkscape:document-units="px"
     inkscape:pagecheckerboard="0"
     inkscape:window-maximized="0" />
  <g
     id="layer1"
     inkscape:label="Layer 1"
     inkscape:groupmode="layer"
     transform="translate(732.51,-502.57)">
    <path
       id="rect3420"
       style="fill:url(#linearGradient3750);fill-rule:evenodd"
       d="m -679.53,590.38 c -29.1,0 -52.97,23.9 -52.97,53 v 448.22 c 0,29.1 23.87,53 52.97,53 h 345.41 c 29.09,0 53,-23.9 53,-53 V 643.38 c 0,-29.1 -23.91,-53 -53,-53 z m 0,30 h 345.41 c 12.99,0 23,10 23,23 v 448.22 c 0,13 -10.01,23 -23,23 h -345.41 c -13,0 -22.97,-10 -22.97,-23 V 643.38 c 0,-13 9.97,-23 22.97,-23 z" />
    <rect
       id="rect2606"
       style="fill:url(#linearGradient3400);fill-rule:evenodd"
       ry="35.262001"
       height="486.62"
       width="389.47"
       y="621.90997"
       x="-701.56" />
    <path
       id="rect3715"
       style="fill:url(#linearGradient3721);fill-rule:evenodd"
       d="m -666.31,606.97 c -27.55,0 -50.19,22.67 -50.19,50.22 v 416.11 c 0,27.5 22.64,50.2 50.19,50.2 h 318.97 c 27.54,0 50.18,-22.7 50.18,-50.3 V 657.19 c 0,-27.55 -22.64,-50.22 -50.18,-50.22 z m 0,29.87 h 318.97 c 11.52,0 20.34,8.82 20.34,20.35 v 416.01 c 0,11.6 -8.82,20.4 -20.34,20.4 h -318.97 c -11.53,0 -20.31,-8.8 -20.31,-20.3 V 657.19 c 0,-11.53 8.78,-20.35 20.31,-20.35 z" />
    <g
       id="g2909"
       transform="matrix(1.2748856,0,0,1.3924096,-1039.1108,-227.88172)">
      <path
         id="path3263"
         sodipodi:nodetypes="cccc"
         style="fill:url(#linearGradient2932);fill-rule:evenodd"
         d="m 549.15,609.01 v 103.15 l 104.59,-1.38 z" />
      <path
         id="path3265"
         sodipodi:nodetypes="ccccccccc"
         style="fill:url(#linearGradient2934);fill-rule:evenodd"
         d="m 377.97,602.59 v 358.37 l 282.56,-1.38 -1.38,-243.97 H 546.13 V 602.59 Z m 170.3,-2 112.91,112.77" />
      <path
         id="path3267"
         style="fill:url(#linearGradient2936);fill-rule:evenodd"
         d="m 385.27,608.41 v 6.56 332.78 6.47 h 6.47 255.03 6.47 v -6.47 -219.12 -6.59 l -6.59,0.12 -108.34,2.06 1.03,-107 0.06,-6.43 -6.44,-0.1 -141.12,-2.19 z m 12.94,13.13 128.13,2 -1.03,107.21 -0.07,6.66 6.66,-0.12 108.41,-2.07 v 206.07 h -242.1 z" />
      <path
         id="path3269"
         style="fill:url(#linearGradient2938);fill-rule:evenodd"
         d="m 370.56,595.16 v 7.44 358.34 7.47 l 7.43,-0.03 282.57,-1.38 7.43,-0.03 -0.03,-7.43 -1.37,-243.97 -0.03,-7.38 h -0.22 l 0.09,-0.09 -112.87,-112.72 v -0.22 H 546.12 377.96 Z M 385.4,610 h 153.31 v 105.6 7.44 h 7.41 105.62 l 1.32,229.15 -267.66,1.31 z m 168.16,6.38 91.93,91.81 h -91.93 z" />
    </g>
    <path
       id="path3732"
       sodipodi:nodetypes="cccszccssscszcscsccscs"
       style="fill:url(#linearGradient3225);fill-rule:evenodd"
       d="m -571.47,551.04 -2.47,30.8 c -23.59,10.18 -27.26,9.57 -50.93,9.45 -10.21,2.77 -30.62,-0.66 -37.75,-2.05 -5.45,-1.07 -12.15,5.48 -13.07,12.23 l -4.06,30.09 345.86,0.32 -1.11,-35.19 c -0.12,-3.92 -5.77,-9.96 -15.31,-9.55 -9.55,0.4 -29.16,3.16 -38.45,2.78 -18.59,-0.77 -40.36,-5.2 -53.49,-10.84 l -1.04,-30.38 c -0.02,-0.85 -10.29,-10.61 -15.44,-9.5 -4.74,1.03 -7.39,3.5 -8.57,10.95 -0.33,5.58 -6.56,6.32 -9.08,6.61 -3.24,0.36 -11.14,-3.16 -8.88,-11.35 15,-23.65 -6.9,-34.76 -20.41,-35.4 -23.68,-1.12 -40.13,18.45 -24.84,34.55 1.11,4.48 1.24,10.49 -7.86,13.42 -2.17,1.29 -9.24,-0.84 -11.21,-5.26 -1.97,-4.42 -0.11,-10.28 -8.53,-11.36 -3.81,0.44 -13.09,6.39 -13.36,9.68 z" />
    <path
       id="path2776"
       style="fill:url(#linearGradient3742);fill-rule:evenodd"
       d="m -505.31,502.62 c -13.95,-0.66 -26.3,4.57 -33.28,13.72 -6.5,8.52 -6.75,21.26 0.97,31.13 0.04,0.64 0.17,1.52 0.12,1.65 -0.09,0.22 -0.13,0.78 -2.94,1.72 -0.22,-0.04 -0.46,-0.06 -0.84,-0.22 -1.04,-0.42 -1.71,-1.3 -1.53,-0.9 -0.14,-0.31 -0.19,-2.64 -1.72,-6.6 -1.53,-3.95 -6.67,-8.32 -12.63,-9.09 l -0.9,-0.12 -0.91,0.09 c -4.98,0.59 -7.87,2.63 -11.34,5.03 -1.74,1.2 -3.39,2.51 -4.88,4.09 -1.49,1.59 -3.33,3.22 -3.65,7.32 l -2.1,26.28 c -18.74,7.85 -21.84,7.29 -43.9,7.19 l -1,-0.03 -0.97,0.28 c -3.15,0.85 -10.51,0.96 -17.41,0.31 -6.9,-0.65 -13.59,-1.84 -16.97,-2.5 -6.09,-1.19 -11.12,1.65 -14.75,5.09 -3.62,3.45 -6.36,7.96 -7.09,13.41 l -4.06,30.09 -1.13,8.41 h 8.47 l 345.84,0.31 h 7.66 l -0.25,-7.62 -1.09,-35.19 c -0.17,-5.39 -3.13,-9.15 -7.13,-12.13 -4,-2.97 -9.51,-4.86 -15.9,-4.59 -5.28,0.22 -12.53,1.03 -19.72,1.72 -7.2,0.69 -14.43,1.21 -18.13,1.06 -15.82,-0.65 -34.36,-4.38 -46.53,-8.75 l -0.88,-25.34 c -0.12,-3.63 -1,-3.55 -1.34,-4.06 -0.34,-0.52 -0.61,-0.85 -0.87,-1.16 -0.54,-0.63 -1.11,-1.19 -1.75,-1.81 -1.3,-1.26 -2.92,-2.71 -4.82,-4.13 -1.89,-1.42 -3.98,-2.8 -6.4,-3.9 -2.42,-1.11 -5.26,-2.27 -9.22,-1.41 -3.3,0.71 -7.11,2.4 -9.75,5.56 -2.61,3.12 -3.82,6.94 -4.53,11.31 -0.41,0.15 -1.18,0.31 -2,0.44 0,0 -0.04,0.01 -0.03,0 0.03,-0.11 -1.06,-0.25 -1.38,-0.53 -0.31,-0.28 -0.4,-0.27 -0.31,-0.69 3.77,-6.35 5.67,-12.54 5.47,-18.34 -0.22,-6.21 -2.89,-11.66 -6.5,-15.63 -7.22,-7.93 -17.42,-11.06 -26,-11.47 z m -0.72,14.79 c 4.92,0.23 12.42,2.96 15.78,6.65 1.68,1.85 2.53,3.64 2.63,6.19 0.09,2.55 -0.71,6.19 -3.88,11.19 l -0.59,0.94 -0.29,1.06 c -1.79,6.49 0.85,13.08 4.6,16.4 3.75,3.33 7.3,4.84 12.22,4.28 1.3,-0.14 4.34,-0.36 7.75,-2 3.25,-1.56 7.11,-5.65 7.75,-10.81 h 0.06 c 0.48,-3.01 1.15,-4.12 1.31,-4.31 0.1,-0.11 0.62,-0.24 0.91,-0.34 0.14,0.02 0.24,0.01 0.56,0.15 0.95,0.44 2.37,1.33 3.69,2.31 1.15,0.87 2.14,1.76 2.94,2.5 l 0.93,27.72 0.19,4.69 4.31,1.85 c 14.56,6.25 36.57,10.63 56.1,11.43 5.59,0.23 12.8,-0.42 20.12,-1.12 7.32,-0.7 14.67,-1.48 18.94,-1.66 3.16,-0.13 5.23,0.76 6.47,1.69 1.24,0.92 1.17,2.15 1.12,0.69 l 0.88,27.56 -329.75,-0.31 2.94,-21.69 c 0.17,-1.3 1.27,-3.44 2.59,-4.69 1.32,-1.25 2.36,-1.16 1.72,-1.28 3.74,0.73 10.79,1.97 18.44,2.69 7.18,0.68 14.61,1.04 21.34,-0.5 22.93,0.11 29.57,0.15 53.25,-10.07 l 4.09,-1.74 0.35,-4.44 2.34,-29.32 c 0.48,-0.48 1.3,-1.2 2.31,-1.9 1.22,-0.84 2.68,-1.48 3.72,-1.94 0.13,0.99 0.35,3.08 1.85,6.44 2.14,4.81 6,7.2 9.53,8.62 1.76,0.72 3.51,1.18 5.4,1.35 1.51,0.13 3.25,0.01 5.29,-0.78 l 0.03,0.12 c 5.96,-1.92 10.53,-5.8 12.37,-10.44 1.85,-4.63 1.13,-8.89 0.41,-11.81 l -0.47,-1.9 -1.34,-1.41 c -5.71,-6.01 -5.03,-9.78 -1.69,-14.16 3.34,-4.37 11.05,-8.37 20.78,-7.9 z" />
  </g>
  <metadata
     id="metadata44">
    <rdf:RDF>
      <cc:Work>
        <dc:format>image/svg+xml</dc:format>
        <dc:type
           rdf:resource="http://purl.org/dc/dcmitype/StillImage" />
        <cc:license
           rdf:resource="http://creativecommons.org/publicdomain/zero/1.0/" />
        <dc:publisher>
          <cc:Agent
             rdf:about="http://openclipart.org/">
            <dc:title>Openclipart</dc:title>
          </cc:Agent>
        </dc:publisher>
        <dc:title>Paste</dc:title>
        <dc:date>2010-04-07T19:30:50</dc:date>
        <dc:description />
        <dc:source>https://openclipart.org/detail/38911/paste-by-mightyman</dc:source>
        <dc:creator>
          <cc:Agent>
            <dc:title>mightyman</dc:title>
          </cc:Agent>
        </dc:creator>
        <dc:subject>
          <rdf:Bag>
            <rdf:li>button icon</rdf:li>
            <rdf:li>clipboard</rdf:li>
            <rdf:li>icon</rdf:li>
            <rdf:li>paste</rdf:li>
            <rdf:li>toolbar</rdf:li>
            <rdf:li>toolbar icon</rdf:li>
          </rdf:Bag>
        </dc:subject>
      </cc:Work>
      <cc:License
         rdf:about="http://creativecommons.org/publicdomain/zero/1.0/">
        <cc:permits
           rdf:resource="http://creativecommons.org/ns#Reproduction" />
        <cc:permits
           rdf:resource="http://creativecommons.org/ns#Distribution" />
        <cc:permits
           rdf:resource="http://creativecommons.org/ns#DerivativeWorks" />
      </cc:License>
    </rdf:RDF>
  </metadata>
</svg>
