<?xml version="1.0" encoding="UTF-8" standalone="no"?>
<!-- Created with Inkscape (http://www.inkscape.org/) -->

<svg
   version="1.1"
   id="svg60852"
   width="179.35138"
   height="178.32941"
   viewBox="0 0 179.35138 178.32941"
   sodipodi:docname="regex.svg"
   inkscape:version="1.1 (c68e22c387, 2021-05-23)"
   xmlns:inkscape="http://www.inkscape.org/namespaces/inkscape"
   xmlns:sodipodi="http://sodipodi.sourceforge.net/DTD/sodipodi-0.dtd"
   xmlns="http://www.w3.org/2000/svg"
   xmlns:svg="http://www.w3.org/2000/svg">
  <defs
     id="defs60856" />
  <sodipodi:namedview
     id="namedview60854"
     pagecolor="#ffffff"
     bordercolor="#666666"
     borderopacity="1.0"
     inkscape:pageshadow="2"
     inkscape:pageopacity="0.0"
     inkscape:pagecheckerboard="0"
     showgrid="false"
     inkscape:zoom="1.6519337"
     inkscape:cx="17.252508"
     inkscape:cy="70.523411"
     inkscape:window-width="1600"
     inkscape:window-height="837"
     inkscape:window-x="-8"
     inkscape:window-y="-8"
     inkscape:window-maximized="1"
     inkscape:current-layer="g60960" />
  <g
     inkscape:groupmode="layer"
     inkscape:label="Image"
     id="g60858">
    <g
       id="g60960"
       transform="translate(-1.2107026,-0.30267569)">
      <path
         style="fill:#dd519a"
         d="M 9.7958054,176.29316 C 5.87408,173.76617 2.3524779,169.59232 1.3081077,165.07043 1.4345713,116.26606 0.94077532,67.455143 1.6560443,18.656095 0.8556954,10.75649 5.4810681,0.75559502 14.578946,1.1662938 54.17301,0.06299718 93.802099,0.79039982 133.41019,0.61996999 c 12.74396,0.40681121 25.67303,-0.68488258 38.29253,1.29518531 8.55061,3.8774914 8.41823,14.2516887 8.34647,22.2358397 0.41118,47.307904 0.12566,94.619445 0.19333,141.928995 -2.58586,5.58747 -7.1129,10.50945 -12.97188,12.4671 -51.16507,0 -102.330143,0 -153.495217,0 -1.326539,-0.75131 -2.653079,-1.50262 -3.9796176,-2.25393 z M 160.34116,23.544806 c 7.67354,-10.318958 -7.70638,-10.337869 -14.49164,-9.795442 -23.64897,-0.06406 -47.328163,-0.644524 -70.959842,0.304819 -9.635332,-0.973386 -5.803994,13.762048 2.640052,10.005058 27.12202,0.622241 54.29499,0.953621 81.40239,-0.268001 l 1.40904,-0.246439 z"
         id="path60972" />
      <path
         style="fill:#6c6c6c"
         d="M 9.7958054,176.29316 C 0.69556504,171.59314 0.76899875,161.25935 1.3281303,152.48792 1.3908692,106.3534 0.91579413,60.186058 1.7718087,14.073429 2.4163472,1.4606632 15.806515,-0.25658534 25.715654,0.90201378 70.405127,0.24709246 115.10787,0.62988814 159.79634,0.81929836 c 8.49912,-0.60661055 19.0425,1.89282904 19.64965,12.22426764 1.26142,16.577251 0.49188,33.283614 0.80569,49.915395 0.079,34.373658 -0.0583,68.747349 -0.009,103.121029 -3.15972,6.87862 -9.86176,13.74891 -18.021,12.4671 -49.48203,0 -98.964065,0 -148.446097,0 -1.326539,-0.75131 -2.653078,-1.50262 -3.9796176,-2.25393 z M 170.37848,168.5066 c 6.7647,-6.68199 0.9275,-19.42756 2.80457,-28.38851 -0.13587,-33.34604 -0.27175,-66.692068 -0.40763,-100.0381 -54.33333,0 -108.666665,0 -162.9999968,0 -0.051856,43.083052 -0.6937669,86.16854 -0.040535,129.25 20.5164028,2.06653 41.1921138,0.72231 61.7756158,1.19935 31.909656,-0.0956 63.868126,0.67029 95.743836,-0.79605 l 1.63667,-0.41789 z M 160.34116,23.544806 c 7.43758,-10.60203 -10.13603,-10.722038 -16.70882,-9.802898 -23.90267,0.01975 -47.90723,-0.884753 -71.741954,0.616807 -7.685519,5.791485 3.001842,13.179179 9.453702,9.785981 26.318492,0.453255 52.726512,1.062253 78.997072,-0.59989 z"
         id="path60970"
         sodipodi:nodetypes="cccccccccccccccccccscccccs" />
      <path
         style="fill:#4f1c35"
         d="M 12.461648,177.10793 C 2.1963689,172.37352 0.82457746,161.14039 1.540023,151.18986 1.246523,108.66098 0.94419221,66.118742 1.6382378,23.593984 1.5952668,15.961013 2.3860018,7.5226885 9.2235886,2.7918278 10.895262,-0.46100408 14.470695,0.78889112 17.429347,0.57998962 H 170.17914 c 3.90616,4.17337698 9.14917,7.98904178 9.10472,14.31179838 1.82095,26.548427 0.63255,53.211102 0.99191,79.805187 -0.3216,23.161015 0.75408,46.397025 -1.0671,69.505735 -0.93056,9.64106 -11.14026,14.7739 -20.03042,13.88065 -41.91801,0.88917 -83.860321,0.31614 -125.785906,0.11365 -6.96703,-0.26571 -14.055469,0.15019 -20.930696,-1.08908 z M 171.37105,169.5119 c 3.66949,-1.14763 2.96713,-4.54916 2.90437,-7.62095 V 38.57999 H 8.2754232 v 133 c 51.2589278,-0.13958 102.5245068,0.35085 153.7780468,-0.37584 3.09408,-0.30638 6.61331,0.12955 9.31758,-1.69225 z m 1.6975,-146.648169 C 175.63927,12.443242 166.87772,5.2205356 156.91664,7.088314 116.87811,6.155472 76.813679,6.6157881 36.76604,6.7369191 28.254898,7.8072341 17.637709,4.977848 10.705331,10.832755 c -1.8872125,5.768973 -6.6320082,20.796019 3.444177,19.301393 52.873687,0.544224 105.750832,0.02479 158.625912,-0.05416 0.0977,-2.40542 0.19542,-4.810839 0.29313,-7.216259 z M 21.275423,19.139007 c -0.873686,-9.4070296 12.525428,-1.216035 5.451586,3.362773 -2.545607,0.279819 -6.468315,0.573424 -5.451586,-3.362773 z m 15.71406,2.82171 c -5.190985,-10.244586 13.658833,-7.648181 5.337332,0.148882 -1.73756,0.341214 -3.659064,0.611749 -5.337332,-0.148882 z m 15.28594,-2.773738 c 0.05897,-10.6582507 13.718714,0.514429 4.785012,3.277899 -2.467318,0.524673 -5.696009,0.170973 -4.785012,-3.277899 z"
         id="path60964"
         sodipodi:nodetypes="cccccccccccccccccccscccccssccccccccc" />
      <path
         style="fill:#0a0709"
         d="M 14.567061,177.95502 C 8.8763256,173.99989 1.3042082,168.49903 1.6860802,160.82731 1.1658548,112.03343 0.91556356,63.219925 1.9293948,14.432116 4.5457195,9.6950752 7.4815925,1.3545651 13.441466,1.295382 64.100395,0.24689882 114.79122,0.36161056 165.4533,1.1950458 c 7.63486,-1.55272416 9.90883,6.2193136 13.58852,11.6994892 1.54501,7.586858 0.6039,16.707902 1.02035,24.905857 0.19241,42.492436 0.59318,85.009068 -0.41172,127.487958 -3.95616,5.69263 -9.4593,13.26668 -17.13427,12.88098 -48.8314,0.55843 -97.677289,0.66405 -146.506482,-0.0888 z M 171.9383,170.02355 c 3.41436,-1.40042 3.80194,-4.29145 3.33159,-7.60499 -0.16482,-41.44619 -0.32964,-82.892381 -0.49447,-124.33857 H 7.7754232 c -0.052441,44.415948 -0.6923517,88.83966 -0.040419,133.25 14.3322608,1.78496 28.9818128,0.78586 43.4360278,1.20055 39.138457,0.0898 78.277078,0.0337 117.415608,0.0495 1.11722,-0.85215 2.23444,-1.70429 3.35166,-2.55644 z m 1.73013,-140.025347 c 1.11151,-7.348361 1.57636,-17.639537 -5.28,-22.2750037 C 154.88729,4.6870769 140.82309,6.0520423 127.06391,5.5997443 92.248292,5.8111268 57.409927,5.0108128 22.61,6.1982149 12.437027,4.425513 6.2498108,13.315444 7.2541576,22.643315 c -2.9512547,11.104422 9.8515374,8.259209 16.7332614,8.718728 47.582227,0.239534 95.177301,0.55576 142.754041,-0.237286 2.26064,-0.307646 4.97333,0.223955 6.92697,-1.126554 z M 21.607294,20.002449 c 0.352709,-10.295704 11.096273,2.000956 2.106088,1.453063 -0.822385,-0.218945 -1.734136,-0.620146 -2.106088,-1.453063 z M 37.459001,18.82999 c 2.296648,-8.703449 10.656481,5.362452 1.143261,2.669363 -1.443119,0.07468 -1.33489,-1.830933 -1.143261,-2.669363 z m 15.816422,0.218615 c 3.242169,-9.9306898 9.362563,7.404321 0.108394,1.256933 z"
         id="path60962"
         sodipodi:nodetypes="cccccccccccsccccccssccccccccccccccccc" />
      <path
         d="m 45.562822,56.86548 q 17.93929,-9.996295 38.60348,-9.996295 16.046938,0 26.416928,6.712834 10.44563,6.712833 10.44563,17.073905 0,8.463998 -6.81234,15.030883 -6.81242,6.493925 -18.62055,9.412543 5.22286,13.86343 14.15465,26.99721 9.00744,13.13375 18.01495,20.13847 l -1.13541,0.36496 q -11.2783,3.72124 -22.10239,10.50702 l -1.13539,0.72965 -0.37828,-2.3349 q -4.84436,-28.23761 -13.549128,-47.8653 l -0.30284,-0.72967 q -5.22285,2.33488 -14.00321,3.72124 l -0.60559,0.0729 v 27.28895 l 13.32197,13.71753 h -39.1333 l -1.21111,-1.97008 h 36.02994 l -10.97551,-11.2367 v -29.40504 l 1.58956,-0.21874 q 8.629,-0.87562 14.45738,-3.28348 -0.45428,-0.87561 -0.52971,-1.09447 l -0.75695,-2.11602 q -0.0759,-0.218748 -0.37829,-0.875588 -4.69297,1.313408 -17.7122,2.845648 l -0.83261,0.14585 v 32.54253 l 8.62899,8.68293 h -33.45634 l 9.84011,-8.68293 v -24.51635 l -0.60559,0.0729 q -4.39018,0.94857 -7.94775,2.11603 l -0.60559,0.21874 -0.68124,-1.45936 q 3.33055,-1.24033 5.22285,-1.67812 l 4.01173,-0.94852 0.60553,-0.14584 v -3.7943 q -4.46589,0 -11.12688,1.89712 l -0.83261,0.29205 q 0.15143,-1.02153 1.51385,-4.74276 0.15143,-0.29207 1.05969,-3.283423 0.0754,-0.218744 0.22686,-0.656714 3.40615,0.218732 5.2985,0.218732 2.04373,0 3.78466,-0.218732 V 60.513797 q -3.48181,-2.043104 -7.19081,-3.429452 z m 22.85934,-1.897113 v 39.328354 q 2.1951,0 4.16311,-0.36499 v -35.89897 q 4.1631,-1.094488 9.99147,-1.094488 14.760168,0 20.058728,9.33958 -5.60129,-4.377949 -9.840118,-5.983162 -4.23881,-1.678208 -10.1429,-1.678208 -4.61726,0 -8.09917,0.875541 v 34.439707 l 0.83266,-0.145821 q 14.91154,-2.626822 22.102398,-8.245176 7.26651,-5.691301 7.26651,-14.739021 0,-8.099142 -6.50962,-13.352633 -6.509618,-5.326485 -16.425388,-5.326485 -7.9478,0 -13.39768,2.845652 z m 36.559768,43.779258 q 4.76869,15.030885 16.8796,29.405045 7.56931,8.97476 19.15034,16.12537 -17.33375,4.45087 -32.54802,13.57154 l -0.6813,0.43781 -1.51384,-1.16743 q 14.45742,-9.12067 30.80715,-13.42565 -21.79966,-14.00938 -34.28902,-44.800773 l -0.45427,-1.240394 q 23.16207,-8.464007 23.16207,-25.829777 0,-7.150605 -5.97974,-15.614603 7.64502,6.712834 7.64502,17.073906 0,16.782052 -22.1781,25.464956 z"
         style="font-size:7.05556px;line-height:1.25;fill:#000000;stroke-width:0.475603"
         id="path109901" />
      <g
         aria-label="/"
         transform="matrix(43.328337,-13.231195,20.974875,26.639433,-168.44846,15.637394)"
         id="text9025"
         style="font-size:4.23333px;line-height:1.25;fill:#ccff00;stroke-width:0.00583337">
        <path
           d="M 3.5267952,2.6067653 1.4948796,5.984334 H 1.3005764 L 3.332492,2.6067653 Z M 1.3377834,6.1062903 H 1.5568913 L 3.6260139,2.6667099 3.6632209,2.710118 1.5878971,6.1621008 H 1.360521 Z"
           style="font-family:Algerian;-inkscape-font-specification:Algerian;fill:#ccff00"
           id="path13181" />
      </g>
      <g
         aria-label="/"
         transform="matrix(43.328337,-13.231195,20.974875,26.639433,-45.24415,20.615646)"
         id="text9025-6"
         style="font-size:4.23333px;line-height:1.25;fill:#ccff00;stroke-width:0.00583337">
        <path
           d="M 3.5267952,2.6067653 1.4948796,5.984334 H 1.3005764 L 3.332492,2.6067653 Z M 1.3377834,6.1062903 H 1.5568913 L 3.6260139,2.6667099 3.6632209,2.710118 1.5878971,6.1621008 H 1.360521 Z"
           style="font-family:Algerian;-inkscape-font-specification:Algerian;fill:#ccff00"
           id="path13181-8" />
      </g>
    </g>
  </g>
</svg>
