<?xml version="1.0" encoding="UTF-8" standalone="no"?>
<!-- Created with Inkscape (http://www.inkscape.org/) -->

<svg
   width="40"
   height="27"
   viewBox="0 0 10.583333 7.1437504"
   version="1.1"
   id="svg10910"
   sodipodi:docname="rename.svg"
   inkscape:version="1.1 (c68e22c387, 2021-05-23)"
   xmlns:inkscape="http://www.inkscape.org/namespaces/inkscape"
   xmlns:sodipodi="http://sodipodi.sourceforge.net/DTD/sodipodi-0.dtd"
   xmlns="http://www.w3.org/2000/svg"
   xmlns:svg="http://www.w3.org/2000/svg">
  <sodipodi:namedview
     id="namedview10912"
     pagecolor="#ffffff"
     bordercolor="#666666"
     borderopacity="1.0"
     inkscape:pageshadow="2"
     inkscape:pageopacity="0.0"
     inkscape:pagecheckerboard="0"
     inkscape:document-units="mm"
     showgrid="false"
     units="px"
     inkscape:zoom="14.675"
     inkscape:cx="20.272572"
     inkscape:cy="20"
     inkscape:window-width="1440"
     inkscape:window-height="837"
     inkscape:window-x="-8"
     inkscape:window-y="-8"
     inkscape:window-maximized="1"
     inkscape:current-layer="layer1" />
  <defs
     id="defs10907" />
  <g
     inkscape:label="Layer 1"
     inkscape:groupmode="layer"
     id="layer1">
    <rect
       style="opacity:0.999;fill:none;stroke:#66ff00;stroke-width:0.232241;stroke-linejoin:round;stroke-miterlimit:4;stroke-dasharray:none;paint-order:markers fill stroke"
       id="rect11011"
       width="10.351092"
       height="5.0594258"
       x="0.11612034"
       y="1.1701459" />
    <g
       aria-label="I"
       transform="matrix(0.87813714,0,0,1.1316736,0,-1.5818823)"
       id="text11813"
       style="font-size:8.68241px;line-height:1.25;fill:#808080;stroke-width:0.542651">
      <path
         d="m 11.089507,7.7103786 c -0.80719,-0.2563372 -1.6310555,-0.3326412 -2.4928016,0 V 7.065981 H 9.4233998 V 2.0422231 H 8.5967054 V 1.3978255 c 0.7749014,0.3456645 1.6084106,0.3297743 2.4928016,0 V 2.0422231 H 10.262812 V 7.065981 h 0.826695 z"
         id="path13299"
         sodipodi:nodetypes="ccccccccccccc" />
    </g>
    <g
       aria-label="ab"
       transform="matrix(0.92036902,0,0,1.0865207,0,-1.5918078)"
       id="text15189"
       style="font-size:5.23962px;line-height:1.25;stroke-width:0.39297">
      <path
         d="M 2.4877796,6.0578495 V 5.459182 Q 2.3010158,5.474532 2.0835511,5.502675 1.8660864,5.528259 1.7535164,5.564077 1.6153624,5.60757 1.5411685,5.6919974 q -0.071635,0.081869 -0.071635,0.2174648 0,0.089544 0.01535,0.1458292 0.015351,0.056285 0.076752,0.1074532 0.058843,0.051168 0.1407124,0.076752 0.081869,0.023026 0.2558409,0.023026 0.138154,0 0.2788665,-0.056285 0.1432708,-0.056285 0.2507243,-0.1483881 z m 0,0.4451631 q -0.074194,0.056285 -0.1842054,0.1355956 -0.1100116,0.079311 -0.2072311,0.125362 -0.1355956,0.061402 -0.2814249,0.089544 -0.1458293,0.030701 -0.319801,0.030701 -0.4093454,0 -0.68565346,-0.2532824 -0.2763081,-0.2532824 -0.2763081,-0.6472773 0,-0.3146842 0.14071246,-0.5142401 Q 0.81458055,5.2698598 1.0729798,5.1547314 1.3288206,5.039603 1.7074651,4.9909933 2.0861095,4.9423835 2.4928964,4.9193578 v -0.01535 q 0,-0.237932 -0.194439,-0.3274763 -0.1944391,-0.092103 -0.5730835,-0.092103 -0.2276983,0 -0.4860976,0.081869 -0.25839921,0.079311 -0.37096917,0.1228036 H 0.78387965 V 3.9957724 q 0.14582928,-0.038376 0.47330555,-0.089544 0.3300347,-0.053727 0.6600693,-0.053727 0.7854314,0 1.1333749,0.2430488 0.3505019,0.2404903 0.3505019,0.7572888 V 6.807463 H 2.4877796 Z"
         style="font-weight:bold;-inkscape-font-specification:'sans-serif Bold';fill:#aa00d4"
         id="path21370" />
      <path
         d="m 6.9133982,5.2814801 q 0,0.6779782 -0.3760861,1.1052324 -0.3735276,0.4272542 -0.933819,0.4272542 -0.2404904,0 -0.4221374,-0.051168 Q 4.9997087,6.7116303 4.8359706,6.6144108 L 4.7975945,6.7576817 H 3.9149436 V 2.7767983 h 0.921027 V 4.1839229 Q 5.0483185,4.015068 5.2683416,3.9101732 5.4909231,3.8052785 5.7800233,3.8052785 q 0.5449409,0 0.8391579,0.3939949 0.294217,0.3914364 0.294217,1.0822067 z m -0.9491695,0.017909 q 0,-0.3837612 -0.1304788,-0.5909923 Q 5.703271,4.5011655 5.3681195,4.5011655 q -0.1304788,0 -0.2686328,0.040935 -0.1381541,0.038376 -0.2635161,0.1125699 v 1.4429423 q 0.099778,0.035818 0.1893222,0.04861 0.089544,0.012792 0.2149063,0.012792 0.3658524,0 0.544941,-0.2149063 0.1790886,-0.2149069 0.1790886,-0.6447193 z"
         style="font-weight:bold;-inkscape-font-specification:'sans-serif Bold';fill:#aa00d4"
         id="path21372" />
      <path
         style="opacity:0.999;fill:#e6e6e6;stroke:#66ff00;stroke-width:0.0643872;stroke-linejoin:round;stroke-miterlimit:4;stroke-dasharray:none;paint-order:markers fill stroke"
         d="M 5.8603066,25.548933 C 5.3661382,25.292447 5.1455641,24.915377 5.1455641,24.327087 c 0,-0.702834 0.3525746,-1.198499 1.0324186,-1.451421 0.2854257,-0.106187 2.0878835,-0.422514 2.4075194,-0.422514 0.01903,0 0.0346,0.548319 0.0346,1.218488 v 1.218488 L 8.383583,25.07053 c -0.1300855,0.09922 -0.4290633,0.27149 -0.6643952,0.382821 -0.3760854,0.177918 -0.5021092,0.202375 -1.0411639,0.202053 -0.421569,-2.52e-4 -0.6771943,-0.03354 -0.8177173,-0.106471 z"
         id="path21448"
         transform="scale(0.28747527,0.24351431)" />
      <path
         style="opacity:0.999;fill:#e6e6e6;stroke:#66ff00;stroke-width:0.0643872;stroke-linejoin:round;stroke-miterlimit:4;stroke-dasharray:none;paint-order:markers fill stroke"
         d="m 17.444634,25.204208 c -0.07496,-0.01882 -0.235946,-0.06526 -0.357752,-0.103201 l -0.221465,-0.06899 v -2.952209 -2.95221 l 0.226467,-0.133618 c 0.707218,-0.417269 1.716746,-0.57592 2.320771,-0.364718 0.866913,0.303123 1.26641,1.283681 1.26641,3.108384 0,1.475783 -0.23703,2.317761 -0.815269,2.896 -0.438511,0.43851 -0.794583,0.569375 -1.601445,0.588565 -0.374787,0.0089 -0.74276,8.11e-4 -0.817717,-0.01801 z"
         id="path21487"
         transform="scale(0.28747527,0.24351431)" />
      <path
         style="opacity:0.999;fill:#e6e6e6;stroke:#66ff00;stroke-width:0.0643872;stroke-linejoin:round;stroke-miterlimit:4;stroke-dasharray:none;paint-order:markers fill stroke"
         d="M 0.91993186,20 V 10.936968 H 16.081772 31.243612 V 20 29.063032 H 16.081772 0.91993186 Z m 5.49651254,8.151571 c 0.596839,-0.161486 1.0597519,-0.411085 1.6432578,-0.886034 l 0.5604,-0.456141 v 0.581673 0.581674 h 1.6405808 1.64058 l -0.02701,-4.480409 C 11.844593,18.570646 11.85375,18.684097 11.413064,17.77814 11.014262,16.958289 10.154953,16.326966 9.0548804,16.045615 8.1969193,15.826186 6.8141592,15.736782 5.7476732,15.831784 4.9455122,15.90324 2.908727,16.262299 2.7503683,16.36017 c -0.032294,0.01996 -0.058716,0.693764 -0.058716,1.497344 0,1.717411 -0.090981,1.604803 0.9587136,1.186606 1.1967145,-0.476769 1.6348186,-0.576252 2.5165845,-0.571456 0.9048743,0.0049 1.617337,0.179654 1.9813124,0.485919 0.2646719,0.222706 0.4683114,0.647117 0.4703428,0.980252 l 0.0015,0.245478 -0.6643952,0.04651 c -0.9807461,0.06865 -2.4859015,0.292568 -3.0766249,0.457698 -1.5988877,0.446947 -2.6157472,1.386103 -2.9435712,2.718636 -0.134783,0.547863 -0.1161543,1.845153 0.033759,2.350937 0.3783772,1.276589 1.3624844,2.24164 2.5288679,2.479899 0.4231442,0.08644 1.4504965,0.04015 1.9183071,-0.08642 z M 20.647359,27.830185 c 1.554251,-0.480525 2.812604,-2.103414 3.244593,-4.184529 0.277666,-1.337661 0.229953,-3.29294 -0.113763,-4.661972 -0.225469,-0.898051 -0.687365,-1.809939 -1.187711,-2.344811 -0.687649,-0.735099 -1.427457,-1.031032 -2.556406,-1.022598 -1.036822,0.0077 -1.727645,0.286913 -2.74276,1.108373 l -0.425895,0.344646 V 14.20756 11.345826 h -1.635434 -1.635434 v 8.211244 8.211243 h 1.564203 1.564203 l 0.04474,-0.2385 c 0.02461,-0.131176 0.07246,-0.238501 0.106334,-0.238501 0.03388,0 0.222116,0.08863 0.418311,0.196963 0.966525,0.533668 2.296408,0.669197 3.355015,0.34191 z"
         id="path21526"
         transform="scale(0.28747527,0.24351431)" />
      <path
         style="opacity:0.999;fill:#e6e6e6;stroke:#66ff00;stroke-width:0.0643872;stroke-linejoin:round;stroke-miterlimit:4;stroke-dasharray:none;paint-order:markers fill stroke"
         d="m 34.105622,20 v -9.063032 h 2.487223 2.487223 V 20 29.063032 h -2.487223 -2.487223 z"
         id="path21565"
         transform="scale(0.28747527,0.24351431)" />
    </g>
  </g>
</svg>
