<?xml version="1.0" encoding="UTF-8" standalone="no"?>
<!-- Created with Inkscape (http://www.inkscape.org/) -->

<svg
   version="1.1"
   id="svg60167"
   width="187.17546"
   height="127.77411"
   viewBox="0 0 187.17546 127.77411"
   sodipodi:docname="word-wrap.svg"
   inkscape:version="1.1 (c68e22c387, 2021-05-23)"
   xmlns:inkscape="http://www.inkscape.org/namespaces/inkscape"
   xmlns:sodipodi="http://sodipodi.sourceforge.net/DTD/sodipodi-0.dtd"
   xmlns="http://www.w3.org/2000/svg"
   xmlns:svg="http://www.w3.org/2000/svg">
  <defs
     id="defs60171" />
  <sodipodi:namedview
     id="namedview60169"
     pagecolor="#ffffff"
     bordercolor="#666666"
     borderopacity="1.0"
     inkscape:pageshadow="2"
     inkscape:pageopacity="0.0"
     inkscape:pagecheckerboard="0"
     showgrid="false"
     inkscape:zoom="2.6577778"
     inkscape:cx="78.82525"
     inkscape:cy="101.4005"
     inkscape:window-width="1280"
     inkscape:window-height="961"
     inkscape:window-x="-8"
     inkscape:window-y="-8"
     inkscape:window-maximized="1"
     inkscape:current-layer="g60275" />
  <g
     inkscape:groupmode="layer"
     inkscape:label="Image"
     id="g60173">
    <g
       id="g60275">
      <path
         style="fill:#b1b0fe"
         d="m 117.73339,126.62361 c -8.5408,-6.24757 -17.758638,-12.20135 -23.685508,-21.20302 -2.03879,-9.207083 7.489708,-14.316283 13.503228,-19.211303 4.55151,-7.44341 20.63072,-13.65605 22.63513,-1.29387 -1.50105,12.25437 13.32279,6.12154 20.55853,7.53422 7.49322,0.74753 16.45002,-2.68857 16.72521,-11.33731 1.24371,-7.65616 -4.69812,-16.10294 -12.94716,-15.33694 -24.57456,-1.13553 -49.20131,-0.58861 -73.797716,-0.85494 -24.911724,-0.02734 -49.823461,0.03467 -74.7351811,-0.0017 -7.970048,-3.29976 -8.366462,-17.340981 1.112188,-18.623607 45.6734841,0.281951 91.3975311,0.04596 137.0911591,0.123607 6.04773,0 12.09547,0 18.1432,0 14.79918,5.14438 27.23093,20.22618 24.44634,36.5166 -1.67276,15.38539 -15.36806,29.289383 -31.33475,28.503173 -7.66579,1.52109 -19.99646,-1.10192 -24.76079,2.33562 1.69201,7.29732 -4.72892,17.43945 -12.95388,12.84951 z M 5.8561799,109.63426 c -9.981488,-4.55616 -0.962378,-18.981363 8.1033911,-14.429513 17.849851,-0.66733 35.712939,-0.10931 53.568611,-0.28014 9.791272,3.10176 3.89826,18.475433 -5.530539,15.713253 -18.712655,0.16231 -37.496787,1.11129 -56.1414631,-1.0036 z M 5.1182739,15.712403 C -4.9743491,8.8431903 8.3236459,-4.0458627 16.971595,1.2415373 71.297351,0.90283627 125.63032,0.55507927 179.9519,1.5245463 191.83027,5.7572293 180.10175,22.129765 170.82003,16.294387 115.82912,17.089812 60.793678,17.498252 5.8243319,15.806922 l -0.449034,-0.06011 z"
         id="path60283" />
      <path
         style="fill:#6563fe"
         d="m 118.60273,125.09104 c -3.28783,-1.30299 -21.985508,-17.61881 -22.876508,-19.9623 -1.58997,-4.18195 0.12906,-7.010513 8.591258,-14.136473 12.02636,-10.12731 15.48162,-12.29242 18.48748,-11.58449 4.30251,1.01331 6.17955,4.21003 5.83583,9.9388 l -0.30432,5.07213 h 15.67973 c 14.27775,0 15.92637,-0.18435 18.43821,-2.06179 5.24605,-3.92108 6.88206,-7.11563 6.88206,-13.43821 0,-6.67404 -1.9783,-10.18604 -7.60453,-13.5 -3.2947,-1.94064 -5.66878,-2.01484 -79.992478,-2.5 -62.901353,-0.4106 -76.8925611,-0.74539 -78.2499971,-1.87244 -2.49849495,-2.07445 -2.170903,-8.56714 0.560662,-11.111983 2.202071,-2.051542 2.62198,-2.060902 80.2499951,-1.788955 l 78.036348,0.273378 5.72425,2.81095 c 10.42195,5.11781 15.98135,13.78604 16.59274,25.87146 0.7046,13.92809 -4.87647,23.692983 -17.00578,29.754073 -6.0362,3.01632 -6.36574,3.06352 -21.38914,3.06352 -8.39217,0 -15.97897,0.27647 -16.85955,0.61438 -1.29246,0.49597 -1.47802,1.54189 -0.96272,5.42639 0.56833,4.28431 0.3561,5.09424 -1.93528,7.38562 -2.57582,2.57582 -4.64826,3.03395 -7.89826,1.74594 z"
         id="path60277" />
    </g>
  </g>
</svg>
