<?xml version="1.0" encoding="UTF-8" standalone="no"?>
<!-- Created with Inkscape (http://www.inkscape.org/) -->

<svg
   width="800"
   height="350"
   viewBox="0 0 211.66666 92.604167"
   version="1.1"
   id="svg5"
   sodipodi:docname="prism-splash-screen.svg"
   inkscape:version="1.1 (c68e22c387, 2021-05-23)"
   xmlns:inkscape="http://www.inkscape.org/namespaces/inkscape"
   xmlns:sodipodi="http://sodipodi.sourceforge.net/DTD/sodipodi-0.dtd"
   xmlns:xlink="http://www.w3.org/1999/xlink"
   xmlns="http://www.w3.org/2000/svg"
   xmlns:svg="http://www.w3.org/2000/svg">
  <sodipodi:namedview
     id="namedview7"
     pagecolor="#ffffff"
     bordercolor="#666666"
     borderopacity="1.0"
     inkscape:pageshadow="2"
     inkscape:pageopacity="0"
     inkscape:pagecheckerboard="false"
     inkscape:document-units="mm"
     showgrid="false"
     units="px"
     inkscape:zoom="1.0868407"
     inkscape:cx="273.72917"
     inkscape:cy="221.28358"
     inkscape:window-width="1440"
     inkscape:window-height="837"
     inkscape:window-x="-8"
     inkscape:window-y="-8"
     inkscape:window-maximized="1"
     inkscape:current-layer="g23364"
     showborder="false" />
  <defs
     id="defs2">
    <linearGradient
       inkscape:collect="always"
       id="linearGradient103658">
      <stop
         style="stop-color:#ff0000;stop-opacity:1"
         offset="0"
         id="stop103654" />
      <stop
         style="stop-color:#ff7f00;stop-opacity:1"
         offset="0.36198527"
         id="stop104374" />
      <stop
         style="stop-color:#00009b;stop-opacity:1"
         offset="0.69014817"
         id="stop104440" />
      <stop
         style="stop-color:#9400d3;stop-opacity:1"
         offset="1"
         id="stop103656" />
    </linearGradient>
    <linearGradient
       inkscape:collect="always"
       id="linearGradient72283">
      <stop
         style="stop-color:#9400d3;stop-opacity:1"
         offset="0"
         id="stop72279" />
      <stop
         style="stop-color:#4b0082;stop-opacity:1"
         offset="0.16956282"
         id="stop73161" />
      <stop
         style="stop-color:#0000ff;stop-opacity:1"
         offset="0.34230989"
         id="stop73227" />
      <stop
         style="stop-color:#00ff00;stop-opacity:1"
         offset="0.49418435"
         id="stop73549" />
      <stop
         style="stop-color:#ffff00;stop-opacity:1"
         offset="0.66176242"
         id="stop73935" />
      <stop
         style="stop-color:#ff7f00;stop-opacity:1"
         offset="0.84731734"
         id="stop74193" />
      <stop
         style="stop-color:#ff0000;stop-opacity:1"
         offset="1"
         id="stop72281" />
    </linearGradient>
    <filter
       y="-0.40465617"
       height="1.8093129"
       inkscape:menu-tooltip="Darkens the edge with an inner blur and adds a flexible glow"
       inkscape:menu="Shadows and Glows"
       inkscape:label="Dark and Glow"
       style="color-interpolation-filters:sRGB"
       id="filter23326"
       x="-0.35730292"
       width="1.7146058">
      <feGaussianBlur
         stdDeviation="5"
         result="result6"
         id="feGaussianBlur23316" />
      <feComposite
         result="result8"
         in="SourceGraphic"
         operator="atop"
         in2="result6"
         id="feComposite23318" />
      <feComposite
         result="result9"
         operator="over"
         in2="SourceAlpha"
         in="result8"
         id="feComposite23320" />
      <feColorMatrix
         values="1 0 0 0 0 0 1 0 0 0 0 0 1 0 0 0 0 0 1 0 "
         result="result10"
         id="feColorMatrix23322" />
      <feBlend
         in="result10"
         mode="normal"
         in2="result6"
         id="feBlend23324" />
    </filter>
    <filter
       y="-0.39624249"
       height="1.792485"
       inkscape:menu-tooltip="Darkens the edge with an inner blur and adds a flexible glow"
       inkscape:menu="Shadows and Glows"
       inkscape:label="Dark and Glow"
       style="color-interpolation-filters:sRGB"
       id="filter23338"
       x="-11.195345"
       width="23.39069">
      <feGaussianBlur
         stdDeviation="5"
         result="result6"
         id="feGaussianBlur23328" />
      <feComposite
         result="result8"
         in="SourceGraphic"
         operator="atop"
         in2="result6"
         id="feComposite23330" />
      <feComposite
         result="result9"
         operator="over"
         in2="SourceAlpha"
         in="result8"
         id="feComposite23332" />
      <feColorMatrix
         values="1 0 0 0 0 0 1 0 0 0 0 0 1 0 0 0 0 0 1 0 "
         result="result10"
         id="feColorMatrix23334" />
      <feBlend
         in="result10"
         mode="normal"
         in2="result6"
         id="feBlend23336" />
    </filter>
    <pattern
       id="EMFhbasepattern"
       patternUnits="userSpaceOnUse"
       width="6"
       height="6"
       x="0"
       y="0" />
    <pattern
       id="EMFhbasepattern-0"
       patternUnits="userSpaceOnUse"
       width="6"
       height="6"
       x="0"
       y="0" />
    <filter
       inkscape:label="Opacity"
       inkscape:menu="Fill and Transparency"
       inkscape:menu-tooltip="Adds a white opaque background"
       style="color-interpolation-filters:sRGB"
       id="filter25663"
       x="0"
       y="0"
       width="1"
       height="1">
      <feComposite
         in2="SourceGraphic"
         operator="arithmetic"
         k4="1"
         result="result1"
         id="feComposite25655"
         k1="0"
         k2="0"
         k3="0" />
      <feMerge
         id="feMerge25661"
         result="fbSourceGraphic">
        <feMergeNode
           in="result1"
           id="feMergeNode25657" />
        <feMergeNode
           in="SourceGraphic"
           id="feMergeNode25659" />
      </feMerge>
      <feColorMatrix
         result="fbSourceGraphicAlpha"
         in="fbSourceGraphic"
         values="0 0 0 -1 0 0 0 0 -1 0 0 0 0 -1 0 0 0 0 1 0"
         id="feColorMatrix25683" />
      <feColorMatrix
         id="feColorMatrix25685"
         values="1 0 0 0 0 0 1 0 0 0 0 0 1 0 0 0 0 0 34.1994 -1 "
         result="colormatrix"
         in="fbSourceGraphic" />
      <feComposite
         in2="colormatrix"
         id="feComposite25687"
         operator="arithmetic"
         k2="0.1"
         result="fbSourceGraphic"
         k1="0"
         k3="0"
         k4="0" />
      <feColorMatrix
         result="fbSourceGraphicAlpha"
         in="fbSourceGraphic"
         values="0 0 0 -1 0 0 0 0 -1 0 0 0 0 -1 0 0 0 0 1 0"
         id="feColorMatrix25707" />
      <feColorMatrix
         id="feColorMatrix25709"
         values="1 0 0 0 0 0 1 0 0 0 0 0 1 0 0 0 0 0 34.1994 -1 "
         result="colormatrix"
         in="fbSourceGraphic" />
      <feComposite
         in2="colormatrix"
         id="feComposite25711"
         operator="arithmetic"
         k2="0.1"
         result="fbSourceGraphic"
         k1="0"
         k3="0"
         k4="0" />
      <feColorMatrix
         result="fbSourceGraphicAlpha"
         in="fbSourceGraphic"
         values="0 0 0 -1 0 0 0 0 -1 0 0 0 0 -1 0 0 0 0 1 0"
         id="feColorMatrix25731" />
      <feColorMatrix
         id="feColorMatrix25733"
         values="1 0 0 0 0 0 1 0 0 0 0 0 1 0 0 0 0 0 34.1994 -1 "
         result="colormatrix"
         in="fbSourceGraphic" />
      <feComposite
         in2="colormatrix"
         id="feComposite25735"
         operator="arithmetic"
         k2="0.1"
         result="composite"
         k1="0"
         k3="0"
         k4="0" />
    </filter>
    <linearGradient
       inkscape:collect="always"
       xlink:href="#linearGradient72283"
       id="linearGradient72285"
       x1="174.29224"
       y1="12.158409"
       x2="174.20396"
       y2="39.707443"
       gradientUnits="userSpaceOnUse"
       gradientTransform="matrix(1.1303122,0,0,1.1303122,-9.1451868,0.19185434)" />
    <linearGradient
       inkscape:collect="always"
       xlink:href="#linearGradient103658"
       id="linearGradient103660"
       x1="184.06966"
       y1="58.77121"
       x2="184.08374"
       y2="64.279686"
       gradientUnits="userSpaceOnUse" />
  </defs>
  <g
     inkscape:label="Layer 1"
     inkscape:groupmode="layer"
     id="layer1">
    <g
       id="g23364"
       transform="translate(2)">
      <g
         id="g24253"
         transform="matrix(1.0789547,0,0,1.0448847,-0.68756268,-13.833247)">
        <path
           style="opacity:0.999;fill:#daf4ff;fill-opacity:0.6;stroke:#bbecfd;stroke-width:0.529167;stroke-linejoin:round;stroke-miterlimit:2;stroke-opacity:0.6;paint-order:markers fill stroke"
           d="M 0.26457097,78.753689 41.162932,64.14713 83.643667,80.944671 38.850225,99.081147 Z"
           id="path869" />
        <path
           style="opacity:0.999;fill:#daf4ff;fill-opacity:0.6;stroke:#bbecfd;stroke-width:0.529167;stroke-linejoin:round;stroke-miterlimit:2;stroke-opacity:0.6;paint-order:markers fill stroke"
           d="M 0.26457097,78.753689 41.406373,20.44918 41.162932,64.14713 Z"
           id="path875" />
        <path
           style="opacity:0.999;fill:#daf4ff;fill-opacity:0.65;stroke:#bbecfd;stroke-width:0.529167;stroke-linejoin:round;stroke-miterlimit:2;stroke-opacity:0.6;paint-order:markers fill stroke"
           d="M 83.643667,80.944669 38.850225,99.081147 41.406373,20.44918 Z"
           id="path873" />
        <path
           style="opacity:0.999;fill:#daf4ff;fill-opacity:0.65;stroke:#bbecfd;stroke-width:0.529167;stroke-linejoin:round;stroke-miterlimit:2;stroke-opacity:0.6;paint-order:markers fill stroke"
           d="M 0.26457097,78.753689 41.406373,20.44918 38.850225,99.081147 Z"
           id="path871" />
        <path
           style="opacity:0.999;fill:#ff0000;fill-opacity:1;stroke:#ff5455;stroke-width:0.529167;stroke-linejoin:round;stroke-miterlimit:2;stroke-opacity:0.1;paint-order:markers fill stroke;filter:url(#filter23326)"
           d="M 24.608832,44.184837 40.310881,50.757785 58.934242,45.52377 41.406373,20.44918 Z"
           id="path7825"
           sodipodi:nodetypes="ccccc" />
        <path
           style="opacity:0.999;fill:#ff0000;fill-opacity:0.55;stroke:#ff5455;stroke-width:0.529167;stroke-linejoin:round;stroke-miterlimit:2;stroke-opacity:0.05;paint-order:markers fill stroke;filter:url(#filter23338)"
           d="M 40.310881,50.757785 41.406373,20.44918"
           id="path7827" />
      </g>
      <g
         aria-label="Prism"
         transform="scale(0.78365405,1.2760733)"
         id="text30677"
         style="font-size:43.3748px;line-height:1.25;fill:url(#linearGradient72285);stroke:#9400d3;stroke-width:0.508299">
        <path
           d="m 125.47631,21.259363 v 5.527746 h 2.2238 q 2.3297,0 3.38866,-0.550656 1.01659,-0.550657 1.01659,-2.13909 0,-1.037776 -0.55065,-1.757865 -0.52948,-0.698911 -1.419,-0.889523 -0.84717,-0.190612 -2.88036,-0.190612 z m 2.96507,23.000506 h -17.21861 v -7.052641 h 2.85918 v -15.35485 h -2.85918 v -7.052641 h 18.06577 q 6.22666,0 9.10702,1.207209 2.88036,1.228388 4.23582,3.346298 1.35546,2.11791 1.35546,4.638224 0,3.113328 -1.60961,5.167701 -1.60961,2.075552 -4.257,3.007432 -2.60503,0.910702 -8.04806,0.910702 h -4.59586 v 4.129925 h 2.96507 z"
           style="font-family:'Rockwell Extra Bold';-inkscape-font-specification:'Rockwell Extra Bold, '"
           id="path74405" />
        <path
           d="m 162.9845,44.259869 h -16.56206 v -6.459627 h 2.79564 v -7.624476 h -2.79564 v -6.459627 h 12.74982 v 5.146522 q 0.72009,-1.927298 2.2238,-3.325119 1.44018,-1.376642 2.92272,-1.800224 1.419,-0.402403 4.17228,-0.402403 v 9.043477 q -0.36004,-0.02118 -0.88952,-0.02118 -3.26158,0 -4.85002,0.656552 -1.65197,0.677732 -2.24498,1.779045 -0.61419,1.143671 -0.63537,3.007432 h 3.11333 z"
           style="font-family:'Rockwell Extra Bold';-inkscape-font-specification:'Rockwell Extra Bold, '"
           id="path74407" />
        <path
           d="m 185.68849,44.259869 h -14.55004 v -6.459627 h 2.11791 v -7.624476 h -2.11791 v -6.459627 h 12.771 v 14.084103 h 1.77904 z M 172.36684,17.913065 q 0,-1.673149 1.7155,-2.689746 1.69433,-1.016597 4.19346,-1.016597 2.56268,0 4.12993,1.058955 1.54607,1.080135 1.54607,2.626209 0,1.673149 -1.60961,2.647388 -1.63079,0.995418 -4.10874,0.995418 -2.52032,0 -4.19347,-0.910702 -1.67314,-0.889522 -1.67314,-2.710925 z"
           style="font-family:'Rockwell Extra Bold';-inkscape-font-specification:'Rockwell Extra Bold, '"
           id="path74409" />
        <path
           d="m 196.36276,44.514018 h -6.5867 v -6.523164 h 6.16312 q 2.37206,2.499134 5.18888,2.499134 2.838,0 2.838,-1.16485 0,-0.593015 -0.6142,-0.910702 -0.63537,-0.338865 -3.36747,-0.995417 -2.20263,-0.593015 -4.8712,-1.376642 -2.30852,-0.656552 -3.6428,-1.65197 -1.37665,-0.995418 -1.84259,-1.948477 -0.50829,-0.95306 -0.50829,-2.499135 0,-3.409835 2.41441,-5.019447 2.39324,-1.588433 6.07841,-1.588433 3.81223,0 6.39608,1.440179 v -1.058955 h 6.50199 v 5.972507 h -6.01487 q -2.24498,-2.139089 -5.33713,-2.139089 -2.4356,0 -2.4356,1.291925 0,0.614194 0.72009,0.804806 0.6142,0.190612 4.06639,0.910701 3.91813,0.825985 6.12076,1.65197 2.18145,0.825985 3.28276,2.181448 1.08014,1.355462 1.08014,3.325119 0,3.558089 -2.64739,5.252417 -2.62621,1.673149 -6.48081,1.673149 -3.83341,0 -6.50198,-1.39782 z"
           style="font-family:'Rockwell Extra Bold';-inkscape-font-specification:'Rockwell Extra Bold, '"
           id="path74411" />
        <path
           d="m 231.90129,44.259869 h -16.09612 v -6.459627 h 2.5415 v -7.624476 h -2.58385 v -6.459627 h 13.25811 v 2.816821 q 1.5249,-1.291925 4.00285,-2.244985 2.45678,-0.95306 4.70177,-0.95306 5.23123,0 7.01028,4.02403 4.72294,-4.02403 9.63649,-4.02403 2.68975,0 4.42643,1.143672 1.77905,1.164851 2.49914,3.092149 0.74127,1.990836 0.74127,5.591283 v 4.638223 h 2.71092 v 6.459627 h -13.36401 v -8.831686 q 0,-3.452194 -0.52948,-4.299358 -0.52948,-0.847164 -1.90612,-0.847164 -1.73669,0 -3.49455,1.313104 v 6.205477 h 2.90154 v 6.459627 h -13.55463 v -8.789328 q 0,-3.388656 -0.46594,-4.299358 -0.46594,-0.889522 -1.88494,-0.889522 -1.63079,0 -3.43102,1.313104 v 6.205477 h 2.88036 z"
           style="font-family:'Rockwell Extra Bold';-inkscape-font-specification:'Rockwell Extra Bold, '"
           id="path74413" />
      </g>
      <g
         aria-label="IDE For AutoX"
         id="text76702"
         style="font-size:6.35px;line-height:1.25;fill:url(#linearGradient103660);stroke-width:0.264583">
        <path
           d="m 161.58124,64.036064 h -1.82315 v -0.471289 h 0.60462 v -3.674194 h -0.60462 v -0.471289 h 1.82315 v 0.471289 h -0.60462 v 3.674194 h 0.60462 z"
           style="font-weight:normal"
           id="path958" />
        <path
           d="m 166.52667,61.732329 q 0,0.629419 -0.27595,1.141015 -0.27285,0.511597 -0.72864,0.79375 -0.31626,0.195337 -0.70693,0.282154 -0.38757,0.08682 -1.02319,0.08682 h -1.16582 v -4.616772 h 1.15341 q 0.67593,0 1.07281,0.09922 0.39997,0.09612 0.67592,0.26665 0.47129,0.294556 0.73484,0.784448 0.26355,0.489893 0.26355,1.16272 z m -0.64182,-0.0093 q 0,-0.542602 -0.18913,-0.914673 -0.18914,-0.37207 -0.56431,-0.58601 -0.27285,-0.15503 -0.57981,-0.213941 -0.30696,-0.06201 -0.73484,-0.06201 h -0.57671 v 3.562574 h 0.57671 q 0.44338,0 0.77205,-0.06511 0.33176,-0.06511 0.60771,-0.241845 0.34417,-0.220142 0.5147,-0.57981 0.17363,-0.359668 0.17363,-0.89917 z"
           style="font-weight:normal"
           id="path960" />
        <path
           d="m 170.56053,64.036064 h -3.04167 v -4.616772 h 3.04167 v 0.545703 h -2.42775 v 1.265039 h 2.42775 v 0.545703 h -2.42775 v 1.714624 h 2.42775 z"
           style="font-weight:normal"
           id="path962" />
        <path
           d="m 176.7152,59.964995 h -2.33474 v 1.302246 h 2.00608 v 0.545703 h -2.00608 v 2.22312 h -0.61392 v -4.616772 h 2.94866 z"
           style="font-weight:normal"
           id="path964" />
        <path
           d="m 180.16615,62.305937 q 0,0.84646 -0.43408,1.336353 -0.43408,0.489892 -1.16272,0.489892 -0.73484,0 -1.16892,-0.489892 -0.43098,-0.489893 -0.43098,-1.336353 0,-0.84646 0.43098,-1.336352 0.43408,-0.492993 1.16892,-0.492993 0.72864,0 1.16272,0.492993 0.43408,0.489892 0.43408,1.336352 z m -0.60151,0 q 0,-0.672827 -0.26355,-0.998388 -0.26355,-0.328663 -0.73174,-0.328663 -0.47439,0 -0.73794,0.328663 -0.26045,0.325561 -0.26045,0.998388 0,0.651123 0.26355,0.989087 0.26355,0.334863 0.73484,0.334863 0.46509,0 0.72864,-0.331762 0.26665,-0.334864 0.26665,-0.992188 z"
           style="font-weight:normal"
           id="path966" />
        <path
           d="m 183.22953,61.20833 h -0.031 q -0.13022,-0.03101 -0.25425,-0.04341 -0.12092,-0.0155 -0.28835,-0.0155 -0.26975,0 -0.5209,0.120923 -0.25115,0.117822 -0.48369,0.306958 v 2.458764 h -0.58291 V 60.57271 h 0.58291 v 0.511596 q 0.34727,-0.279052 0.61082,-0.393774 0.26665,-0.117822 0.5426,-0.117822 0.15193,0 0.22014,0.0093 0.0682,0.0062 0.20464,0.02791 z"
           style="font-weight:normal"
           id="path968" />
        <path
           d="m 190.29266,64.036064 h -1.23093 l -0.31936,-0.933276 h -1.71152 l -0.31936,0.933276 h -1.19993 l 1.70532,-4.616772 h 1.37046 z m -1.83864,-1.779736 -0.56741,-1.655713 -0.56741,1.655713 z"
           style="font-weight:bold;-inkscape-font-specification:'sans-serif Bold'"
           id="path970" />
        <path
           d="m 194.36373,64.036064 h -1.11621 v -0.384473 q -0.31006,0.235645 -0.56741,0.359668 -0.25734,0.120923 -0.61391,0.120923 -0.57671,0 -0.88987,-0.331762 -0.31006,-0.331763 -0.31006,-0.979786 v -2.266528 h 1.12241 v 1.727027 q 0,0.263549 0.0155,0.440283 0.0186,0.173633 0.0806,0.288354 0.0589,0.114722 0.17673,0.167432 0.12093,0.05271 0.33487,0.05271 0.14263,0 0.31626,-0.05271 0.17363,-0.05271 0.33486,-0.155029 v -2.468067 h 1.11621 z"
           style="font-weight:bold;-inkscape-font-specification:'sans-serif Bold'"
           id="path972" />
        <path
           d="m 197.64415,64.005058 q -0.17983,0.04651 -0.38137,0.07131 -0.20154,0.0279 -0.49299,0.0279 -0.65113,0 -0.97049,-0.26355 -0.31626,-0.26355 -0.31626,-0.90227 V 61.31064 h -0.45888 v -0.756543 h 0.45888 v -0.995288 h 1.11621 v 0.995288 h 1.0449 v 0.756543 h -1.0449 v 1.234033 q 0,0.182935 0.003,0.319361 0.003,0.136425 0.0496,0.244946 0.0434,0.10852 0.15193,0.173633 0.11162,0.06201 0.32246,0.06201 0.0868,0 0.22635,-0.03721 0.14262,-0.03721 0.19843,-0.06821 h 0.093 z"
           style="font-weight:bold;-inkscape-font-specification:'sans-serif Bold'"
           id="path974" />
        <path
           d="m 201.87025,62.296635 q 0,0.858863 -0.50229,1.354956 -0.4992,0.492994 -1.40457,0.492994 -0.90537,0 -1.40766,-0.492994 -0.4992,-0.496093 -0.4992,-1.354956 0,-0.865063 0.5023,-1.358056 0.50539,-0.492993 1.40456,-0.492993 0.91157,0 1.40767,0.496093 0.49919,0.496094 0.49919,1.354956 z m -1.37356,0.84646 q 0.10852,-0.133325 0.16123,-0.31936 0.0558,-0.189136 0.0558,-0.520898 0,-0.306958 -0.0558,-0.514698 -0.0558,-0.207739 -0.15503,-0.331762 -0.0992,-0.127124 -0.23874,-0.179834 -0.13953,-0.05271 -0.30076,-0.05271 -0.16123,0 -0.28835,0.04341 -0.12403,0.04341 -0.23875,0.173633 -0.10232,0.120923 -0.16433,0.331762 -0.0589,0.21084 -0.0589,0.530201 0,0.285254 0.0527,0.496093 0.0527,0.20774 0.15503,0.334864 0.0992,0.120923 0.23564,0.176733 0.13953,0.05581 0.31626,0.05581 0.15193,0 0.28836,-0.04961 0.13952,-0.05271 0.23564,-0.173634 z"
           style="font-weight:bold;-inkscape-font-specification:'sans-serif Bold'"
           id="path976" />
        <path
           d="m 207.44855,64.036064 h -1.52962 l -1.10588,-1.688098 -1.12655,1.688098 h -1.46072 l 1.81901,-2.583823 -1.78111,-2.545927 h 1.52618 l 1.06798,1.598525 1.09898,-1.598525 h 1.46417 l -1.79145,2.49425 z"
           style="font-size:7.05556px"
           id="path978" />
      </g>
      <g
         aria-label="© 2023 Yukthi Techsoft Pvt. Ltd."
         id="text109262"
         style="font-size:4.23333px;line-height:1.25;fill:#c8c8c8;stroke-width:0.264583"
         transform="matrix(0.95734637,0,0,0.62487411,9.2799752,33.829178)">
        <path
           d="m 134.29895,89.242674 q 0,0.740006 -0.52503,1.265038 -0.52297,0.522965 -1.26297,0.522965 -0.74001,0 -1.26504,-0.522965 -0.52296,-0.525032 -0.52296,-1.265038 0,-0.740006 0.52296,-1.262971 0.52503,-0.525032 1.26504,-0.525032 0.74,0 1.26297,0.525032 0.52503,0.522965 0.52503,1.262971 z m -0.39481,0 q 0,-0.576708 -0.40927,-0.990119 -0.40721,-0.413411 -0.98392,-0.413411 -0.57671,0 -0.98599,0.413411 -0.40721,0.413411 -0.40721,0.990119 0,0.576709 0.40721,0.99012 0.40928,0.413411 0.98599,0.413411 0.57671,0 0.98392,-0.413411 0.40927,-0.413411 0.40927,-0.99012 z m -0.70279,0.781347 q -0.16123,0.07441 -0.31006,0.111621 -0.14883,0.03721 -0.28526,0.03721 -0.45888,0 -0.7214,-0.256315 -0.26251,-0.258381 -0.26251,-0.684195 0,-0.42788 0.27491,-0.686262 0.27699,-0.260449 0.709,-0.260449 0.16537,0 0.31833,0.04341 0.15296,0.04341 0.27699,0.103353 v 0.425813 h -0.0434 q -0.15296,-0.111621 -0.28319,-0.159163 -0.13022,-0.04961 -0.26045,-0.04961 -0.23358,0 -0.35553,0.146761 -0.11989,0.146761 -0.11989,0.436149 0,0.279053 0.12402,0.427881 0.12609,0.148828 0.3514,0.148828 0.16743,0 0.31006,-0.06615 0.14469,-0.06821 0.23358,-0.142627 h 0.0434 z"
           style="font-style:italic;font-weight:bold;-inkscape-font-specification:'sans-serif Bold Italic'"
           id="path885" />
        <path
           d="m 138.43926,90.596596 h -2.41638 L 136.1407,90.0881 q 0.34313,-0.219108 0.64492,-0.432015 0.30179,-0.212906 0.51056,-0.382405 0.32246,-0.260449 0.47336,-0.467154 0.15089,-0.208773 0.15089,-0.398942 0,-0.179834 -0.11989,-0.264583 -0.11989,-0.08682 -0.33072,-0.08682 -0.21498,0 -0.43822,0.07441 -0.22324,0.07235 -0.42581,0.204639 h -0.0662 l 0.15296,-0.684195 q 0.15296,-0.06201 0.46096,-0.126091 0.30799,-0.06615 0.58291,-0.06615 0.49816,0 0.76274,0.183968 0.26458,0.183968 0.26458,0.54777 0,0.376204 -0.19844,0.665592 -0.19843,0.287321 -0.63045,0.628385 -0.2129,0.167431 -0.40721,0.299723 -0.19223,0.132291 -0.33486,0.223242 h 1.38286 z"
           style="font-style:italic;font-weight:bold;-inkscape-font-specification:'sans-serif Bold Italic'"
           id="path887" />
        <path
           d="m 141.83957,88.465461 q 0,0.425814 -0.0992,0.833024 -0.0992,0.405143 -0.29145,0.700732 -0.21911,0.330729 -0.51263,0.496093 -0.29146,0.165364 -0.66559,0.165364 -0.53951,0 -0.82683,-0.243912 -0.28732,-0.24598 -0.28732,-0.764811 0,-0.44235 0.0971,-0.833023 0.0972,-0.392741 0.29353,-0.700732 0.19637,-0.305924 0.49609,-0.483691 0.30179,-0.177767 0.68833,-0.177767 0.5519,0 0.82889,0.254248 0.27905,0.252181 0.27905,0.754475 z m -0.79788,0.03101 q 0,-0.241845 -0.0889,-0.3576 -0.0868,-0.115755 -0.26045,-0.115755 -0.16329,0 -0.30799,0.146761 -0.14262,0.14676 -0.24598,0.419612 -0.091,0.237711 -0.13849,0.520898 -0.0455,0.281119 -0.0455,0.510563 0,0.243912 0.0868,0.359667 0.0868,0.113688 0.27285,0.113688 0.17777,0 0.3142,-0.159163 0.13642,-0.16123 0.22944,-0.40721 0.0868,-0.229443 0.13436,-0.506429 0.0496,-0.276985 0.0496,-0.525032 z"
           style="font-style:italic;font-weight:bold;-inkscape-font-specification:'sans-serif Bold Italic'"
           id="path889" />
        <path
           d="m 144.45853,90.596596 h -2.41639 l 0.11782,-0.508496 q 0.34313,-0.219108 0.64492,-0.432015 0.3018,-0.212906 0.51057,-0.382405 0.32246,-0.260449 0.47335,-0.467154 0.1509,-0.208773 0.1509,-0.398942 0,-0.179834 -0.11989,-0.264583 -0.11989,-0.08682 -0.33073,-0.08682 -0.21497,0 -0.43822,0.07441 -0.22324,0.07235 -0.42581,0.204639 h -0.0661 l 0.15296,-0.684195 q 0.15296,-0.06201 0.46095,-0.126091 0.30799,-0.06615 0.58291,-0.06615 0.49816,0 0.76274,0.183968 0.26459,0.183968 0.26459,0.54777 0,0.376204 -0.19844,0.665592 -0.19844,0.287321 -0.63045,0.628385 -0.21291,0.167431 -0.40721,0.299723 -0.19224,0.132291 -0.33487,0.223242 h 1.38287 z"
           style="font-style:italic;font-weight:bold;-inkscape-font-specification:'sans-serif Bold Italic'"
           id="path891" />
        <path
           d="m 147.19945,90.365086 q -0.20464,0.14676 -0.46509,0.223242 -0.25838,0.07441 -0.57878,0.07441 -0.37413,0 -0.66766,-0.06821 -0.29352,-0.07028 -0.47955,-0.165365 l 0.14469,-0.669726 0.0806,0.0021 q 0.1881,0.134359 0.42167,0.214974 0.23358,0.08062 0.46096,0.08062 0.33279,0 0.51883,-0.124023 0.1881,-0.12609 0.1881,-0.357601 0,-0.09715 -0.0372,-0.159163 -0.0351,-0.06201 -0.11575,-0.09715 -0.0868,-0.03927 -0.21911,-0.04961 -0.13229,-0.0124 -0.29765,-0.0124 h -0.1695 l 0.11782,-0.545703 h 0.1757 q 0.42374,0 0.59118,-0.09095 0.16949,-0.09302 0.16949,-0.28112 0,-0.148828 -0.14262,-0.219108 -0.14056,-0.07028 -0.39068,-0.07028 -0.21497,0 -0.45061,0.06821 -0.23565,0.06821 -0.42168,0.16123 l -0.0765,-0.0021 0.14262,-0.663524 q 0.18397,-0.06201 0.45682,-0.109554 0.27492,-0.04961 0.53744,-0.04961 0.26458,0 0.47335,0.04134 0.20878,0.03927 0.3576,0.11989 0.1571,0.08475 0.24185,0.214973 0.0868,0.130225 0.0868,0.326595 0,0.188102 -0.0661,0.332796 -0.0641,0.142627 -0.17363,0.237712 -0.10542,0.09302 -0.24185,0.152962 -0.13642,0.05994 -0.26665,0.08888 l -0.006,0.02894 q 0.22531,0.03721 0.3762,0.179834 0.15297,0.142626 0.15297,0.370003 0,0.256314 -0.11576,0.467154 -0.11575,0.208773 -0.31212,0.349333 z"
           style="font-style:italic;font-weight:bold;-inkscape-font-specification:'sans-serif Bold Italic'"
           id="path893" />
        <path
           d="m 152.93966,87.51875 -1.5689,1.887222 -0.27491,1.190624 h -0.79789 l 0.26665,-1.153417 -0.70693,-1.924429 h 0.84956 l 0.39481,1.205093 0.91984,-1.205093 z"
           style="font-style:italic;font-weight:bold;-inkscape-font-specification:'sans-serif Bold Italic'"
           id="path895" />
        <path
           d="m 155.44906,88.275292 -0.53743,2.321304 h -0.74827 l 0.0599,-0.256315 q -0.11162,0.07235 -0.21911,0.136426 -0.10542,0.06201 -0.2005,0.09922 -0.11989,0.04961 -0.21911,0.06615 -0.0992,0.0186 -0.19637,0.0186 -0.30592,0 -0.48369,-0.14676 -0.1757,-0.146761 -0.1757,-0.434082 0,-0.07855 0.008,-0.144694 0.008,-0.06821 0.0269,-0.148828 l 0.34933,-1.511018 h 0.75241 l -0.26665,1.15135 q -0.031,0.132292 -0.0475,0.227376 -0.0145,0.09509 -0.0145,0.161231 0,0.136425 0.0661,0.198437 0.0661,0.05994 0.25012,0.05994 0.091,0 0.20877,-0.03927 0.11989,-0.03927 0.25838,-0.113688 l 0.38034,-1.645377 z"
           style="font-style:italic;font-weight:bold;-inkscape-font-specification:'sans-serif Bold Italic'"
           id="path897" />
        <path
           d="m 158.10316,90.596596 h -0.78341 l -0.45682,-1.02526 -0.32866,0.293522 -0.17157,0.731738 h -0.74827 l 0.74207,-3.216339 h 0.74827 l -0.44235,1.920295 1.03767,-1.02526 h 0.85782 l -1.07486,1.010791 z"
           style="font-style:italic;font-weight:bold;-inkscape-font-specification:'sans-serif Bold Italic'"
           id="path899" />
        <path
           d="m 159.3434,90.642071 q -0.38654,0 -0.55191,-0.12609 -0.16536,-0.128158 -0.16536,-0.378272 0,-0.06615 0.0103,-0.128157 0.0103,-0.06201 0.0269,-0.144694 l 0.25218,-1.099673 h -0.30593 l 0.11369,-0.489893 h 0.30592 l 0.15297,-0.663524 h 0.7462 l -0.15296,0.663524 h 0.69867 l -0.11369,0.489893 h -0.69867 l -0.19223,0.837157 q -0.0207,0.08682 -0.0393,0.1757 -0.0186,0.08682 -0.0186,0.148828 0,0.124023 0.0682,0.173632 0.0703,0.04754 0.21498,0.04754 0.0579,0 0.15089,-0.02067 0.0951,-0.02274 0.1509,-0.04961 h 0.062 l -0.11576,0.49816 q -0.12609,0.03101 -0.26665,0.04754 -0.13849,0.0186 -0.33279,0.0186 z"
           style="font-style:italic;font-weight:bold;-inkscape-font-specification:'sans-serif Bold Italic'"
           id="path901" />
        <path
           d="m 163.1013,88.800324 q 0,0.04961 -0.008,0.128158 -0.008,0.07855 -0.0269,0.157096 l -0.34933,1.511018 h -0.75241 l 0.26665,-1.15135 q 0.0289,-0.132292 0.0455,-0.223242 0.0165,-0.09095 0.0165,-0.163298 0,-0.138492 -0.0703,-0.198437 -0.0682,-0.06201 -0.25011,-0.06201 -0.0889,0 -0.20464,0.03927 -0.11575,0.03721 -0.25838,0.113689 l -0.38034,1.645376 h -0.74827 l 0.74207,-3.216339 h 0.74828 l -0.26459,1.15135 q 0.22738,-0.150895 0.41755,-0.235644 0.19017,-0.08475 0.41754,-0.08475 0.31626,0 0.48783,0.155029 0.17156,0.152962 0.17156,0.434081 z"
           style="font-style:italic;font-weight:bold;-inkscape-font-specification:'sans-serif Bold Italic'"
           id="path903" />
        <path
           d="m 164.6826,88.275292 -0.53743,2.321304 h -0.74828 l 0.53744,-2.321304 z m 0.22738,-0.895035 -0.13023,0.564306 h -0.78961 l 0.13022,-0.564306 z"
           style="font-style:italic;font-weight:bold;-inkscape-font-specification:'sans-serif Bold Italic'"
           id="path905" />
        <path
           d="m 169.31694,88.114062 h -0.95911 l -0.57258,2.482534 h -0.79788 l 0.57257,-2.482534 h -0.95911 l 0.13642,-0.595312 h 2.71612 z"
           style="font-style:italic;font-weight:bold;-inkscape-font-specification:'sans-serif Bold Italic'"
           id="path907" />
        <path
           d="m 171.05533,89.137255 q 0.006,-0.03721 0.008,-0.06821 0.004,-0.03101 0.004,-0.06408 0,-0.163297 -0.10128,-0.250114 -0.10129,-0.08682 -0.29146,-0.08682 -0.22944,0 -0.38654,0.124023 -0.15502,0.124024 -0.23564,0.345199 z m -0.56844,1.521352 q -0.59324,0 -0.9157,-0.262516 -0.32246,-0.262516 -0.32246,-0.725536 0,-0.31626 0.10542,-0.580843 0.10542,-0.264583 0.30385,-0.465087 0.19017,-0.194303 0.47543,-0.307992 0.28525,-0.113688 0.62631,-0.113688 0.51883,0 0.78135,0.21084 0.26458,0.208773 0.26458,0.61805 0,0.140559 -0.0289,0.274918 -0.0269,0.134359 -0.0723,0.26665 h -1.72393 q 0,0.0124 0,0.02481 0,0.01033 0,0.02274 0,0.241845 0.1695,0.378271 0.1695,0.136425 0.51883,0.136425 0.24392,0 0.46096,-0.08268 0.2191,-0.08268 0.38033,-0.183968 h 0.0827 l -0.1385,0.597379 q -0.21704,0.09509 -0.45682,0.142627 -0.23977,0.04961 -0.51056,0.04961 z"
           style="font-style:italic;font-weight:bold;-inkscape-font-specification:'sans-serif Bold Italic'"
           id="path909" />
        <path
           d="m 173.18647,90.658607 q -0.23771,0 -0.44649,-0.05994 -0.2067,-0.05788 -0.36173,-0.181901 -0.1509,-0.121956 -0.23565,-0.305924 -0.0847,-0.183968 -0.0847,-0.425814 0,-0.312125 0.11783,-0.578775 0.11989,-0.268718 0.33486,-0.469222 0.21084,-0.19637 0.5147,-0.310058 0.30385,-0.115755 0.65732,-0.115755 0.21291,0 0.42168,0.04754 0.21084,0.04754 0.39067,0.138493 l -0.15709,0.634586 h -0.10542 q -0.12196,-0.146761 -0.27699,-0.217041 -0.15296,-0.07235 -0.3452,-0.07235 -0.3514,0 -0.5643,0.250114 -0.21291,0.248046 -0.21291,0.620116 0,0.258382 0.13022,0.38654 0.1323,0.128157 0.40928,0.128157 0.21498,0 0.39067,-0.08682 0.17777,-0.08888 0.30386,-0.19637 h 0.10542 l -0.15709,0.634586 q -0.22325,0.09715 -0.39274,0.138492 -0.16744,0.04134 -0.43615,0.04134 z"
           style="font-style:italic;font-weight:bold;-inkscape-font-specification:'sans-serif Bold Italic'"
           id="path911" />
        <path
           d="m 177.19862,88.800324 q 0,0.04961 -0.008,0.128158 -0.008,0.07855 -0.0269,0.157096 l -0.34933,1.511018 h -0.75241 l 0.26665,-1.15135 q 0.0289,-0.132292 0.0455,-0.223242 0.0165,-0.09095 0.0165,-0.163298 0,-0.138492 -0.0703,-0.198437 -0.0682,-0.06201 -0.25011,-0.06201 -0.0889,0 -0.20464,0.03927 -0.11575,0.03721 -0.25838,0.113689 l -0.38034,1.645376 h -0.74827 l 0.74207,-3.216339 h 0.74827 l -0.26458,1.15135 q 0.22738,-0.150895 0.41755,-0.235644 0.19017,-0.08475 0.41754,-0.08475 0.31626,0 0.48783,0.155029 0.17156,0.152962 0.17156,0.434081 z"
           style="font-style:italic;font-weight:bold;-inkscape-font-specification:'sans-serif Bold Italic'"
           id="path913" />
        <path
           d="m 178.38925,90.660674 q -0.29766,0 -0.57671,-0.05581 -0.27905,-0.05581 -0.42788,-0.130225 l 0.14262,-0.611848 h 0.0682 q 0.0455,0.03927 0.11369,0.08682 0.0703,0.04754 0.19843,0.09922 0.10956,0.04754 0.25425,0.08268 0.14469,0.03307 0.31213,0.03307 0.25011,0 0.37413,-0.05788 0.12609,-0.05788 0.12609,-0.165365 0,-0.08268 -0.0889,-0.12609 -0.0889,-0.04341 -0.36794,-0.107487 -0.47335,-0.109554 -0.64905,-0.264583 -0.17363,-0.155029 -0.17363,-0.38654 0,-0.39274 0.3514,-0.618049 0.3514,-0.227376 0.95084,-0.227376 0.26045,0 0.5209,0.05374 0.26045,0.05168 0.3824,0.111621 l -0.13642,0.587044 h -0.0641 q -0.14676,-0.113688 -0.35553,-0.183968 -0.20671,-0.07235 -0.42582,-0.07235 -0.23771,0 -0.36587,0.05788 -0.12609,0.05581 -0.12609,0.173632 0,0.09095 0.10956,0.14056 0.10955,0.04754 0.3452,0.09922 0.43821,0.09508 0.63045,0.239778 0.1943,0.144694 0.1943,0.405143 0,0.388606 -0.35553,0.613915 -0.35554,0.223242 -0.96118,0.223242 z"
           style="font-style:italic;font-weight:bold;-inkscape-font-specification:'sans-serif Bold Italic'"
           id="path915" />
        <path
           d="m 182.68252,89.124852 q 0,0.326595 -0.10955,0.611849 -0.10955,0.285253 -0.30799,0.489892 -0.20671,0.212907 -0.47956,0.328662 -0.27285,0.113688 -0.63665,0.113688 -0.51883,0 -0.79582,-0.248047 -0.27698,-0.248047 -0.27698,-0.686262 0,-0.310059 0.10335,-0.589111 0.10335,-0.279053 0.30592,-0.491959 0.19637,-0.208773 0.48163,-0.328662 0.28732,-0.121957 0.64285,-0.121957 0.5209,0 0.79582,0.24598 0.27698,0.243913 0.27698,0.675927 z m -0.96738,0.760677 q 0.0951,-0.144694 0.14263,-0.31626 0.0496,-0.171565 0.0496,-0.417545 0,-0.212907 -0.093,-0.326595 -0.093,-0.115755 -0.29559,-0.115755 -0.1571,0 -0.27698,0.07648 -0.11783,0.07648 -0.20878,0.217041 -0.0847,0.130224 -0.13436,0.322461 -0.0475,0.192236 -0.0475,0.394807 0,0.237712 0.10542,0.341064 0.10542,0.101286 0.28939,0.101286 0.13436,0 0.25838,-0.07235 0.12402,-0.07441 0.21084,-0.204638 z"
           style="font-style:italic;font-weight:bold;-inkscape-font-specification:'sans-serif Bold Italic'"
           id="path917" />
        <path
           d="m 184.22248,88.275292 h 0.57464 l -0.11162,0.489893 h -0.54984 l -0.42374,1.831411 h -0.74828 l 0.42375,-1.831411 h -0.31833 l 0.11162,-0.489893 h 0.31833 l 0.0145,-0.05994 q 0.0951,-0.419613 0.34726,-0.636653 0.25219,-0.219108 0.74621,-0.219108 0.1819,0 0.31626,0.0124 0.13436,0.01033 0.23151,0.02894 l -0.12196,0.525032 h -0.0558 q -0.0475,-0.01654 -0.13642,-0.03307 -0.0868,-0.0186 -0.16123,-0.0186 -0.20671,0 -0.30179,0.08061 -0.093,0.08062 -0.1509,0.303857 z"
           style="font-style:italic;font-weight:bold;-inkscape-font-specification:'sans-serif Bold Italic'"
           id="path919" />
        <path
           d="m 185.58673,90.642071 q -0.38653,0 -0.5519,-0.12609 -0.16536,-0.128158 -0.16536,-0.378272 0,-0.06615 0.0103,-0.128157 0.0103,-0.06201 0.0269,-0.144694 l 0.25218,-1.099673 h -0.30592 l 0.11369,-0.489893 h 0.30592 l 0.15296,-0.663524 h 0.74621 l -0.15296,0.663524 h 0.69866 l -0.11368,0.489893 h -0.69867 l -0.19223,0.837157 q -0.0207,0.08682 -0.0393,0.1757 -0.0186,0.08682 -0.0186,0.148828 0,0.124023 0.0682,0.173632 0.0703,0.04754 0.21497,0.04754 0.0579,0 0.1509,-0.02067 0.0951,-0.02274 0.15089,-0.04961 h 0.062 l -0.11576,0.49816 q -0.12609,0.03101 -0.26665,0.04754 -0.13849,0.0186 -0.3328,0.0186 z"
           style="font-style:italic;font-weight:bold;-inkscape-font-specification:'sans-serif Bold Italic'"
           id="path921" />
        <path
           d="m 191.17192,88.370377 q 0,0.549837 -0.45682,0.886767 -0.45475,0.33693 -1.2733,0.33693 h -0.30179 l -0.23152,1.002522 h -0.79788 l 0.71107,-3.077846 h 1.10587 q 0.30179,0 0.52504,0.04134 0.2253,0.04134 0.3886,0.142627 0.16123,0.101286 0.24598,0.264583 0.0848,0.16123 0.0848,0.403076 z m -0.84749,0.07648 q 0,-0.179834 -0.13023,-0.26665 -0.13022,-0.08682 -0.38654,-0.08682 h -0.32039 l -0.21291,0.921907 h 0.28526 q 0.36173,0 0.56224,-0.146761 0.20257,-0.148828 0.20257,-0.421679 z"
           style="font-style:italic;font-weight:bold;-inkscape-font-specification:'sans-serif Bold Italic'"
           id="path923" />
        <path
           d="m 194.02446,88.275292 -1.43247,2.321304 h -0.8475 l -0.3514,-2.321304 h 0.76688 l 0.1695,1.597834 0.89504,-1.597834 z"
           style="font-style:italic;font-weight:bold;-inkscape-font-specification:'sans-serif Bold Italic'"
           id="path925" />
        <path
           d="m 194.812,90.642071 q -0.38654,0 -0.5519,-0.12609 -0.16536,-0.128158 -0.16536,-0.378272 0,-0.06615 0.0103,-0.128157 0.0103,-0.06201 0.0269,-0.144694 l 0.25218,-1.099673 h -0.30592 l 0.11369,-0.489893 h 0.30592 l 0.15296,-0.663524 h 0.74621 l -0.15296,0.663524 h 0.69866 l -0.11368,0.489893 h -0.69867 l -0.19224,0.837157 q -0.0207,0.08682 -0.0393,0.1757 -0.0186,0.08682 -0.0186,0.148828 0,0.124023 0.0682,0.173632 0.0703,0.04754 0.21497,0.04754 0.0579,0 0.1509,-0.02067 0.0951,-0.02274 0.15089,-0.04961 h 0.062 l -0.11576,0.49816 q -0.12609,0.03101 -0.26665,0.04754 -0.13849,0.0186 -0.3328,0.0186 z"
           style="font-style:italic;font-weight:bold;-inkscape-font-specification:'sans-serif Bold Italic'"
           id="path927" />
        <path
           d="m 196.65375,90.596596 h -0.77721 l 0.18603,-0.812353 h 0.77721 z"
           style="font-style:italic;font-weight:bold;-inkscape-font-specification:'sans-serif Bold Italic'"
           id="path929" />
        <path
           d="m 201.08759,90.596596 h -2.22209 l 0.71107,-3.077846 h 0.79788 l -0.57257,2.482534 h 1.4242 z"
           style="font-style:italic;font-weight:bold;-inkscape-font-specification:'sans-serif Bold Italic'"
           id="path931" />
        <path
           d="m 202.41463,90.642071 q -0.38654,0 -0.5519,-0.12609 -0.16537,-0.128158 -0.16537,-0.378272 0,-0.06615 0.0103,-0.128157 0.0103,-0.06201 0.0269,-0.144694 l 0.25218,-1.099673 h -0.30592 l 0.11368,-0.489893 h 0.30593 l 0.15296,-0.663524 h 0.74621 l -0.15296,0.663524 h 0.69866 l -0.11369,0.489893 h -0.69866 l -0.19224,0.837157 q -0.0207,0.08682 -0.0393,0.1757 -0.0186,0.08682 -0.0186,0.148828 0,0.124023 0.0682,0.173632 0.0703,0.04754 0.21497,0.04754 0.0579,0 0.1509,-0.02067 0.0951,-0.02274 0.15089,-0.04961 h 0.062 l -0.11575,0.49816 q -0.12609,0.03101 -0.26665,0.04754 -0.1385,0.0186 -0.3328,0.0186 z"
           style="font-style:italic;font-weight:bold;-inkscape-font-specification:'sans-serif Bold Italic'"
           id="path933" />
        <path
           d="m 206.45779,87.380257 -0.74414,3.216339 h -0.74827 l 0.0558,-0.241846 q -0.10749,0.06821 -0.19017,0.124024 -0.0806,0.05374 -0.17983,0.09922 -0.093,0.04134 -0.18397,0.06201 -0.0889,0.02067 -0.21497,0.02067 -0.33693,0 -0.53951,-0.219107 -0.2005,-0.219108 -0.2005,-0.622184 0,-0.330729 0.10542,-0.620117 0.10749,-0.291455 0.29352,-0.514697 0.1819,-0.21704 0.42995,-0.345198 0.24805,-0.128157 0.51883,-0.128157 0.19017,0 0.33073,0.03927 0.14056,0.03721 0.28939,0.117822 l 0.22944,-0.988053 z m -1.08107,1.436604 q -0.0599,-0.02894 -0.15709,-0.05168 -0.0971,-0.02481 -0.17157,-0.02481 -0.17776,0 -0.32039,0.07855 -0.14263,0.07855 -0.24185,0.214974 -0.0889,0.121956 -0.14056,0.312125 -0.0517,0.188102 -0.0517,0.363802 0,0.208773 0.0971,0.303857 0.0971,0.09508 0.29559,0.09508 0.10128,0 0.2129,-0.04548 0.11369,-0.04547 0.21498,-0.107486 z"
           style="font-style:italic;font-weight:bold;-inkscape-font-specification:'sans-serif Bold Italic'"
           id="path935" />
        <path
           d="m 207.2164,90.596596 h -0.77721 l 0.18603,-0.812353 h 0.77722 z"
           style="font-style:italic;font-weight:bold;-inkscape-font-specification:'sans-serif Bold Italic'"
           id="path937" />
      </g>
      <rect
         style="opacity:0.999;fill:none;stroke:#666666;stroke-width:0.264583;stroke-linejoin:round;stroke-miterlimit:2;stroke-dasharray:none;stroke-opacity:1;paint-order:markers fill stroke"
         id="rect1122"
         width="210.48032"
         height="91.417816"
         x="-1.8037009"
         y="0.19629911" />
      <path
         style="opacity:0.999;fill:none;stroke:#666666;stroke-width:0.528602;stroke-linejoin:round;stroke-miterlimit:2;stroke-dasharray:none;stroke-opacity:1;paint-order:markers fill stroke"
         d="M -1.4708333,91.810699 H 208.8732 V 0.52916667"
         id="path1549" />
    </g>
  </g>
</svg>
