<?xml version="1.0" encoding="UTF-8" standalone="no"?>
<!-- Created with Inkscape (http://www.inkscape.org/) -->

<svg
   width="83.954369mm"
   height="92.047012mm"
   viewBox="0 0 83.954369 92.047012"
   version="1.1"
   id="svg5"
   inkscape:version="1.1 (c68e22c387, 2021-05-23)"
   sodipodi:docname="FUNCTION.svg"
   xmlns:inkscape="http://www.inkscape.org/namespaces/inkscape"
   xmlns:sodipodi="http://sodipodi.sourceforge.net/DTD/sodipodi-0.dtd"
   xmlns:xlink="http://www.w3.org/1999/xlink"
   xmlns="http://www.w3.org/2000/svg"
   xmlns:svg="http://www.w3.org/2000/svg">
  <sodipodi:namedview
     id="namedview7"
     pagecolor="#ffffff"
     bordercolor="#666666"
     borderopacity="1.0"
     inkscape:pageshadow="2"
     inkscape:pageopacity="0.0"
     inkscape:pagecheckerboard="0"
     inkscape:document-units="mm"
     showgrid="false"
     inkscape:zoom="0.65388608"
     inkscape:cx="396.85812"
     inkscape:cy="315.80425"
     inkscape:window-width="1440"
     inkscape:window-height="837"
     inkscape:window-x="-8"
     inkscape:window-y="-8"
     inkscape:window-maximized="1"
     inkscape:current-layer="text4976" />
  <defs
     id="defs2">
    <linearGradient
       inkscape:collect="always"
       id="linearGradient21611">
      <stop
         style="stop-color:#ddfbfb;stop-opacity:1;"
         offset="0"
         id="stop21607" />
      <stop
         style="stop-color:#ddfbfb;stop-opacity:0;"
         offset="1"
         id="stop21609" />
    </linearGradient>
    <linearGradient
       inkscape:collect="always"
       xlink:href="#linearGradient21611"
       id="linearGradient21613"
       x1="6.1740394"
       y1="53.411442"
       x2="90.12841"
       y2="53.411442"
       gradientUnits="userSpaceOnUse"
       gradientTransform="translate(-6.1740397,-7.387936)" />
  </defs>
  <g
     inkscape:label="Layer 1"
     inkscape:groupmode="layer"
     id="layer1">
    <rect
       style="mix-blend-mode:normal;fill:url(#linearGradient21613);fill-opacity:1;stroke:#4d979e;stroke-width:6.265;stroke-linecap:round;stroke-linejoin:round;stroke-miterlimit:4;stroke-dasharray:none;stroke-opacity:1"
       id="rect952"
       width="77.689369"
       height="85.782013"
       x="3.1324999"
       y="3.1324999" />
    <text
       xml:space="preserve"
       style="font-style:normal;font-weight:normal;font-size:10.5833px;line-height:1.25;font-family:sans-serif;fill:#000000;fill-opacity:1;stroke:none;stroke-width:0.264583"
       x="65.550407"
       y="112.08311"
       id="text39301"><tspan
         sodipodi:role="line"
         id="tspan39299"
         style="stroke-width:0.264583"
         x="65.550407"
         y="112.08311" /></text>
    <g
       aria-label="Fn"
       transform="scale(0.89628947,1.115711)"
       id="text4976"
       style="font-size:72.371px;line-height:1.25;stroke-width:0.376932">
      <path
         d="m 25.756358,17.996032 v 18.834836 h 10.69229 q 3.679532,0 5.367789,-1.307484 1.731545,-1.342821 2.294296,-5.265273 h 1.60168 v 16.219868 h -1.60168 q -0.04329,-2.791655 -0.90906,-4.099139 -0.822484,-1.307484 -2.337586,-1.943557 -1.471813,-0.671411 -4.415439,-0.671411 h -10.69229 v 15.053734 q 0,3.639753 0.562753,4.805887 0.432886,0.883435 1.818121,1.519508 1.904699,0.848098 3.982554,0.848098 h 2.121142 v 1.307484 H 9.0469498 v -1.307484 h 2.0778542 q 3.636244,0 5.281211,-1.731533 1.038928,-1.130797 1.038928,-5.44196 V 23.862041 q 0,-3.639753 -0.562752,-4.805887 -0.432886,-0.883435 -1.774834,-1.519508 -1.86141,-0.848098 -3.982553,-0.848098 H 9.0469498 V 15.381064 H 52.72517 L 53.287922,25.91161 H 51.77282 Q 50.647316,22.554557 49.132214,20.999711 47.6604,19.409528 45.452681,18.70278 43.28825,17.996032 38.699656,17.996032 Z"
         style="font-family:'Times New Roman';-inkscape-font-specification:'Times New Roman, ';fill:#35a7ac;fill-opacity:1;stroke:none;stroke-width:0.417189"
         id="path17497" />
      <path
         d="m 59.099138,40.883195 q 6.284402,-5.960133 11.983328,-5.960133 2.927501,0 5.035311,1.167449 2.10782,1.136727 3.356892,3.778846 0.858738,1.843341 0.858738,5.65291 V 57.5347 q 0,2.672843 0.546464,3.625233 0.429373,0.768059 1.36618,1.198172 0.975836,0.430114 3.552059,0.430114 v 1.106005 H 68.115891 v -1.106005 h 0.741648 q 2.498136,0 3.473982,-0.583725 1.014875,-0.614446 1.405219,-1.781896 0.156128,-0.460834 0.156128,-2.887898 V 46.013824 q 0,-3.840292 -1.28812,-5.560742 -1.249073,-1.751174 -4.254651,-1.751174 -4.645003,0 -9.250959,3.993905 V 57.5347 q 0,2.857176 0.429364,3.533067 0.546481,0.890949 1.48327,1.321061 0.975846,0.399391 3.903382,0.399391 v 1.106005 H 47.232926 v -1.106005 h 0.780669 q 2.732352,0 3.669158,-1.075283 0.975846,-1.106003 0.975846,-4.178236 V 47.089105 q 0,-5.069185 -0.312275,-6.175189 -0.273227,-1.106003 -0.897768,-1.505393 -0.585502,-0.399391 -1.600386,-0.399391 -1.092927,0 -2.615244,0.460836 l -0.585502,-1.106004 10.773277,-3.440902 h 1.678437 z"
         style="font-family:'Times New Roman';-inkscape-font-specification:'Times New Roman, ';fill:#ff5555;fill-opacity:1;stroke:none;stroke-width:0.369383"
         id="path17499" />
    </g>
  </g>
</svg>
