<?xml version="1.0" encoding="UTF-8" standalone="no"?>
<!-- Created with Inkscape (http://www.inkscape.org/) -->

<svg
   width="83.954369mm"
   height="92.047012mm"
   viewBox="0 0 83.954369 92.047012"
   version="1.1"
   id="svg5"
   inkscape:version="1.1 (c68e22c387, 2021-05-23)"
   sodipodi:docname="FUNCTION.svg"
   xmlns:inkscape="http://www.inkscape.org/namespaces/inkscape"
   xmlns:sodipodi="http://sodipodi.sourceforge.net/DTD/sodipodi-0.dtd"
   xmlns:xlink="http://www.w3.org/1999/xlink"
   xmlns="http://www.w3.org/2000/svg"
   xmlns:svg="http://www.w3.org/2000/svg">
  <sodipodi:namedview
     id="namedview7"
     pagecolor="#ffffff"
     bordercolor="#666666"
     borderopacity="1.0"
     inkscape:pageshadow="2"
     inkscape:pageopacity="0.0"
     inkscape:pagecheckerboard="0"
     inkscape:document-units="mm"
     showgrid="false"
     inkscape:zoom="0.65388608"
     inkscape:cx="396.85812"
     inkscape:cy="315.80425"
     inkscape:window-width="1440"
     inkscape:window-height="837"
     inkscape:window-x="-8"
     inkscape:window-y="-8"
     inkscape:window-maximized="1"
     inkscape:current-layer="text4976" />
  <defs
     id="defs2">
    <linearGradient
       inkscape:collect="always"
       id="linearGradient21611">
      <stop
         style="stop-color:#ddfbfb;stop-opacity:1;"
         offset="0"
         id="stop21607" />
      <stop
         style="stop-color:#ddfbfb;stop-opacity:0;"
         offset="1"
         id="stop21609" />
    </linearGradient>
    <linearGradient
       inkscape:collect="always"
       xlink:href="#linearGradient21611"
       id="linearGradient21613"
       x1="6.1740394"
       y1="53.411442"
       x2="90.12841"
       y2="53.411442"
       gradientUnits="userSpaceOnUse"
       gradientTransform="translate(-6.1740397,-7.387936)" />
  </defs>
  <g
     inkscape:label="Layer 1"
     inkscape:groupmode="layer"
     id="layer1">
    <rect
       style="mix-blend-mode:normal;fill:url(#linearGradient21613);fill-opacity:1;stroke:#4d979e;stroke-width:6.265;stroke-linecap:round;stroke-linejoin:round;stroke-miterlimit:4;stroke-dasharray:none;stroke-opacity:1"
       id="rect952"
       width="77.689369"
       height="85.782013"
       x="3.1324999"
       y="3.1324999" />
    <text
       xml:space="preserve"
       style="font-style:normal;font-weight:normal;font-size:10.5833px;line-height:1.25;font-family:sans-serif;fill:#000000;fill-opacity:1;stroke:none;stroke-width:0.264583"
       x="65.550407"
       y="112.08311"
       id="text39301"><tspan
         sodipodi:role="line"
         id="tspan39299"
         style="stroke-width:0.264583"
         x="65.550407"
         y="112.08311" /></text>
    <g
       aria-label="Fn"
       transform="scale(0.89628947,1.115711)"
       id="text4976"
       style="font-size:72.371px;line-height:1.25;stroke-width:0.376932">
      <g
         aria-label="F"
         transform="matrix(1.1418486,0,0,0.87577285,8.2655593,0)"
         id="text3061"
         style="font-size:81.5707px;font-family:Georgia;-inkscape-font-specification:'Georgia, Normal';stroke-width:0.111401">
        <path
           d="M 51.106793,32.161526 H 48.119585 Q 47.283166,29.015 44.614594,25.43035 41.98585,21.8457 39.556254,21.487235 q -1.234713,-0.159318 -2.947379,-0.238977 -1.672836,-0.07966 -3.823626,-0.07966 h -9.479408 v 22.702783 h 6.492199 q 2.947379,0 4.580386,-0.597441 1.633008,-0.637271 2.788062,-1.911814 0.796588,-0.876247 1.43386,-2.708402 0.6771,-1.871984 0.876247,-3.982944 h 3.027038 v 22.185 H 39.476595 Q 39.357107,55.103286 38.640177,52.872837 37.963076,50.642388 37.166488,49.646652 35.971604,48.172962 34.13945,47.65518 32.347125,47.097567 29.79804,47.097567 h -6.492199 v 19.476598 q 0,1.314372 0.517783,2.349938 0.517783,1.035565 1.832154,1.672836 0.597442,0.278806 2.588914,0.677101 1.991472,0.398294 3.027038,0.438124 v 2.82789 H 6.7766217 v -2.82789 q 1.1948833,-0.07966 3.1863555,-0.238977 1.9914718,-0.199147 2.5889138,-0.477953 1.194883,-0.517783 1.712666,-1.513519 0.557612,-1.035566 0.557612,-2.469426 v -40.78535 q 0,-1.314372 -0.438123,-2.310108 -0.438124,-1.035566 -1.832155,-1.672837 -1.075395,-0.517783 -2.9075493,-0.916077 -1.792325,-0.398294 -2.86772,-0.477953 V 18.022073 H 51.106793 Z"
           style="fill:#35a7ac"
           id="path23017" />
      </g>
      <g
         aria-label="n"
         transform="matrix(1.115711,0,0,0.89628946,-1.1807941,0)"
         id="text18185"
         style="font-size:53.975px;font-family:Georgia;-inkscape-font-specification:'Georgia, Normal';stroke-width:0.0997299">
        <path
           d="M 75.916922,72.833794 H 63.187467 v -1.739429 q 0.606164,-0.05271 1.317749,-0.10542 0.737939,-0.05271 1.212329,-0.21084 0.737939,-0.237195 1.080554,-0.817004 0.36897,-0.606165 0.36897,-1.554944 V 55.044182 q 0,-2.767273 -1.317749,-4.269506 -1.291394,-1.502234 -3.162598,-1.502234 -1.396814,0 -2.556433,0.448034 -1.159619,0.42168 -2.055688,1.0542 -0.869715,0.606164 -1.396814,1.317749 -0.500745,0.685229 -0.73794,1.106909 v 14.943273 q 0,0.89607 0.36897,1.475879 0.36897,0.57981 1.106909,0.896069 0.553455,0.26355 1.185974,0.395325 0.658875,0.131775 1.344104,0.184485 v 1.739429 H 47.216349 v -1.739429 q 0.606165,-0.05271 1.238684,-0.10542 0.658875,-0.05271 1.133264,-0.21084 0.73794,-0.237195 1.080554,-0.817004 0.36897,-0.606165 0.36897,-1.554944 V 52.355974 q 0,-0.896069 -0.395325,-1.634008 -0.368969,-0.764295 -1.054199,-1.238684 -0.500744,-0.31626 -1.185974,-0.448035 -0.685229,-0.15813 -1.475879,-0.21084 v -1.713074 l 8.644434,-0.579809 0.368969,0.36897 v 3.663342 h 0.131775 q 0.63252,-0.63252 1.581299,-1.502234 0.948779,-0.896069 1.792139,-1.449524 0.975134,-0.632519 2.319238,-1.054199 1.344104,-0.42168 3.030822,-0.42168 3.742408,0 5.534546,2.345593 1.818494,2.319239 1.818494,6.193421 v 13.520104 q 0,0.922424 0.31626,1.502234 0.316259,0.553455 1.080554,0.869714 0.632519,0.26355 1.080554,0.36897 0.47439,0.10542 1.291394,0.15813 z"
           style="fill:#ff5555"
           id="path23038" />
      </g>
    </g>
  </g>
</svg>
